<?xml version="1.0" encoding="UTF-8" standalone="no"?>
<svg
   version="1.0"
   width="2048.000000pt"
   height="2048.000000pt"
   viewBox="0 0 2048.000000 2048.000000"
   preserveAspectRatio="xMidYMid meet"
   id="svg8"
   sodipodi:docname="newOggyPchess.svg"
   inkscape:version="1.1.1 (3bf5ae0d25, 2021-09-20, custom)"
   xmlns:inkscape="http://www.inkscape.org/namespaces/inkscape"
   xmlns:sodipodi="http://sodipodi.sourceforge.net/DTD/sodipodi-0.dtd"
   xmlns="http://www.w3.org/2000/svg"
   xmlns:svg="http://www.w3.org/2000/svg">
  <defs
     id="defs12" />
  <sodipodi:namedview
     id="namedview10"
     pagecolor="#ffffff"
     bordercolor="#666666"
     borderopacity="1.0"
     inkscape:pageshadow="2"
     inkscape:pageopacity="0.0"
     inkscape:pagecheckerboard="0"
     inkscape:document-units="pt"
     showgrid="false"
     inkscape:zoom="0.25"
     inkscape:cx="744"
     inkscape:cy="1254"
     inkscape:window-width="1920"
     inkscape:window-height="1007"
     inkscape:window-x="0"
     inkscape:window-y="0"
     inkscape:window-maximized="1"
     inkscape:current-layer="layer3" />
  <metadata
     id="metadata2">
Created by potrace 1.14, written by Peter Selinger 2001-2017
</metadata>
  <g
     id="g61" />
  <g
     inkscape:groupmode="layer"
     id="layer1"
     inkscape:label="Back"
     style="display:inline">
    <circle
       style="fill:#ffffff;fill-rule:evenodd;stroke-width:0.75"
       id="path36"
       cx="1025.827"
       cy="1024.5519"
       r="954.35468" />
  </g>
  <g
     inkscape:groupmode="layer"
     id="layer2"
     inkscape:label="front"
     style="display:none;opacity:0.256208"
     sodipodi:insensitive="true">
    <g
       transform="matrix(0.1,0,0,-0.1,8.4280215,2050.5503)"
       fill="#000000"
       stroke="none"
       id="g6">
      <path
         d="M 9660,20469 C 8269,20384 6949,20036 5715,19429 4370,18768 3184,17816 2246,16645 1065,15172 311,13389 76,11515 19,11064 0,10737 0,10235 0,9733 19,9406 76,8955 311,7081 1065,5298 2246,3825 2863,3054 3609,2359 4415,1803 5772,867 7335,271 8965,66 9441,6 9469,5 10245,5 c 776,0 804,1 1280,61 1630,205 3193,801 4550,1737 806,556 1552,1251 2169,2022 1181,1473 1935,3256 2170,5130 60,476 61,504 61,1280 0,776 -1,804 -61,1280 -235,1874 -989,3657 -2170,5130 -617,771 -1363,1466 -2169,2022 -1561,1077 -3350,1688 -5272,1803 -199,12 -944,11 -1143,-1 z m 1054,-2284 c 35,-18 79,-53 110,-86 88,-98 86,-77 86,-797 v -621 l 645,-3 c 499,-2 647,-6 657,-15 6,-7 22,-13 34,-13 31,0 137,-105 168,-167 l 26,-52 v -434 c 0,-415 -1,-435 -20,-473 -47,-90 -94,-137 -184,-184 -39,-19 -58,-20 -683,-20 h -643 v -628 c 0,-738 4,-705 -102,-811 -34,-34 -67,-61 -73,-61 -7,0 -27,-8 -46,-17 -31,-16 -74,-18 -464,-18 h -430 l -56,28 c -68,34 -128,94 -166,167 l -28,55 -3,643 -2,642 h -641 -640 l -52,26 c -62,31 -167,137 -167,168 0,12 -6,28 -12,34 -10,10 -14,113 -16,428 -3,403 -2,417 19,479 30,90 114,174 203,204 61,21 77,21 684,21 h 621 l 3,643 3,642 30,55 c 34,62 93,126 145,154 82,45 85,46 520,43 l 415,-2 z M 6535,13871 c 135,-9 321,-38 460,-72 44,-10 100,-24 125,-30 77,-18 242,-70 317,-100 40,-16 77,-29 82,-29 10,0 106,-42 196,-86 28,-13 54,-24 59,-24 5,0 31,-13 58,-30 26,-16 53,-30 59,-30 6,0 31,-13 56,-30 24,-16 50,-30 58,-30 8,0 17,-4 20,-10 3,-5 38,-29 78,-52 98,-58 97,-57 167,-108 34,-25 71,-50 82,-56 11,-6 31,-23 46,-36 15,-14 55,-46 89,-71 140,-107 378,-344 514,-512 35,-44 67,-81 71,-83 5,-2 8,-9 8,-15 0,-6 12,-23 26,-38 15,-15 32,-36 38,-47 6,-10 29,-45 51,-77 58,-83 115,-176 115,-185 0,-4 9,-18 19,-32 11,-13 53,-91 94,-173 107,-212 117,-233 117,-245 0,-6 10,-32 22,-58 28,-62 88,-228 97,-272 5,-19 18,-64 30,-100 11,-36 25,-87 31,-115 5,-27 21,-99 35,-160 13,-60 25,-129 25,-152 0,-79 -41,-73 466,-73 h 454 l 4,23 c 3,12 17,85 31,162 28,149 70,312 111,435 14,41 29,89 33,105 4,17 18,52 29,79 12,27 22,53 22,59 0,5 14,39 30,74 17,34 30,68 30,74 0,7 14,34 30,61 17,26 30,53 30,60 0,6 13,33 30,60 16,26 30,54 30,60 0,6 6,19 14,27 8,9 26,39 41,66 36,69 59,109 65,115 12,12 50,70 50,76 0,3 11,20 26,38 14,17 42,56 64,86 21,30 48,66 59,80 66,80 81,98 81,102 0,9 117,136 230,249 122,122 312,289 329,289 5,0 14,6 18,14 4,7 33,31 63,52 30,21 57,42 58,46 2,5 9,8 15,8 7,0 26,12 42,26 17,14 46,35 65,45 40,22 61,34 111,67 68,43 368,195 409,207 14,4 34,13 45,20 11,6 56,25 100,40 44,16 91,34 105,42 14,7 31,13 39,13 7,0 54,13 105,30 106,34 313,87 371,94 22,2 94,15 160,27 111,21 148,22 520,22 372,0 409,-1 520,-22 66,-12 138,-25 160,-27 58,-7 266,-60 370,-95 50,-16 97,-29 105,-29 8,0 26,-6 40,-13 14,-8 61,-26 105,-41 44,-16 85,-32 91,-37 6,-5 30,-16 54,-24 63,-22 342,-164 409,-208 79,-52 121,-77 128,-77 5,0 24,-14 43,-30 19,-16 39,-30 43,-30 5,0 14,-6 22,-12 28,-27 56,-48 63,-48 5,0 21,-13 37,-30 16,-16 34,-30 41,-30 7,0 17,-6 21,-13 4,-6 42,-39 83,-72 106,-85 332,-312 427,-430 45,-55 90,-109 100,-120 10,-10 25,-29 33,-41 8,-12 33,-48 55,-80 22,-32 47,-67 55,-79 8,-12 24,-35 34,-51 10,-16 34,-52 52,-80 19,-28 34,-54 34,-58 0,-5 14,-28 30,-53 17,-24 30,-48 30,-54 0,-5 11,-27 25,-49 14,-22 25,-45 25,-51 0,-7 14,-34 30,-61 17,-26 30,-54 30,-61 0,-6 13,-39 29,-72 37,-77 103,-253 136,-365 36,-119 59,-209 66,-250 4,-25 19,-103 33,-175 14,-71 31,-175 37,-230 18,-153 23,-554 9,-692 -6,-65 -16,-161 -21,-213 -4,-52 -18,-133 -29,-180 -12,-47 -25,-109 -30,-139 -15,-85 -89,-333 -142,-471 -76,-195 -255,-556 -304,-611 -8,-8 -14,-18 -14,-22 0,-11 -88,-143 -104,-156 -9,-8 -16,-17 -16,-22 0,-5 -21,-36 -47,-70 -27,-33 -58,-76 -70,-94 -12,-18 -29,-35 -37,-38 -9,-4 -16,-12 -16,-20 0,-7 -10,-23 -22,-34 -13,-11 -50,-51 -83,-88 -125,-138 -379,-375 -404,-375 -6,0 -11,-4 -11,-8 0,-5 -27,-28 -60,-52 -33,-24 -60,-47 -60,-52 0,-4 -6,-8 -13,-8 -8,0 -25,-9 -38,-21 -13,-12 -49,-38 -79,-58 l -55,-36 H 10245 4244 l -29,23 c -69,53 -126,92 -133,92 -5,0 -21,13 -37,30 -16,17 -34,30 -41,30 -7,0 -14,4 -16,8 -1,5 -25,26 -53,48 -137,108 -178,147 -440,414 -14,14 -25,30 -25,37 0,6 -6,13 -14,16 -8,3 -42,43 -77,89 -35,46 -67,86 -72,89 -5,4 -14,16 -20,27 -7,11 -33,50 -59,87 -27,36 -48,68 -48,71 0,3 -13,24 -28,47 -76,113 -92,138 -92,147 0,5 -13,29 -30,53 -16,25 -30,50 -30,56 0,6 -11,29 -25,51 -14,22 -25,43 -25,47 0,5 -13,35 -29,68 -45,91 -91,195 -91,206 0,5 -13,42 -29,82 -44,111 -87,257 -131,442 -30,127 -63,343 -71,458 -11,170 -11,507 0,668 10,140 50,378 87,515 13,49 24,98 24,109 0,10 13,55 29,99 16,45 32,94 36,111 4,16 17,54 31,83 13,29 24,58 24,66 0,7 14,40 30,74 17,34 30,65 30,69 0,20 196,393 218,415 6,6 12,17 12,23 0,7 8,21 18,33 9,11 31,42 47,68 64,102 146,214 156,214 5,0 9,6 9,13 0,7 13,26 30,42 16,16 30,34 30,40 0,6 14,21 30,33 17,13 30,28 30,34 0,14 354,368 368,368 6,0 19,11 28,25 9,14 22,25 28,25 7,0 25,14 41,30 16,17 34,30 41,30 7,0 14,4 16,9 4,12 136,111 147,111 5,0 15,7 22,16 7,9 38,30 67,48 30,17 66,39 80,48 25,16 50,31 114,68 49,27 314,160 321,160 4,0 35,14 69,30 34,17 67,30 74,30 8,0 37,11 66,24 29,14 67,27 83,31 17,4 66,19 110,35 44,15 103,32 130,37 28,6 88,20 135,32 133,32 324,63 445,71 158,10 528,11 680,1 z M 16110,5575 V 4940 H 10225 4340 v 635 635 h 5885 5885 z"
         id="path4" />
    </g>
  </g>
  <g
     inkscape:groupmode="layer"
     id="layer3"
     inkscape:label="New"
     style="display:inline;opacity:1">
    <ellipse
       style="fill:#000000;stroke-width:0.75"
       id="path132"
       cy="1023.9998"
       cx="1024"
       rx="1024"
       ry="1023.9998" />
    <path
       style="fill:#ffffff;stroke:#000000;stroke-width:0.75px;stroke-linecap:butt;stroke-linejoin:miter;stroke-opacity:1"
       d="m 962.328,382.5503 0.6,-128.5 c 0,0 -2.99333,-24.84495 32.50935,-25.87904 35.50265,-1.03408 78.49065,0.87904 78.49065,0.87904 0,0 25.1832,-2.648 25.7319,27.2602 0.5487,29.9082 -0.2319,126.1398 -0.2319,126.1398 l 130.2,1.8 c 0,0 22.3458,-2.82942 22.8,23.2 0.4542,26.02942 -0.09,89.55651 -0.09,89.55651 0,0 -2.6467,20.16022 -22.7439,21.0871 -20.0971,0.92688 -130.1661,0.45639 -130.1661,0.45639 l -0.6679,128.45561 c 0,0 -5.0013,24.0322 -27.271,24.92862 -22.2697,0.89642 -83.56105,0.11577 -83.56105,0.11577 0,0 -25.06043,0.73659 -25.00005,-25 0.0607,-25.7366 -0.49995,-128.5 -0.49995,-128.5 h -128.1 c 0,0 -22.05375,0.69807 -23.72422,-23.60892 -1.67055,-24.307 -0.82605,-87.29996 -0.82605,-87.29996 0,0 -2.79736,-24.47554 28.07204,-24.86699 30.86941,-0.39145 124.47818,-0.22413 124.47818,-0.22413 z"
       id="path390" />
    <path
       style="fill:#ffffff;stroke:#000000;stroke-width:0.75px;stroke-linecap:butt;stroke-linejoin:miter;stroke-opacity:1"
       d="m 1078.428,976.55032 -91.04235,-1.13895 c 0,0 -40.5876,-314.45688 -361.59521,-311.78046 -321.00762,2.67643 -360.66119,322.32216 -356.931,375.19069 3.73017,52.8687 6.39357,176.1938 163.96858,290.2287 157.57501,114.0348 0,0 0,0 H 1632.9281 c 0,0 195.2885,-141.6669 168.3069,-338.07342 C 1774.2536,794.5704 1614.2391,664.94773 1467.1027,661.708 1319.9663,658.46827 1132.0798,715.66872 1078.428,976.55032 Z"
       id="path425" />
    <rect
       style="fill:#ffffff;stroke-width:0.75"
       id="rect482"
       width="1177"
       height="127.00001"
       x="442.42804"
       y="1429.5503" />
  </g>
</svg>
