<svg xmlns="http://www.w3.org/2000/svg" viewBox="0 0 750 750"><defs><style>.cls-1{fill:#f9e4b7;}.cls-11,.cls-12,.cls-2,.cls-6,.cls-7{stroke:#000;stroke-miterlimit:10;}.cls-3{fill:#e6cb9e;}.cls-4{fill:#f2db7b;}.cls-5{fill:#fee165;}.cls-11,.cls-12,.cls-6{fill:none;}.cls-7{fill:#fff;}.cls-8{fill:#cbb82d;}.cls-9{fill:#482a17;}.cls-10{fill:#3a1c13;}.cls-11{stroke-width:2px;}.cls-12{stroke-width:7px;}</style></defs><g id="Piece_colouring" data-name="Piece colouring"><path class="cls-1" d="M596.3999,647.6H181.2c-20.3999-108,62.40015-118.29,62.40015-118.29,1.04-.1,2.06982-.19,3.10986-.29,88.22-8.06995,173.52-6.31,227.41016-3.65,35.58984,1.78,57.48,3.94,57.48,3.94.27978.06.5498.12.82983.19C619.06006,548.46,596.3999,647.6,596.3999,647.6Z"/><path class="cls-2" d="M372.8501,359.5a90.89956,90.89956,0,0,1-32.05,14.9c-34.19995,8.8-127.55,75.35-127.55,75.35l-23.68994-56.11S265.92993,363.01,372.8501,359.5Z"/><path class="cls-2" d="M585.08008,393.64,567.10986,440c-2.71-5.86-9.61987-12.45-19.23974-19.35v-.01c-29.55005-21.19-84.66016-45.33-122.04-60.53C475.79,362.93,530.10986,372.55,585.08008,393.64Z"/><path class="cls-3" d="M567.10986,440l-34.67993,89.5c-.28-.07-.55005-.13-.82983-.19,0,0-21.89014-2.16-57.48-3.94,41.77-26.66,65.72-82.9,73.75-104.72C557.49,427.55,564.3999,434.14,567.10986,440Z"/><path class="cls-1" d="M547.87012,420.64v.01c-8.03,21.82-31.98,78.06-73.75,104.72C420.23,522.71,334.92993,520.95,246.71,529.02l-33.46-79.27s93.3501-66.55,127.55005-75.35a90.89956,90.89956,0,0,0,32.05005-14.9c16.95-.56,34.65991-.44,52.97.6l.01.01C463.21,375.31,518.32007,399.45,547.87012,420.64Z"/><path class="cls-4" d="M618.67993,305.32l.52.28-34.11987,88.04,20.79-104.04C688.21,257.72,619.27,187.14,619.27,187.14a59.40245,59.40245,0,0,1-.59009,118.18Z"/><path class="cls-5" d="M605.87012,289.6,589.02,373.91l-3.93994,19.73c-54.97022-21.09-109.29-30.71-159.25-33.53l-.01-.01c-18.31006-1.04-36.02-1.16-52.97-.6-106.92017,3.51-183.29,34.14-183.29,34.14l-8.12012-19.24-29.04-68.8.98-.51A59.40094,59.40094,0,1,1,211.71,277.43l63.09009,67.54V186.04a59.411,59.411,0,1,1,63.98-5.24h.82007L385,310.4l51.73-129.42a59.39237,59.39237,0,1,1,60.32007,6.75l5.75,157.24,3.57007-4.05h.00976l56-63.48a59.39826,59.39826,0,0,1,50.52-90.64,58.28078,58.28078,0,0,1,6.37012.34S688.21,257.72,605.87012,289.6Z"/><line class="cls-6" x1="506.38" y1="340.92" x2="506.37" y2="340.92"/><line class="cls-6" x1="425.83" y1="360.11" x2="425.82" y2="360.1"/><ellipse class="cls-7" cx="302.72605" cy="455.58778" rx="30.59746" ry="38.4"/><circle class="cls-2" cx="302.72605" cy="458.38936" r="14.5625"/><ellipse class="cls-7" cx="470.18254" cy="455.58778" rx="30.59746" ry="38.4"/><circle class="cls-2" cx="470.18254" cy="458.38936" r="14.5625"/><line class="cls-6" x1="547.87" y1="420.65" x2="547.87" y2="420.64"/><path class="cls-6" d="M384.53333,443.82686s2.72012,38.30647-3.97327,42.57314-48.03145,16.86471,4.52009,27.2"/><path class="cls-8" d="M589.02,373.91l-3.93994,19.73c-54.97022-21.09-109.29-30.71-159.25-33.53l-.01-.01c-18.31006-1.04-36.02-1.16-52.97-.6-106.92017,3.51-183.29,34.14-183.29,34.14l-8.12012-19.24S376.2,303.53,589.02,373.91Z"/><path class="cls-9" d="M474.12,525.37c35.59,1.78,57.48,3.94,57.48,3.94.28.06.55.12.83.19,86.63,18.96,63.97,118.1,63.97,118.1H181.2c-20.4-108,62.4-118.29,62.4-118.29,1.04-.1,2.07-.19,3.11-.29Z"/><path class="cls-2" d="M372.8501,359.5a90.89956,90.89956,0,0,1-32.05,14.9c-34.19995,8.8-127.55,75.35-127.55,75.35l-23.68994-56.11S265.92993,363.01,372.8501,359.5Z"/><path class="cls-2" d="M585.08008,393.64,567.10986,440c-2.71-5.86-9.61987-12.45-19.23974-19.35v-.01c-29.55005-21.19-84.66016-45.33-122.04-60.53C475.79,362.93,530.10986,372.55,585.08008,393.64Z"/><path class="cls-10" d="M567.10986,440l-34.67993,89.5c-.28-.07-.55005-.13-.82983-.19,0,0-21.89014-2.16-57.48-3.94,41.77-26.66,65.72-82.9,73.75-104.72C557.49,427.55,564.3999,434.14,567.10986,440Z"/><path class="cls-9" d="M474.12,525.37c41.77-26.66,65.72-82.9,73.75-104.72v-.01c-29.55-21.19-84.66-45.33-122.04-60.53l-.01-.01c-18.31-1.04-36.02-1.16-52.97-.6a90.89967,90.89967,0,0,1-32.05,14.9c-34.2,8.8-127.55,75.35-127.55,75.35l33.46,79.27Z"/><path class="cls-4" d="M618.67993,305.32l.52.28-34.11987,88.04,20.79-104.04C688.21,257.72,619.27,187.14,619.27,187.14a59.40245,59.40245,0,0,1-.59009,118.18Z"/><path class="cls-5" d="M605.87012,289.6,589.02,373.91l-3.93994,19.73c-54.97022-21.09-109.29-30.71-159.25-33.53l-.01-.01c-18.31006-1.04-36.02-1.16-52.97-.6-106.92017,3.51-183.29,34.14-183.29,34.14l-8.12012-19.24-29.04-68.8.98-.51A59.40094,59.40094,0,1,1,211.71,277.43l63.09009,67.54V186.04a59.411,59.411,0,1,1,63.98-5.24h.82007L385,310.4l51.73-129.42a59.39237,59.39237,0,1,1,60.32007,6.75l5.75,157.24,3.57007-4.05h.00976l56-63.48a59.39826,59.39826,0,0,1,50.52-90.64,58.28078,58.28078,0,0,1,6.37012.34S688.21,257.72,605.87012,289.6Z"/><line class="cls-6" x1="506.38" y1="340.92" x2="506.37" y2="340.92"/><line class="cls-6" x1="425.83" y1="360.11" x2="425.82" y2="360.1"/><ellipse class="cls-7" cx="302.72605" cy="455.58778" rx="30.59746" ry="38.4"/><circle class="cls-2" cx="302.72605" cy="458.38936" r="14.5625"/><ellipse class="cls-7" cx="470.18254" cy="455.58778" rx="30.59746" ry="38.4"/><circle class="cls-2" cx="470.18254" cy="458.38936" r="14.5625"/><line class="cls-6" x1="547.87" y1="420.65" x2="547.87" y2="420.64"/><path class="cls-11" d="M384.53333,443.82686s2.72012,38.30647-3.97327,42.57314-48.03145,16.86471,4.52009,27.2"/><path class="cls-8" d="M589.02,373.91l-3.93994,19.73c-54.97022-21.09-109.29-30.71-159.25-33.53l-.01-.01c-18.31006-1.04-36.02-1.16-52.97-.6-106.92017,3.51-183.29,34.14-183.29,34.14l-8.12012-19.24S376.2,303.53,589.02,373.91Z"/></g><g id="Piece_outline" data-name="Piece outline"><path class="cls-12" d="M672.30005,246.2a59.40293,59.40293,0,0,0-53.03-59.06,58.28078,58.28078,0,0,0-6.37012-.34,59.39826,59.39826,0,0,0-50.52,90.64l-56,63.48H506.375l-.00488-.50006V340.92l-3.57007,4.05-5.75-157.24A59.41,59.41,0,1,0,436.73,180.98L385,310.4,339.6001,180.8H338.78a59.391,59.391,0,1,0-63.98,5.24V344.97L211.71,277.43a59.39973,59.39973,0,1,0-58.33008,27.66l-.98.51,29.04,68.8,7.92554,18.77924-.46314.186,24.12989,57.1543.417-.29755L246.71,529.02c-1.04.1-2.06982.19-3.10986.29,0,0-82.8,10.29-62.40015,118.29h415.2s22.66016-99.14-63.97-118.1l34.42847-88.85071.291.63,18.57813-47.92676-.4668-.17889L619.19995,305.6l-.52-.28A59.40736,59.40736,0,0,0,672.30005,246.2Z"/><line class="cls-12" x1="246.70996" y1="529.01996" x2="532.42993" y2="529.5"/><path class="cls-12" d="M189.36548,393.1792s204.356-76.43191,395.89526-.00555"/></g></svg>