<svg xmlns="http://www.w3.org/2000/svg" viewBox="0 0 750 750"><defs><style>.cls-1{fill:#482a17;}.cls-2{fill:#fff;}.cls-2,.cls-3,.cls-6{stroke:#000;stroke-miterlimit:10;}.cls-3,.cls-6{fill:none;}.cls-3{stroke-width:2px;}.cls-4{fill:#3a1c13;}.cls-5{fill:#232323;}.cls-6{stroke-width:7px;}</style></defs><g id="Piece_colouring" data-name="Piece colouring"><path class="cls-1" d="M529.2655,534.737a121.801,121.801,0,0,0-24.07007-5.43c-6-.77-12.23-1.46-18.6499-2.09-37.77-3.72-82.01-5.08-124.5-4.34-52.99.93005-103.25,5.14-134.81006,12.17,2.17993-14.47,14.61-68.07,82.36-117.34,23.45007-17.06,36.99011-32.59,44.44006-46,17.71-31.9.96-51.83.96-51.83s-1.25,1.38-3.51,3.73c-2.82007,2.9-7.21,7.29-12.78,12.37h-.01c-21.47,19.58-60.41992,49.43-93.8999,44.53,0,0-21.59,4.8-40.79,43.17005a.07709.07709,0,0,0-.01.03s-97.2,3-99.6-59.7c0,0,56.4-81.61,67.2-101.55,10.8-19.95,30-94.35,73.20007-118.35,0,0,4.79993-57.6,39.6-69.6l56.79992,55.06s15.4,1.32,37.95008,7.65C457.10547,159.077,620.57556,240.787,529.2655,534.737Z"/><circle class="cls-2" cx="253.47618" cy="242.53601" r="34.2"/><circle cx="248.57044" cy="247.87739" r="14.57496"/><path class="cls-3" d="M145.3246,414.107s63.47088-33.7781,68.27088-52.289"/><path class="cls-4" d="M579.59546,648.107H170.39551s-3.6-81.6,28.8-103.2c5.59-3.73,15.29-7.02,28.04-9.86,61.16-13.62,192.57007-16.66,277.96-5.74a121.801,121.801,0,0,1,24.07007,5.43C603.59546,560.107,579.59546,648.107,579.59546,648.107Z"/><path class="cls-4" d="M529.2655,534.737a121.801,121.801,0,0,0-24.07007-5.43c-6-.77-12.23-1.46-18.6499-2.09l-.01-.01s43.86-104.7,12.65991-236.7c-20.6-87.17-81.24-132.54-120.04992-153.29C457.10547,159.077,620.57556,240.787,529.2655,534.737Z"/><path class="cls-4" d="M338.69543,335.977c-21.47,19.58-60.41992,49.43-93.8999,44.53,0,0-21.59,4.8-40.79,43.17005.4-1.47,13.45-48.36,29.99-61.86C250.79553,348.107,275.40539,368.247,338.69543,335.977Z"/><path d="M567.59546,387.967l11.72009,35.7v.02l-18.92,40.11,9.54992,23.95a184.46027,184.46027,0,0,1-6.62988,22.9l-19.72009,12.04,10.49011,6.19c-12.77,17.38-24.82007,5.86-24.82007,5.86,91.31006-293.95-72.16-375.66-150.12-397.52-22.55-6.33-37.95008-7.65-37.95008-7.65s25.1001-1.25,59.14014,4.52l26.85986,15.84,17.22-5.03a256.25276,256.25276,0,0,1,24.52,9.45l11.06006,24.48,31.15.36q4.305,3.27007,8.46,6.86l3.59,20.14,25.20008,11.48q3.10491,4.38,5.97,9.07l-7.17005,21.14,25.8501,20.2q2.74494,8.715,4.79993,18.18l-13.85,25.85,19.3,36.95Z"/><path class="cls-5" d="M444.4154,144.897l-17.22,5.03-26.85986-15.84A304.50093,304.50093,0,0,1,444.4154,144.897Z"/><path class="cls-5" d="M511.14551,179.187l-31.15-.36-11.06006-24.48A211.251,211.251,0,0,1,511.14551,179.187Z"/><path class="cls-5" d="M548.39551,217.667l-25.20008-11.48-3.59-20.14A173.70593,173.70593,0,0,1,548.39551,217.667Z"/><path class="cls-5" d="M563.31555,510.647c-3.01,8.15-6.14014,14.03-9.23,18.23l-10.49011-6.19Z"/><path class="cls-5" d="M573.04553,268.077l-25.8501-20.2,7.17005-21.14A181.75719,181.75719,0,0,1,573.04553,268.077Z"/><path class="cls-5" d="M579.31555,423.687c-2.44006,27.14-5.69006,48.03-9.37012,64.06l-9.54992-23.95Z"/><path class="cls-5" d="M583.29553,349.057c-.72,29.01-2.11011,53.67-3.98,74.61l-11.72009-35.7Z"/><path class="cls-5" d="M583.29553,349.057l-19.3-36.95,13.85-25.85C581.8855,304.897,583.87549,325.737,583.29553,349.057Z"/></g><g id="Piece_outline" data-name="Piece outline"><path class="cls-6" d="M528.61789,535.248a121.80068,121.80068,0,0,0-24.07006-5.43c-6-.77-12.23-1.46-18.64991-2.09-37.77-3.72-82.01-5.08-124.5-4.34-52.99.93-103.25,5.14-134.81006,12.17,2.17994-14.47,14.61-68.07,82.36-117.34,23.45007-17.06,36.99011-32.59,44.44006-46,17.71-31.9.96-51.83.96-51.83s-1.25,1.38-3.51,3.73c-2.82006,2.9-7.21,7.29-12.78,12.37h-.01c-21.47,19.58-60.41993,49.43-93.89991,44.53,0,0-21.59,4.8-40.79,43.17005a.077.077,0,0,0-.01.03s-97.2,3-99.6-59.7c0,0,56.4-81.61,67.19995-101.55,10.8-19.95,30-94.35,73.20007-118.35,0,0,4.79993-57.6,39.6-69.6l56.79993,55.06s15.4,1.32,37.95007,7.65C456.45786,159.58793,619.928,241.298,528.61789,535.248Z"/><path class="cls-6" d="M578.94785,648.618h-409.2s-3.6-81.6,28.8-103.2c5.59-3.73,15.29-7.02,28.04-9.86,61.16-13.62,192.57007-16.66,277.96-5.74a121.80068,121.80068,0,0,1,24.07006,5.43C602.94785,560.618,578.94785,648.618,578.94785,648.618Z"/></g></svg>