<svg xmlns="http://www.w3.org/2000/svg" viewBox="0 0 750 750"><defs><style>.cls-1{fill:#482a17;}.cls-2{fill:#3a1c13;}.cls-3,.cls-6,.cls-7{fill:none;}.cls-3,.cls-4,.cls-5,.cls-6,.cls-7{stroke:#000;stroke-miterlimit:10;}.cls-4{fill:#fff;}.cls-6{stroke-width:2px;}.cls-7{stroke-width:7px;}</style></defs><g id="Piece_colouring" data-name="Piece colouring"><path class="cls-1" d="M437.07526,214.48294q-2.68388,3.51919-5.82982,7.228c-.03558.03551-.07109.083-.11854.13032q-4.85223,5.74094-10.86576,11.93223s-40.60748,27.17037-55.53753,29.0663c-14.93,1.89585-54.4237-29.0663-54.4237-29.0663-47.39708-48.665-37.91766-76.47518-37.91766-76.47518q.12442-3.537.42655-6.89628s34.32738-50.60827,76.03676-45.39456c14.39689,1.801,22.2411-2.31062,26.32912-8.4604a41.63068,41.63068,0,0,0,11.58855,7.9864c20.80732,10.24965,40.5601,13.89917,54.53037,25.34561,7.9864,6.54082,14.07694,15.64105,17.39472,29.96678a.04359.04359,0,0,1,.01186.03559C459.577,166.45781,459.38746,185.39292,437.07526,214.48294Z"/><path class="cls-1" d="M487.24511,280.53077l-7.58356,36.66165-42.57443,2.14471h-.01186l-19.97785,1.00716H313.45179l-62.56414-3.15187-7.58349-36.66165,66.99575-46.75725s39.49365,30.96215,54.4237,29.0663c5.6284-.711,14.88268-5.0123,24.25543-10.09561,15.49886-8.413,31.2821-18.97069,31.2821-18.97069Z"/><path class="cls-2" d="M561.18452,614.84607s13.89925,30.33417-195.904,34.75393c-209.815-4.41976-195.91582-34.75393-195.91582-34.75393-2.61871-27.92867,6.36306-55.502,15.59361-75.5509a200.683,200.683,0,0,1,17.27626-30.61855C287.72707,446.3139,308.9728,385.0295,313.42814,350.05043h.01179c2.36985-18.55593.01186-29.70614.01186-29.70614H417.09741s-19.58688,92.89832,111.2291,188.33233C528.32651,508.67662,566.24418,561.12151,561.18452,614.84607Z"/><path class="cls-3" d="M458.68834,159.84593a.04356.04356,0,0,1,.01184.03555"/><ellipse class="cls-4" cx="321.54801" cy="159.45508" rx="15.64104" ry="19.8477"/><ellipse class="cls-4" cx="407.73785" cy="159.45508" rx="15.64104" ry="19.8477"/><path class="cls-3" d="M295.76085,137.23752s17.063-18.01089,38.86561-13.74515"/><path class="cls-3" d="M430.96242,137.23752s-17.06295-18.01089-38.86561-13.74515"/><circle class="cls-5" cx="323.01417" cy="163.5429" r="7.82052"/><circle class="cls-5" cx="407.73785" cy="163.5429" r="7.82052"/><polyline class="cls-6" points="364.724 168.362 349.794 204.383 372.544 208.807"/><path class="cls-6" d="M330.83469,221.76233s28.12228,18.95883,58.14043,3.47578"/><path class="cls-2" d="M445.53566,159.45492a82.40542,82.40542,0,0,0-4.24206-29.57581c7.9864,6.54082,14.07694,15.64105,17.39472,29.96678a.04359.04359,0,0,1,.01186.03559c.87684,6.57633.68728,25.51144-21.62492,54.60146C440.46414,206.87566,444.24406,191.3057,445.53566,159.45492Z"/><path d="M430.96107,221.75834a1.2278,1.2278,0,0,0,.28437-.04737c-.03558.03551-.07109.083-.11854.13032Z"/><path d="M458.68832,159.84589c-9.12395-39.41069-39.23292-39.19734-71.92509-55.31239a41.63068,41.63068,0,0,1-11.58855-7.9864c7.785-11.68336,2.08548-30.72515,2.08548-30.72515,24.55166,4.3368,78.4777,21.79083,80.91865,91.47639A14.21463,14.21463,0,0,1,458.68832,159.84589Z"/><path d="M375.17468,96.5471c-4.088,6.14978-11.93223,10.26144-26.32912,8.4604-41.70938-5.21371-76.03676,45.39456-76.03676,45.39456a109.84346,109.84346,0,0,1,3.67332-20.3689.148.148,0,0,0,.02365-.03558C294.61149,66.40255,365.28049,64.4,365.28049,64.4A90.46693,90.46693,0,0,1,377.26016,65.822a.03673.03673,0,0,0,.01186.02372A57.87084,57.87084,0,0,1,379.239,78.477C379.476,84.366,378.72946,91.21493,375.17468,96.5471Z"/><path class="cls-2" d="M487.24511,280.53077l-7.58356,36.66165-42.57443,2.14471h-.01186l2.77276-39.43441-50.869-27.15851c15.49886-8.413,31.2821-18.97069,31.2821-18.97069Z"/><path class="cls-1" d="M365.28049,493.50957c-16.43493,160.51019-180.32221,45.7856-180.32221,45.7856a200.683,200.683,0,0,1,17.27626-30.61855C287.72707,446.3139,308.9728,385.0295,313.42814,350.05043h.01179S381.70364,332.98745,365.28049,493.50957Z"/></g><g id="Piece_outline" data-name="Piece outline"><path class="cls-7" d="M458.12966,161.26784a.0435.0435,0,0,1,.01185.03554c.87685,6.57635.68726,25.51148-21.62492,54.60145q-2.68386,3.51923-5.82984,7.228c-.03555.03555-.07109.083-.11849.13034q-4.85227,5.741-10.86578,11.93222S379.095,262.36582,364.16494,264.2617s-54.42371-29.06626-54.42371-29.06626c-47.39708-48.665-37.91766-76.4752-37.91766-76.4752q.12441-3.537.42657-6.89627"/><path class="cls-7" d="M486.69057,281.95267,479.107,318.61432,436.53259,320.759h-.01186l-19.97786,1.00716H312.89725l-62.56414-3.15188-7.58349-36.66165,66.99576-46.75725s39.49364,30.96215,54.4237,29.0663c5.6284-.711,14.88268-5.01229,24.25542-10.0956,15.49887-8.413,31.28211-18.9707,31.28211-18.9707Z"/><path class="cls-7" d="M560.63,616.268s13.89924,30.33418-195.904,34.75393C154.911,646.60215,168.81014,616.268,168.81014,616.268c-2.61872-27.92867,6.36305-55.50195,15.59361-75.5509A200.6836,200.6836,0,0,1,201.68,510.09852c85.49252-62.36272,106.73826-123.64712,111.1936-158.62619h.01178c2.36986-18.55593.01186-29.70613.01186-29.70613H416.54287S396.956,414.66452,527.772,510.09852C527.772,510.09852,565.68965,562.54341,560.63,616.268Z"/><path class="cls-7" d="M458.1338,161.26784a.0435.0435,0,0,1,.01185.03554"/><path class="cls-7" d="M376.70147,67.24386c24.55169,4.33684,78.47773,21.79081,80.91868,91.47638a14.21524,14.21524,0,0,1,.50951,2.5476"/><path class="cls-7" d="M272.25014,151.824a109.84914,109.84914,0,0,1,3.67327-20.3689.14665.14665,0,0,0,.0237-.03555C294.0528,67.82448,364.72186,65.822,364.72186,65.822a90.4699,90.4699,0,0,1,11.97961,1.42191"/><path class="cls-7" d="M436.51659,320.759h.01185l42.57443-2.14472,7.58354-36.66164-66.98393-46.75723s-15.78323,10.5577-31.28208,18.97069"/><path class="cls-7" d="M184.39964,540.71706a200.68124,200.68124,0,0,1,17.27624-30.61852c85.49249-62.36271,106.73824-123.64715,111.19356-158.6262h.01185"/></g></svg>