<svg xmlns="http://www.w3.org/2000/svg" viewBox="0 0 750 750"><defs><style>.cls-1,.cls-4,.cls-7{fill:none;}.cls-2{fill:#f9e4b7;}.cls-3{fill:#fff;}.cls-3,.cls-4,.cls-7{stroke:#000;stroke-miterlimit:10;}.cls-4{stroke-width:2px;}.cls-5{fill:#e6cb9e;}.cls-6{fill:#232323;}.cls-7{stroke-width:7px;}</style></defs><g id="Transparent_background" data-name="Transparent background"><rect class="cls-1" x="-798.8" y="-16" width="800" height="780.8"/><rect class="cls-1" x="-28.8" y="-16" width="800" height="780.8"/><rect class="cls-1" x="-28.8" y="-16" width="800" height="780.8"/><rect class="cls-1" x="741.2" y="-16" width="800" height="780.8"/><rect class="cls-1" x="741.2" y="-16" width="800" height="780.8"/><rect class="cls-1" x="741.2" y="-16" width="800" height="780.8"/></g><g id="Piece_colouring" data-name="Piece colouring"><path class="cls-2" d="M533.97994,537.28637a121.80068,121.80068,0,0,0-24.07006-5.43c-6-.77-12.23-1.46-18.64991-2.09-37.77-3.72-82.01-5.08-124.5-4.34-52.99.93006-103.25,5.14-134.81006,12.17,2.17994-14.47,14.61-68.07,82.36-117.34,23.45007-17.06,36.99011-32.59,44.44006-46,17.71-31.9.96-51.83.96-51.83s-1.25,1.38-3.51,3.73005c-2.82006,2.9-7.21,7.29-12.78,12.37h-.01c-21.47,19.58-60.41993,49.43-93.89991,44.53,0,0-21.59,4.8-40.79,43.17a.0771.0771,0,0,0-.01.03s-97.2,3-99.6-59.7c0,0,56.4-81.61,67.2-101.55,10.8-19.95,30-94.35,73.20007-118.35,0,0,4.79993-57.6,39.6-69.6l56.79993,55.06s15.4,1.32,37.95007,7.65C461.81991,161.62634,625.29,243.33636,533.97994,537.28637Z"/><circle class="cls-3" cx="258.19063" cy="245.08539" r="34.2"/><circle cx="253.28488" cy="250.42677" r="14.57496"/><path class="cls-4" d="M150.039,416.65637s63.47088-33.7781,68.27088-52.289"/><path class="cls-2" d="M584.3099,650.65637H175.11s-3.6-81.6,28.8-103.2c5.59-3.73,15.29-7.02,28.04-9.86,61.16-13.62,192.57007-16.66,277.96-5.74a121.80068,121.80068,0,0,1,24.07006,5.43C608.3099,562.65637,584.3099,650.65637,584.3099,650.65637Z"/><path class="cls-5" d="M533.97994,537.28637a121.80068,121.80068,0,0,0-24.07006-5.43c-6-.77-12.23-1.46-18.64991-2.09l-.01-.01s43.86-104.7,12.65992-236.7c-20.6-87.17-81.24-132.54-120.04993-153.29C461.81991,161.62634,625.29,243.33636,533.97994,537.28637Z"/><path class="cls-5" d="M343.40988,338.52636c-21.47,19.58-60.41993,49.43-93.89991,44.53,0,0-21.59,4.8-40.79,43.17.4-1.47,13.45-48.36,29.99-61.86C255.51,350.65637,280.11984,370.79638,343.40988,338.52636Z"/><path d="M572.3099,390.51635l11.72009,35.7v.02l-18.92,40.11005,9.54993,23.95a184.46215,184.46215,0,0,1-6.62989,22.9l-19.72009,12.04,10.49011,6.19c-12.77,17.38-24.82007,5.86005-24.82007,5.86005,91.31006-293.95-72.16-375.66-150.12-397.52-22.55-6.33-37.95007-7.65-37.95007-7.65s25.10009-1.25,59.14013,4.52l26.85987,15.84,17.22-5.03a256.25491,256.25491,0,0,1,24.52,9.45l11.06,24.48,31.15.36q4.305,3.27009,8.46,6.86005l3.59,20.14,25.20007,11.48q3.10492,4.38,5.97,9.07l-7.17,21.14,25.85009,20.2q2.74494,8.715,4.79993,18.18l-13.85,25.85,19.3,36.95Z"/><path class="cls-6" d="M449.12985,147.44634l-17.22,5.03-26.85987-15.84A304.50094,304.50094,0,0,1,449.12985,147.44634Z"/><path class="cls-6" d="M515.86,181.73632l-31.15-.36-11.06-24.48A211.25089,211.25089,0,0,1,515.86,181.73632Z"/><path class="cls-6" d="M553.11,220.21636l-25.20007-11.48-3.59-20.13995A173.70619,173.70619,0,0,1,553.11,220.21636Z"/><path class="cls-6" d="M568.03,513.19634c-3.01,8.15-6.14013,14.03-9.23,18.23l-10.49011-6.19Z"/><path class="cls-6" d="M577.76,270.62634l-25.85009-20.2,7.17-21.13995A181.75679,181.75679,0,0,1,577.76,270.62634Z"/><path class="cls-6" d="M584.03,426.23632c-2.44006,27.14-5.69006,48.03-9.37011,64.06006l-9.54993-23.95Z"/><path class="cls-6" d="M588.01,351.60638c-.72,29.01-2.1101,53.67-3.98,74.61l-11.72009-35.7Z"/><path class="cls-6" d="M588.01,351.60638l-19.3-36.95,13.85-25.85C586.59994,307.44634,588.58993,328.28637,588.01,351.60638Z"/></g><g id="Piece_outline" data-name="Piece outline"><path class="cls-7" d="M531.33234,537.79734a121.801,121.801,0,0,0-24.07007-5.43c-6-.77-12.23-1.46-18.6499-2.09-37.77-3.72-82.01-5.08-124.5-4.34-52.99.93006-103.25,5.14-134.81006,12.17005,2.17993-14.47,14.61-68.07,82.36-117.34,23.45008-17.06,36.99012-32.59,44.44007-46,17.71-31.9.96-51.83.96-51.83s-1.25,1.38-3.51,3.73005c-2.82007,2.9-7.21,7.29-12.78,12.37h-.01c-21.47,19.58-60.41992,49.43-93.8999,44.53,0,0-21.59,4.8-40.79,43.17a.0771.0771,0,0,0-.01.03s-97.2,3-99.6-59.7c0,0,56.4-81.61,67.2-101.55,10.8-19.95,30-94.35,73.20008-118.35,0,0,4.79992-57.6,39.6-69.6l56.79993,55.06s15.4,1.32,37.95007,7.65C459.1723,162.13731,622.6424,243.84733,531.33234,537.79734Z"/><path class="cls-7" d="M581.66229,651.16734H172.46234s-3.6-81.6,28.8-103.2c5.59-3.73,15.29-7.02,28.04-9.86,61.16-13.62,192.57007-16.66,277.96-5.74a121.801,121.801,0,0,1,24.07007,5.43C605.66229,563.16734,581.66229,651.16734,581.66229,651.16734Z"/></g></svg>