<svg xmlns="http://www.w3.org/2000/svg" viewBox="0 0 750 750"><defs><style>.cls-1,.cls-4,.cls-6,.cls-9{fill:none;}.cls-2{fill:#f9e4b7;}.cls-3{fill:#fff;}.cls-3,.cls-4,.cls-5,.cls-6,.cls-9{stroke:#000;stroke-miterlimit:10;}.cls-4,.cls-5{stroke-width:2px;}.cls-5{fill:#bf312f;}.cls-7{fill:#f389b3;}.cls-8{fill:#e6cb9e;}.cls-9{stroke-width:7px;}</style></defs><g id="Transparent_background" data-name="Transparent background"><rect class="cls-1" x="-798.8" y="-16" width="800" height="780.8"/><rect class="cls-1" x="-798.8" y="-16" width="800" height="780.8"/><rect class="cls-1" x="-28.8" y="-16" width="800" height="780.8"/><rect class="cls-1" x="-28.8" y="-16" width="800" height="780.8"/><rect class="cls-1" x="-28.8" y="-16" width="800" height="780.8"/><rect class="cls-1" x="741.2" y="-16" width="800" height="780.8"/><rect class="cls-1" x="741.2" y="-16" width="800" height="780.8"/><rect class="cls-1" x="741.2" y="-16" width="800" height="780.8"/><rect class="cls-1" x="741.2" y="-16" width="800" height="780.8"/></g><g id="Piece_colouring" data-name="Piece colouring"><path class="cls-2" d="M576.27,649.4H162.92993S137.87,533.67,260.53,531.53c1.83-.03,3.65991-.06,5.48-.1,111.35-1.82,197.81006-.18,209.66992.07.92005.02,1.39014.03,1.39014.03S599.73,524.07,576.27,649.4Z"/><path class="cls-2" d="M475.67993,531.5c-4.68994-.1-21.04993-.41-45.99-.65-38.13989-.36-96.35986-.52-163.67993.58C244.27,508.59,195,446.24,200,354.61c2.17993-39.97,17.39-75.83,36.48-105.74,36.9-57.81,88.32007-93.39,88.32007-93.39s-40-90.88,41.6-93.28c0,0,31.2-8,54.4,51.19995,0,0-17.88013,18.21-36.57007,53.9-2.55,4.87-5.11,10.06-7.63989,15.58C356.67993,226.21,338.54,289.49,343.2,371.8h54.4s3.3-112.64,32.09-171.16A108.72,108.72,0,0,1,436.53,188.56c.87-1.32,1.76-2.6,2.66992-3.82l.15.12c2.55,2,36.36,28.88,64.35,71.65,0,.01.01.02.02.03,18.40991,28.15,34.29,63.17,37.08008,102.52C545.76,429.05,502.84009,496.4,475.67993,531.5Z"/><circle class="cls-3" cx="277.82529" cy="301.28702" r="31.31"/><path class="cls-4" d="M260.8,287s20.98538,6.08833,31.2,20"/><path class="cls-4" d="M292,287s-25.26614,14.202-27.2,28"/><circle class="cls-3" cx="463.25641" cy="301.28702" r="31.31"/><path class="cls-4" d="M446.23113,287s20.98538,6.08833,31.2,20"/><path class="cls-4" d="M477.43113,287s-25.26614,14.202-27.2,28"/><path class="cls-4" d="M283.2,456.6s77.6-42.4,171.2,0"/><path class="cls-5" d="M382.04,438.22c-6.76,15.33-16.91,45.48,4.36,51.98,21.71,6.63,36.57-26.53,42.58-43.26"/><line class="cls-6" x1="401.2905" y1="453.4" x2="392" y2="473.4"/><path class="cls-7" d="M436.53,188.56C401.40991,241.8,397.6,371.8,397.6,371.8H343.2c-5.25-92.79,18.47-161.39,41.03-204.5,8.08008-.1,15.56006,2.46,17.06006,11.7,0,0,19.07-22.13,27.68994,5.74C428.98,184.74,430.16992,178.9,436.53,188.56Z"/><path class="cls-1" d="M384.23,167.3c-22.56,43.11-46.28,111.71-41.03,204.5h54.4s3.81-130,38.93-183.24"/><path class="cls-8" d="M475.67993,531.5c-4.68994-.1-21.04993-.41-45.99-.65,8.24-7.52,85.3501-80.47,87.38013-176.38C519.1499,255.65,443.12,188.16,439.35,184.86c4.2301,3.31,94.42,75.04,101.45007,174.2C545.76,429.05,502.84009,496.4,475.67993,531.5Z"/><path d="M420.80005,113.4S402.91992,131.61,384.23,167.3c-2.55,4.87-5.11,10.06-7.63989,15.58-19.38013,9-40.75,17.26-56.86011,19.05-38.3999,4.27-83.25,46.94-83.25,46.94,36.9-57.81,88.32007-93.39,88.32007-93.39s-40-90.88,41.6-93.28C366.4,62.2,397.6,54.2,420.80005,113.4Z"/><path d="M503.7,256.51c-28.80994-37.64-74.01-55.87-74.01-55.87A108.72,108.72,0,0,1,436.53,188.56c.87-1.32,1.76-2.6,2.66992-3.82l.15.12C441.9,186.86,475.71,213.74,503.7,256.51Z"/></g><g id="Piece_outline" data-name="Piece outline"><path class="cls-9" d="M577.43333,649.4H164.09324s-25.05994-115.73,97.6001-117.87c1.82995-.03,3.65991-.06,5.48-.1,111.35-1.82,197.81006-.18,209.66992.07.92.02,1.39014.03,1.39014.03S600.89329,524.07,577.43333,649.4Z"/><path class="cls-9" d="M476.84324,531.5c-4.68994-.1-21.04993-.41-45.99-.65-38.13989-.36-96.35986-.52-163.67993.58-21.74-22.84-71.01-85.19-66.01-176.82,2.17993-39.97,17.39-75.83,36.48-105.74,36.9-57.81,88.32007-93.39,88.32007-93.39s-40-90.88,41.6-93.28c0,0,31.2-8,54.4,51.19995,0,0-17.88013,18.21-36.57007,53.9-2.55,4.87-5.11,10.06-7.63989,15.58-19.91016,43.33-38.05,106.61-33.39014,188.92h54.4s3.3-112.64,32.09-171.16a108.71843,108.71843,0,0,1,6.84009-12.08c.87-1.32,1.76-2.6,2.66992-3.82l.15.12c2.55,2,36.36,28.88,64.35,71.65,0,.01.01.02.02.03,18.40991,28.15,34.29,63.17,37.08008,102.52C546.92332,429.05,504.0034,496.4,476.84324,531.5Z"/><path class="cls-1" d="M429.83,201.5C407.27,244.61,383.55,313.21,388.8,406h54.4s3.81-130,38.93-183.24"/></g></svg>