<svg xmlns="http://www.w3.org/2000/svg" viewBox="0 0 750 750"><defs><style>.cls-1,.cls-4,.cls-7,.cls-8{fill:none;}.cls-2{fill:#f9e4b7;}.cls-3,.cls-4,.cls-5,.cls-7,.cls-8{stroke:#000;stroke-miterlimit:10;}.cls-5{fill:#fff;}.cls-6{fill:#e6cb9e;}.cls-7{stroke-width:2px;}.cls-8{stroke-width:7px;}</style></defs><g id="Transparent_background" data-name="Transparent background"><rect class="cls-1" x="-798.8" y="-16" width="800" height="780.8"/><rect class="cls-1" x="-798.8" y="-16" width="800" height="780.8"/><rect class="cls-1" x="-798.8" y="-16" width="800" height="780.8"/><rect class="cls-1" x="-28.8" y="-16" width="800" height="780.8"/><rect class="cls-1" x="-28.8" y="-16" width="800" height="780.8"/><rect class="cls-1" x="-28.8" y="-16" width="800" height="780.8"/><rect class="cls-1" x="-28.8" y="-16" width="800" height="780.8"/><rect class="cls-1" x="741.2" y="-16" width="800" height="780.8"/><rect class="cls-1" x="741.2" y="-16" width="800" height="780.8"/><rect class="cls-1" x="741.2" y="-16" width="800" height="780.8"/><rect class="cls-1" x="741.2" y="-16" width="800" height="780.8"/><rect class="cls-1" x="741.2" y="-16" width="800" height="780.8"/></g><g id="Piece_colouring" data-name="Piece colouring"><path class="cls-2" d="M576.3999,649.6l-404.7998,1.6S156.49,543.82,230.15991,536.87c.21021-.03.43018-.05.64014-.07C304.21,530.49,367.49,522.61,518.24,539.31q3.06006.345,6.15991.69S586.80005,538.4,576.3999,649.6Z"/><path class="cls-3" d="M389.21,296.3c-8.01,13.28-26.37988,32.81-65.60986,34.9C264.54,334.35,244.87988,407.17,244.28,409.45l11.59985-104.72C278.8501,302.38,343.49,296,371.2,296,376.23,296,382.37012,296.1,389.21,296.3Z"/><path class="cls-3" d="M503.33008,393.64c-9.5-4.44-18.43994-10.63-25.33008-19.24-26.79-33.48-56.8-16.8-88.79-33.6-12.12988-6.37-18.97-14.34-22.79-21.79a67.34726,67.34726,0,0,0,22.79-22.71c34.18018.97,85.97,4.17,104.93994,7.67Z"/><path class="cls-2" d="M518.24,539.31c-150.75-16.7-214.03-8.82-287.43994-2.51-.21.02-.42993.04-.64014.07L244.27,409.5a.17466.17466,0,0,1,.01-.05c.59985-2.28,20.26-75.1,79.32007-78.25,18.58984-.99,32.49-5.89,42.81982-12.19,3.82007,7.45,10.66016,15.42,22.79,21.79a79.39824,79.39824,0,0,0,25.54,7.94l.01.01c37.88013,38.59,82.84985,97,101.36987,169.99.01026.01.01026.01.01026.02v.01Z"/><path class="cls-2" d="M500.3999,305.6a29.8959,29.8959,0,0,0-6.25-1.63c-10.37988-1.92-30.58984-3.74-52.36987-5.15-18.02-1.18-37.1001-2.09-52.57007-2.52-6.83984-.2-12.98-.3-18.01-.3-27.71,0-92.34985,6.38-115.32007,8.73-5.21.54-8.27978.87-8.27978.87C198,289.6,202,162.4,202,162.4c10.3999-12.8,72-20.8,72-20.8l16,67.2h32l7.2-75.2H419.6001l8.7998,76L461.2,208.8l17.6001-63.2c12.55-2.57,25.87988-.36,37.32983,3.21A135.87244,135.87244,0,0,1,546,162.4C556.3999,283.2,500.3999,305.6,500.3999,305.6Z"/><path class="cls-4" d="M244.27,409.5a.175.175,0,0,1,.01-.05"/><ellipse class="cls-5" cx="300.8" cy="407.2" rx="26" ry="32.8"/><path class="cls-6" d="M516.12988,518.74c-18.52-72.99-63.48974-131.4-101.36987-169.99,22.47,3.49,43.71,1.24,63.24,25.65,6.89014,8.61005,15.83008,14.80005,25.33008,19.24Z"/><circle class="cls-3" cx="300.8" cy="411.9175" r="11.9175"/><ellipse class="cls-5" cx="446" cy="407.2" rx="26" ry="32.8"/><circle class="cls-3" cx="446" cy="411.9175" r="11.9175"/><path class="cls-7" d="M354.8,440s14.41992,57.6,34.41,0"/><path class="cls-7" d="M326.8,496s45.6,40,88,0"/><path class="cls-4" d="M354.04,296.51s27.66,18.57,60.71,52.23l.01.01"/><path class="cls-4" d="M516.13,518.74c.01.01.01.01.01.02v.01"/><path class="cls-6" d="M500.3999,305.6a29.8959,29.8959,0,0,0-6.25-1.63c-10.37988-1.92-30.58984-3.74-52.36987-5.15a.06018.06018,0,0,1,.04-.01c77.42993-13.98,74.30981-150,74.30981-150A135.87244,135.87244,0,0,1,546,162.4C556.3999,283.2,500.3999,305.6,500.3999,305.6Z"/></g><g id="Piece_outline" data-name="Piece outline"><path class="cls-8" d="M576.3999,649.6l-404.7998,1.6S156.49,543.82,230.15991,536.87c.21021-.03.43018-.05.64014-.07C304.21,530.49,367.49,522.61,518.24,539.31q3.06006.345,6.15991.69S586.80005,538.4,576.3999,649.6Z"/><path class="cls-8" d="M500.3999,305.6a29.8959,29.8959,0,0,0-6.25-1.63c-10.37988-1.92-30.58984-3.74-52.36987-5.15-18.02-1.18-37.1001-2.09-52.57007-2.52-6.83984-.2-12.98-.3-18.01-.3-27.71,0-92.34985,6.38-115.32007,8.73-5.21.54-8.27978.87-8.27978.87C198,289.6,202,162.4,202,162.4c10.3999-12.8,72-20.8,72-20.8l16,67.2h32l7.2-75.2H419.6001l8.7998,76L461.2,208.8l17.6001-63.2c12.55-2.57,25.87988-.36,37.32983,3.21A135.87244,135.87244,0,0,1,546,162.4C556.3999,283.2,500.3999,305.6,500.3999,305.6Z"/><path class="cls-8" d="M244.27,409.5a.175.175,0,0,1,.01-.05"/><path class="cls-8" d="M516.13,518.74c.01.01.01.01.01.02v.01"/><line class="cls-8" x1="255.46" y1="304.77" x2="229.06" y2="536.99"/><line class="cls-8" x1="519.04" y1="539.4" x2="495.62" y2="304.25"/></g></svg>