<svg xmlns="http://www.w3.org/2000/svg" viewBox="0 0 750 750"><defs><style>.cls-1,.cls-4,.cls-7,.cls-8{fill:none;}.cls-2{fill:#f9e4b7;}.cls-3{fill:#e6cb9e;}.cls-4,.cls-5,.cls-6,.cls-7,.cls-8{stroke:#000;stroke-miterlimit:10;}.cls-5{fill:#fff;}.cls-7{stroke-width:2px;}.cls-8{stroke-width:7px;}</style></defs><g id="Transparent_background" data-name="Transparent background"><rect class="cls-1" x="-28.8" y="-16" width="800" height="780.8"/><rect class="cls-1" x="741.2" y="-16" width="800" height="780.8"/><rect class="cls-1" x="741.2" y="-16" width="800" height="780.8"/></g><g id="Piece_colouring" data-name="Piece colouring"><path class="cls-2" d="M447.07526,215.90484q-2.68388,3.51921-5.82982,7.228c-.03558.03551-.07109.083-.11854.13032q-4.85223,5.74095-10.86576,11.93223s-40.60748,27.17037-55.53753,29.0663c-14.93,1.89585-54.4237-29.0663-54.4237-29.0663-47.39708-48.665-37.91766-76.47517-37.91766-76.47517q.12442-3.537.42655-6.89629s34.32738-50.60826,76.03676-45.39456c14.39689,1.801,22.2411-2.31062,26.32912-8.46039a41.63067,41.63067,0,0,0,11.58855,7.98639c20.80732,10.24965,40.5601,13.89918,54.53037,25.34561,7.9864,6.54083,14.07694,15.64106,17.39472,29.96679a.04357.04357,0,0,1,.01186.03558C469.577,167.87971,469.38746,186.81482,447.07526,215.90484Z"/><path class="cls-2" d="M497.24511,281.95267l-7.58356,36.66165L447.08712,320.759h-.01186l-19.97785,1.00716H323.45179l-62.56414-3.15188-7.58349-36.66165,66.99575-46.75725s39.49365,30.96215,54.4237,29.0663c5.6284-.711,14.88268-5.01229,24.25543-10.0956,15.49886-8.413,31.2821-18.9707,31.2821-18.9707Z"/><path class="cls-3" d="M571.18452,616.268s13.89925,30.33418-195.904,34.75393C165.4655,646.60215,179.36467,616.268,179.36467,616.268c-2.61871-27.92867,6.36306-55.50195,15.59361-75.5509a200.6836,200.6836,0,0,1,17.27626-30.61855C297.72707,447.7358,318.9728,386.4514,323.42814,351.47233h.01179c2.36985-18.55593.01186-29.70613.01186-29.70613H427.09741s-19.58688,92.89831,111.2291,188.33232C538.32651,510.09852,576.24418,562.54341,571.18452,616.268Z"/><path class="cls-4" d="M468.68834,161.26783a.04356.04356,0,0,1,.01184.03555"/><ellipse class="cls-5" cx="331.54801" cy="160.87698" rx="15.64104" ry="19.8477"/><ellipse class="cls-5" cx="417.73785" cy="160.87698" rx="15.64104" ry="19.8477"/><path class="cls-4" d="M305.76085,138.65942s17.063-18.01089,38.86561-13.74515"/><path class="cls-4" d="M440.96242,138.65942s-17.06295-18.01089-38.86561-13.74515"/><circle class="cls-6" cx="333.01417" cy="164.96481" r="7.82052"/><circle class="cls-6" cx="417.73785" cy="164.96481" r="7.82052"/><polyline class="cls-7" points="374.724 169.784 359.794 205.805 382.544 210.229"/><path class="cls-7" d="M340.83469,223.18423S368.957,242.14306,398.97512,226.66"/><path class="cls-3" d="M455.53566,160.87682A82.40545,82.40545,0,0,0,451.2936,131.301c7.9864,6.54083,14.07694,15.64106,17.39472,29.96679a.04357.04357,0,0,1,.01186.03558c.87684,6.57633.68728,25.51144-21.62492,54.60146C450.46414,208.29756,454.24406,192.7276,455.53566,160.87682Z"/><path d="M440.96107,223.18024a1.2278,1.2278,0,0,0,.28437-.04737c-.03558.03551-.07109.083-.11854.13032Z"/><path d="M468.68832,161.2678c-9.12395-39.41069-39.23292-39.19734-71.92509-55.3124A41.63067,41.63067,0,0,1,385.17468,97.969c7.785-11.68337,2.08548-30.72516,2.08548-30.72516,24.55166,4.33681,78.4777,21.79083,80.91865,91.4764A14.21435,14.21435,0,0,1,468.68832,161.2678Z"/><path d="M385.17468,97.969c-4.088,6.14977-11.93223,10.26143-26.32912,8.46039C317.13618,101.2157,282.8088,151.824,282.8088,151.824a109.84377,109.84377,0,0,1,3.67332-20.3689.148.148,0,0,0,.02365-.03558c18.10572-63.595,88.77472-65.59755,88.77472-65.59755a90.46562,90.46562,0,0,1,11.97967,1.42192.03676.03676,0,0,0,.01186.02373A57.87057,57.87057,0,0,1,389.239,79.89887C389.476,85.78792,388.72946,92.63683,385.17468,97.969Z"/><path class="cls-3" d="M497.24511,281.95267l-7.58356,36.66165L447.08712,320.759h-.01186l2.77276-39.43441-50.869-27.15851c15.49886-8.413,31.2821-18.9707,31.2821-18.9707Z"/><path class="cls-2" d="M375.28049,494.93147c-16.43493,160.51019-180.32221,45.7856-180.32221,45.7856a200.6836,200.6836,0,0,1,17.27626-30.61855C297.72707,447.7358,318.9728,386.4514,323.42814,351.47233h.01179S391.70364,334.40935,375.28049,494.93147Z"/></g><g id="Piece_outline" data-name="Piece outline"><path class="cls-8" d="M468.13142,161.26783a.04353.04353,0,0,1,.01185.03555c.87684,6.57635.68726,25.51148-21.62492,54.60145q-2.68386,3.51923-5.82984,7.228c-.03555.03555-.0711.083-.1185.13034q-4.85228,5.741-10.86578,11.93222s-40.60745,27.17038-55.53754,29.06626-54.4237-29.06626-54.4237-29.06626c-47.39709-48.665-37.91767-76.4752-37.91767-76.4752q.12443-3.537.42657-6.89628"/><path class="cls-8" d="M496.69233,281.95267l-7.58356,36.66165L446.53434,320.759h-.01186l-19.97785,1.00716H322.899l-62.56414-3.15188-7.58349-36.66165,66.99576-46.75725s39.49364,30.96215,54.42369,29.0663c5.62841-.711,14.88268-5.01229,24.25543-10.0956,15.49886-8.413,31.2821-18.9707,31.2821-18.9707Z"/><path class="cls-8" d="M570.63174,616.268s13.89925,30.33418-195.904,34.75393C164.91272,646.60215,178.8119,616.268,178.8119,616.268c-2.61872-27.92867,6.363-55.50195,15.59361-75.5509a200.68413,200.68413,0,0,1,17.27625-30.61855C297.17429,447.7358,318.42,386.4514,322.87536,351.47233h.01179c2.36985-18.55593.01186-29.70613.01186-29.70613H426.54463s-19.58688,92.89831,111.22911,188.33232C537.77374,510.09852,575.6914,562.54341,570.63174,616.268Z"/><path class="cls-8" d="M468.13556,161.26783a.04353.04353,0,0,1,.01185.03555"/><path class="cls-8" d="M386.70322,67.24386c24.5517,4.33684,78.47773,21.79081,80.91868,91.47638a14.21565,14.21565,0,0,1,.50952,2.54759"/><path class="cls-8" d="M282.25189,151.824a109.84916,109.84916,0,0,1,3.67328-20.36889.14665.14665,0,0,0,.0237-.03555c18.10568-63.595,88.77474-65.59757,88.77474-65.59757a90.4699,90.4699,0,0,1,11.97961,1.42191"/><path class="cls-8" d="M446.51835,320.759h.01185l42.57443-2.14472,7.58353-36.66164-66.98393-46.75723s-15.78323,10.5577-31.28208,18.97068"/><path class="cls-8" d="M194.40139,540.71706a200.68226,200.68226,0,0,1,17.27624-30.61852c85.4925-62.36271,106.73824-123.64715,111.19357-158.6262h.01185"/></g></svg>