<?xml version="1.0" encoding="UTF-8" standalone="no"?>
<svg
   version="1.0"
   width="2048.000000pt"
   height="2048.000000pt"
   viewBox="0 0 2048.000000 2048.000000"
   preserveAspectRatio="xMidYMid meet"
   id="svg8"
   sodipodi:docname="chess-dark.svg"
   inkscape:version="1.2 (dc2aeda, 2022-05-15)"
   xmlns:inkscape="http://www.inkscape.org/namespaces/inkscape"
   xmlns:sodipodi="http://sodipodi.sourceforge.net/DTD/sodipodi-0.dtd"
   xmlns="http://www.w3.org/2000/svg"
   xmlns:svg="http://www.w3.org/2000/svg">
  <defs
     id="defs12" />
  <sodipodi:namedview
     id="namedview10"
     pagecolor="#ffffff"
     bordercolor="#666666"
     borderopacity="1.0"
     inkscape:pageshadow="2"
     inkscape:pageopacity="0.54117647"
     inkscape:pagecheckerboard="true"
     inkscape:document-units="pt"
     showgrid="false"
     inkscape:zoom="0.25"
     inkscape:cx="902"
     inkscape:cy="1262"
     inkscape:window-width="1390"
     inkscape:window-height="1027"
     inkscape:window-x="55"
     inkscape:window-y="25"
     inkscape:window-maximized="0"
     inkscape:current-layer="layer3"
     inkscape:showpageshadow="2"
     inkscape:deskcolor="#777777" />
  <metadata
     id="metadata2">
Created by potrace 1.14, written by Peter Selinger 2001-2017
</metadata>
  <g
     inkscape:groupmode="layer"
     id="layer3"
     inkscape:label="OggyP Chess"
     style="display:inline;opacity:1">
    <ellipse
       style="fill:#333333;stroke-width:0.75;fill-opacity:1"
       id="path132"
       cy="1023.9998"
       cx="1024"
       rx="1024"
       ry="1023.9998"
       inkscape:label="Background" />
    <rect
       style="fill:#ffffff;stroke-width:0.75"
       id="rect482"
       width="1177"
       height="127.00001"
       x="442.42804"
       y="1429.5503"
       inkscape:label="Base" />
    <path
       style="display:inline;opacity:1;fill:#ffffff;stroke:#000000;stroke-width:0.75px;stroke-linecap:butt;stroke-linejoin:miter;stroke-opacity:1"
       d="m 1078.428,976.55032 -91.04235,-1.13895 c 0,0 -40.5876,-314.45688 -361.59521,-311.78046 -321.00762,2.67643 -360.66119,322.32216 -356.931,375.19069 3.73017,52.8687 6.39357,176.1938 163.96858,290.2287 157.57501,114.0348 0,0 0,0 H 1632.9281 c 0,0 195.2885,-141.6669 168.3069,-338.07342 C 1774.2536,794.5704 1614.2391,664.94773 1467.1027,661.708 1319.9663,658.46827 1132.0798,715.66872 1078.428,976.55032 Z"
       id="path425"
       inkscape:label="Crown" />
    <path
       style="display:inline;opacity:1;fill:#ffffff;stroke:#000000;stroke-width:0.75px;stroke-linecap:butt;stroke-linejoin:miter;stroke-opacity:1"
       d="m 962.328,382.5503 0.6,-128.5 c 0,0 -2.99333,-24.84495 32.50935,-25.87904 35.50265,-1.03408 78.49065,0.87904 78.49065,0.87904 0,0 25.1832,-2.648 25.7319,27.2602 0.5487,29.9082 -0.2319,126.1398 -0.2319,126.1398 l 130.2,1.8 c 0,0 22.3458,-2.82942 22.8,23.2 0.4542,26.02942 -0.09,89.55651 -0.09,89.55651 0,0 -2.6467,20.16022 -22.7439,21.0871 -20.0971,0.92688 -130.1661,0.45639 -130.1661,0.45639 l -0.6679,128.45561 c 0,0 -5.0013,24.0322 -27.271,24.92862 -22.2697,0.89642 -83.56105,0.11577 -83.56105,0.11577 0,0 -25.06043,0.73659 -25.00005,-25 0.0607,-25.7366 -0.49995,-128.5 -0.49995,-128.5 h -128.1 c 0,0 -22.05375,0.69807 -23.72422,-23.60892 -1.67055,-24.307 -0.82605,-87.29996 -0.82605,-87.29996 0,0 -2.79736,-24.47554 28.07204,-24.86699 30.86941,-0.39145 124.47818,-0.22413 124.47818,-0.22413 z"
       id="path390"
       inkscape:label="Cross" />
  </g>
</svg>
