<?xml version="1.0" encoding="UTF-8" standalone="no"?>
<!-- Created with Inkscape (http://www.inkscape.org/) -->

<svg
   width="72"
   height="72"
   viewBox="0 0 19.05 19.05"
   version="1.1"
   id="svg5"
   inkscape:version="1.3.2 (091e20e, 2023-11-25)"
   xml:space="preserve"
   sodipodi:docname="draw.svg"
   xmlns:inkscape="http://www.inkscape.org/namespaces/inkscape"
   xmlns:sodipodi="http://sodipodi.sourceforge.net/DTD/sodipodi-0.dtd"
   xmlns="http://www.w3.org/2000/svg"
   xmlns:svg="http://www.w3.org/2000/svg"><sodipodi:namedview
     id="namedview7"
     pagecolor="#ffffff"
     bordercolor="#000000"
     borderopacity="0.25"
     inkscape:showpageshadow="2"
     inkscape:pageopacity="0.0"
     inkscape:pagecheckerboard="0"
     inkscape:deskcolor="#d1d1d1"
     inkscape:document-units="px"
     showgrid="false"
     inkscape:zoom="11.888889"
     inkscape:cx="35.957944"
     inkscape:cy="36.084112"
     inkscape:window-width="1872"
     inkscape:window-height="1027"
     inkscape:window-x="59"
     inkscape:window-y="25"
     inkscape:window-maximized="1"
     inkscape:current-layer="layer1" /><defs
     id="defs2" /><g
     inkscape:label="Layer 1"
     inkscape:groupmode="layer"
     id="layer1"><path
       d="m 9.4573508,14.118376 q 0.06765,0 0.155591,-0.03383 0.08794,-0.03383 0.142063,-0.08794 L 14.314558,9.4235186 q 0.175888,-0.1758878 0.263833,-0.4013897 0.08794,-0.2254878 0.08794,-0.4509895 0,-0.230007 -0.08794,-0.4600141 -0.08794,-0.2300072 -0.263833,-0.4058949 L 11.87919,5.2698692 q -0.175889,-0.1758878 -0.405896,-0.2638317 -0.230007,-0.087944 -0.460015,-0.087944 -0.2255,0 -0.45099,0.087944 -0.225501,0.087944 -0.40139,0.2638317 l -0.2435361,0.2435369 1.0959161,1.109446 q 0.175888,0.1894175 0.311187,0.4397192 0.135298,0.2503022 0.135298,0.5479585 0,0.5141334 -0.39913,0.9064982 -0.399129,0.3923652 -0.913264,0.3923652 -0.3382461,0 -0.5614871,-0.1014739 -0.223239,-0.101474 -0.4083945,-0.28874 L 8.1855488,7.5293505 5.7366497,9.9782492 q -0.067649,0.06765 -0.094709,0.1424138 -0.02706,0.07479 -0.02706,0.160221 0,0.170908 0.1150034,0.285912 0.1150036,0.115004 0.2863859,0.115004 0.085684,0 0.1600985,-0.0406 0.074414,-0.04059 0.1285335,-0.0947 L 8.1720189,8.6793835 8.7402718,9.2476362 6.8866854,11.101221 q -0.067649,0.06765 -0.094709,0.148828 -0.027059,0.08118 -0.027059,0.16236 0,0.162357 0.1217685,0.284126 0.1217685,0.121769 0.2841264,0.121769 0.081179,0 0.1555931,-0.03383 0.074414,-0.03383 0.1285335,-0.08794 L 9.3220534,9.8294123 9.8903029,10.397664 8.0367205,12.251249 q -0.054119,0.05412 -0.087944,0.139803 -0.033824,0.08568 -0.033824,0.171384 0,0.162355 0.1217685,0.284125 0.1217684,0.12177 0.2841263,0.12177 0.081179,0 0.1488283,-0.02705 0.067649,-0.02705 0.1352983,-0.09471 l 1.8671121,-1.867118 0.568252,0.568254 -1.8671125,1.867116 q -0.06765,0.06765 -0.09471,0.148831 -0.02706,0.08118 -0.02706,0.148826 0,0.189418 0.1082386,0.297657 0.108239,0.108239 0.2976538,0.108239 z m 8.65e-4,0.81179 q -0.447348,0 -0.7991232,-0.331482 Q 8.307317,14.267206 8.239668,13.778521 7.7796538,13.712482 7.4684676,13.401295 7.1572819,13.090109 7.0896327,12.630094 6.6296185,12.562445 6.3251972,12.244495 6.0207762,11.926544 5.9531269,11.480059 5.4525233,11.41241 5.1278074,11.074166 4.8030916,10.735919 4.8030916,10.262375 q 0,-0.230006 0.090975,-0.4606756 0.090975,-0.2306706 0.2608008,-0.4052324 l 3.0306814,-3.0306815 1.488276,1.4882812 q 0.10824,0.1082385 0.2345141,0.1691228 0.1262881,0.060884 0.2525601,0.060884 0.175889,0 0.331483,-0.155593 0.155593,-0.155593 0.155593,-0.3335644 0,-0.079096 -0.04736,-0.1805691 -0.04736,-0.1014728 -0.155594,-0.209712 L 8.5102648,5.2698692 Q 8.334377,5.0939813 8.10437,5.0060375 7.8743626,4.9180935 7.6443558,4.9180935 q -0.2255019,0 -0.4509899,0.087944 Q 6.9678642,5.0939816 6.7927748,5.267934 L 4.7354425,7.3264029 Q 4.5460249,7.5158205 4.4716107,7.7255327 4.3971967,7.9352452 4.3836667,8.1990771 4.3701367,8.4629086 4.4851407,8.7132104 4.6001443,8.9635123 4.7625024,9.1664598 L 4.1807195,9.7482423 Q 3.910123,9.4505863 3.741,9.0311618 3.5718771,8.6117369 3.5718771,8.1787824 q 0,-0.4058949 0.155593,-0.7779653 0.155593,-0.3720704 0.4397196,-0.6561968 L 6.2101938,4.7016163 Q 6.50785,4.40396 6.8838846,4.261897 7.2599328,4.1198337 7.6550849,4.1198337 q 0.3951658,0 0.767236,0.1420633 0.3720702,0.142063 0.6697256,0.4397193 L 9.3355835,4.9451532 9.5791178,4.7016163 Q 9.8767738,4.40396 10.252808,4.261897 10.628857,4.1198337 11.02401,4.1198337 q 0.395165,0 0.767236,0.1420633 0.372069,0.142063 0.669725,0.4397193 l 2.42184,2.4218395 q 0.297657,0.2976563 0.446486,0.6769378 0.148826,0.379282 0.148826,0.7712002 0,0.3919184 -0.148826,0.7639888 -0.148829,0.3720707 -0.446486,0.6697264 l -4.559553,4.559552 q -0.175888,0.175886 -0.3995632,0.270595 -0.223675,0.09471 -0.465479,0.09471 z M 8.1314295,7.5428804 Z"
       id="path132"
       style="fill:#ffffff;fill-opacity:1;stroke-width:0.0135298" /></g></svg>
