<?xml version="1.0" encoding="UTF-8" standalone="no"?>
<svg
   height="48"
   viewBox="0 96 960 960"
   width="48"
   version="1.1"
   id="svg134"
   sodipodi:docname="handshake-light.svg"
   inkscape:version="1.2 (dc2aeda, 2022-05-15)"
   xmlns:inkscape="http://www.inkscape.org/namespaces/inkscape"
   xmlns:sodipodi="http://sodipodi.sourceforge.net/DTD/sodipodi-0.dtd"
   xmlns="http://www.w3.org/2000/svg"
   xmlns:svg="http://www.w3.org/2000/svg">
  <defs
     id="defs138" />
  <sodipodi:namedview
     id="namedview136"
     pagecolor="#ffffff"
     bordercolor="#000000"
     borderopacity="0.25"
     inkscape:showpageshadow="2"
     inkscape:pageopacity="0.0"
     inkscape:pagecheckerboard="0"
     inkscape:deskcolor="#d1d1d1"
     showgrid="false"
     inkscape:zoom="18.270833"
     inkscape:cx="16.830103"
     inkscape:cy="24.054732"
     inkscape:window-width="1390"
     inkscape:window-height="1027"
     inkscape:window-x="55"
     inkscape:window-y="25"
     inkscape:window-maximized="0"
     inkscape:current-layer="svg134" />
  <path
     d="m 474.54545,946.36362 q 5.45455,0 12.54546,-2.72727 7.09091,-2.72728 11.45454,-7.09091 L 866.18182,567.81816 q 14.18182,-14.18181 21.27273,-32.364 7.0909,-18.18109 7.0909,-36.36327 0,-18.54545 -7.0909,-37.09091 -7.09091,-18.54545 -21.27273,-32.72727 L 669.81818,232.90907 Q 655.63636,218.72725 637.09091,211.63635 618.54545,204.54544 600,204.54544 q -18.18218,0 -36.36327,7.09091 -18.18218,7.0909 -32.364,21.27272 L 511.63636,252.54544 600,341.99998 q 14.18182,15.27273 25.09091,35.45455 Q 636,397.63635 636,421.63635 q 0,41.45454 -32.18182,73.0909 -32.18182,31.63637 -73.63636,31.63637 -27.27273,0 -45.27273,-8.18182 -18,-8.18182 -32.92909,-23.28109 L 372,415.09089 174.54545,612.54544 q -5.45454,5.45454 -7.63636,11.48291 -2.18182,6.02945 -2.18182,12.91854 0,13.78036 9.27273,23.05309 9.27273,9.27273 23.09127,9.27273 6.90873,0 12.90873,-3.27273 6,-3.27273 10.36364,-7.63636 l 150.54545,-150.54546 45.81818,45.81819 -149.45454,149.45454 q -5.45455,5.45455 -7.63637,12 -2.18181,6.54546 -2.18181,13.09091 0,13.09091 9.81818,22.90909 9.81818,9.81818 22.90909,9.81818 6.54545,0 12.54545,-2.72727 6,-2.72727 10.36364,-7.09091 L 463.63636,600.54544 509.45455,646.36362 360,795.81816 q -4.36364,4.36364 -7.09091,11.27237 -2.72727,6.90982 -2.72727,13.81854 0,13.09091 9.81818,22.90909 9.81818,9.81819 22.90909,9.81819 6.54546,0 12,-2.18182 5.45455,-2.18182 10.90909,-7.63637 l 150.54546,-150.54545 45.81818,45.81818 -150.54546,150.54546 q -5.45454,5.45454 -7.63636,12 -2.18182,6.54545 -2.18182,12 0,15.27272 8.72727,24 8.72728,8.72727 24,8.72727 z m 0.0698,65.45458 q -36.06982,0 -64.43345,-26.7273 Q 381.81816,958.36362 376.36362,918.96107 339.27271,913.63635 314.1818,888.54544 289.09091,863.45453 283.63636,826.36362 246.54545,820.90907 222,795.27271 197.45455,769.63635 192,733.63635 151.63636,728.1818 125.45455,700.90907 99.27273,673.63635 99.27273,635.45453 q 0,-18.54546 7.33527,-37.14437 7.33527,-18.59891 21.02836,-32.67381 L 372,321.27271 l 120,120 q 8.72727,8.72727 18.90873,13.63636 10.18254,4.90909 20.364,4.90909 14.18182,0 26.72727,-12.54545 12.54545,-12.54546 12.54545,-26.89527 0,-6.37746 -3.81818,-14.55928 -3.81818,-8.18181 -12.54545,-16.90909 l -156,-156 Q 384,218.72725 365.45455,211.63635 q -18.54546,-7.09091 -37.09091,-7.09091 -18.18219,0 -36.36328,7.09091 -18.18218,7.0909 -32.29963,21.11672 L 93.81818,398.72725 q -15.27273,15.27273 -21.27273,32.18182 -6,16.90909 -7.0909,38.18182 -1.09091,21.27273 8.18181,41.45455 Q 82.90909,530.72725 96,547.09089 l -46.909091,46.90909 q -21.818182,-24 -35.454545,-57.81818 Q 0,502.36362 0,467.45453 0,434.72725 12.545455,404.72725 25.090909,374.72725 48,351.81816 L 212.72727,187.09089 q 24,-24 54.31964,-35.45454 30.32073,-11.45455 62.18182,-11.45455 31.86218,0 61.86218,11.45455 30,11.45454 54,35.45454 l 19.63636,19.63636 19.63637,-19.63636 q 24,-24 54.31963,-35.45454 30.32073,-11.45455 62.18182,-11.45455 31.86218,0 61.86218,11.45455 30,11.45454 54,35.45454 L 912,382.36362 q 24,24 36,54.58145 12,30.58146 12,62.18182 0,31.60036 -12,61.60036 -12,30 -36,54 L 544.36364,982.3636 q -14.18182,14.1818 -32.21673,21.8182 -18.03491,7.6364 -37.53164,7.6364 z M 367.63636,416.1818 Z"
     id="path132"
     style="fill:#a4a4a4;fill-opacity:1;stroke-width:1.09091" />
</svg>
