<?xml version="1.0" encoding="UTF-8" standalone="no"?>
<!-- Created with Inkscape (http://www.inkscape.org/) -->

<svg
   width="72"
   height="72"
   viewBox="0 0 19.05 19.05"
   version="1.1"
   id="svg5"
   inkscape:version="1.3.2 (091e20e, 2023-11-25)"
   xml:space="preserve"
   sodipodi:docname="draw.svg"
   xmlns:inkscape="http://www.inkscape.org/namespaces/inkscape"
   xmlns:sodipodi="http://sodipodi.sourceforge.net/DTD/sodipodi-0.dtd"
   xmlns="http://www.w3.org/2000/svg"
   xmlns:svg="http://www.w3.org/2000/svg"><sodipodi:namedview
     id="namedview7"
     pagecolor="#ffffff"
     bordercolor="#000000"
     borderopacity="0.25"
     inkscape:showpageshadow="2"
     inkscape:pageopacity="0.0"
     inkscape:pagecheckerboard="0"
     inkscape:deskcolor="#d1d1d1"
     inkscape:document-units="px"
     showgrid="false"
     inkscape:zoom="11.888889"
     inkscape:cx="35.957944"
     inkscape:cy="36"
     inkscape:window-width="1872"
     inkscape:window-height="1027"
     inkscape:window-x="59"
     inkscape:window-y="25"
     inkscape:window-maximized="1"
     inkscape:current-layer="layer1" /><defs
     id="defs2" /><g
     inkscape:label="Layer 1"
     inkscape:groupmode="layer"
     id="layer1"><path
       d="m 10.118807,14.16573 q 0.06765,0 0.155591,-0.03383 0.08794,-0.03383 0.142063,-0.08794 l 4.559553,-4.5730876 q 0.175888,-0.1758878 0.263833,-0.4013897 0.08794,-0.2254879 0.08794,-0.4509895 0,-0.230007 -0.08794,-0.4600141 -0.08794,-0.2300072 -0.263833,-0.4058949 L 12.540646,5.317223 Q 12.364757,5.1413352 12.13475,5.0533913 q -0.230007,-0.087944 -0.460015,-0.087944 -0.2255,0 -0.45099,0.087944 -0.225501,0.087944 -0.40139,0.2638317 l -0.243536,0.2435369 1.095916,1.109446 q 0.175888,0.1894175 0.311187,0.4397192 0.135298,0.2503022 0.135298,0.5479585 0,0.5141334 -0.39913,0.9064982 -0.399129,0.3923652 -0.913264,0.3923652 -0.338246,0 -0.561487,-0.1014739 Q 10.0241,8.7537991 9.8389446,8.5665331 L 8.847005,7.5767043 6.3981059,10.025603 q -0.067649,0.06765 -0.094709,0.142414 -0.02706,0.07479 -0.02706,0.160221 0,0.170908 0.1150034,0.285912 0.1150035,0.115004 0.2863859,0.115004 0.085684,0 0.1600985,-0.0406 0.074414,-0.04059 0.1285335,-0.0947 L 8.8334751,8.7267372 9.401728,9.29499 7.5481416,11.148575 q -0.067649,0.06765 -0.094709,0.148828 -0.027059,0.08118 -0.027059,0.16236 0,0.162357 0.1217685,0.284126 0.1217685,0.121769 0.2841264,0.121769 0.081179,0 0.1555931,-0.03383 0.074414,-0.03383 0.1285335,-0.08794 L 9.9835096,9.8767661 10.551759,10.445018 8.6981767,12.298603 q -0.054119,0.05412 -0.087944,0.139803 -0.033824,0.08568 -0.033824,0.171384 0,0.162355 0.1217684,0.284125 0.1217685,0.12177 0.2841264,0.12177 0.081179,0 0.1488282,-0.02705 0.067649,-0.02705 0.1352983,-0.09471 l 1.867112,-1.867118 0.568252,0.568254 -1.8671124,1.867116 q -0.06765,0.06765 -0.09471,0.148831 -0.02706,0.08118 -0.02706,0.148826 0,0.189418 0.1082386,0.297657 0.108239,0.108239 0.2976538,0.108239 z m 8.65e-4,0.81179 q -0.447348,0 -0.7991232,-0.331482 Q 8.9687732,14.31456 8.9011242,13.825875 8.44111,13.759836 8.1299238,13.448649 7.8187381,13.137463 7.7510889,12.677448 7.2910747,12.609799 6.9866534,12.291849 6.6822324,11.973898 6.6145831,11.527413 6.1139795,11.459764 5.7892636,11.12152 5.4645478,10.783273 5.4645478,10.309729 q 0,-0.230006 0.090975,-0.4606759 0.090975,-0.2306705 0.2608008,-0.4052324 L 8.847005,6.4131392 10.335281,7.9014204 q 0.10824,0.1082385 0.234514,0.1691228 0.126288,0.060884 0.25256,0.060884 0.175889,0 0.331483,-0.155593 0.155593,-0.155593 0.155593,-0.3335644 0,-0.079096 -0.04736,-0.1805691 -0.04736,-0.1014728 -0.155594,-0.209712 L 9.171721,5.317223 Q 8.9958332,5.1413351 8.7658262,5.0533913 8.5358188,4.9654473 8.305812,4.9654473 q -0.2255019,0 -0.4509899,0.087944 Q 7.6293204,5.1413353 7.454231,5.3152877 L 5.3968987,7.3737567 Q 5.2074811,7.5631743 5.1330669,7.7728865 5.0586529,7.982599 5.0451229,8.2464308 5.0315929,8.5102624 5.1465969,8.7605642 5.2616005,9.0108661 5.4239586,9.2138135 L 4.8421757,9.7955961 Q 4.5715791,9.4979401 4.4024562,9.0785156 4.2333333,8.6590907 4.2333333,8.2261362 q 0,-0.4058949 0.155593,-0.7779653 0.155593,-0.3720704 0.4397196,-0.6561968 L 6.87165,4.7489701 Q 7.1693062,4.4513138 7.5453408,4.3092508 7.921389,4.1671875 8.316541,4.1671875 q 0.3951658,0 0.767236,0.1420633 0.3720702,0.142063 0.6697256,0.4397193 L 9.9970396,4.992507 10.240574,4.7489701 q 0.297656,-0.2976563 0.67369,-0.4397193 0.376049,-0.1420633 0.771202,-0.1420633 0.395165,0 0.767236,0.1420633 0.372069,0.142063 0.669725,0.4397193 l 2.42184,2.4218394 q 0.297657,0.2976563 0.446486,0.6769378 0.148826,0.379282 0.148826,0.7712003 0,0.3919184 -0.148826,0.7639888 -0.148829,0.3720707 -0.446486,0.6697266 l -4.559553,4.559552 q -0.175888,0.175886 -0.399563,0.270595 -0.223675,0.09471 -0.465479,0.09471 z M 8.7928857,7.5902342 Z"
       id="path132"
       style="fill:#ffffff;fill-opacity:1;stroke-width:0.0135298" /></g></svg>
