<?xml version="1.0" encoding="UTF-8" standalone="no"?>
<svg
   height="48"
   viewBox="0 96 960 960"
   width="48"
   version="1.1"
   id="svg134"
   sodipodi:docname="thumb_down.svg"
   inkscape:version="1.2 (dc2aeda, 2022-05-15)"
   xmlns:inkscape="http://www.inkscape.org/namespaces/inkscape"
   xmlns:sodipodi="http://sodipodi.sourceforge.net/DTD/sodipodi-0.dtd"
   xmlns="http://www.w3.org/2000/svg"
   xmlns:svg="http://www.w3.org/2000/svg">
  <defs
     id="defs138" />
  <sodipodi:namedview
     id="namedview136"
     pagecolor="#ffffff"
     bordercolor="#000000"
     borderopacity="0.25"
     inkscape:showpageshadow="2"
     inkscape:pageopacity="0.0"
     inkscape:pagecheckerboard="0"
     inkscape:deskcolor="#d1d1d1"
     showgrid="false"
     inkscape:zoom="9.1354167"
     inkscape:cx="25.778791"
     inkscape:cy="15.160775"
     inkscape:window-width="1390"
     inkscape:window-height="1027"
     inkscape:window-x="161"
     inkscape:window-y="25"
     inkscape:window-maximized="0"
     inkscape:current-layer="svg134" />
  <path
     d="m 230.26253,117.7661 h 508.63962 v 586.53938 l -318.47256,329.92842 -44.6778,-35.5131 q -6.87351,-5.728 -10.31026,-16.0382 -3.43676,-10.3103 -3.43676,-25.2029 V 946.0239 L 413.55609,704.30548 H 71.02625 q -27.49403,0 -48.114555,-20.62053 Q 2.2911692,663.06443 2.2911692,635.5704 v -93.75351 q 0,-8.20353 -1.71837703,-16.79542 -1.71837697,-8.59189 1.71837703,-16.61098 L 146.63484,176.19092 q 10.17051,-24.34367 33.90358,-41.38425 23.73194,-17.04057 49.72411,-17.04057 z m 439.90453,68.73508 H 215.36993 L 71.02625,529.03102 V 635.5704 H 498.32936 L 437.61337,920.821 670.16706,675.66586 Z m 0,489.16468 V 186.50118 Z m 68.73509,28.63962 V 635.5704 H 891.26492 V 186.50118 H 738.90215 V 117.7661 H 960 v 586.53938 z"
     id="path132"
     style="fill:#ef3e2d;fill-opacity:1;stroke-width:1.14558" />
</svg>
