<?xml version="1.0" encoding="UTF-8" standalone="no"?>
<!-- Created with Inkscape (http://www.inkscape.org/) -->

<svg
   width="72"
   height="72"
   viewBox="0 0 19.05 19.05"
   version="1.1"
   id="svg5"
   inkscape:version="1.3.2 (091e20e, 2023-11-25)"
   xml:space="preserve"
   sodipodi:docname="win.svg"
   xmlns:inkscape="http://www.inkscape.org/namespaces/inkscape"
   xmlns:sodipodi="http://sodipodi.sourceforge.net/DTD/sodipodi-0.dtd"
   xmlns="http://www.w3.org/2000/svg"
   xmlns:svg="http://www.w3.org/2000/svg"><sodipodi:namedview
     id="namedview7"
     pagecolor="#ffffff"
     bordercolor="#000000"
     borderopacity="0.25"
     inkscape:showpageshadow="2"
     inkscape:pageopacity="0.0"
     inkscape:pagecheckerboard="0"
     inkscape:deskcolor="#d1d1d1"
     inkscape:document-units="px"
     showgrid="false"
     inkscape:zoom="11.888889"
     inkscape:cx="36"
     inkscape:cy="36"
     inkscape:window-width="1872"
     inkscape:window-height="1027"
     inkscape:window-x="59"
     inkscape:window-y="25"
     inkscape:window-maximized="1"
     inkscape:current-layer="layer1" /><defs
     id="defs2" /><g
     inkscape:label="Layer 1"
     inkscape:groupmode="layer"
     id="layer1"><path
       d="M 8.2682284,10.424584 8.744479,8.9032293 7.4877082,7.9242707 H 9.022291 l 0.5027088,-1.574271 0.4894792,1.574271 h 1.547812 l -1.25677,0.9789586 0.463021,1.5213547 -1.2435422,-0.9392715 z m -1.8653122,4.92125 V 11.324167 Q 5.8076038,10.702396 5.549635,9.9615618 5.2916662,9.2207291 5.2916662,8.4666665 q 0,-1.7991666 1.2170834,-3.0162498 1.2170828,-1.2170834 3.0162502,-1.2170834 1.7991672,0 3.0162492,1.2170834 1.217085,1.2170832 1.217085,3.0162498 0,0.7540626 -0.25797,1.4948953 -0.257968,0.7408342 -0.853281,1.3626052 v 4.021667 L 9.5249998,14.30073 Z M 9.5249998,11.90625 q 1.4419792,0 2.4407812,-0.998802 0.998801,-0.9988022 0.998801,-2.4407815 0,-1.441979 -0.998801,-2.4407812 -0.998802,-0.998802 -2.4407812,-0.998802 -1.4419792,0 -2.4407812,0.998802 -0.9988024,0.9988022 -0.9988024,2.4407812 0,1.4419793 0.9988024,2.4407815 0.998802,0.998802 2.4407812,0.998802 z m -2.3283332,2.328334 2.3283332,-0.727604 2.3283332,0.727604 v -2.262188 q -0.529167,0.383646 -1.137708,0.555625 -0.608542,0.17198 -1.1906252,0.17198 -0.5820832,0 -1.190625,-0.17198 -0.6085424,-0.171979 -1.1377082,-0.555625 z m 2.3283332,-1.137709 z"
       id="path132"
       style="fill:#ffffff;fill-opacity:1;stroke-width:0.0132292" /></g></svg>
