<?xml version="1.0" encoding="UTF-8" standalone="no"?>
<svg
   height="48"
   viewBox="0 96 960 960"
   width="48"
   version="1.1"
   id="svg134"
   sodipodi:docname="workspace_premium.svg"
   inkscape:version="1.2 (dc2aeda, 2022-05-15)"
   xmlns:inkscape="http://www.inkscape.org/namespaces/inkscape"
   xmlns:sodipodi="http://sodipodi.sourceforge.net/DTD/sodipodi-0.dtd"
   xmlns="http://www.w3.org/2000/svg"
   xmlns:svg="http://www.w3.org/2000/svg">
  <defs
     id="defs138" />
  <sodipodi:namedview
     id="namedview136"
     pagecolor="#ffffff"
     bordercolor="#000000"
     borderopacity="0.25"
     inkscape:showpageshadow="2"
     inkscape:pageopacity="0.0"
     inkscape:pagecheckerboard="0"
     inkscape:deskcolor="#d1d1d1"
     showgrid="false"
     inkscape:zoom="9.1354165"
     inkscape:cx="-4.7616877"
     inkscape:cy="28.734322"
     inkscape:window-width="1738"
     inkscape:window-height="1027"
     inkscape:window-x="55"
     inkscape:window-y="25"
     inkscape:window-maximized="0"
     inkscape:current-layer="svg134" />
  <path
     d="M 397.14286,630.85714 438.28571,499.42857 329.71429,414.85714 h 132.57142 l 43.42858,-136 42.28571,136 h 133.71429 l -108.57142,84.57143 40,131.42857 -107.42858,-81.14285 z M 236,1056 V 708.57143 Q 184.57143,654.85714 162.28571,590.85714 140,526.85714 140,461.71429 140,306.28571 245.14286,201.14286 350.28571,96 505.71429,96 q 155.42858,0 260.57142,105.14286 105.14287,105.14285 105.14287,260.57143 0,65.14285 -22.28571,129.14285 -22.28572,64 -73.71429,117.71429 V 1056 L 505.71429,965.7143 Z M 505.71429,758.85714 q 124.57142,0 210.85714,-86.28571 86.28571,-86.28572 86.28571,-210.85714 0,-124.57143 -86.28571,-210.85715 -86.28572,-86.28571 -210.85714,-86.28571 -124.57143,0 -210.85715,86.28571 -86.28571,86.28572 -86.28571,210.85715 0,124.57142 86.28571,210.85714 86.28573,86.28571 210.85715,86.28571 z M 304.57143,960 505.71429,897.14286 706.85714,960 V 764.57143 q -45.71428,33.14286 -98.28571,48 Q 556,827.42857 505.71429,827.42857 q -50.28571,0 -102.85715,-14.85714 -52.57143,-14.85714 -98.28571,-48 z m 201.14286,-98.28571 z"
     id="path132"
     style="fill:#4fb911;fill-opacity:1;stroke-width:1.14286" />
</svg>
