<?xml version="1.0" encoding="UTF-8" standalone="no"?>
<!-- Created with Inkscape (http://www.inkscape.org/) -->

<svg
   width="72"
   height="72"
   viewBox="0 0 19.05 19.05"
   version="1.1"
   id="svg5"
   inkscape:version="1.3.2 (091e20e, 2023-11-25)"
   xml:space="preserve"
   sodipodi:docname="win.svg"
   xmlns:inkscape="http://www.inkscape.org/namespaces/inkscape"
   xmlns:sodipodi="http://sodipodi.sourceforge.net/DTD/sodipodi-0.dtd"
   xmlns="http://www.w3.org/2000/svg"
   xmlns:svg="http://www.w3.org/2000/svg"><sodipodi:namedview
     id="namedview7"
     pagecolor="#ffffff"
     bordercolor="#000000"
     borderopacity="0.25"
     inkscape:showpageshadow="2"
     inkscape:pageopacity="0.0"
     inkscape:pagecheckerboard="0"
     inkscape:deskcolor="#d1d1d1"
     inkscape:document-units="px"
     showgrid="false"
     inkscape:zoom="6.3"
     inkscape:cx="49.920635"
     inkscape:cy="50"
     inkscape:window-width="1872"
     inkscape:window-height="1027"
     inkscape:window-x="59"
     inkscape:window-y="25"
     inkscape:window-maximized="1"
     inkscape:current-layer="layer1" /><defs
     id="defs2" /><g
     inkscape:label="Layer 1"
     inkscape:groupmode="layer"
     id="layer1"><path
       d="M 8.7973956,10.16 9.2736462,8.6386458 8.0168754,7.6596872 h 1.5345828 l 0.5027088,-1.574271 0.489479,1.574271 h 1.547812 L 10.834688,8.6386458 11.297709,10.16 10.054167,9.220729 Z M 6.9320834,15.08125 V 11.059583 Q 6.336771,10.437812 6.0788022,9.6969786 5.8208334,8.9561456 5.8208334,8.202083 q 0,-1.7991666 1.2170834,-3.0162498 1.2170828,-1.2170834 3.0162502,-1.2170834 1.799167,0 3.016249,1.2170834 1.217085,1.2170832 1.217085,3.0162498 0,0.7540626 -0.25797,1.4948956 -0.257968,0.7408334 -0.853281,1.3626044 v 4.021667 l -3.122083,-1.045104 z m 3.1220836,-3.439584 q 1.441979,0 2.440781,-0.998802 0.998801,-0.998802 0.998801,-2.440781 0,-1.441979 -0.998801,-2.4407812 -0.998802,-0.998802 -2.440781,-0.998802 -1.4419792,0 -2.4407812,0.998802 -0.9988024,0.9988022 -0.9988024,2.4407812 0,1.441979 0.9988024,2.440781 0.998802,0.998802 2.4407812,0.998802 z M 7.7258338,13.97 10.054167,13.242396 12.3825,13.97 v -2.262188 q -0.529167,0.383646 -1.137708,0.555625 -0.608542,0.17198 -1.190625,0.17198 -0.5820832,0 -1.190625,-0.17198 -0.6085424,-0.171979 -1.1377082,-0.555625 z m 2.3283332,-1.137709 z"
       id="path132"
       style="fill:#ffffff;fill-opacity:1;stroke-width:0.0132292" /></g></svg>
