<?xml version="1.0" encoding="utf-8"?>
<!-- Generator: Adobe Adobe Illustrator 24.2.0, SVG Export Plug-In . SVG Version: 6.00 Build 0)  -->
<svg version="1.1" xmlns="http://www.w3.org/2000/svg" xmlns:xlink="http://www.w3.org/1999/xlink" x="0px" y="0px" width="1728px"
	 height="1728px" viewBox="0 0 1728 1728" style="enable-background:new 0 0 1728 1728;" xml:space="preserve">
<style type="text/css">
	.st0{display:none;opacity:0.2118;}
	.st1{display:inline;}
	.st2{fill:none;stroke:#000000;stroke-width:5;stroke-linecap:round;stroke-linejoin:round;stroke-miterlimit:10;}
	.st3{fill:none;stroke:#000000;stroke-width:6;stroke-linecap:round;stroke-linejoin:round;stroke-miterlimit:10;}
	.st4{fill:none;stroke:#000000;stroke-width:3;stroke-linecap:round;stroke-linejoin:round;stroke-miterlimit:10;}
	.st5{fill:none;stroke:#000000;stroke-width:4;stroke-linecap:round;stroke-linejoin:round;stroke-miterlimit:10;}
	.st6{stroke:#FFFFFF;stroke-width:4;stroke-miterlimit:10;}
	.st7{fill:#242424;stroke:#FFFFFF;stroke-width:4;stroke-miterlimit:10;}
	.st8{fill:#C1272D;stroke:#FFFFFF;stroke-width:5;stroke-miterlimit:10;}
	.st9{fill:#FFFFFF;}
	.st10{display:none;}
	.st11{fill:#FFFFFF;stroke:#000000;stroke-width:4;stroke-miterlimit:10;}
	.st12{fill:#242424;stroke:#000000;stroke-width:4;stroke-miterlimit:10;}
	.st13{fill:#0071BC;stroke:#000000;stroke-width:5;stroke-miterlimit:10;}
	.st14{fill:none;stroke:#322F36;stroke-width:4;stroke-miterlimit:10;}
	.st15{fill:#322F36;}
	.st16{fill:none;stroke:#322F36;stroke-miterlimit:10;}
	.st17{fill:none;stroke:#322F36;stroke-width:5;stroke-miterlimit:10;}
	.st18{fill:none;stroke:#322F36;stroke-width:2;stroke-miterlimit:10;}
</style>
<g id="Layer_1">
	<g class="st0">
		<g class="st1">
			<path class="st2" d="M685.51,393.98c-10.49,1.43-19.28,7.24-28.37,11.84c-12.48,6.32-24.5,13.66-36.27,21.25
				c-14.71,9.48-25.46,22.48-33.95,37.95c-7.2,13.12-13.22,26.86-21.1,39.6c-8.3,13.42-19.3,24.76-28.66,37.38
				c-13.45,18.14-26.35,36.63-39.36,55.07c-14.28,20.24-28.83,40.29-42.6,60.89c-10.48,15.66-20.95,31.33-31.02,47.25
				c-8.52,13.47-11.22,28.16-7.96,43.98c0.86,4.18,0.61,8.6,1.28,12.94c2.21,14.34,8.58,26.41,19.66,35.44
				c12.1,9.87,26.85,11.74,41.96,11.1c20.97-0.89,41.15-6.38,61.47-10.96c7.16-1.61,11.97-6.71,12.31-12.95
				c1.22-22.66,11.66-40.19,32.49-48.8c18.49-7.65,35.61-17.73,53.62-26.11c12.9-6,26.61-10.26,40.71-12.33
				c31.47-4.61,61.04-13.99,87.35-32.43c16.03-11.23,27.73-25.77,34.97-44c5.28-13.29,1.12-25.4-3.85-37.57
				c-0.6-1.47-1.68-1.42-2.66-1.91"/>
			<path class="st2" d="M663.51,280.76c-2.79,14.46,3.18,26.4,16.78,35.01c8.87,5.61,18.73,8.52,28.55,11.47
				c10.54,3.16,20.27,7.69,28.37,15.06c8.44,7.68,16.76,13.72,29.13,15.24c19.44,2.4,37.9,9.83,56.3,16.51
				c41.99,15.24,80.01,37.54,114.61,65.82c20.27,16.57,39.78,33.95,56.81,53.82c23.16,27.02,41.12,57.45,57.12,89.16
				c10.15,20.1,17.84,41.08,22.92,62.87c2.24,9.63,3.16,19.73,4.34,29.67c2.61,21.96,3.93,43.94,3.64,66.01
				c-0.22,16.31-2.11,32.43-4.94,48.55c-5.26,29.98-13.83,58.94-26.27,86.57c-9.54,21.2-23.19,39.96-40.55,55.73
				c-8.46,7.68-17.33,14.81-27.11,20.8c-2.09,1.28-4.66,3.02-3.94,6.38"/>
			<path class="st3" d="M710.74,692.88c1.69,4.01,5.84,4.44,9.1,5.72c24.04,9.49,39.63,26.21,47.43,51.14
				c5.13,16.39,9.33,32.65,8.8,49.89c-0.27,8.69-2.98,16.92-5.19,25.22c-4.07,15.26-7.38,30.98-15.66,44.55
				c-12.96,21.25-25.06,43.04-39.29,63.51c-11.61,16.71-22,34.18-31.05,52.41c-9.83,19.8-14.85,40.98-18.25,62.73
				c-2.99,19.13-4.7,38.42-6.71,57.63c-1.9,18.1-0.42,36.42,3.72,54.28c0.75,3.24,1.84,6.91,5.04,9.09"/>
			<path class="st2" d="M678.39,1195.57c-3.98-6.42-6.22-13.58-8.3-20.73c-0.77-2.65-1.96-5.7,0.79-8.45c1.65-1.64,1.29-4.24,1-6.4
				c-2.75-19.91,4.58-37.45,14.5-53.57c14.18-23.04,34.48-39.94,57.16-54.79c23.02-15.07,47.91-25.96,72.73-37.08
				c40.37-18.08,82.45-31.28,125.44-41.63c10.4-2.51,20.52-5.92,30.59-9.87c12.26-4.8,24.87-8.4,36.84-14.4
				c29.81-14.92,54.39-35.37,75.25-61.45c14.5-18.13,22.47-38.88,30.67-59.8c7.42-18.92,10.87-38.87,14.51-58.81
				c1.97-10.83,5.1-21.52,6.75-32.41c1.84-12.18,2.59-24.54,3.34-36.86c0.8-13.14,0.92-26.28,0.19-39.47
				c-1.15-20.91-3.59-41.59-7.82-62.12c-5.62-27.23-14.74-53.22-25.06-79.01c-13.81-34.52-33.67-65.32-54.57-95.67
				c-14.67-21.3-31-41.25-47.79-60.9c-18.49-21.63-38.01-42.19-59.02-61.33c-21.34-19.44-43.92-37.41-67.32-54.3
				c-13.26-9.57-27.04-18.47-41.99-25.33c-16.31-7.49-33.6-11.56-51.13-14.84c-2.18-0.41-4.39,0.03-6.76,1.07
				c5.47,15.75,0.71,31.33-1.87,46.74c-3.64,21.72-8.4,43.27-13.53,64.69c-2.77,11.58-7.59,22.63-12.12,33.68"/>
			<path class="st2" d="M660.92,286.58c-11.53,11.2-17.62,25.25-19.93,40.78c-2.64,17.79,1.52,34.15,12.77,48.53
				c4.29,5.48,9.49,9.63,15.53,12.98c2.96,1.64,6.04,3.24,8.45,5.76"/>
			<path class="st4" d="M869.92,1086.23c1.54,3.31,1.13,6.85,1.33,10.35c1.27,21.8,2.38,43.6,4.37,65.36
				c0.52,5.75,0.75,11.67-0.52,17.46"/>
			<path class="st4" d="M919.09,1083.65c0.24,20.55,2.41,40.99,3.73,61.47c0.53,8.18,1.38,16.36,1.46,24.57
				c0.02,2.22-0.61,4.6,1.28,6.47"/>
			<path class="st5" d="M847.27,1218.86c-5.61-2.4-11.47-0.44-16.77,0.37c-8.87,1.37-17.82,1.32-26.61,1.83
				c-18.1,1.05-36.16,3.22-54.33,2.98"/>
			<path class="st5" d="M844.04,1268.68c-6.9-1.13-13.85-1.18-20.69,0.06c-7.51,1.36-15.15,0.91-22.69,1.49
				c-9.21,0.7-18.46,1.98-27.8,1.83c-6.46-0.1-12.94,1.15-19.41,1.8"/>
			<path class="st4" d="M1056.27,1253.15c-19.22,0.88-38.41,2.33-57.6,3.77c-9.27,0.69-18.57,1.02-27.82,2.01
				c-1.47,0.16-2.76,0.37-3.88,1.34"/>
			<path class="st4" d="M1054.33,1204.63c-7.03,1.61-14.31,1.23-21.37,1.6c-19.85,1.04-39.63,3.18-59.51,3.49
				c-2.58,0.04-5.17,1.82-7.76,0.08"/>
			<path class="st5" d="M884.8,1296.5c-2.41,6.47-0.28,13.1,0.32,19.38c1.58,16.6,2.09,33.26,3.36,49.86
				c0.65,8.58,2.14,17.18,1.5,25.86"/>
			<path class="st5" d="M931.39,1293.91c2.48,3.29,2.51,7.42,2.39,10.99c-0.31,9.57,0.94,19.02,1.68,28.46
				c1.42,17.9,1.38,35.94,4.33,53.71"/>
			<path class="st4" d="M772.21,1156.11c12.08,10.35,24.25,20.6,36.21,31.09c9.89,8.67,19.51,17.63,29.77,25.87
				c1.45,1.16,2.96,2.43,3.26,4.5"/>
			<path class="st4" d="M987.68,1107.58c-15.31,17.47-30.51,35.04-46,52.35c-5.18,5.79-9.2,12.66-16.01,17.03
				c-1.34,0.86-1.39,3.73-2.04,5.67"/>
			<path class="st4" d="M1024.24,1140.58c-9.85,8.05-17.04,18.55-25.5,27.87c-10.58,11.66-20.8,23.64-31.08,35.56
				c-2.65,3.07-3.72,7.89-9.09,7.74"/>
			<path class="st4" d="M805.21,1119.23c16.39,14.45,32.72,28.97,49.21,43.31c6.64,5.78,12.62,12.37,20.34,16.88
				c2.16,1.26,0.51,5.01,3.57,5.8"/>
			<path class="st4" d="M882.86,1302.32c-9.63,7.92-16.72,18.22-25.11,27.29c-11.93,12.91-22.99,26.62-34.42,39.99"/>
			<path class="st4" d="M933.98,1298.44c3.37-0.06,4.99,2.87,7.03,4.63c19.99,17.3,39.77,34.83,59.62,52.3"/>
			<path class="st4" d="M847.27,1266.74c-19.14,23.87-40.09,46.17-60.18,69.23"/>
			<path class="st4" d="M961.15,1257.68c6.42,1.5,9.61,7.27,14.12,11.13c19.25,16.5,38.08,33.51,57.06,50.33"/>
			<path class="st5" d="M899.68,1200.75c-14.75,3.35-26.08,11.15-30.95,25.91c-5.52,16.72-1.3,31.25,12.23,42.62
				c11.62,9.77,24.97,11.09,38.75,5.77c14.9-5.75,23.96-19.5,23.98-34.84c0.03-24.4-16.51-39.47-43.35-39.47"/>
			<path class="st2" d="M900.33,1189.75c-9.57,1.79-18.06,5.55-26.01,11.48c-9.48,7.08-14.66,16.65-17.16,27.38
				c-6.09,26.18,9.22,50.93,33.5,58.71c29.19,9.35,59.79-9.23,64.63-40c4.79-30.47-19.44-58.35-50.43-57.58
				c-1.29,0.03-2.59,0-3.88,0"/>
			<path class="st2" d="M897.09,1035.77c-9.05,1.18-18.15,1.62-27.2,3.1c-28.45,4.65-54.55,14.98-78.24,31.23
				c-46.15,31.66-75.31,74.86-85.3,130.02c-11.23,62.01,3.68,117.61,43.89,166.23c24,29.02,54.15,49.08,89.9,60.87
				c13.72,4.52,27.64,7.56,42.05,9.16c31.38,3.5,61.74-0.32,91.23-11.18c32.25-11.88,59.66-30.96,82.15-56.93
				c13.77-15.9,24.96-33.5,33.06-53.01c5.31-12.79,9.71-25.88,12.18-39.49c2.67-14.72,4.71-29.61,3.91-44.62
				c-1.23-23.13-5.52-45.61-14.08-67.32c-16.35-41.48-43.46-73.89-81-97.61c-26.09-16.49-54.66-26.02-85.38-29.2
				c-8.83-0.91-17.66-1.44-26.53-1.26"/>
		</g>
	</g>
</g>
<g id="Layer_4">
	<g>
		<g>
			<g>
				<g>
					<g>
						<g>
							<g>
								<g>
									<g>
										<g>
											<g>
												<g>
													<g>
														<g>
															<path class="st6" d="M1177.2,559.83c-13.8-40.67-50.78-126.65-125.66-193.69c-48.03-43-90.91-71.69-124.48-90.52
																c0,0-0.01,0-0.03-0.01c-0.06-0.03-0.2-0.1-0.41-0.22c-0.06-0.04-0.14-0.08-0.23-0.12
																c-5.17-2.7-38.84-20.19-59.79-28.09c-0.4-0.14-0.8-0.3-1.21-0.45c-1.14-0.42-2.24-0.8-3.28-1.15
																c-3.14-1.05-6.52-2.06-9.99-3c-14.43-3.92-30.44-6.71-37.83-7.02c-11.84-0.5-19.71-3.55-25.07-6.88
																c-2.73-1.68-4.81-3.43-6.46-4.98c-12.68-11.84-19-16.11-25.93-20.48c-5.13-3.22-27.48-8.38-40.51-14.32
																c-15.82-7.23-25.99-14.74-29.23-18.98c-8.55-11.14-10.73-38.82-10.73-38.82s-40.48,56.37-24.51,100.2
																c14.05,38.58,40.97,45.42,43.29,47.28c1.28,1.02,8.81,2.03,15.25,2.57c5.05-0.08,10.72,0.04,15.23,0.18l-6.01,0.17
																c-1.27,0.16-5.02,0-9.23-0.35c-3.59,0.05-6.88,0.21-9.2,0.52c-14.76,1.99-30.34,9.35-50.56,22.69
																c-28.24,18.63-51.97,43.95-61.24,56.01c-6.22,8.11-16.97,32.12-21.04,41.41c-1.75,3.97-32.54,49.65-33.5,50.99
																l5.2-7.65l-55.83,82.2c0,0-102.46,140.68-118.93,188.81c-3.67,10.7,1.71,29.67,1.71,29.67s2.29,39.75,10.43,48.24
																c1.95,2.03,10.52,10.11,16.09,17.19c3.7,4.69,18.07,11.75,31.52,14.36c8.3,1.6,31.67-0.45,48.43-2.73
																c-1.61,0.17,0.36-0.6,0.05-0.01l-0.01,0.01c4.06-0.55,7.73-1.13,10.71-1.65c2.8-0.51,20.58-2.79,33.29-6.63
																c4.5-1.35,12.81-7.57,18.43-11.87c2.46-1.89,4.17-16.76,6.52-30.49c1.18-6.88,5.79-18.54,13.88-27.18
																c4.17-4.45,16.47-11.58,27.37-17.45c5.27-2.83,14.79-8.48,24.66-13.28c4.06-1.99,19.21-9.75,36.85-18.38
																c0.34-0.17,0.69-0.33,1.06-0.51c2.68-1.27,6.05-2.74,9.82-4.26l0.01-0.01c0.03,0,0.05-0.01,0.08-0.03
																c10.16-4.94,25.44-9.84,46.73-12.63c0.13-0.01,0.26-0.04,0.39-0.05c0.36-0.07,0.72-0.12,1.07-0.17
																c11.78-1.82,21.58-2.52,29.65-1.05c8.21,1.49,36.89,13.49,45.45,21.22c11.7,10.57,20.27,23.62,26.42,37.51
																c13.02,29.37,15.22,62.54,13.3,84.21c-1.07,11.96-2.45,29.31-9.04,45.24c0,0-9.73,28.01-29.73,64.08
																c-12.69,22.91-55.39,83.79-75,124.67c-11.56,24.11-23,67.43-27.55,85.41c-4.86,19.17-7.3,42.6-7.3,57.72
																c0,6.71-0.3,19.52,0.16,30.37c0.53,12.68,3.13,24.05,3.71,30.12c0.92,9.71,9.31,42.29,10.71,44.39
																c0,0,0.52-26.54,3.63-38.23c1.67-6.3,8.76-31.48,13.57-42.07c2.38-5.23,11.27-20.77,22.33-33.96
																c5.04-6,16.04-20.99,38.16-37.98c22.06-16.94,25.77-19.77,59.45-37.29c23.18-12.07,47.36-21.73,58.58-26.24
																c7.62-3.07,41.44-15.92,78.29-28.77c45.37-15.83,94.91-29.08,111.71-33.6c0,0,56.36-48.11,73.15-71.82
																c13.59-19.18,24.77-45.21,29.89-57.67c13.99-34.05,30.92-120.14,32.49-158.46
																C1210.58,633.98,1184.16,580.32,1177.2,559.83z M416.7,784.92c0.41,0.05,0.73,0.07,0.92,0.04
																C417.25,785.09,416.95,785.07,416.7,784.92z M434.22,744.46c0.57,13.44-3.52,18.71-14.2,26.24
																c-1.95,1.38-3.19,6.39-3.9,8.71c-0.57,1.85-0.55,4.81,0.54,5.49c-2.65-0.37-9.16-2.38-11.27-4.3
																c-6.12-5.53-6.38-7.28-7.34-15.67c-0.88-7.78,3.38-15.17,8.11-21.28c8.52-10.99,19.47-20.33,32.36-24.68
																c-2.31,4.93-4.66,10.02-4.93,15.5C433.44,737.8,434.08,741.12,434.22,744.46z M709.23,389.79
																c-0.68,5.12-0.55,10.34-1.57,15.42c-1.48,7.43-5.4,14.33-10.38,20.42c-2.29,2.79-4.81,5.45-7.84,7.61
																c-9,6.39-21.23,7.62-32.73,7.62c-6.36,0.01-15.28,0.77-19.63,4.93c3.7-5.91,6.07-13.44,7.59-16.48
																c5.64-11.28,2.99-6.75,8.18-14.86c2.24-3.48,9.44-10.89,13.06-13.27c12.19-8.04,16.36-6.26,28.69-14.12
																c3.39-2.16,16.79-8.84,20.4-10.7C712.24,380.79,709.9,384.65,709.23,389.79z"/>
															<path class="st7" d="M434.22,744.46c0.57,13.44-3.52,18.71-14.2,26.24c-1.95,1.38-3.19,6.39-3.9,8.71
																c-0.57,1.85-0.55,4.81,0.54,5.49c-2.65-0.37-9.16-2.38-11.27-4.3c-6.12-5.53-6.38-7.28-7.34-15.67
																c-0.88-7.78,3.38-15.17,8.11-21.28c8.52-10.99,19.47-20.33,32.36-24.68c-2.31,4.93-4.66,10.02-4.93,15.5
																C433.44,737.8,434.08,741.12,434.22,744.46z"/>
														</g>
														<g>
															<g>
																<path class="st6" d="M1280,663.9c-0.7-21.67-4.19-63.91-7.75-86.35c-2.05-12.93-8.95-52.98-20.83-91.26
																	c-12.97-41.75-25.38-68.18-36.58-88.59c-11.21-20.48-34.33-58.35-47.23-77.79c-5.84-8.83-69.1-91.63-111.56-137.04
																	c-50.56-54.09-77-73.17-109.99-96.19c-11.14-7.77-50.77-32.95-67.07-39.34c-11-4.32-55.3-13.34-55.3-13.34
																	s0.99,35.16,0.84,41.06c-0.16,6.56-3.05,42.38-8.74,65.49c-4.32,17.65-26.7,84.76-26.7,84.76l0.11,3.37
																	c5.37,3.33,13.23,6.38,25.07,6.88c7.39,0.31,23.4,3.1,37.83,7.02c3.47,0.94,6.85,1.95,9.99,3
																	c1.04,0.35,2.14,0.73,3.28,1.15c0.4,0.14,0.8,0.3,1.21,0.45c20.95,7.9,54.62,25.39,59.79,28.09
																	c0.09,0.04,0.16,0.08,0.23,0.12c0.21,0.12,0.35,0.2,0.41,0.22c0.01,0.01,0.03,0.01,0.03,0.01
																	c33.57,18.83,76.46,47.52,124.48,90.52c74.88,67.04,111.86,153.02,125.66,193.69
																	c6.96,20.49,33.38,74.15,29.21,176.25c-1.57,38.32-18.5,124.41-32.49,158.46c-5.12,12.46-16.3,38.49-29.89,57.67
																	c-16.79,23.71-73.15,71.82-73.15,71.82c1.62-0.43,2.94-0.8,3.92-1.06c8.77-2.41,45.15-15.88,74.06-36.03
																	c31.27-21.8,44.34-34.74,54.86-50.32c14.81-21.92,37.74-69.44,46.55-95.64c4.3-12.76,17.53-45.03,23.64-83.52
																	c6.7-42.24,5.45-64.23,5.45-64.25C1279.37,693.21,1280.02,664.7,1280,663.9z"/>
															</g>
														</g>
													</g>
												</g>
											</g>
										</g>
										<path class="st8" d="M715,376.36c-2.75,4.43-5.09,8.29-5.77,13.43c-0.68,5.12-0.55,10.34-1.57,15.42
											c-1.48,7.43-5.4,14.33-10.38,20.42c-2.29,2.79-4.81,5.45-7.84,7.61c-9,6.39-21.23,7.62-32.73,7.62
											c-6.36,0.01-15.28,0.77-19.63,4.93c3.7-5.91,6.07-13.44,7.59-16.48c5.64-11.28,2.99-6.75,8.18-14.86
											c2.24-3.48,9.44-10.89,13.06-13.27c12.19-8.04,16.36-6.26,28.69-14.12C697.99,384.9,711.39,378.22,715,376.36z"/>
									</g>
								</g>
							</g>
						</g>
					</g>
				</g>
				<g>
					<path class="st9" d="M985.98,113.64c-0.07,4.38-0.43,8.5-0.91,12.7c-0.49,4.17-1.16,8.32-1.97,12.43
						c-0.81,4.11-1.82,8.18-2.95,12.22c-1.17,4.01-2.51,8.02-3.94,11.88c-2.83,7.79-5.78,15.52-8.87,23.2
						c-3.08,7.68-6.27,15.31-9.67,22.85c2.94-7.73,5.65-15.53,8.26-23.37c2.61-7.84,5.08-15.71,7.42-23.62
						c1.2-3.97,2.25-7.88,3.16-11.86c0.85-3.99,1.6-8,2.14-12.04c0.54-4.04,0.94-8.09,1.17-12.15c0.23-4.03,0.32-8.18,0.15-12.06
						L985.98,113.64z"/>
				</g>
				<g>
					<path class="st9" d="M746.69,681.02c5.83,0.9,11.6,1.91,17.38,3.1c5.77,1.18,11.52,2.67,17.15,4.38l8.39,2.58
						c1.39,0.42,2.77,0.83,4.14,1.18c1.37,0.34,2.75,0.61,4.18,0.86c5.69,0.97,11.5,1.66,17.29,2.32l8.71,0.93l4.36,0.43l2.17,0.2
						c0.64,0.05,1.43,0.08,2.13,0.11c5.82,0.26,11.65,0.41,17.48,0.43c5.83,0.02,11.65-0.1,17.45-0.49
						c5.76-0.42,11.5-1.36,17.14-2.72c11.3-2.7,22.22-6.9,32.85-11.68c2.62-1.18,5.12-2.64,7.57-4.21c2.44-1.57,4.82-3.25,7.12-5.02
						c4.64-3.52,9.01-7.38,13.19-11.45c2.06-2.06,4.1-4.15,6.01-6.34c1.93-2.18,3.82-4.41,5.46-6.8c3.27-4.8,5.77-10.12,7.73-15.6
						c0.98-2.75,1.82-5.54,2.52-8.37c0.7-2.83,1.27-5.7,1.82-8.57c0.49-2.87,1.1-5.77,0.77-8.68c-0.19-1.44-0.52-2.88-0.72-4.32
						c-0.23-1.45-0.36-2.9-0.49-4.36c0.15,1.45,0.3,2.91,0.55,4.35c0.22,1.44,0.57,2.86,0.78,4.32c0.38,2.93-0.2,5.86-0.65,8.74
						c-0.51,2.88-1.04,5.76-1.71,8.61c-0.67,2.85-1.47,5.68-2.41,8.45c-1.9,5.54-4.33,10.94-7.58,15.86
						c-1.64,2.46-3.51,4.73-5.42,6.95c-1.9,2.24-3.92,4.37-5.97,6.47c-4.14,4.15-8.5,8.11-13.13,11.73
						c-2.3,1.83-4.69,3.55-7.14,5.19c-2.45,1.63-4.99,3.16-7.69,4.42c-10.62,4.96-21.57,9.36-33,12.26
						c-5.71,1.46-11.54,2.5-17.44,3.02c-5.87,0.48-11.74,0.68-17.61,0.75c-5.87,0.07-11.73,0-17.6-0.18
						c-0.75-0.03-1.43-0.04-2.25-0.09l-2.2-0.17l-4.38-0.37l-8.75-0.8c-5.84-0.58-11.66-1.18-17.51-2.1
						c-1.46-0.23-2.95-0.5-4.43-0.85c-1.47-0.35-2.89-0.75-4.31-1.16l-8.42-2.46c-5.59-1.61-11.19-2.98-16.9-4.06
						c-5.7-1.09-11.46-2.02-17.2-2.82L746.69,681.02z"/>
				</g>
				<g>
					<path class="st9" d="M1090.87,220.5c-1.14,6.2-2.52,12.28-4.14,18.33c-0.81,3.02-1.7,6.03-2.69,9.01
						c-0.98,2.97-2.09,5.94-3.38,8.8c-2.52,5.74-5.53,11.22-8.75,16.56c-3.25,5.32-6.69,10.5-10.42,15.48
						c3.46-5.16,6.61-10.52,9.55-15.97c2.9-5.47,5.59-11.06,7.76-16.83c1.11-2.87,2.03-5.79,2.84-8.77
						c0.81-2.97,1.53-5.96,2.17-8.98c1.28-6.02,2.32-12.15,3.1-18.22L1090.87,220.5z"/>
				</g>
				<g>
					<path class="st9" d="M1176.6,331.33c-1.64,4.98-3.48,9.77-5.57,14.51c-2.08,4.73-4.42,9.37-7.21,13.76
						c-2.88,4.33-5.99,8.4-9.28,12.35c-3.3,3.94-6.75,7.75-10.49,11.24c3.51-3.73,6.69-7.74,9.71-11.86
						c2.99-4.12,5.84-8.4,8.35-12.77c2.42-4.42,4.41-9.09,6.14-13.85c1.73-4.75,3.25-9.63,4.5-14.48L1176.6,331.33z"/>
				</g>
				<g>
					<path class="st9" d="M1235.52,436.98c-0.99,1.72-1.96,3.17-2.99,4.69c-1.02,1.5-2.07,2.97-3.14,4.42
						c-2.14,2.9-4.34,5.73-6.6,8.51c-2.26,2.78-4.56,5.52-6.96,8.19c-2.41,2.64-4.84,5.29-7.63,7.53c2.5-2.54,4.58-5.43,6.66-8.31
						c2.05-2.9,4-5.87,5.9-8.86c1.9-3,3.74-6.03,5.48-9.09c0.87-1.54,1.72-3.08,2.53-4.63c0.8-1.53,1.62-3.16,2.24-4.62
						L1235.52,436.98z"/>
				</g>
				<g>
					<path class="st9" d="M488.55,649.98l22.58-31.52l22.66-31.46c7.55-10.49,15-21.05,22.74-31.4
						c7.78-10.32,15.53-20.66,23.62-30.75l0.16,0.12c-7.17,10.76-14.69,21.28-22.17,31.81c-7.53,10.5-15.34,20.8-23.06,31.16
						l-23.14,31.1l-23.22,31.04L488.55,649.98z"/>
				</g>
				<g>
					<path class="st9" d="M1039.6,698.95c0.32,11.8-0.29,23.59-1.11,35.35c-0.85,11.76-2.03,23.5-3.44,35.21
						c-2.94,23.4-6.72,46.7-11.27,69.85c-4.55,23.14-9.72,46.2-16.38,68.85l-2.53,8.48l-2.67,8.44c-0.87,2.82-1.85,5.6-2.77,8.41
						l-1.42,4.19l-1.5,4.16l-1.5,4.16l-1.57,4.14c-1.03,2.77-2.12,5.51-3.21,8.25c-2.25,5.46-4.56,10.89-7.15,16.19l-0.18-0.09
						c2.37-5.39,4.46-10.9,6.48-16.43c1.01-2.76,2.03-5.53,2.98-8.31l1.45-4.17l1.38-4.19c3.68-11.18,7.19-22.42,10.28-33.78
						c6.39-22.66,11.98-45.55,16.74-68.61c4.74-23.07,8.71-46.31,11.84-69.66c1.54-11.68,2.85-23.39,3.83-35.13
						c0.95-11.74,1.69-23.52,1.5-35.29L1039.6,698.95z"/>
				</g>
				<g>
					<path class="st9" d="M677.55,135.98c-1.7,6.83-3.37,13.6-4.35,20.43c-0.49,3.41-0.83,6.82-0.93,10.23
						c-0.07,3.41,0.11,6.8,0.62,10.14c0.51,3.34,1.36,6.61,2.6,9.74c1.24,3.14,2.86,6.14,4.73,9.01c3.74,5.74,8.47,10.9,13.47,15.79
						c5.01,4.89,10.35,9.54,15.41,14.52c5.06,4.97,9.89,10.3,13.7,16.36c3.86,6.02,6.39,12.92,7.11,20.01
						c0.35,3.54,0.22,7.14-0.51,10.61c-0.73,3.47-2.08,6.82-4.05,9.75c1.87-3,3.09-6.36,3.68-9.82c0.6-3.46,0.6-7,0.13-10.46
						c-0.95-6.93-3.66-13.56-7.62-19.28c-3.93-5.77-8.83-10.81-13.99-15.54c-5.17-4.74-10.65-9.18-15.92-13.97
						c-5.25-4.79-10.32-9.92-14.51-15.87c-2.09-2.97-3.95-6.15-5.43-9.52c-1.48-3.38-2.55-6.95-3.23-10.56
						c-0.69-3.62-1.01-7.29-1.07-10.94c-0.03-3.65,0.2-7.28,0.6-10.87c0.78-7.19,2.25-14.2,3.72-21.12L677.55,135.98z"/>
				</g>
			</g>
		</g>
	</g>
	<g>
		<g>
			<g>
				<g>
					<g>
						<path class="st6" d="M980.13,1130.26c-140.57,0-254.52,114.11-254.52,254.87S839.56,1640,980.13,1640
							c140.56,0,254.52-114.11,254.52-254.87S1120.69,1130.26,980.13,1130.26z M1188.3,1363.51h-125.24
							c-2.06-8.63-5.33-16.78-9.63-24.21l86.18-89.83C1166.29,1280.86,1183.87,1320.24,1188.3,1363.51z M980.13,1440.08
							c-29.12,0-52.72-24.6-52.72-54.95c0-30.35,23.6-54.95,52.72-54.95c29.12,0,52.72,24.6,52.72,54.95
							C1032.85,1415.48,1009.25,1440.08,980.13,1440.08z M1000.87,1176.6c40.62,4,77.81,19.63,108.24,43.51l-85.02,88.62
							c-7.13-4.48-14.94-7.89-23.23-10.04V1176.6z M959.4,1176.6v122.09c-8.28,2.15-16.1,5.55-23.23,10.05l-85.02-88.62
							C881.58,1196.23,918.77,1180.6,959.4,1176.6z M820.65,1249.47l86.18,89.83c-4.3,7.43-7.57,15.58-9.63,24.21H771.97
							C776.39,1320.24,793.98,1280.86,820.65,1249.47z M771.97,1406.75H897.2c2.06,8.63,5.33,16.78,9.64,24.21l-86.2,89.85
							C793.98,1489.4,776.39,1450.03,771.97,1406.75z M959.4,1593.66c-40.62-4-77.81-19.63-108.24-43.52l85-88.6
							c7.14,4.47,14.94,7.89,23.24,10.04V1593.66z M1000.87,1593.66v-122.09c8.28-2.15,16.1-5.55,23.23-10.04l85.02,88.62
							C1078.69,1574.04,1041.49,1589.67,1000.87,1593.66z M1139.62,1520.81l-86.18-89.83c4.3-7.44,7.57-15.58,9.63-24.22h125.24
							C1183.87,1450.03,1166.29,1489.4,1139.62,1520.81z"/>
					</g>
				</g>
			</g>
		</g>
	</g>
</g>
<g id="Layer_5" class="st10">
	<g class="st1">
		<g>
			<g>
				<g>
					<g>
						<g>
							<g>
								<g>
									<path class="st11" d="M903.13,1043.18c-111.84,0-202.5,87.1-202.5,194.54s90.66,194.54,202.5,194.54
										c111.83,0,202.5-87.1,202.5-194.54S1014.96,1043.18,903.13,1043.18z M1068.75,1221.22h-99.64
										c-1.64-6.59-4.24-12.81-7.66-18.48l68.57-68.57C1051.24,1158.13,1065.23,1188.19,1068.75,1221.22z M919.63,1078.55
										c32.32,3.05,61.91,14.98,86.12,33.21l-67.64,67.64c-5.67-3.42-11.89-6.02-18.48-7.66V1078.55z M886.63,1078.55v93.19
										c-6.59,1.64-12.81,4.24-18.48,7.67l-67.64-67.64C824.72,1093.53,854.31,1081.6,886.63,1078.55z M776.24,1134.17
										l68.57,68.57c-3.42,5.67-6.02,11.89-7.66,18.48h-99.64C741.03,1188.19,755.02,1158.13,776.24,1134.17z M737.51,1254.22
										h99.64c1.64,6.59,4.24,12.81,7.67,18.48l-68.58,68.58C755.02,1317.31,741.03,1287.26,737.51,1254.22z M886.63,1396.89
										c-32.32-3.05-61.91-14.98-86.12-33.22l67.63-67.63c5.68,3.41,11.89,6.02,18.49,7.66V1396.89z M865.67,1237.72
										c0-20.69,16.77-37.46,37.46-37.46s37.46,16.77,37.46,37.46s-16.77,37.46-37.46,37.46S865.67,1258.41,865.67,1237.72z
										 M919.63,1396.89v-93.19c6.59-1.64,12.81-4.24,18.48-7.66l67.64,67.64C981.54,1381.91,951.95,1393.84,919.63,1396.89z
										 M1030.02,1341.28l-68.57-68.57c3.42-5.68,6.02-11.89,7.66-18.49h99.64C1065.23,1287.26,1051.24,1317.31,1030.02,1341.28z"
										/>
								</g>
							</g>
							<g>
								<g>
									<g>
										<g>
											<g>
												<g>
													<g>
														<g>
															<path class="st11" d="M1059.92,607.77c-10.98-31.04-40.4-96.67-99.98-147.84c-38.21-32.82-72.33-54.72-99.04-69.09
																c0,0-0.01,0-0.02-0.01c-0.05-0.02-0.16-0.08-0.33-0.17c-0.05-0.03-0.11-0.06-0.18-0.09
																c-4.11-2.06-30.9-15.41-47.57-21.44c-0.32-0.11-0.64-0.23-0.96-0.34c-0.91-0.32-1.78-0.61-2.61-0.88
																c-2.5-0.8-5.19-1.57-7.95-2.29c-11.48-2.99-24.22-5.12-30.1-5.36c-9.42-0.38-15.68-2.71-19.95-5.25
																c-2.17-1.28-3.83-2.62-5.14-3.8c-10.09-9.04-15.12-12.3-20.63-15.63c-4.08-2.46-21.86-6.4-32.23-10.93
																c-12.59-5.52-20.68-11.25-23.26-14.49c-6.8-8.5-8.54-29.63-8.54-29.63s-32.21,43.03-19.5,76.48
																c11.18,29.45,32.6,34.67,34.44,36.09c1.02,0.78,7.01,1.55,12.13,1.96c4.02-0.06,8.53,0.03,12.12,0.14l-4.78,0.13
																c-1.01,0.12-3.99,0-7.34-0.27c-2.86,0.04-5.47,0.16-7.32,0.4c-11.74,1.52-24.14,7.14-40.23,17.32
																c-22.47,14.22-41.35,33.55-48.72,42.75c-4.95,6.19-13.5,24.52-16.74,31.61c-1.39,3.03-25.89,37.9-26.65,38.92
																l4.14-5.84l-44.42,62.74c0,0-81.52,107.38-94.62,144.12c-2.92,8.17,1.36,22.65,1.36,22.65s1.82,30.34,8.3,36.82
																c1.55,1.55,8.37,7.72,12.8,13.12c2.94,3.58,14.38,8.97,25.08,10.96c6.6,1.22,25.2-0.34,38.53-2.08
																c-1.28,0.13,0.29-0.46,0.04-0.01l-0.01,0.01c3.23-0.42,6.15-0.86,8.52-1.26c2.23-0.39,16.37-2.13,26.49-5.06
																c3.58-1.03,10.19-5.78,14.66-9.06c1.96-1.44,3.32-12.79,5.19-23.27c0.94-5.25,4.61-14.15,11.04-20.75
																c3.32-3.4,13.1-8.84,21.78-13.32c4.19-2.16,11.77-6.47,19.62-10.14c3.23-1.52,15.28-7.44,29.32-14.03
																c0.27-0.13,0.55-0.25,0.84-0.39c2.13-0.97,4.81-2.09,7.81-3.25l0.01-0.01c0.02,0,0.04-0.01,0.06-0.02
																c8.08-3.77,20.24-7.51,37.18-9.64c0.1-0.01,0.21-0.03,0.31-0.04c0.29-0.05,0.57-0.09,0.85-0.13
																c9.37-1.39,17.17-1.92,23.59-0.8c6.53,1.14,29.35,10.3,36.16,16.2c9.31,8.07,16.13,18.03,21.02,28.63
																c10.36,22.42,12.11,47.74,10.58,64.28c-0.85,9.13-1.95,22.37-7.19,34.53c0,0-7.74,21.38-23.65,48.91
																c-10.1,17.49-44.07,63.96-59.67,95.16c-9.2,18.4-18.3,51.47-21.92,65.19c-3.87,14.63-5.81,32.52-5.81,44.06
																c0,5.12-0.24,14.9,0.13,23.18c0.42,9.68,2.49,18.36,2.95,22.99c0.73,7.41,7.41,32.28,8.52,33.88
																c0,0,0.41-20.26,2.89-29.18c1.33-4.81,6.97-24.03,10.8-32.11c1.89-3.99,8.97-15.85,17.77-25.92
																c4.01-4.58,12.76-16.02,30.36-28.99c17.55-12.93,20.5-15.09,47.3-28.46c18.44-9.21,37.68-16.59,46.61-20.03
																c6.06-2.34,32.97-12.15,62.29-21.96c36.1-12.08,75.51-22.2,88.88-25.65c0,0,44.84-36.72,58.2-54.82
																c10.81-14.64,19.71-34.51,23.78-44.02c11.13-25.99,24.6-91.7,25.85-120.95
																C1086.48,664.37,1065.46,623.41,1059.92,607.77z M454.85,779.58c0.33,0.04,0.58,0.05,0.73,0.03
																C455.29,779.71,455.05,779.7,454.85,779.58z M468.79,748.7c0.45,10.26-2.8,14.28-11.3,20.03
																c-1.55,1.05-2.54,4.88-3.1,6.65c-0.45,1.41-0.44,3.67,0.43,4.19c-2.11-0.28-7.29-1.82-8.97-3.28
																c-4.87-4.22-5.08-5.56-5.84-11.96c-0.7-5.94,2.69-11.58,6.45-16.24c6.78-8.39,15.49-15.52,25.75-18.84
																c-1.84,3.76-3.71,7.65-3.92,11.83C468.17,743.62,468.68,746.15,468.79,748.7z M687.59,477.98
																c-0.54,3.91-0.44,7.89-1.25,11.77c-1.18,5.67-4.3,10.94-8.26,15.59c-1.82,2.13-3.83,4.16-6.24,5.81
																c-7.16,4.88-16.89,5.82-26.04,5.82c-5.06,0.01-12.16,0.59-15.62,3.76c2.94-4.51,4.83-10.26,6.04-12.58
																c4.49-8.61,2.38-5.15,6.51-11.34c1.78-2.66,7.51-8.31,10.39-10.13c9.7-6.14,13.02-4.78,22.83-10.78
																c2.7-1.65,13.36-6.75,16.23-8.17C689.99,471.11,688.13,474.06,687.59,477.98z"/>
															<path class="st12" d="M468.79,748.7c0.45,10.26-2.8,14.28-11.3,20.03c-1.55,1.05-2.54,4.88-3.1,6.65
																c-0.45,1.41-0.44,3.67,0.43,4.19c-2.11-0.28-7.29-1.82-8.97-3.28c-4.87-4.22-5.08-5.56-5.84-11.96
																c-0.7-5.94,2.69-11.58,6.45-16.24c6.78-8.39,15.49-15.52,25.75-18.84c-1.84,3.76-3.71,7.65-3.92,11.83
																C468.17,743.62,468.68,746.15,468.79,748.7z"/>
														</g>
														<g>
															<g>
																<path class="st11" d="M1141.71,687.21c-0.56-16.54-3.33-48.78-6.17-65.91c-1.63-9.87-7.12-40.44-16.57-69.66
																	c-10.32-31.87-20.19-52.04-29.1-67.62c-8.92-15.63-27.31-44.54-37.58-59.38c-4.65-6.74-54.98-69.94-88.76-104.6
																	c-40.23-41.29-61.26-55.85-87.51-73.42c-8.86-5.93-40.39-25.15-53.36-30.03c-8.75-3.3-44-10.18-44-10.18
																	s0.79,26.84,0.67,31.34c-0.13,5.01-2.43,32.35-6.95,49.99c-3.44,13.47-21.24,64.7-21.24,64.7l0.09,2.57
																	c4.27,2.54,10.53,4.87,19.95,5.25c5.88,0.24,18.62,2.37,30.1,5.36c2.76,0.72,5.45,1.49,7.95,2.29
																	c0.83,0.27,1.7,0.56,2.61,0.88c0.32,0.11,0.64,0.23,0.96,0.34c16.67,6.03,43.46,19.38,47.57,21.44
																	c0.07,0.03,0.13,0.06,0.18,0.09c0.17,0.09,0.28,0.15,0.33,0.17c0.01,0.01,0.02,0.01,0.02,0.01
																	c26.71,14.37,60.83,36.27,99.04,69.09c59.58,51.17,89,116.8,99.98,147.84c5.54,15.64,26.56,56.6,23.24,134.53
																	c-1.25,29.25-14.72,94.96-25.85,120.95c-4.07,9.51-12.97,29.38-23.78,44.02c-13.36,18.1-58.2,54.82-58.2,54.82
																	c1.29-0.33,2.34-0.61,3.12-0.81c6.98-1.84,35.92-12.12,58.92-27.5c24.88-16.64,35.28-26.52,43.65-38.41
																	c11.78-16.73,30.03-53,37.04-73c3.42-9.74,13.95-34.37,18.81-63.75c5.33-32.24,4.34-49.03,4.34-49.04
																	C1141.21,709.58,1141.73,687.82,1141.71,687.21z"/>
															</g>
														</g>
													</g>
												</g>
											</g>
										</g>
										<path class="st13" d="M692.18,467.73c-2.19,3.38-4.05,6.33-4.59,10.25c-0.54,3.91-0.44,7.89-1.25,11.77
											c-1.18,5.67-4.3,10.94-8.26,15.59c-1.82,2.13-3.83,4.16-6.24,5.81c-7.16,4.88-16.89,5.82-26.04,5.82
											c-5.06,0.01-12.16,0.59-15.62,3.76c2.94-4.51,4.83-10.26,6.04-12.58c4.49-8.61,2.38-5.15,6.51-11.34
											c1.78-2.66,7.51-8.31,10.39-10.13c9.7-6.14,13.02-4.78,22.83-10.78C678.65,474.25,689.31,469.15,692.18,467.73z"/>
									</g>
								</g>
							</g>
						</g>
					</g>
				</g>
				<g>
					<path d="M890.77,254.87c-0.08,3.38-0.39,6.5-0.79,9.7c-0.41,3.18-0.95,6.33-1.6,9.45c-0.65,3.13-1.46,6.21-2.36,9.27
						c-0.93,3.04-1.99,6.08-3.12,8.99c-2.22,5.87-4.55,11.71-6.97,17.5c-2.42,5.79-4.92,11.54-7.58,17.21
						c2.2-5.87,4.23-11.79,6.17-17.74c1.95-5.95,3.79-11.92,5.53-17.92c0.9-3.01,1.67-5.96,2.33-8.98c0.62-3.01,1.17-6.04,1.55-9.09
						c0.39-3.05,0.66-6.11,0.81-9.16c0.14-3.03,0.19-6.17,0.02-9.05L890.77,254.87z"/>
				</g>
				<g>
					<path d="M706.56,695.53c4.47,0.69,8.88,1.46,13.31,2.37c4.42,0.9,8.84,2.04,13.14,3.34l6.41,1.96c1.06,0.32,2.11,0.63,3.15,0.9
						c1.04,0.26,2.08,0.47,3.16,0.66c4.33,0.75,8.77,1.27,13.19,1.78l6.65,0.71l3.33,0.33l1.66,0.16c0.5,0.06,1.05,0.07,1.61,0.1
						c4.44,0.21,8.9,0.34,13.35,0.36c4.45,0.03,8.9-0.05,13.32-0.32c4.39-0.29,8.76-0.97,13.08-1.96c8.63-1.98,17-5.1,25.15-8.68
						c4.02-1.76,7.74-4.22,11.3-6.86c3.57-2.64,6.96-5.54,10.17-8.61c1.6-1.54,3.17-3.13,4.66-4.78c0.75-0.82,1.49-1.65,2.19-2.51
						c0.73-0.85,1.41-1.71,2.05-2.61c2.57-3.61,4.52-7.65,6.06-11.82c0.77-2.09,1.43-4.22,1.98-6.38c0.55-2.16,1-4.35,1.44-6.54
						c0.39-2.19,0.87-4.4,0.64-6.62c-0.13-1.1-0.39-2.2-0.55-3.3c-0.17-1.1-0.27-2.22-0.37-3.33c0.12,1.11,0.24,2.22,0.43,3.32
						c0.18,1.1,0.45,2.19,0.61,3.3c0.28,2.25-0.17,4.48-0.51,6.68c-0.4,2.2-0.8,4.4-1.32,6.58c-0.52,2.18-1.14,4.34-1.88,6.46
						c-1.48,4.23-3.37,8.35-5.92,12.08c-0.63,0.93-1.32,1.84-2.03,2.7c-0.7,0.88-1.43,1.73-2.17,2.58
						c-1.47,1.69-3.02,3.32-4.61,4.91c-3.19,3.16-6.55,6.15-10.12,8.89c-1.78,1.38-3.6,2.7-5.5,3.92c-1.89,1.22-3.87,2.37-5.94,3.31
						c-8.14,3.76-16.54,7.07-25.3,9.26c-4.38,1.09-8.85,1.88-13.37,2.26c-4.5,0.36-8.99,0.52-13.48,0.57
						c-4.49,0.06-8.97,0.01-13.46-0.12c-0.55-0.02-1.13-0.02-1.74-0.08l-1.68-0.13l-3.35-0.27l-6.69-0.59
						c-4.47-0.43-8.92-0.87-13.41-1.56c-1.12-0.18-2.28-0.38-3.41-0.65c-1.13-0.27-2.22-0.57-3.31-0.87l-6.44-1.84
						c-4.28-1.2-8.54-2.22-12.9-3.02c-4.35-0.81-8.76-1.5-13.13-2.09L706.56,695.53z"/>
				</g>
				<g>
					<path d="M968.16,324.47c-0.92,4.72-2.02,9.32-3.31,13.91c-1.31,4.57-2.77,9.14-4.79,13.49c-1.98,4.34-4.33,8.47-6.82,12.49
						c-2.52,4-5.2,7.9-8.08,11.63c2.61-3.92,5-7.99,7.22-12.13c2.19-4.15,4.22-8.39,5.84-12.76c1.66-4.33,2.76-8.87,3.72-13.43
						c0.94-4.56,1.7-9.21,2.27-13.79L968.16,324.47z"/>
				</g>
				<g>
					<path d="M1035.06,400.82c-1.31,3.79-2.76,7.41-4.41,11.01c-1.64,3.58-3.48,7.1-5.67,10.41c-2.25,3.27-4.67,6.32-7.22,9.28
						c-2.56,2.95-5.23,5.8-8.12,8.41c2.66-2.84,5.06-5.9,7.34-9.03c2.26-3.13,4.41-6.39,6.3-9.7c1.82-3.35,3.31-6.89,4.6-10.5
						c1.29-3.6,2.42-7.32,3.34-10.97L1035.06,400.82z"/>
				</g>
				<g>
					<path d="M1090.65,483.51c-0.8,1.34-1.57,2.41-2.38,3.56c-0.81,1.13-1.64,2.23-2.48,3.32c-1.69,2.17-3.42,4.29-5.19,6.37
						c-1.77,2.08-3.58,4.12-5.46,6.11c-1.89,1.96-3.79,3.94-5.96,5.59c1.88-1.95,3.44-4.17,4.99-6.38c1.53-2.22,2.99-4.49,4.41-6.79
						c1.42-2.3,2.78-4.62,4.08-6.96c0.64-1.17,1.27-2.35,1.87-3.53c0.58-1.16,1.2-2.42,1.63-3.49L1090.65,483.51z"/>
				</g>
				<g>
					<path d="M508.45,672.51l17.24-23.91l17.33-23.85c5.77-7.95,11.44-15.98,17.41-23.79c6-7.78,11.97-15.58,18.29-23.13l0.16,0.12
						c-5.4,8.23-11.13,16.21-16.84,24.21c-5.75,7.97-11.78,15.72-17.73,23.55L526.5,649.2l-17.89,23.43L508.45,672.51z"/>
				</g>
				<g>
					<path d="M966.28,696.47c0.26,8.94-0.19,17.86-0.8,26.77c-0.63,8.91-1.53,17.8-2.59,26.67c-2.24,17.72-5.11,35.37-8.58,52.89
						c-3.47,17.52-7.39,34.99-12.53,52.12c-2.56,8.57-5.34,17.07-8.42,25.46c-3.11,8.38-6.4,16.71-10.43,24.7l-0.18-0.09
						c1.76-4.1,3.37-8.26,4.89-12.45c0.77-2.09,1.54-4.18,2.26-6.29c0.74-2.1,1.46-4.21,2.15-6.33c2.79-8.46,5.47-16.96,7.81-25.56
						c4.87-17.14,9.21-34.44,12.88-51.89c3.66-17.45,6.73-35.03,9.16-52.7c1.19-8.84,2.22-17.7,2.99-26.59
						c0.74-8.88,1.33-17.8,1.2-26.72L966.28,696.47z"/>
				</g>
			</g>
		</g>
	</g>
</g>
<g id="Layer_3" class="st10">
	<g class="st1">
		<g>
			<g>
				<g>
					<g>
						<path class="st14" d="M903.13,1043.18c-111.84,0-202.5,87.1-202.5,194.54s90.66,194.54,202.5,194.54
							c111.83,0,202.5-87.1,202.5-194.54S1014.96,1043.18,903.13,1043.18z M1068.75,1221.22h-99.64
							c-1.64-6.59-4.24-12.81-7.66-18.48l68.57-68.57C1051.24,1158.13,1065.23,1188.19,1068.75,1221.22z M919.63,1078.55
							c32.32,3.05,61.91,14.98,86.12,33.21l-67.64,67.64c-5.67-3.42-11.89-6.02-18.48-7.66V1078.55z M886.63,1078.55v93.19
							c-6.59,1.64-12.81,4.24-18.48,7.67l-67.64-67.64C824.72,1093.53,854.31,1081.6,886.63,1078.55z M776.24,1134.17l68.57,68.57
							c-3.42,5.67-6.02,11.89-7.66,18.48h-99.64C741.03,1188.19,755.02,1158.13,776.24,1134.17z M737.51,1254.22h99.64
							c1.64,6.59,4.24,12.81,7.67,18.48l-68.58,68.58C755.02,1317.31,741.03,1287.26,737.51,1254.22z M886.63,1396.89
							c-32.32-3.05-61.91-14.98-86.12-33.22l67.63-67.63c5.68,3.41,11.89,6.02,18.49,7.66V1396.89z M865.67,1237.72
							c0-20.69,16.77-37.46,37.46-37.46s37.46,16.77,37.46,37.46s-16.77,37.46-37.46,37.46S865.67,1258.41,865.67,1237.72z
							 M919.63,1396.89v-93.19c6.59-1.64,12.81-4.24,18.48-7.66l67.64,67.64C981.54,1381.91,951.95,1393.84,919.63,1396.89z
							 M1030.02,1341.28l-68.57-68.57c3.42-5.68,6.02-11.89,7.66-18.49h99.64C1065.23,1287.26,1051.24,1317.31,1030.02,1341.28z"/>
					</g>
				</g>
				<g>
					<g>
						<g>
							<g>
								<g>
									<g>
										<g>
											<g>
												<path class="st14" d="M767.88,841.02c5.24-12.16,6.34-25.39,7.18-34.53c2.25-24.36-2.6-67.77-31.6-92.91
													c-6.8-5.9-29.62-15.05-36.16-16.2c-9.05-1.58-20.84,0.12-35.89,2.87c-12.1,2.22-27.42,7.95-34.77,11.4
													c-14.04,6.59-26.08,12.51-29.32,14.03c-7.84,3.68-15.42,7.99-19.61,10.15c-8.69,4.48-18.46,9.92-21.78,13.32
													c-6.43,6.59-10.1,15.5-11.04,20.74c-1.87,10.49-3.23,21.84-5.19,23.27c-4.47,3.28-11.08,8.03-14.66,9.06
													c-10.12,2.93-24.26,4.67-26.49,5.05c-12.12,2.09-38.88,4.87-47.07,3.34c-10.7-1.99-22.14-7.38-25.08-10.96
													c-4.43-5.4-11.25-11.57-12.79-13.11c-6.49-6.49-8.31-36.82-8.31-36.82s-4.28-14.48-1.36-22.65
													c13.11-36.73,94.62-144.12,94.62-144.12"/>
											</g>
											<g>
												<g>
													<g>
														<g>
															<line class="st14" x1="575.58" y1="488.29" x2="508.56" y2="582.96"/>
														</g>
														<g>
															<path class="st14" d="M801.25,365.52c0,0,67.72,16.28,158.69,94.41c59.58,51.17,89,116.8,99.98,147.84
																c5.53,15.64,26.56,56.6,23.24,134.53c-1.25,29.25-14.72,94.96-25.85,120.95c-4.07,9.51-12.97,29.38-23.78,44.02
																c-13.36,18.1-58.2,54.82-58.2,54.82"/>
														</g>
														<g>
															<g>
																<path class="st15" d="M860.9,390.84c-4.59-2.07-9.21-4.06-13.82-6.07c-4.61-2.01-9.24-3.97-13.88-5.89
																	c-4.64-1.93-9.29-3.8-13.98-5.55c-4.71-1.74-9.36-3.39-14.17-4.62c-4.8-1.28-9.68-2.31-14.57-3.22
																	c-4.9-0.88-9.82-1.7-14.71-2.22c-2.48-0.29-4.7-0.33-7.44-0.46c-2.63-0.19-5.26-0.54-7.88-1.12
																	c-2.62-0.58-5.21-1.41-7.71-2.54c-2.5-1.13-4.88-2.59-7.03-4.29c-0.54-0.43-1.06-0.86-1.57-1.31l-1.41-1.23
																	l-2.83-2.41c-1.9-1.59-3.82-3.14-5.77-4.61c-1.95-1.48-3.93-2.87-5.98-4.19c-1.02-0.66-2.06-1.3-3.12-1.93
																	l-0.8-0.48l-0.4-0.24c-0.14-0.08-0.2-0.1-0.3-0.15c-0.31-0.18-0.86-0.39-1.35-0.59c-2.13-0.8-4.53-1.54-6.91-2.25
																	l-7.23-2.13c-4.85-1.45-9.73-2.93-14.62-4.88c-2.48-1-4.75-2.06-7.1-3.2c-2.32-1.13-4.62-2.33-6.88-3.64
																	c-2.26-1.3-4.47-2.72-6.63-4.3c-1.08-0.79-2.15-1.64-3.2-2.57l-0.79-0.73l-0.79-0.81
																	c-0.26-0.29-0.54-0.61-0.79-0.92l-0.65-0.92c-1.71-2.46-2.87-5-3.78-7.53c-0.92-2.53-1.66-5.08-2.25-7.62
																	c-1.2-5.12-1.99-10.14-2.48-15.4l6.03,1.73c-1.76,2.39-3.54,5.04-5.17,7.67c-1.65,2.64-3.22,5.34-4.7,8.09
																	c-2.97,5.49-5.56,11.17-7.66,17c-2.09,5.83-3.76,11.81-4.53,17.9c-0.24,1.52-0.31,3.04-0.44,4.57
																	c-0.03,1.52-0.13,3.05-0.05,4.57c0,1.53,0.18,3.03,0.31,4.54c0.1,0.75,0.23,1.49,0.35,2.24l0.18,1.12l0.25,1.1
																	c0.18,0.73,0.31,1.48,0.53,2.2l0.67,2.16c0.48,1.44,1.11,2.88,1.66,4.33c0.52,1.47,1.27,2.82,1.92,4.23
																	c0.35,0.69,0.65,1.41,1.03,2.08l1.16,2.01c3.13,5.33,6.98,10.27,11.66,14.37c2.33,2.05,4.87,3.88,7.53,5.5
																	c1.33,0.81,2.7,1.57,4.11,2.27c0.7,0.35,1.42,0.69,2.14,1.03l1.11,0.54l0.65,0.39c0.15,0.07,0.2,0.11,0.33,0.18
																	c1.33,0.5,2.95,0.8,4.48,1.08c1.56,0.28,3.13,0.52,4.7,0.74c1.58,0.22,3.16,0.41,4.74,0.58
																	c1.58,0.15,3.17,0.33,4.76,0.3c-1.59,0.17-3.19,0.13-4.79,0.11c-1.6-0.03-3.2-0.08-4.79-0.17
																	c-1.6-0.09-3.2-0.19-4.79-0.36c-1.61-0.19-3.17-0.33-4.87-0.83c-0.23-0.09-0.52-0.25-0.73-0.36
																	c-0.14-0.06-0.27-0.12-0.4-0.19l-1.08-0.43c-0.75-0.29-1.49-0.58-2.24-0.89c-1.5-0.62-2.97-1.3-4.42-2.05
																	c-2.87-1.52-5.64-3.28-8.22-5.3c-5.17-4.02-9.59-9-13.14-14.51l-1.33-2.07c-0.44-0.69-0.79-1.43-1.2-2.15
																	c-0.76-1.45-1.62-2.86-2.24-4.38c-0.65-1.51-1.38-2.96-1.97-4.52l-0.85-2.37c-0.28-0.79-0.46-1.61-0.7-2.42
																	l-0.33-1.21c-0.1-0.41-0.17-0.82-0.25-1.23c-0.15-0.82-0.33-1.64-0.47-2.47c-0.2-1.66-0.45-3.32-0.51-4.98
																	c-0.14-1.67-0.1-3.33-0.11-4.99c0.09-1.65,0.11-3.32,0.31-4.96c0.63-6.6,2.15-13.04,4.22-19.26
																	c2.1-6.21,4.7-12.21,7.68-18c1.49-2.9,3.07-5.74,4.74-8.54c1.69-2.81,3.38-5.52,5.38-8.28l5.14-7.1l0.89,8.84
																	c0.48,4.75,1.28,9.69,2.41,14.36c0.56,2.35,1.25,4.64,2.06,6.83c0.79,2.2,1.8,4.26,2.97,5.91l0.43,0.62l0.44,0.51
																	l0.53,0.54l0.6,0.55c0.83,0.72,1.74,1.44,2.69,2.13c1.9,1.39,3.96,2.65,6.04,3.88c4.17,2.43,8.64,4.63,13.07,6.5
																	c4.44,1.81,9.2,3.3,13.97,4.76l7.23,2.19c2.44,0.76,4.85,1.48,7.41,2.5c0.67,0.3,1.29,0.53,2.08,0.98
																	c0.17,0.1,0.4,0.21,0.53,0.29l0.41,0.25l0.81,0.51c1.09,0.68,2.18,1.38,3.25,2.11c2.16,1.45,4.26,2.99,6.29,4.59
																	c2.03,1.6,3.99,3.25,5.92,4.93l2.86,2.54l1.41,1.27c0.43,0.39,0.87,0.77,1.31,1.13c3.51,2.9,7.72,4.86,12.28,6.04
																	c2.27,0.59,4.63,0.98,7.01,1.23c2.28,0.19,5.1,0.35,7.6,0.73c10.16,1.46,20.02,3.78,29.76,6.79
																	c4.88,1.49,9.66,3.41,14.26,5.46c4.63,2.05,9.19,4.2,13.73,6.41C843.19,381.25,852.11,385.93,860.9,390.84z"/>
															</g>
														</g>
														<g>
															<g>
																<path class="st15" d="M548.82,523.58c4.82-7.65,9.86-15.14,14.83-22.66c2.5-3.74,5.04-7.48,7.45-11.23l0.89-1.41
																	l0.84-1.38c0.15-0.24,0.19-0.36,0.3-0.55c0.05-0.09,0.09-0.15,0.14-0.26l0.17-0.39l0.66-1.56l2.7-6.24
																	c1.82-4.15,3.72-8.28,5.78-12.36c1.03-2.04,2.07-4.08,3.24-6.1c1.17-2.02,2.33-4.04,3.91-6.07
																	c5.81-7.29,12.22-13.76,18.93-19.99c3.38-3.08,6.85-6.06,10.39-8.95c3.59-2.84,7.21-5.63,10.98-8.25
																	c3.76-2.6,7.63-5.13,11.56-7.42c3.92-2.33,7.94-4.53,12.07-6.54c4.13-2,8.37-3.86,12.77-5.31
																	c4.41-1.42,8.96-2.54,13.6-3c2.35-0.24,4.68-0.21,6.95-0.16c2.28,0.06,4.54,0.17,6.8,0.35
																	c4.52,0.33,9.02,0.77,13.5,1.37c-4.52,0.18-9.03,0.34-13.52,0.57c-2.25,0.13-4.49,0.24-6.71,0.42
																	c-2.23,0.19-4.41,0.39-6.52,0.84c-8.59,1.67-16.62,5.46-24.33,9.75c-7.66,4.43-15.19,9.26-22.29,14.52
																	c-7.13,5.27-13.96,10.96-20.51,16.96c-3.28,3-6.47,6.08-9.58,9.25c-3.11,3.15-6.13,6.41-8.92,9.73
																	c-1.24,1.49-2.41,3.34-3.55,5.19c-1.14,1.86-2.24,3.78-3.33,5.72c-2.15,3.89-4.25,7.84-6.31,11.83l-3.04,6
																	l-0.75,1.51c-0.18,0.42-0.69,1.25-1.02,1.75c-0.68,0.98-1.38,1.9-2.07,2.8c-2.78,3.62-5.59,7.14-8.44,10.65
																	C560.65,509.92,554.87,516.85,548.82,523.58z"/>
															</g>
														</g>
														<g>
															<path class="st14" d="M767.88,841.02c0,0-7.75,21.38-23.65,48.92c-10.1,17.49-44.07,63.96-59.67,95.15
																c-9.2,18.4-18.3,51.47-21.92,65.19c-3.87,14.63-5.81,32.52-5.81,44.06c0,5.12-0.24,14.9,0.13,23.18
																c0.43,9.68,2.5,18.37,2.95,22.99c0.73,7.41,7.41,32.28,8.52,33.88c0,0,0.42-20.26,2.89-29.18
																c1.33-4.81,6.97-24.04,10.8-32.11c1.9-4,8.97-15.85,17.78-25.92c4.01-4.59,12.76-16.02,30.36-28.99
																c17.54-12.93,20.49-15.09,47.29-28.46c18.44-9.2,37.68-16.58,46.61-20.03c6.06-2.34,32.96-12.14,62.29-21.96
																c39.59-13.25,83.17-24.14,92-26.46c6.98-1.84,35.92-12.12,58.92-27.5c24.88-16.64,35.28-26.52,43.65-38.4
																c11.79-16.73,30.03-53,37.04-73c3.41-9.74,13.95-34.37,18.81-63.75c5.33-32.23,4.34-49.02,4.34-49.04
																c0,0,0.52-21.76,0.5-22.37c-0.56-16.54-3.33-48.78-6.17-65.91c-1.63-9.88-7.12-40.45-16.58-69.66
																c-10.32-31.87-20.19-52.05-29.09-67.63c-8.93-15.62-27.31-44.53-37.58-59.38c-4.66-6.73-54.99-69.94-88.76-104.6
																c-40.23-41.29-61.27-55.85-87.51-73.42c-8.86-5.93-40.39-25.15-53.36-30.03c-8.75-3.3-44-10.18-44-10.18
																s0.8,26.84,0.68,31.34c-0.13,5.02-2.43,32.35-6.95,50c-3.45,13.47-21.24,64.69-21.24,64.69"/>
														</g>
														<g>
															<g>
																<path class="st15" d="M645.31,708.02c8.59-4.44,18-7.17,27.46-9.17c2.37-0.5,4.76-0.92,7.15-1.31
																	c1.17-0.19,2.45-0.35,3.54-0.58c1.11-0.21,2.29-0.51,3.44-0.8c4.62-1.21,9.25-2.52,13.85-3.9
																	c9.19-2.8,18.38-5.64,27.4-8.88c4.51-1.62,9-3.25,13.32-5.19c4.38-1.95,8.71-3.98,12.93-6.18
																	c8.46-4.34,16.55-9.39,23.42-15.84c3.46-3.17,6.62-6.71,9.57-10.43c2.93-3.72,5.65-7.61,8.02-11.7
																	c2.34-4.1,4.37-8.4,5.83-12.87c0.74-2.23,1.34-4.51,1.72-6.81c0.35-2.28,0.51-4.72,0.67-7.08
																	c0.12-2.37,0.15-4.75,0-7.12c-0.17-2.36-0.52-4.71-1.1-7.01c-1.16-4.61-3.43-8.9-6.1-12.91
																	c1.5,1.89,2.91,3.85,4.15,5.94c1.23,2.1,2.25,4.33,3.02,6.65c0.78,2.33,1.26,4.74,1.58,7.17
																	c0.29,2.43,0.4,4.88,0.42,7.32c-0.03,1.22-0.02,2.44-0.1,3.65l-0.09,1.82l-0.16,1.86
																	c-0.29,2.47-0.82,4.89-1.48,7.26c-1.32,4.76-3.33,9.28-5.61,13.62c-2.31,4.33-5.01,8.45-7.98,12.34
																	c-2.97,3.88-6.16,7.62-9.74,11.04c-7.13,6.85-15.56,12.13-24.18,16.63c-4.34,2.22-8.75,4.26-13.19,6.2
																	c-4.49,1.96-9.07,3.64-13.66,5.18c-4.59,1.55-9.21,2.99-13.84,4.37c-4.63,1.4-9.28,2.7-13.95,3.93
																	c-4.68,1.22-9.35,2.44-14.1,3.45c-1.2,0.25-2.37,0.49-3.64,0.68c-1.28,0.2-2.4,0.28-3.62,0.43
																	c-2.38,0.28-4.75,0.6-7.12,0.97C663.65,702.23,654.25,704.39,645.31,708.02z"/>
															</g>
														</g>
														<g>
															<line class="st14" x1="575.58" y1="488.29" x2="508.56" y2="582.96"/>
														</g>
														<g>
															<path class="st14" d="M801.25,365.52c0,0,67.72,16.28,158.69,94.41c59.58,51.17,89,116.8,99.98,147.84
																c5.53,15.64,26.56,56.6,23.24,134.53c-1.25,29.25-14.72,94.96-25.85,120.95c-4.07,9.51-12.97,29.38-23.78,44.02
																c-13.36,18.1-58.2,54.82-58.2,54.82"/>
														</g>
														<g>
															<g>
																<path class="st15" d="M860.9,390.84c-4.59-2.07-9.21-4.06-13.82-6.07c-4.61-2.01-9.24-3.97-13.88-5.89
																	c-4.64-1.93-9.29-3.8-13.98-5.55c-4.71-1.74-9.36-3.39-14.17-4.62c-4.8-1.28-9.68-2.31-14.57-3.22
																	c-4.9-0.88-9.82-1.7-14.71-2.22c-2.48-0.29-4.7-0.33-7.44-0.46c-2.63-0.19-5.26-0.54-7.88-1.12
																	c-2.62-0.58-5.21-1.41-7.71-2.54c-2.5-1.13-4.88-2.59-7.03-4.29c-0.54-0.43-1.06-0.86-1.57-1.31l-1.41-1.23
																	l-2.83-2.41c-1.9-1.59-3.82-3.14-5.77-4.61c-1.95-1.48-3.93-2.87-5.98-4.19c-1.02-0.66-2.06-1.3-3.12-1.93
																	l-0.8-0.48l-0.4-0.24c-0.14-0.08-0.2-0.1-0.3-0.15c-0.31-0.18-0.86-0.39-1.35-0.59c-2.13-0.8-4.53-1.54-6.91-2.25
																	l-7.23-2.13c-4.85-1.45-9.73-2.93-14.62-4.88c-2.48-1-4.75-2.06-7.1-3.2c-2.32-1.13-4.62-2.33-6.88-3.64
																	c-2.26-1.3-4.47-2.72-6.63-4.3c-1.08-0.79-2.15-1.64-3.2-2.57l-0.79-0.73l-0.79-0.81
																	c-0.26-0.29-0.54-0.61-0.79-0.92l-0.65-0.92c-1.71-2.46-2.87-5-3.78-7.53c-0.92-2.53-1.66-5.08-2.25-7.62
																	c-1.2-5.12-1.99-10.14-2.48-15.4l6.03,1.73c-1.76,2.39-3.54,5.04-5.17,7.67c-1.65,2.64-3.22,5.34-4.7,8.09
																	c-2.97,5.49-5.56,11.17-7.66,17c-2.09,5.83-3.76,11.81-4.53,17.9c-0.24,1.52-0.31,3.04-0.44,4.57
																	c-0.03,1.52-0.13,3.05-0.05,4.57c0,1.53,0.18,3.03,0.31,4.54c0.1,0.75,0.23,1.49,0.35,2.24l0.18,1.12l0.25,1.1
																	c0.18,0.73,0.31,1.48,0.53,2.2l0.67,2.16c0.48,1.44,1.11,2.88,1.66,4.33c0.52,1.47,1.27,2.82,1.92,4.23
																	c0.35,0.69,0.65,1.41,1.03,2.08l1.16,2.01c3.13,5.33,6.98,10.27,11.66,14.37c2.33,2.05,4.87,3.88,7.53,5.5
																	c1.33,0.81,2.7,1.57,4.11,2.27c0.7,0.35,1.42,0.69,2.14,1.03l1.11,0.54l0.65,0.39c0.15,0.07,0.2,0.11,0.33,0.18
																	c1.33,0.5,2.95,0.8,4.48,1.08c1.56,0.28,3.13,0.52,4.7,0.74c1.58,0.22,3.16,0.41,4.74,0.58
																	c1.58,0.15,3.17,0.33,4.76,0.3c-1.59,0.17-3.19,0.13-4.79,0.11c-1.6-0.03-3.2-0.08-4.79-0.17
																	c-1.6-0.09-3.2-0.19-4.79-0.36c-1.61-0.19-3.17-0.33-4.87-0.83c-0.23-0.09-0.52-0.25-0.73-0.36
																	c-0.14-0.06-0.27-0.12-0.4-0.19l-1.08-0.43c-0.75-0.29-1.49-0.58-2.24-0.89c-1.5-0.62-2.97-1.3-4.42-2.05
																	c-2.87-1.52-5.64-3.28-8.22-5.3c-5.17-4.02-9.59-9-13.14-14.51l-1.33-2.07c-0.44-0.69-0.79-1.43-1.2-2.15
																	c-0.76-1.45-1.62-2.86-2.24-4.38c-0.65-1.51-1.38-2.96-1.97-4.52l-0.85-2.37c-0.28-0.79-0.46-1.61-0.7-2.42
																	l-0.33-1.21c-0.1-0.41-0.17-0.82-0.25-1.23c-0.15-0.82-0.33-1.64-0.47-2.47c-0.2-1.66-0.45-3.32-0.51-4.98
																	c-0.14-1.67-0.1-3.33-0.11-4.99c0.09-1.65,0.11-3.32,0.31-4.96c0.63-6.6,2.15-13.04,4.22-19.26
																	c2.1-6.21,4.7-12.21,7.68-18c1.49-2.9,3.07-5.74,4.74-8.54c1.69-2.81,3.38-5.52,5.38-8.28l5.14-7.1l0.89,8.84
																	c0.48,4.75,1.28,9.69,2.41,14.36c0.56,2.35,1.25,4.64,2.06,6.83c0.79,2.2,1.8,4.26,2.97,5.91l0.43,0.62l0.44,0.51
																	l0.53,0.54l0.6,0.55c0.83,0.72,1.74,1.44,2.69,2.13c1.9,1.39,3.96,2.65,6.04,3.88c4.17,2.43,8.64,4.63,13.07,6.5
																	c4.44,1.81,9.2,3.3,13.97,4.76l7.23,2.19c2.44,0.76,4.85,1.48,7.41,2.5c0.67,0.3,1.29,0.53,2.08,0.98
																	c0.17,0.1,0.4,0.21,0.53,0.29l0.41,0.25l0.81,0.51c1.09,0.68,2.18,1.38,3.25,2.11c2.16,1.45,4.26,2.99,6.29,4.59
																	c2.03,1.6,3.99,3.25,5.92,4.93l2.86,2.54l1.41,1.27c0.43,0.39,0.87,0.77,1.31,1.13c3.51,2.9,7.72,4.86,12.28,6.04
																	c2.27,0.59,4.63,0.98,7.01,1.23c2.28,0.19,5.1,0.35,7.6,0.73c10.16,1.46,20.02,3.78,29.76,6.79
																	c4.88,1.49,9.66,3.41,14.26,5.46c4.63,2.05,9.19,4.2,13.73,6.41C843.19,381.25,852.11,385.93,860.9,390.84z"/>
															</g>
														</g>
														<g>
															<g>
																<path class="st15" d="M548.82,523.58c4.82-7.65,9.86-15.14,14.83-22.66c2.5-3.74,5.04-7.48,7.45-11.23l0.89-1.41
																	l0.84-1.38c0.15-0.24,0.19-0.36,0.3-0.55c0.05-0.09,0.09-0.15,0.14-0.26l0.17-0.39l0.66-1.56l2.7-6.24
																	c1.82-4.15,3.72-8.28,5.78-12.36c1.03-2.04,2.07-4.08,3.24-6.1c1.17-2.02,2.33-4.04,3.91-6.07
																	c5.81-7.29,12.22-13.76,18.93-19.99c3.38-3.08,6.85-6.06,10.39-8.95c3.59-2.84,7.21-5.63,10.98-8.25
																	c3.76-2.6,7.63-5.13,11.56-7.42c3.92-2.33,7.94-4.53,12.07-6.54c4.13-2,8.37-3.86,12.77-5.31
																	c4.41-1.42,8.96-2.54,13.6-3c2.35-0.24,4.68-0.21,6.95-0.16c2.28,0.06,4.54,0.17,6.8,0.35
																	c4.52,0.33,9.02,0.77,13.5,1.37c-4.52,0.18-9.03,0.34-13.52,0.57c-2.25,0.13-4.49,0.24-6.71,0.42
																	c-2.23,0.19-4.41,0.39-6.52,0.84c-8.59,1.67-16.62,5.46-24.33,9.75c-7.66,4.43-15.19,9.26-22.29,14.52
																	c-7.13,5.27-13.96,10.96-20.51,16.96c-3.28,3-6.47,6.08-9.58,9.25c-3.11,3.15-6.13,6.41-8.92,9.73
																	c-1.24,1.49-2.41,3.34-3.55,5.19c-1.14,1.86-2.24,3.78-3.33,5.72c-2.15,3.89-4.25,7.84-6.31,11.83l-3.04,6
																	l-0.75,1.51c-0.18,0.42-0.69,1.25-1.02,1.75c-0.68,0.98-1.38,1.9-2.07,2.8c-2.78,3.62-5.59,7.14-8.44,10.65
																	C560.65,509.92,554.87,516.85,548.82,523.58z"/>
															</g>
														</g>
														<g>
															<path class="st14" d="M767.88,841.02c0,0-7.75,21.38-23.65,48.92c-10.1,17.49-44.07,63.96-59.67,95.15
																c-9.2,18.4-18.3,51.47-21.92,65.19c-3.87,14.63-5.81,32.52-5.81,44.06c0,5.12-0.24,14.9,0.13,23.18
																c0.43,9.68,2.5,18.37,2.95,22.99c0.73,7.41,7.41,32.28,8.52,33.88c0,0,0.42-20.26,2.89-29.18
																c1.33-4.81,6.97-24.04,10.8-32.11c1.9-4,8.97-15.85,17.78-25.92c4.01-4.59,12.76-16.02,30.36-28.99
																c17.54-12.93,20.49-15.09,47.29-28.46c18.44-9.2,37.68-16.58,46.61-20.03c6.06-2.34,32.96-12.14,62.29-21.96
																c39.59-13.25,83.17-24.14,92-26.46c6.98-1.84,35.92-12.12,58.92-27.5c24.88-16.64,35.28-26.52,43.65-38.4
																c11.79-16.73,30.03-53,37.04-73c3.41-9.74,13.95-34.37,18.81-63.75c5.33-32.23,4.34-49.02,4.34-49.04
																c0,0,0.52-21.76,0.5-22.37c-0.56-16.54-3.33-48.78-6.17-65.91c-1.63-9.88-7.12-40.45-16.58-69.66
																c-10.32-31.87-20.19-52.05-29.09-67.63c-8.93-15.62-27.31-44.53-37.58-59.38c-4.66-6.73-54.99-69.94-88.76-104.6
																c-40.23-41.29-61.27-55.85-87.51-73.42c-8.86-5.93-40.39-25.15-53.36-30.03c-8.75-3.3-44-10.18-44-10.18
																s0.8,26.84,0.68,31.34c-0.13,5.02-2.43,32.35-6.95,50c-3.45,13.47-21.24,64.69-21.24,64.69"/>
														</g>
														<g>
															<g>
																<path class="st15" d="M645.31,708.02c8.59-4.44,18-7.17,27.46-9.17c2.37-0.5,4.76-0.92,7.15-1.31
																	c1.17-0.19,2.45-0.35,3.54-0.58c1.11-0.21,2.29-0.51,3.44-0.8c4.62-1.21,9.25-2.52,13.85-3.9
																	c9.19-2.8,18.38-5.64,27.4-8.88c4.51-1.62,9-3.25,13.32-5.19c4.38-1.95,8.71-3.98,12.93-6.18
																	c8.46-4.34,16.55-9.39,23.42-15.84c3.46-3.17,6.62-6.71,9.57-10.43c2.93-3.72,5.65-7.61,8.02-11.7
																	c2.34-4.1,4.37-8.4,5.83-12.87c0.74-2.23,1.34-4.51,1.72-6.81c0.35-2.28,0.51-4.72,0.67-7.08
																	c0.12-2.37,0.15-4.75,0-7.12c-0.17-2.36-0.52-4.71-1.1-7.01c-1.16-4.61-3.43-8.9-6.1-12.91
																	c1.5,1.89,2.91,3.85,4.15,5.94c1.23,2.1,2.25,4.33,3.02,6.65c0.78,2.33,1.26,4.74,1.58,7.17
																	c0.29,2.43,0.4,4.88,0.42,7.32c-0.03,1.22-0.02,2.44-0.1,3.65l-0.09,1.82l-0.16,1.86
																	c-0.29,2.47-0.82,4.89-1.48,7.26c-1.32,4.76-3.33,9.28-5.61,13.62c-2.31,4.33-5.01,8.45-7.98,12.34
																	c-2.97,3.88-6.16,7.62-9.74,11.04c-7.13,6.85-15.56,12.13-24.18,16.63c-4.34,2.22-8.75,4.26-13.19,6.2
																	c-4.49,1.96-9.07,3.64-13.66,5.18c-4.59,1.55-9.21,2.99-13.84,4.37c-4.63,1.4-9.28,2.7-13.95,3.93
																	c-4.68,1.22-9.35,2.44-14.1,3.45c-1.2,0.25-2.37,0.49-3.64,0.68c-1.28,0.2-2.4,0.28-3.62,0.43
																	c-2.38,0.28-4.75,0.6-7.12,0.97C663.65,702.23,654.25,704.39,645.31,708.02z"/>
															</g>
														</g>
													</g>
												</g>
											</g>
										</g>
									</g>
								</g>
							</g>
							<path class="st17" d="M636.22,508.15c4.5-8.6,2.38-5.15,6.52-11.34c1.78-2.66,7.51-8.31,10.38-10.13
								c9.7-6.14,13.02-4.77,22.83-10.78c2.7-1.65,13.37-6.75,16.24-8.18c-2.19,3.38-4.05,6.34-4.59,10.25
								c-0.54,3.91-0.44,7.89-1.25,11.77c-1.19,5.67-4.3,10.95-8.26,15.6c-1.82,2.13-3.83,4.16-6.24,5.8
								c-7.16,4.88-16.89,5.83-26.04,5.83c-5.06,0-12.16,0.58-15.62,3.75C633.12,516.22,635.01,510.47,636.22,508.15z"/>
							<g>
								<path class="st18" d="M445.85,776.29c-4.87-4.23-5.08-5.56-5.83-11.97c-0.7-5.94,2.68-11.58,6.44-16.24
									c6.78-8.39,15.49-15.52,25.75-18.84c-1.84,3.76-3.71,7.65-3.91,11.83c-0.12,2.54,0.38,5.08,0.5,7.62
									c0.45,10.26-2.79,14.28-11.3,20.03c-1.54,1.04-2.53,4.87-3.1,6.65c-0.57,1.78-0.4,4.93,1.31,4.19
									C455.13,779.96,447.89,778.07,445.85,776.29z"/>
							</g>
							<g>
								<path class="st15" d="M500.04,808.55c0.05-0.09,0.01-0.17-0.09-0.15c-0.08,0-0.16,0.03-0.24,0.06
									c-0.04,0.02-0.07,0.04-0.11,0.06c-0.05,0.03,0,0.05-0.04-0.04c0.02,0,0.14,0,0.21-0.02c0.34-0.05,0.66-0.16,0.98-0.29
									c0.63-0.27,1.25-0.6,1.87-0.93c1.24-0.66,2.49-1.33,3.8-1.94c0.65-0.31,1.33-0.59,2-0.85c0.64-0.25,1.27-0.51,1.9-0.8
									c1.25-0.56,2.47-1.19,3.64-1.86c0.59-0.33,1.19-0.61,1.76-0.91c0.57-0.32,1.07-0.63,1.39-0.99
									c0.93-0.97,1.84-1.97,2.68-3.05c1.71-2.13,3.27-4.41,4.74-6.76c1.47-2.34,2.83-4.77,4.08-7.22c0.61-1.22,1.23-2.5,1.67-3.66
									c0.43-1.32,0.91-2.62,1.31-3.96c1.68-5.3,2.98-10.76,4.68-16.21c1.7-5.44,4.06-10.86,7.5-15.56l1.3-1.75
									c0.45-0.56,0.93-1.11,1.4-1.66c0.91-1.13,1.96-2.12,2.94-3.18c2.04-2.08,4.33-3.89,6.65-5.56c2.33-1.67,4.7-3.21,7.06-4.75
									c2.37-1.53,4.77-3.08,7.3-4.45c2.63-1.18,5.35-2.21,8.16-2.89c2.81-0.68,5.7-0.95,8.52-0.74
									c-5.64,0.75-10.65,3.23-15.24,6.26c-2.4,1.35-4.77,2.79-7.1,4.33c-2.35,1.54-4.7,3.06-6.94,4.67
									c-2.24,1.61-4.38,3.31-6.28,5.25c-0.93,1-1.94,1.94-2.79,3.01l-1.32,1.57l-1.22,1.64c-3.22,4.4-5.42,9.43-7.07,14.71
									c-1.65,5.29-2.96,10.79-4.68,16.21c-0.41,1.36-0.89,2.7-1.34,4.05c-0.56,1.47-1.18,2.72-1.82,4.02
									c-1.3,2.55-2.7,5.04-4.22,7.46c-1.52,2.42-3.14,4.79-4.95,7.04c-0.89,1.13-1.87,2.22-2.89,3.28c-0.64,0.68-1.37,1.1-2,1.49
									c-0.65,0.4-1.29,0.77-1.98,1.04c-1.37,0.53-2.76,0.97-4.16,1.34c-0.7,0.19-1.4,0.35-2.11,0.51
									c-0.67,0.15-1.34,0.3-2.01,0.47c-1.34,0.35-2.67,0.78-4.03,1.2c-0.68,0.2-1.37,0.4-2.08,0.54
									c-0.35,0.07-0.73,0.11-1.09,0.09c-0.1-0.01-0.17,0-0.31-0.06c-0.01,0-0.05-0.03-0.05-0.09c0-0.06,0.02-0.05,0.03-0.08
									c0.04-0.04,0.05-0.03,0.08-0.05c0.05-0.02,0.09-0.03,0.14-0.04c0.09-0.02,0.18-0.03,0.28-0.01c0.05,0.01,0.1,0.03,0.12,0.08
									C500.09,808.47,500.06,808.51,500.04,808.55z"/>
							</g>
						</g>
					</g>
				</g>
			</g>
		</g>
	</g>
</g>
</svg>
