<?xml version="1.0" encoding="utf-8"?>
<!-- Generator: Adobe Adobe Illustrator 24.2.0, SVG Export Plug-In . SVG Version: 6.00 Build 0)  -->
<svg version="1.1" xmlns="http://www.w3.org/2000/svg" xmlns:xlink="http://www.w3.org/1999/xlink" x="0px" y="0px" width="1728px"
	 height="1728px" viewBox="0 0 1728 1728" style="enable-background:new 0 0 1728 1728;" xml:space="preserve">
<style type="text/css">
	.st0{stroke:#000000;stroke-miterlimit:10;}
	.st1{display:none;}
	.st2{display:inline;}
</style>
<g id="Layer_1">
	<g>
		<g>
			<g>
				<path d="M1045.75,615.5c12.53-32.34,29.3-61.31,49.97-88.04c2.41-3.12,5.11-6.04,7.86-8.87c4.75-4.88,8.54-5.07,12.77,1.37
					c10.43,15.86,18.76,32.87,27.61,49.56c10.21,19.24,20.11,38.67,27.64,59.23c8.61,23.52,15.64,47.45,22.25,71.63
					c10.33,37.79,14.55,76.01,14.01,114.99c-0.35,24.97-6.22,49.02-11.85,73.1c-7.28,31.16-18.91,60.8-34.02,88.91
					c-22.72,42.26-51.69,79.02-93.88,104c-22.15,13.11-44.34,26.31-67.9,36.46c-57.92,24.95-117.86,38.17-181.47,27.31
					c-45.66-7.8-88.08-23.8-128.44-46.32c-24.78-13.84-49.41-27.78-70.24-47.23c-21.95-20.49-38.65-45.09-52.55-71.56
					c-10.29-19.58-19.91-39.42-26.75-60.63c-15.68-48.6-24.63-97.67-19.59-149.22c5.07-51.92,19.08-101.32,38.02-149.39
					c9.65-24.5,21.82-48.09,35.22-70.93c5.59-9.52,10.14-19.6,16.13-28.97c5.07-7.92,9.49-7.78,14.95-1.27
					c16.62,19.81,30.54,41.41,42.6,64.26c12.45,23.56,20.15,49.01,28.4,74.09c11.72,35.67,18.97,72.52,26.04,109.45
					c5.24,27.33,11.18,54.67,20.09,81.3c8.57,25.59,19.61,49.82,33.72,72.67c20.61,33.36,46.54,61.33,82.28,79.1
					c4.1,2.04,7.21,1.46,11.06-0.5c35.93-18.22,61.39-46.67,82.64-80.36c22.55-35.76,35.95-75.03,45.32-115.38
					c6.62-28.48,11.45-57.58,17.14-86.37c2.89-14.64,6.88-29.22,11.47-43.62C1032.46,654.88,1039.56,635.79,1045.75,615.5z
					 M1193.64,826.73c6.21-108.93-30.54-205.24-86.17-297.58c-20.85,24.53-35.2,51.11-45.67,79.1
					c-13.52,36.12-26.94,72.48-34.59,110.55c-3.53,17.55-8.53,34.87-11.12,52.54c-3.97,27.06-11.82,53.12-19.35,79.19
					c-6.54,22.64-16.68,43.99-28.18,64.76c-23.04,41.64-54.56,74.24-97.22,95.76c-5.26,2.66-10.35,2.52-15.43-0.39
					c-4.05-2.32-8.11-4.63-12.2-6.88c-43.53-24.01-71.17-61.89-93.38-105.07c-12.91-25.1-20.02-52.01-28.1-78.66
					c-4.05-13.36-8-26.94-9.94-40.72c-5.04-35.9-12.91-71.23-23.65-105.66c-12.01-38.5-24.1-77.27-45.85-111.91
					c-6.75-10.74-12.66-22.07-21.65-32.19c-2.7,3.41-5.08,5.7-6.61,8.45c-26.45,47.57-49.68,96.27-64.83,149.06
					c-13.81,48.12-17.62,96.6-15.46,145.93c1.34,30.66,10.5,59.92,21.18,88.4c11.05,29.49,26.12,57.12,43.7,83.34
					c12.89,19.22,27.46,37.48,46.49,50.31c31.58,21.29,62.28,43.86,98.45,58.26c34.46,13.71,69.4,22.73,106.13,25.07
					c32.54,2.07,64.57-2.57,95.84-11.29c22.78-6.36,44.81-15.51,65.72-26.31c20.28-10.47,38.71-24.47,57.87-37.05
					c28.24-18.53,49.96-42.98,67.2-71.29c17.27-28.37,32.91-57.76,41.95-90.11C1185.5,878.16,1193.16,854.21,1193.64,826.73z"/>
				<path d="M705.41,528.24c-9.57-26.2-15.84-53.06-34.67-73.95c-4.47-4.96-4.97-8.91-0.17-14.86
					c21.88-27.14,46.8-51.41,70.47-76.86c16.78-18.04,32.33-37.11,45.9-57.96c13.93-21.4,26.52-43.24,36.14-66.88
					c3.13-7.71,5.44-15.58,7.3-23.61c1.46-6.32-0.23-11.31-5.2-16.37c-26.97-27.5-24.48-51.34-8.85-73.28
					c18.76-26.35,52.3-33.02,78.19-15.57c31.52,21.24,39.26,57.88,9.09,87.72c-6.35,6.28-7.98,11.99-5.75,20.03
					c9.11,32.82,25.82,61.67,44.27,90.06c23.65,36.38,55.09,65.59,84.14,97.08c10.69,11.59,20.29,24.18,30.95,35.81
					c4.75,5.18,4.28,9.29,0.36,14.14c-24.39,30.19-33.16,66.64-42.46,103.16c-5.87,23.06-9.73,46.37-12.76,69.81
					c-3.58,27.74-5.42,55.71-8.34,83.54c-2.87,27.33,0.02,55.39-10.81,81.71c-10.92,26.56-23.46,52.2-40.29,75.62
					c-19.73,27.44-42.84,51.6-68.48,73.58c-7.57,6.49-12.91,7.24-20.8,0.48c-29.28-25.09-55.75-52.79-76.63-85.15
					c-18.52-28.69-33.66-59.34-40.27-93.26c-3.23-16.58-0.6-33.66-2.92-50.52c-5.13-37.29-5.09-75.08-12.41-112.3
					C716.71,576.45,711.63,552.69,705.41,528.24z M908.5,140.93c-0.62-1.29-1.27-2.58-1.87-3.88
					c-10.32-22.24-40.4-36.31-59.33-25.51c-30.94,17.65-46.54,47.44-14.06,79.76c1.78,1.77,3.73,3.36,5.41,5.21
					c2.5,2.74,3.84,5.68,3.19,9.76c-2.63,16.41-6.9,32.46-13.91,47.38c-21.72,46.19-52.79,85.92-87.38,123.04
					c-21.15,22.69-42.91,44.83-62.8,68.76c4.8,8.08,9.7,15.6,13.87,23.49c12.94,24.48,21.91,50.68,28.5,77.32
					c4.26,17.24,8.4,34.7,11.01,52.51c3.22,22.03,5.48,44.09,7.49,66.22c2.11,23.23,5.33,46.38,6.95,69.64
					c1.86,26.76,8.04,52.41,18.21,77.01c9.07,21.94,23.01,41.21,36.91,60.28c17.95,24.63,39.39,46,63.32,65.98
					c6.52-5.82,12.41-10.94,18.16-16.21c19.31-17.7,36.59-37.25,51.46-58.78c13.42-19.43,26.52-39.01,34.31-61.76
					c8.68-25.36,11.65-51.47,15.19-77.86c6.01-44.78,6.11-90.15,15.57-134.61c5.37-25.24,10.29-50.53,18.53-74.95
					c8.13-24.08,18.32-47.37,32.74-68.04c-25.34-31.21-54.4-58.01-79.77-88.15c-35.42-42.06-69.22-85.02-82.07-140.4
					c-2.36-10.17-2.41-17.43,5.9-25.89C906.86,178.18,918.83,163.2,908.5,140.93z"/>
			</g>
		</g>
	</g>
	<g id="Layer_2">
		<g>
			<path d="M1193.64,826.73c6.21-108.93-30.54-205.24-86.17-297.58c-20.85,24.53-35.2,51.11-45.67,79.1
				c-13.52,36.12-26.94,72.48-34.59,110.55c-3.53,17.55-8.53,34.87-11.12,52.54c-3.97,27.06-11.82,53.12-19.35,79.19
				c-6.54,22.64-16.68,43.99-28.18,64.76c-23.04,41.64-54.56,74.24-97.22,95.76c-5.26,2.66-10.35,2.52-15.43-0.39
				c-4.05-2.32-8.11-4.63-12.2-6.88c-43.53-24.01-71.17-61.89-93.38-105.07c-12.91-25.1-20.02-52.01-28.1-78.66
				c-4.05-13.36-8-26.94-9.94-40.72c-5.04-35.9-12.91-71.23-23.65-105.66c-12.01-38.5-24.1-77.27-45.85-111.91
				c-6.75-10.74-12.66-22.07-21.65-32.19c-2.7,3.41-5.08,5.7-6.61,8.45c-26.45,47.57-49.68,96.27-64.83,149.06
				c-13.81,48.12-17.62,96.6-15.46,145.93c1.34,30.66,10.5,59.92,21.18,88.4c11.05,29.49,26.12,57.12,43.7,83.34
				c12.89,19.22,27.46,37.48,46.49,50.31c31.58,21.29,62.28,43.86,98.45,58.26c34.46,13.71,69.4,22.73,106.13,25.07
				c32.54,2.07,64.57-2.57,95.84-11.29c22.78-6.36,44.81-15.51,65.72-26.31c20.28-10.47,38.71-24.47,57.87-37.05
				c28.24-18.53,49.96-42.98,67.2-71.29c17.27-28.37,32.91-57.76,41.95-90.11C1185.5,878.16,1193.16,854.21,1193.64,826.73z"/>
			<path class="st0" d="M908.5,140.93c-0.62-1.29-1.27-2.58-1.87-3.88c-10.32-22.24-40.4-36.31-59.33-25.51
				c-30.94,17.65-46.54,47.44-14.06,79.76c1.78,1.77,3.73,3.36,5.41,5.21c2.5,2.74,3.84,5.68,3.19,9.76
				c-2.63,16.41-6.9,32.46-13.91,47.38c-21.72,46.19-52.79,85.92-87.38,123.04c-21.15,22.69-42.91,44.83-62.8,68.76
				c4.8,8.08,9.7,15.6,13.87,23.49c12.94,24.48,21.91,50.68,28.5,77.32c4.26,17.24,8.4,34.7,11.01,52.51
				c3.22,22.03,5.48,44.09,7.49,66.22c2.11,23.23,5.33,46.38,6.95,69.64c1.86,26.76,8.04,52.41,18.21,77.01
				c9.07,21.94,23.01,41.21,36.91,60.28c17.95,24.63,39.39,46,63.32,65.98c6.52-5.82,12.41-10.94,18.16-16.21
				c19.31-17.7,36.59-37.25,51.46-58.78c13.42-19.43,26.52-39.01,34.31-61.76c8.68-25.36,11.65-51.47,15.19-77.86
				c6.01-44.78,6.11-90.15,15.57-134.61c5.37-25.24,10.29-50.53,18.53-74.95c8.13-24.08,18.32-47.37,32.74-68.04
				c-25.34-31.21-54.4-58.01-79.77-88.15c-35.42-42.06-69.22-85.02-82.07-140.4c-2.36-10.17-2.41-17.43,5.9-25.89
				C906.86,178.18,918.83,163.2,908.5,140.93z"/>
		</g>
		<g>
			<path d="M1240.58,1056.59c31.49,15.3,56.52,38.53,72.05,76.18c11.26,27.29,14.05,56.01,8.84,85.9
				c-8.98,51.46-33.07,86.8-71.48,106.59c-5.03,2.59-5.02,2.63-12.54,1.53c-2.01-6.43,1.94-8.95,4.92-12.24
				c19.81-21.88,33.28-48.27,35.37-82.31c3.14-51.08-22.95-113.05-69.1-112.31c-32.79,0.53-52.45,28.02-63.28,63.99
				c-6.5,21.56-7.65,44.46-2.27,67.57c2.91,12.48-5.42,19.23-12.18,25c-23.55,20.1-50.93,29.4-76.92,42.55
				c-26.73,13.53-53.77,26.07-80.65,39.12c-15.19,7.38-30.33,14.92-48.25,23.75c33.88,16.06,64.77,30.82,95.72,45.35
				c27.36,12.85,54.8,25.42,82.18,38.17c34.18,15.91,68.42,31.62,102.47,47.95c12.14,5.82,22.72,7.44,36.24,1.62
				c23.3-10.04,49.53,18.82,50.76,50.32c0.81,20.55-2.06,38.51-15.35,51.62c-22.77,22.44-56.15,12.31-67.47-23.88
				c-6.06-19.38-16.7-25.07-29.23-30.96c-26.62-12.53-53.35-24.67-79.94-37.28c-28.09-13.32-56.09-26.96-84.1-40.56
				c-28.78-13.97-57.47-28.25-86.31-42.02c-20.95-10-42.02-19.57-63.14-28.98c-7.12-3.17-13.43,2.94-19.44,5.72
				c-43.99,20.38-87.66,41.86-131.42,63.02c-53.8,26.02-107.6,52.07-161.42,78.04c-1.85,0.89-4.03,0.7-5.87,1.61
				c-12.64,6.24-24.48,10.23-30.56,30.92c-10.79,36.76-42.74,46.55-67.27,24.52c-14.3-12.84-21.39-50.3-13.06-68.96
				c14.17-31.74,35.2-43.35,56.84-29.56c13.64,8.69,23.31-4.02,33.64-8.69c50.87-23.01,101.31-47.59,151.95-71.38
				c39.71-18.66,79.44-37.36,122.2-55.94c-13.45-7.29-24.43-14.11-35.87-19.29c-52.76-23.93-105.33-48.5-156.68-77.01
				c-5.46-3.03-11.02-6.61-15.5-11.46c-8.26-8.93-11.85-19.13-8.67-34.51c9.74-47.12-17.97-110.45-54.03-118.7
				c-26.82-6.14-54.51,8.9-68.26,40.03c-23.93,54.16-16.68,108.99,20.43,151.42c3.1,3.55,7.94,5.83,6.65,14.03
				c-10.88,5.11-19.8-4.41-27.34-10.05c-73.71-55.14-81.4-179.81-7.44-240.36c41.05-33.61,83.81-35.29,128.56-13.09
				c32.11,15.93,54.8,44.35,67.82,83.63c7.9,23.84,10.23,49.99,4.93,76.41c-6.14,30.66-4.28,27.8,17.11,37.56
				c26.37,12.04,52.02,26.24,78.14,39c26.84,13.11,55.06,23.16,80.17,40.06c26.61,17.91,48.5,6.98,71.96-4.7
				c24.95-12.42,49.76-25.3,74.7-37.75c29.42-14.69,58.8-29.51,88.44-43.45c6.97-3.28,8.59-6.66,6.22-15.47
				c-10.04-37.34-6.28-73.24,8.08-107.74c11.65-27.99,29.6-47.96,51.33-62.32C1167.24,1046.34,1203.02,1044.61,1240.58,1056.59z"/>
			<path d="M1240.58,1056.59c31.49,15.3,56.52,38.53,72.05,76.18c11.26,27.29,14.05,56.01,8.84,85.9
				c-8.98,51.46-33.07,86.8-71.48,106.59c-5.03,2.59-5.02,2.63-12.54,1.53c-2.01-6.43,1.94-8.95,4.92-12.24
				c19.81-21.88,33.28-48.27,35.37-82.31c3.14-51.08-22.95-113.05-69.1-112.31c-32.79,0.53-52.45,28.02-63.28,63.99
				c-6.5,21.56-7.65,44.46-2.27,67.57c2.91,12.48-5.42,19.23-12.18,25c-23.55,20.1-50.93,29.4-76.92,42.55
				c-26.73,13.53-53.77,26.07-80.65,39.12c-15.19,7.38-30.33,14.92-48.25,23.75c33.88,16.06,64.77,30.82,95.72,45.35
				c27.36,12.85,54.8,25.42,82.18,38.17c34.18,15.91,68.42,31.62,102.47,47.95c12.14,5.82,22.72,7.44,36.24,1.62
				c23.3-10.04,49.53,18.82,50.76,50.32c0.81,20.55-2.06,38.51-15.35,51.62c-22.77,22.44-56.15,12.31-67.47-23.88
				c-6.06-19.38-16.7-25.07-29.23-30.96c-26.62-12.53-53.35-24.67-79.94-37.28c-28.09-13.32-56.09-26.96-84.1-40.56
				c-28.78-13.97-57.47-28.25-86.31-42.02c-20.95-10-42.02-19.57-63.14-28.98c-7.12-3.17-13.43,2.94-19.44,5.72
				c-43.99,20.38-87.66,41.86-131.42,63.02c-53.8,26.02-107.6,52.07-161.42,78.04c-1.85,0.89-4.03,0.7-5.87,1.61
				c-12.64,6.24-24.48,10.23-30.56,30.92c-10.79,36.76-42.74,46.55-67.27,24.52c-14.3-12.84-21.39-50.3-13.06-68.96
				c14.17-31.74,35.2-43.35,56.84-29.56c13.64,8.69,23.31-4.02,33.64-8.69c50.87-23.01,101.31-47.59,151.95-71.38
				c39.71-18.66,79.44-37.36,122.2-55.94c-13.45-7.29-24.43-14.11-35.87-19.29c-52.76-23.93-105.33-48.5-156.68-77.01
				c-5.46-3.03-11.02-6.61-15.5-11.46c-8.26-8.93-11.85-19.13-8.67-34.51c9.74-47.12-17.97-110.45-54.03-118.7
				c-26.82-6.14-54.51,8.9-68.26,40.03c-23.93,54.16-16.68,108.99,20.43,151.42c3.1,3.55,7.94,5.83,6.65,14.03
				c-10.88,5.11-19.8-4.41-27.34-10.05c-73.71-55.14-81.4-179.81-7.44-240.36c41.05-33.61,83.81-35.29,128.56-13.09
				c32.11,15.93,54.8,44.35,67.82,83.63c7.9,23.84,10.23,49.99,4.93,76.41c-6.14,30.66-4.28,27.8,17.11,37.56
				c26.37,12.04,52.02,26.24,78.14,39c26.84,13.11,55.06,23.16,80.17,40.06c26.61,17.91,48.5,6.98,71.96-4.7
				c24.95-12.42,49.76-25.3,74.7-37.75c29.42-14.69,58.8-29.51,88.44-43.45c6.97-3.28,8.59-6.66,6.22-15.47
				c-10.04-37.34-6.28-73.24,8.08-107.74c11.65-27.99,29.6-47.96,51.33-62.32C1167.24,1046.34,1203.02,1044.61,1240.58,1056.59z
				 M1001.29,1461.08c15.45,5.5,30.02,13.94,44.94,21.28c25.74,12.66,51.84,24.13,77.65,36.55c27.3,13.13,54.28,27.39,81.77,39.82
				c7.67,3.47,11.06,7.3,11.74,17.7c1.27,19.52,15.57,36.93,29.72,38.01c15.3,1.16,24.94-9.77,31.92-25.13
				c5.41-11.91,2.1-35.63-5.5-45.67c-9.21-12.17-23.36-15.87-36.62-8.5c-5.73,3.19-10.47,5.73-16.97,1.9
				c-12.69-7.48-25.75-14.06-38.9-20.17c-40.57-18.83-81.62-36.1-121.81-56.16c-45.76-22.84-92.04-43.83-137.88-66.34
				c-8.45-4.15-18.38-5.29-25.88-12.95c2.07-6.07,5.67-7.14,9.04-8.69c13.15-6.04,26.37-11.84,39.42-18.23
				c24.65-12.06,49.11-25.18,74.02-35.81c33.01-14.09,65.28-30.48,97.74-46.22c8.56-4.15,21.67-10.73,18.69-27.54
				c-4.02-22.63-3.53-44.1,1.26-66.32c12.32-57.15,51.75-85.64,94.33-67.48c40.98,17.48,58.78,65.28,55.91,119.12
				c-1.19,22.23-6.28,43.61-15.89,62.96c20.78-21.29,35.77-46.27,40.64-80.3c7.01-48.96-10.54-97.74-41.99-122.75
				c-39.54-31.44-81.67-34.76-125.11-10.52c-40.34,22.51-67.7,77.18-63.87,131.98c0.85,12.09,3.31,24.05,5.56,35.9
				c1.7,8.91-1.27,13.37-7.41,16.29c-34.05,16.21-68.08,32.49-102.09,48.85c-33.32,16.03-66.59,32.2-99.89,48.28
				c-7.77,3.75-15.53,3.97-23.43,0.19c-31.43-15.05-62.96-29.73-94.33-44.97c-34.34-16.68-68.22-35.03-102.99-50.11
				c-12.62-5.48-14.71-12.88-11.81-26.68c1.14-5.41,2.41-10.79,3.32-16.27c4.58-27.55,1.12-53.84-9.01-78.51
				c-19.09-46.47-50.4-71.43-90.49-78.74c-55.65-10.16-119.05,26.77-130.3,106.92c-5.95,42.39,11.66,98.02,42.2,120.8
				c-8.79-16.15-13.63-33.11-15.94-51.3c-5.54-43.73,2.92-81.78,28.9-112.33c25.25-29.69,68.72-32.97,95.66-2.03
				c24.37,27.99,31.92,63.59,27.8,103.71c-2.47,24.14-1.23,30.76,15.42,40.46c15.61,9.1,32.07,15.88,48.15,23.69
				c18.65,9.05,37.94,16.13,56.41,25.41c27.15,13.65,54.33,27.03,81.84,39.44c12.35,5.57,24.35,12.36,36.51,18.6
				c-0.13,1.5-0.26,3-0.39,4.51c-19.9,4.52-37.82,15.74-56.45,24.59c-34.84,16.56-69.54,33.57-104.41,50.05
				c-25.85,12.22-51.92,23.7-77.79,35.84c-27.39,12.86-54.83,25.61-81.9,39.52c-7.85,4.03-13.86,6.61-22.47,1.5
				c-15.26-9.06-31.44-2.04-40.29,14.7c-6.57,12.43-4.67,38.36,3.94,49.89c8.88,11.91,19.84,19.04,32.51,13.16
				c12.94-6,22.52-17.65,24.08-36.48c0.56-6.79,0.3-14.57,6.73-16.01c9.38-2.1,17.09-8.73,25.69-12.84
				c42.71-20.42,85.51-40.51,128.21-60.97c25.45-12.19,50.77-24.86,76.15-37.29c33.24-16.28,66.69-31.9,99.6-49.17
				c11.28-5.92,21-7.67,32.12-0.4c9.2,6.02,19.13,10.29,28.87,14.9C938.67,1429.26,969.65,1443.04,1001.29,1461.08z"/>
		</g>
	</g>
</g>
<g id="Layer_3" class="st1">
	<g class="st2">
		<g>
			<g>
				<path d="M1203.04,1094.34c28.16,10.78,50.53,27.15,64.42,53.68c10.07,19.23,12.56,39.47,7.9,60.54
					c-8.03,36.27-29.57,61.17-63.92,75.12c-4.5,1.83-4.49,1.85-11.21,1.08c-1.79-4.53,1.73-6.31,4.4-8.63
					c17.71-15.42,29.75-34.01,31.63-58.01c2.81-36-20.52-79.67-61.78-79.15c-29.32,0.37-46.89,19.75-56.59,45.09
					c-5.81,15.2-6.84,31.33-2.03,47.62c2.6,8.8-4.85,13.55-10.89,17.61c-21.06,14.17-45.54,20.72-68.78,29.99
					c-23.9,9.53-48.08,18.37-72.11,27.57c-13.58,5.2-27.12,10.51-43.15,16.74c30.29,11.32,57.91,21.72,85.59,31.96
					c24.46,9.05,48.99,17.92,73.48,26.9c30.56,11.21,61.18,22.29,91.63,33.79c10.85,4.1,20.32,5.25,32.4,1.14
					c20.83-7.08,44.29,13.26,45.39,35.46c0.72,14.48-1.84,27.14-13.73,36.38c-20.36,15.82-50.21,8.68-60.33-16.83
					c-5.42-13.66-14.93-17.66-26.13-21.82c-23.8-8.83-47.7-17.39-71.48-26.27c-25.12-9.39-50.15-19-75.19-28.58
					c-25.73-9.84-51.39-19.91-77.17-29.61c-18.73-7.05-37.58-13.79-56.46-20.42c-6.37-2.24-12.01,2.07-17.38,4.03
					c-39.33,14.36-78.38,29.5-117.51,44.41c-48.11,18.34-96.21,36.7-144.33,55c-1.65,0.63-3.6,0.5-5.25,1.14
					c-11.3,4.4-21.89,7.21-27.32,21.79c-9.65,25.91-38.22,32.81-60.15,17.28c-12.78-9.05-19.13-35.45-11.68-48.59
					c12.67-22.37,31.47-30.55,50.82-20.83c12.19,6.12,20.84-2.83,30.08-6.13c45.48-16.21,90.59-33.54,135.86-50.31
					c35.5-13.15,71.03-26.33,109.26-39.42c-12.03-5.14-21.84-9.94-32.07-13.6c-47.18-16.86-94.18-34.18-140.1-54.27
					c-4.88-2.14-9.85-4.66-13.86-8.07c-7.39-6.29-10.59-13.48-7.75-24.32c8.71-33.21-16.07-77.83-48.31-83.65
					c-23.98-4.33-48.74,6.27-61.04,28.21c-21.4,38.17-14.92,76.81,18.27,106.71c2.77,2.5,7.1,4.11,5.95,9.89
					c-9.73,3.6-17.7-3.11-24.45-7.08c-65.9-38.86-72.78-126.72-6.65-169.39c36.7-23.68,74.94-24.87,114.95-9.23
					c28.71,11.23,48.99,31.25,60.64,58.94c7.07,16.8,9.15,35.23,4.41,53.85c-5.49,21.61-3.83,19.59,15.3,26.47
					c23.58,8.49,46.51,18.49,69.87,27.49c24,9.24,49.23,16.32,71.68,28.23c23.79,12.62,43.36,4.92,64.34-3.31
					c22.31-8.76,44.5-17.83,66.8-26.61c26.3-10.36,52.57-20.8,79.07-30.62c6.23-2.31,7.68-4.69,5.56-10.91
					c-8.98-26.31-5.62-51.61,7.22-75.92c10.42-19.73,26.46-33.8,45.9-43.92C1137.46,1087.12,1169.45,1085.9,1203.04,1094.34z
					 M989.07,1379.39c13.82,3.87,26.85,9.83,40.18,15c23.01,8.92,46.35,17,69.43,25.75c24.41,9.25,48.53,19.3,73.12,28.06
					c6.85,2.44,9.89,5.14,10.5,12.47c1.14,13.76,13.93,26.03,26.58,26.78c13.68,0.82,22.3-6.88,28.54-17.71
					c4.84-8.39,1.87-25.11-4.92-32.18c-8.23-8.57-20.88-11.19-32.75-5.99c-5.13,2.24-9.36,4.04-15.18,1.34
					c-11.35-5.27-23.02-9.91-34.78-14.21c-36.28-13.27-72.98-25.44-108.91-39.58c-40.91-16.1-82.3-30.89-123.28-46.75
					c-7.56-2.93-16.44-3.73-23.14-9.12c1.85-4.28,5.07-5.03,8.08-6.12c11.76-4.25,23.58-8.34,35.24-12.84
					c22.04-8.5,43.91-17.74,66.19-25.24c29.52-9.93,58.37-21.48,87.39-32.57c7.66-2.93,19.38-7.56,16.71-19.41
					c-3.59-15.95-3.15-31.08,1.13-46.74c11.01-40.28,46.28-60.35,84.34-47.55c36.64,12.32,52.56,46,49.99,83.94
					c-1.06,15.66-5.62,30.73-14.21,44.37c18.58-15,31.99-32.61,36.34-56.59c6.26-34.5-9.42-68.88-37.55-86.51
					c-35.36-22.16-73.02-24.5-111.87-7.42c-36.07,15.86-60.53,54.39-57.1,93.01c0.76,8.52,2.96,16.95,4.97,25.3
					c1.52,6.28-1.13,9.42-6.63,11.48c-30.45,11.42-60.87,22.89-91.28,34.42c-29.79,11.3-59.54,22.69-89.32,34.02
					c-6.95,2.65-13.89,2.8-20.95,0.14c-28.1-10.61-56.3-20.95-84.35-31.69c-30.71-11.75-61-24.69-92.08-35.32
					c-11.29-3.86-13.15-9.08-10.56-18.8c1.02-3.81,2.15-7.61,2.97-11.46c4.1-19.42,1-37.94-8.06-55.33
					c-17.07-32.75-45.06-50.34-80.91-55.49c-49.76-7.16-106.45,18.87-116.5,75.35c-5.32,29.87,10.42,69.08,37.73,85.13
					c-7.86-11.38-12.19-23.33-14.25-36.15c-4.96-30.82,2.61-57.63,25.84-79.16c22.58-20.93,61.44-23.24,85.53-1.43
					c21.79,19.72,28.54,44.81,24.86,73.09c-2.21,17.01-1.1,21.68,13.79,28.51c13.96,6.41,28.67,11.19,43.05,16.69
					c16.68,6.38,33.92,11.36,50.44,17.91c24.27,9.62,48.58,19.05,73.18,27.79c11.04,3.92,21.77,8.71,32.65,13.11
					c-0.12,1.06-0.24,2.12-0.35,3.18c-17.79,3.19-33.82,11.09-50.47,17.33c-31.15,11.67-62.18,23.66-93.35,35.27
					c-23.12,8.61-46.42,16.7-69.56,25.26c-24.49,9.06-49.03,18.05-73.23,27.85c-7.02,2.84-12.4,4.66-20.09,1.06
					c-13.65-6.39-28.11-1.44-36.03,10.36c-5.88,8.76-4.17,27.03,3.52,35.16c7.94,8.39,17.74,13.41,29.06,9.28
					c11.57-4.23,20.14-12.44,21.53-25.71c0.5-4.79,0.27-10.27,6.02-11.28c8.39-1.48,15.28-6.15,22.97-9.05
					c38.19-14.39,76.46-28.55,114.63-42.96c22.76-8.59,45.39-17.52,68.09-26.28c29.72-11.47,59.63-22.48,89.06-34.65
					c10.09-4.17,18.78-5.41,28.72-0.28c8.22,4.24,17.11,7.25,25.81,10.5C933.09,1356.97,960.79,1366.68,989.07,1379.39z"/>
				<path d="M1048.12,597.32c12.53-32.34,29.3-61.31,49.97-88.04c2.41-3.12,5.11-6.04,7.86-8.87c4.75-4.88,8.54-5.07,12.77,1.37
					c10.43,15.86,18.76,32.87,27.61,49.56c10.21,19.24,20.11,38.67,27.64,59.23c8.61,23.52,15.64,47.45,22.25,71.63
					c10.33,37.79,14.55,76.01,14.01,114.99c-0.35,24.97-6.22,49.02-11.85,73.1c-7.28,31.16-18.91,60.8-34.02,88.91
					c-22.72,42.26-51.69,79.02-93.88,104c-22.15,13.11-44.34,26.31-67.9,36.46c-57.92,24.95-117.86,38.17-181.47,27.31
					c-45.66-7.8-88.08-23.8-128.44-46.32c-24.78-13.84-49.41-27.78-70.24-47.23c-21.95-20.49-38.65-45.09-52.55-71.56
					c-10.29-19.58-19.91-39.42-26.75-60.63c-15.68-48.6-24.63-97.67-19.59-149.22c5.07-51.92,19.08-101.32,38.02-149.39
					c9.65-24.5,21.82-48.09,35.22-70.93c5.59-9.52,10.14-19.6,16.13-28.97c5.07-7.92,9.49-7.78,14.95-1.27
					c16.62,19.81,30.54,41.41,42.6,64.26c12.45,23.56,20.15,49.01,28.4,74.09c11.72,35.67,18.97,72.52,26.04,109.45
					c5.24,27.33,11.18,54.67,20.09,81.3c8.57,25.59,19.61,49.82,33.72,72.67c20.61,33.36,46.54,61.33,82.28,79.1
					c4.1,2.04,7.21,1.46,11.06-0.5c35.93-18.22,61.39-46.67,82.64-80.36c22.55-35.76,35.95-75.03,45.32-115.38
					c6.62-28.48,11.45-57.58,17.14-86.37c2.89-14.64,6.88-29.22,11.47-43.62C1034.82,636.7,1041.93,617.6,1048.12,597.32z
					 M1196,808.54c6.21-108.93-30.54-205.24-86.17-297.58c-20.85,24.53-35.2,51.11-45.67,79.1
					c-13.52,36.12-26.94,72.48-34.59,110.55c-3.53,17.55-8.53,34.87-11.12,52.54c-3.97,27.06-11.82,53.12-19.35,79.19
					c-6.54,22.64-16.68,43.99-28.18,64.76c-23.04,41.64-54.56,74.24-97.22,95.76c-5.26,2.66-10.35,2.52-15.43-0.39
					c-4.05-2.32-8.11-4.63-12.2-6.88c-43.53-24.01-71.17-61.89-93.38-105.07c-12.91-25.1-20.02-52.01-28.1-78.66
					c-4.05-13.36-8-26.94-9.94-40.72c-5.04-35.9-12.91-71.23-23.65-105.66c-12.01-38.5-24.1-77.27-45.85-111.91
					c-6.75-10.74-12.66-22.07-21.65-32.19c-2.7,3.41-5.08,5.7-6.61,8.45c-26.45,47.57-49.68,96.27-64.83,149.06
					c-13.81,48.12-17.62,96.6-15.46,145.93c1.34,30.66,10.5,59.92,21.18,88.4c11.05,29.49,26.12,57.12,43.7,83.34
					c12.89,19.22,27.46,37.48,46.49,50.31c31.58,21.29,62.28,43.86,98.45,58.26c34.46,13.71,69.4,22.73,106.13,25.07
					c32.54,2.07,64.57-2.57,95.84-11.29c22.78-6.36,44.81-15.51,65.72-26.31c20.28-10.47,38.71-24.47,57.87-37.05
					c28.24-18.53,49.96-42.98,67.2-71.29c17.27-28.37,32.91-57.76,41.95-90.11C1187.86,859.98,1195.52,836.03,1196,808.54z"/>
				<path d="M707.77,510.06c-9.57-26.2-15.84-53.06-34.67-73.95c-4.47-4.96-4.97-8.91-0.17-14.86
					c21.88-27.14,46.8-51.41,70.47-76.86c16.78-18.04,32.33-37.11,45.9-57.96c13.93-21.4,26.52-43.24,36.14-66.88
					c3.13-7.71,5.44-15.58,7.3-23.61c1.46-6.32-0.23-11.31-5.2-16.37c-26.97-27.5-24.48-51.34-8.85-73.28
					c18.76-26.35,52.3-33.02,78.19-15.57c31.52,21.24,39.26,57.88,9.09,87.72c-6.35,6.28-7.98,11.99-5.75,20.03
					c9.11,32.82,25.82,61.67,44.27,90.06c23.65,36.38,55.09,65.59,84.14,97.08c10.69,11.59,20.29,24.19,30.95,35.81
					c4.75,5.18,4.28,9.29,0.36,14.14c-24.39,30.19-33.16,66.64-42.46,103.16c-5.87,23.06-9.73,46.37-12.76,69.81
					c-3.58,27.74-5.42,55.71-8.34,83.54c-2.87,27.33,0.02,55.39-10.81,81.71c-10.92,26.56-23.46,52.2-40.29,75.62
					c-19.73,27.44-42.84,51.6-68.48,73.58c-7.57,6.49-12.91,7.24-20.8,0.48c-29.28-25.09-55.75-52.79-76.63-85.15
					c-18.52-28.69-33.66-59.34-40.27-93.26c-3.23-16.58-0.6-33.66-2.92-50.52c-5.13-37.29-5.09-75.08-12.41-112.3
					C719.07,558.26,714,534.5,707.77,510.06z M910.86,122.74c-0.62-1.29-1.27-2.58-1.87-3.88c-10.32-22.24-40.4-36.31-59.33-25.51
					c-30.94,17.65-46.54,47.44-14.06,79.76c1.78,1.77,3.73,3.36,5.41,5.21c2.5,2.74,3.84,5.68,3.19,9.76
					c-2.63,16.41-6.9,32.46-13.91,47.38c-21.72,46.19-52.79,85.92-87.38,123.04c-21.15,22.69-42.91,44.83-62.8,68.76
					c4.8,8.08,9.7,15.6,13.87,23.49c12.94,24.48,21.91,50.68,28.5,77.32c4.26,17.24,8.4,34.7,11.01,52.51
					c3.22,22.03,5.48,44.09,7.49,66.22c2.11,23.23,5.33,46.38,6.95,69.64c1.86,26.76,8.04,52.41,18.21,77.01
					c9.07,21.94,23.01,41.21,36.91,60.28c17.95,24.63,39.39,46,63.32,65.98c6.52-5.82,12.41-10.94,18.16-16.21
					c19.31-17.7,36.59-37.25,51.46-58.78c13.42-19.43,26.52-39.01,34.31-61.76c8.68-25.36,11.65-51.47,15.19-77.86
					c6.01-44.78,6.11-90.15,15.57-134.61c5.37-25.24,10.29-50.53,18.53-74.95c8.13-24.08,18.32-47.37,32.74-68.04
					c-25.34-31.21-54.4-58.01-79.77-88.15c-35.42-42.06-69.22-85.02-82.07-140.4c-2.36-10.17-2.41-17.43,5.9-25.89
					C909.23,160,921.19,145.02,910.86,122.74z"/>
			</g>
		</g>
	</g>
</g>
</svg>
