<?xml version="1.0" encoding="utf-8"?>
<!-- Generator: Adobe Adobe Illustrator 24.2.0, SVG Export Plug-In . SVG Version: 6.00 Build 0)  -->
<svg version="1.1" xmlns="http://www.w3.org/2000/svg" xmlns:xlink="http://www.w3.org/1999/xlink" x="0px" y="0px" width="1728px"
	 height="1728px" viewBox="0 0 1728 1728" style="enable-background:new 0 0 1728 1728;" xml:space="preserve">
<style type="text/css">
	.st0{display:none;}
	.st1{display:inline;}
	.st2{fill:#FFFFFF;}
	.st3{fill:#0071BC;}
</style>
<g id="Layer_1" class="st0">
	<g class="st1">
		<path d="M904.29,1198.19c-11.18,6.53-21.75,12.52-32.19,18.72c-4.2,2.49-7.88,2.29-12.07-0.15
			c-38.58-22.52-77.2-44.97-115.88-67.31c-7.12-4.11-14.58-7.63-21.87-11.46c-6.03-3.16-8.31-7.96-8.2-14.95
			c0.37-23.03-0.11-46.08,0.27-69.11c0.13-7.76-2.98-11.62-10.04-14.3c-17.76-6.73-33.48-17.53-50.29-26.17
			c-0.31-0.16-0.52-0.61-0.82-0.68c-20.23-4.18-19.27-19.52-18.71-34.95c0.35-9.7-1.01-19.53,0.01-29.13
			c1.13-10.55-2.88-16.61-11.94-21.27c-23.59-12.12-44.77-28.21-67.52-41.74c-3.55-2.11-5.93-5.28-7.06-9.2
			c-5.76-19.95-12.53-39.69-16.72-59.97c-2.7-13.05-7.34-25.43-10.45-38.31c-7.97-33.05-18.24-65.53-27-98.4
			c-9.02-33.85-17.2-67.92-26.03-101.82c-6.5-24.94-13.43-49.76-20.2-74.62c-4.8-17.61-9.69-35.2-14.47-52.82
			c-0.46-1.71-0.58-3.6,1.97-4.99c24.04,19.18,48.35,38.39,72.41,57.91c4.87,3.95,9.18,6.99,12.78-0.41
			c12.7-26.1,34.39-44.73,53.67-65.38c35.89-38.44,80.34-63.97,127.3-86.22c19.75-9.36,38.95-19.82,59.92-26.16
			c15.39-4.65,30.68-10.02,46.99-10.76c6.76-0.31,10.63-3.05,10.33-10.66c-0.48-12.58,0.95-25.37-0.82-37.73
			c-3.37-23.49-28.06-42.98-56.86-24.62c-6.59,4.2-13.25,8.83-18.43,14.57c-5.11,5.66-8.38,12.99-13.87,21.88
			c-7.92-21.38-9.71-41.99-2.36-60.78c15.59-39.86,45.09-61.66,90.46-58.79c1.26-30.02,17.79-53.12,32.99-76.93
			c6.81-10.67,8.66-23.37,11.38-35.54c1.09-4.87,1.27-9.89,4.22-14.27c5.14,0.77,4.93,5.39,5.26,8.31
			c2.62,23.42,12.61,43.54,25.71,62.75c11.19,16.4,18.26,34.72,19.86,55.94c38.23-4.34,65.35,13.98,84.61,44.82
			c11.97,19.17,12.38,53.82,2.98,72.57c-7.79-14.34-17.35-26.46-31.42-34.15c-11.96-6.54-24.2-11.77-37.58-3.87
			c-10.55,6.23-19.01,14.66-19.96,27.45c-0.98,13.25-0.28,26.61-0.58,39.92c-0.15,6.84,4.08,8.44,9.56,9.1
			c36.79,4.45,70.25,18.09,103.1,34.8c21.37,10.87,42.16,22.68,63.35,33.78c20.7,10.85,38.23,25.54,54.79,41.36
			c21.75,20.78,43.81,41.45,60.44,66.93c0.39,0.59,0.93,1.1,1.44,1.6c4.43,4.32,3.03,14.15,11.19,14.24
			c6.72,0.07,10.48-7.04,15.49-10.9c21.5-16.55,42.51-33.72,65.45-52.05c0.15,11.83-4.13,21.24-6.51,30.77
			c-9.09,36.44-18.71,72.74-28.35,109.04c-6.89,25.94-14.3,51.75-21.19,77.69c-8.17,30.76-15.95,61.63-24.08,92.4
			c-3.66,13.86-7.81,27.59-11.65,41.4c-6.99,25.15-13.9,50.32-20.89,75.47c-1.95,7.02-5.3,12.06-12.23,16.45
			c-23.55,14.96-46.69,30.56-70.98,44.34c-4.63,2.62-4.87,6.65-4.9,11.07c-0.13,17.28-0.47,34.55-0.36,51.83
			c0.04,6.1-1.99,10.27-7.45,13.09c-17.74,9.18-34.76,20.19-53.28,27.28c-16.64,6.36-20.48,16.31-19.22,32.51
			c1.36,17.53-0.24,35.28,0.52,52.88c0.4,9.19-2.95,15.05-10.48,19.3C973.54,1159.11,939.24,1178.42,904.29,1198.19z M621.35,414.39
			c4.42-0.84,7.35-0.08,11.04,3.8c24.02,25.31,48.51,50.17,73.18,74.84c20.85,20.86,40.8,41.68,42.76,73.82
			c1.42,23.23,4.52,24.64,27.58,24.46c9.84-0.08,11.42-4.89,8.61-12.19c-12.37-32.15-18.95-66.01-29.58-98.66
			c-2.79-8.58-5.19-17.51-0.07-25.97c19.55-32.35,39.39-64.53,58.99-96.85c6.45-10.63,12.51-21.49,19.46-33.47
			c-79.96,12.48-149.96,43.77-214.73,91.1c-34.19,27.82-66.85,57.12-91.57,94.19c-3,4.5-2.94,7.54,1.45,10.91
			c7.4,5.67,14.58,11.63,21.75,17.59c6.53,5.44,10.66,11.55,10.25,21.04c-0.5,11.72,1.98,23.48,0.36,36.23
			c13.96,1.19,26.63,0.55,39.78-0.26c-0.43-7.87-1.62-14.45-4.54-20.74c-5-10.76-6.8-22.32-4.42-33.71
			c3.07-14.72,6.65-29.32,9.54-44.12C606.55,468.99,613.56,441.9,621.35,414.39z M583.35,606.39c-9.71,0.32-19.42,0.66-29.13,0.94
			c-5.77,0.16-8.55-2.51-8.4-8.49c0.31-12.23-0.37-24.53,0.79-36.67c0.65-6.78-1.36-10.42-6.39-14.43
			c-15.64-12.47-30.84-25.5-46.19-38.34c-13.21-11.05-26.38-22.14-39.73-33.34c-1.43,13.51,6.08,23.75,8.3,35.3
			c6.08,31.69,15.93,62.41,24.55,93.39c9.88,35.52,18.98,71.27,28.77,106.81c10.44,37.89,19.43,76.22,29.68,114.2
			c3.07,11.38,6.16,22.86,7.73,34.5c0.88,6.46,3.23,10.72,8.35,14.02c21.38,13.77,42,28.82,64.67,40.42
			c14.49,7.41,22.61,16.79,20.44,34.31c-1.54,12.4,0.06,25.17-0.34,37.75c-0.23,7.34,2.17,11.58,8.95,15.26
			c18.55,10.06,37.97,18.35,56.26,28.97c9.13,5.3,12.71,11.64,12.61,21.57c-0.2,21.23,0.03,42.47-0.01,63.7
			c-0.01,4.83,0.21,9.17,5.21,12c15.26,8.65,30.31,17.68,45.56,26.33c22.1,12.53,44.39,24.73,66.44,37.34
			c14.23,8.13,27.9,15.49,43.78,2.78c6.88-5.51,15.5-8.83,23.3-13.21c30.28-16.99,60.51-34.09,90.87-50.96
			c5.93-3.3,8.81-7.37,8.68-14.53c-0.37-20.87-0.1-41.75,0.04-62.62c0.05-8.55,1.57-16.35,10.02-21.2
			c15.83-9.09,32.28-16.89,48.79-24.62c12.17-5.7,21.62-12.23,19.22-28.92c-1.98-13.73-0.07-28.01-0.1-42.05
			c-0.01-6.72,2.47-10.9,8.62-14.6c25.16-15.17,49.88-31.06,74.68-46.81c4.25-2.7,7.99-5.85,9.1-11.43
			c8.64-43.19,21.33-85.38,31.8-128.12c6.56-26.78,15.16-53.06,21.69-79.85c8.58-35.16,18.42-69.96,28.26-104.76
			c5.85-20.67,11.35-41.45,16.84-62.22c0.85-3.2,2.43-6.93-2.01-9.96c-28.61,23.81-57.19,47.64-85.82,71.39
			c-3.48,2.88-3.78,6.23-3.57,10.53c0.62,12.57,0.38,25.18,0.83,37.76c0.23,6.56-2.51,9.15-8.93,8.84
			c-14.37-0.68-28.75-1.35-43.13-1.62c-20.34-0.37-21.2-1.35-15.41-20.6c0.31-1.03,0.67-2.06,1.11-3.04
			c9.89-21.75,7.75-43.51,1.21-65.74c-5.66-19.22-8.88-39.06-12.25-58.83c-1.44-8.44-2.82-17.26-7.49-25.3
			c-32.94,35.74-65.21,70.78-97.53,105.77c-2.35,2.54-2.94,5.53-3.59,8.77c-3.21,16.16-6.77,32.25-9.97,48.41
			c-0.95,4.79-2.61,8.13-8.16,8.01c-14.75-0.31-29.5-0.45-44.25-0.84c-6.58-0.17-8.91-3.68-7.05-10.05
			c3.81-13.08,7.44-26.21,11.35-39.25c8.31-27.74,16.68-55.47,25.23-83.14c1.01-3.28-0.16-5.15-1.74-7.76
			c-22.95-37.97-45.7-76.07-68.55-114.11c-10.05-16.72-20.22-33.36-30.33-50.01c-1.36,0.72-2.22,0.88-2.52,1.38
			c-32.89,54.45-65.72,108.93-98.66,163.35c-1.44,2.39-2.25,4.42-0.99,6.96c3.37,6.84,3.77,14.6,6.33,21.58
			c11.99,32.69,19.04,66.81,29.65,99.88c2.36,7.35,0.5,11.08-7.46,11.23c-14.03,0.26-28.07,0.49-42.1,0.88
			c-5.65,0.16-8.35-2.22-9.42-7.89c-3.07-16.19-6.88-32.24-9.85-48.45c-0.83-4.51-2.48-7.7-5.61-11.02
			c-16.02-16.98-31.68-34.31-47.5-51.48c-15.95-17.3-31.94-34.56-48.56-52.54c-1.03,2.85-1.98,4.73-2.39,6.71
			c-6.14,30.17-12.88,60.2-19.64,90.23c-2.43,10.81-6.86,21.86-1.63,34.56c3.94,9.57,6.86,20.28,9.05,30.8
			c1.51,7.28,0.21,11.94-8.81,11.5C599.76,605.37,592.55,605.96,583.35,606.39z M855.26,104.19
			c-13.11,23.17-24.81,46.81-23.38,75.42c-24.83-7.51-47.78-6.26-67.7,8.72c-22.75,17.12-33.71,40.52-29.62,58.47
			c0.83-0.79,1.74-1.42,2.35-2.27c13.95-19.72,37.25-27.25,60.79-20.66c17.49,4.9,36.6,29.01,34.85,50.57
			c-0.91,11.18-0.36,22.52-2.42,34.77c24.74-1.36,22.31-26.95,36.19-36.4c2.85,1.35,3.88,3.53,5.15,5.75
			c4.81,8.4,10.18,16.48,14.72,25.02c2.94,5.52,7.62,5.33,12.03,4.33c5.97-1.35,2.77-6.1,2.6-9.76c-0.41-9.33-1.24-18.72-0.67-28.02
			c2.23-36.38,37.25-57.94,71.42-44.77c12.56,4.84,20.69,14.42,28.93,25.64c-0.89-42.58-36.83-88.36-100.56-72.1
			c4.43-38.44-21.21-66.07-33.71-100.25C862.3,87.72,859.07,95.2,855.26,104.19z M954.73,416.19c6.97,12.03,13.66,24.23,21.02,36.01
			c3.63,5.81,5.68,11.49,3.8,18.2c-7.15,25.5-14.64,50.92-21.39,76.53c-3.7,14.04-9.25,27.68-10.78,42.66
			c7.45,2.73,14.67,0.93,21.69,1.55c6.38,0.57,9.93-1.72,11.32-8.43c3.13-15.07,7.09-29.98,10.3-45.03
			c1.01-4.75,2.59-8.85,5.96-12.36c36.72-38.17,73.4-76.39,110.63-115.14c-62.44-42.89-129.6-74.42-208.61-85.73
			C917.95,356.03,935.91,385.44,954.73,416.19z M1133.64,431.29c-6.25-4.99-12.51-9.98-20.6-16.45
			c9.02,41.34,17.24,80.11,26.04,118.75c3.14,13.8,3.18,27.02-2.58,40.02c-2.93,6.61-4.87,13.35-4.25,21.69c12.9,0,25.62,0,39.79,0
			c-2.95-13.51,0.24-26.62,0.06-39.84c-0.07-4.97,1.37-8.67,4.93-12.4c7.98-8.37,17.44-14.87,26.26-22.16
			c4.8-3.98,6.34-7.18,1.51-12.28c-3.14-3.32-5.22-7.63-7.91-11.4C1179.32,472.59,1156.09,453.36,1133.64,431.29z"/>
		<path d="M490.5,1140.81c3.74-4.47,7.09-8.11,11.39-10.96c10.07-6.68,20.78-12.47,27.66-23.22c3.73-5.82,9.54-7.36,15.84-2.81
			c37.44,27,74.96,53.88,112.32,80.98c45.81,33.23,91.27,66.95,137.34,99.82c21.24,15.15,42.35,30.46,63.13,46.24
			c5.79,4.4,10.98,3.7,16.55-0.48c45.25-33.98,91.6-66.44,137.41-99.66c47.2-34.23,94.1-68.86,141.74-102.47
			c10.82-7.63,21.46-15.52,31.96-23.59c5.89-4.53,11.8-5.01,15.99,1.02c7.82,11.26,19.65,17.29,30,25.35
			c17.39,13.54,25.52,33.11,32.53,53.22c12.65,36.3,10.67,75.13,19.42,112.08c5.61,23.68,13.84,46.37,34.31,61.45
			c9.06,6.68,19.93,11.16,31.35,12.97c4.99,0.79,9.77,1.71,14.11,3.63c1.24,7.27-5.1,8.26-8.38,10.21
			c-35.98,21.46-69.29,46.96-104.85,69.02c-0.3,0.19-0.55,0.47-0.85,0.66c-21.18,13.56-22.14,14.28-37.16-5.62
			c-11.29-14.96-22.06-30.66-28.33-48.87c-7.05-20.47-9.06-41.97-13.74-62.91c-8.26-36.99-21.57-70.75-54.17-93.26
			c-11.61-8.01-25.62-10.84-38.83-15.29c-4.24-1.42-6.68,1.66-9.5,3.75c-33.08,24.47-66.15,48.96-99.22,73.44
			c-20.72,15.33-41.46,30.63-62.14,46.02c-2.8,2.09-5.25,4.65-8.06,7.18c24.35,20.62,50.69,37.27,75.59,55.87
			c34.38,25.69,69.46,50.44,104.24,75.6c26.38,19.08,52.76,38.16,79.12,57.26c4.44,3.22,9.05,4.96,14.81,5.33
			c16.99,1.1,28.57,12.02,29.67,25.82c2.19,27.32-8.95,33.95-26.21,39.06c-14.05,4.16-34.47-9.65-35.3-24.01
			c-0.49-8.52-4.44-12.34-10.61-16.82c-37.69-27.37-75.06-55.2-112.52-82.89c-38.01-28.1-76.05-56.15-113.99-84.36
			c-12.33-9.17-24.35-18.75-36.74-28.32c-56.15,41.83-111.74,83.37-167.47,124.72c-33.37,24.76-66.92,49.27-100.51,73.72
			c-3.88,2.82-5.54,5.91-5.94,10.66c-1.39,16.19-16.61,29.32-32.4,27.89c-13.58-1.23-30.71-13.44-29.76-30.99
			c1.21-22.45,9.89-33.42,32.09-34.59c10.02-0.53,16.15-7.64,23.14-12.64c43.69-31.23,86.85-63.19,130.27-94.79
			c38.21-27.82,76.53-55.49,114.79-83.24c1.11-0.8,2.08-1.79,3.59-3.1c-10.75-10.72-23.29-18.41-34.93-27.13
			c-44.72-33.48-89.84-66.42-134.59-99.85c-5.03-3.76-9.18-3.57-14.81-2.16c-43.46,10.88-67.46,40.37-80.44,81.51
			c-7.48,23.7-11.61,47.97-15.96,72.31c-3.53,19.72-13.76,36.66-24.88,52.92c-5.84,8.53-11.54,17.13-19.23,24.41
			c-5.47,5.18-9.69,4.71-15.13,1.09c-40.54-26.94-81.1-53.85-121.76-80.62c-2.25-1.48-4.27-2.47-4.08-6.86
			c10.54-4.74,22.76-5.78,33.94-10.28c17.97-7.23,27.45-20.92,35.6-36.73c11.96-23.2,13.32-48.86,17.36-73.95
			c3.75-23.28,4.7-47.12,12.79-69.59C473.48,1168.83,479.21,1153.8,490.5,1140.81z M1223.56,1136.31
			c-7.33-5.65-13.47-11.87-24.01-3.36c-20.82,16.8-42.9,32.03-64.32,48.09c-16.76,12.57-33.33,25.4-52.41,39.96
			c17.27,2.2,30.53,7.9,42.11,16.08c32.2,22.74,47.41,56.05,55.09,93.43c3.45,16.81,5.25,33.99,9.3,50.63
			c5.92,24.29,17.66,45.86,33.53,65.31c4.45,5.45,7.32,7.03,13.84,2.66c26.41-17.71,53.26-34.76,79.93-52.08
			c8.39-5.45,17.56-9.86,25.98-17.71c-3.73-1.44-5.63-2.39-7.64-2.91c-25.27-6.61-40.43-23.41-50.71-46.88
			c-7.92-18.07-11.25-36.67-13.87-55.89c-3.82-27.99-7.11-56-15.51-83.34C1248.62,1169.99,1241.39,1151.26,1223.56,1136.31z
			 M413.5,1395.2c29.73,19.54,59.46,39.09,89.15,58.6c23.02-24.4,37.36-51.85,42.66-83.2c5.07-29.99,9.24-59.82,23.67-87.37
			c11.74-22.42,26.3-41.02,49.66-52.49c9.04-4.44,18.9-6.23,28.82-11.11c-8.22-6.51-15.58-12.66-23.27-18.37
			c-30.48-22.62-61.27-44.82-91.44-67.83c-7.06-5.38-12.54-5.76-19.03-0.68c-7.86,6.16-15.52,12.44-20.8,21.23
			c-17.58,29.3-23.44,62.13-27.5,95.14c-3.55,28.85-5.68,57.68-19.12,84.28c-9.31,18.43-20.4,34.31-41.81,40.2
			c-4.46,1.23-9.82,2.04-14.01,7.16C397.89,1385.53,404.96,1390.09,413.5,1395.2z M1127.55,1156.7
			c-43.36,31.61-86.74,63.2-130.08,94.85c-41.92,30.61-83.89,61.15-125.53,92.13c-4.93,3.67-7.17,3.44-11.67-0.22
			c-9.98-8.13-20.66-15.41-31.08-23c-56.41-41.11-112.84-82.16-169.22-123.31c-37.6-27.45-75.17-54.94-112.6-82.63
			c-4.91-3.63-8.92-4.7-12.92,0.43c-4.27,5.48-2.4,9.72,2.85,13.59c36.86,27.17,73.63,54.47,110.43,81.72
			c22.44,16.61,44.83,33.28,67.35,49.79c33.15,24.3,66.72,48.05,99.42,72.94c11.12,8.46,24.43,14.68,32.92,27.18
			c-1.44,1.34-2.36,2.39-3.47,3.19c-26.36,19.15-52.82,38.15-79.08,57.42c-30.58,22.45-60.91,45.24-91.5,67.68
			c-29.99,22-60.22,43.68-90.22,65.67c-6.47,4.75-12.46,8.56-21.39,8.05c-13.6-0.77-23.1,8.79-23.38,21.2
			c-0.29,13.05,8.32,23.74,20.1,24.96c11.63,1.2,24.94-9.9,25.97-22.35c0.4-4.76,1.94-8.05,5.69-10.85
			c24.65-18.42,49.08-37.15,73.86-55.4c26.53-19.54,53.46-38.54,80.05-58.02c36.34-26.62,72.91-52.95,108.5-80.54
			c10.68-8.28,16.95-7.75,27.48,0.23c41.63,31.6,84.27,61.87,126.41,92.81c40.63,29.83,81.33,59.59,121.49,90.05
			c9.06,6.87,20.33,11.8,21.21,27.38c0.69,12.28,20.5,19.78,30.96,14.38c12.55-6.48,16.66-15.16,13.47-28.42
			c-2.32-9.63-12.98-16.43-25.48-15.4c-5.09,0.42-8.93-0.8-12.92-3.74c-25.92-19.09-51.96-38.01-77.97-56.99
			c-52.36-38.21-104.75-76.38-157.07-114.65c-11.92-8.72-23.61-17.76-36.02-27.12c5.38-4.85,9.27-9.03,13.79-12.35
			c33.75-24.74,67.68-49.24,101.45-73.97c54.51-39.92,108.96-79.93,163.39-119.97c10.97-8.07,21.69-16.48,32.6-24.64
			c4.68-3.5,6.77-7.68,3.21-12.9c-2.92-4.28-6.85-6.46-11.87-2.73C1167.45,1127.46,1148.2,1141.76,1127.55,1156.7z"/>
		<path d="M887.03,1121.04c0.25-150.71,0.51-300.35,0.74-449.98c0.04-26.49,0.02-26.32,26.49-28.3c20.83-1.56,41.6-2.34,62.47-0.36
			c6.97,0.66,9.02,3.5,9.04,10.16c0.2,55.73-0.8,111.4-3.84,167.09c-1.63,29.75-3.42,59.55-2.83,89.44
			c0.95,48.19-1.92,96.3-3.48,144.45c-0.52,16-0.97,32.2-0.51,48.25c0.31,10.95-4.25,18.39-12.79,22.94
			c-24.06,12.81-46.83,27.54-68.73,43.69c-0.79,0.58-2,0.6-5.07,1.46C885.9,1153.73,887.6,1137.84,887.03,1121.04z M969.1,869.4
			c-0.65-68.72,1.26-137.36,6.21-205.9c0.59-8.18-2.24-11.03-10.35-10.4c-18.66,1.46-37.39,2.49-56.05,0.85
			c-8.39-0.74-9.88,2.41-9.19,9.79c0.96,10.37,1.42,20.83,1.43,31.25c0.16,145.76,0.2,291.51,0.39,437.27
			c0.01,3.99-1.74,8.53,2.51,12.8c17.22-11.64,34.06-23.77,51.75-34.5c5.2-3.15,7.11-5.89,7.25-11.42
			C964.99,1023.27,967.06,947.42,969.1,869.4z"/>
		<path d="M753.1,887.81c-2.22-71.5-7.76-141.84-6.51-212.38c0.18-10.36,0.03-20.73,0.03-32.2c9.54-0.76,18.04-2.08,26.53-1.97
			c20.49,0.25,40.98,1.28,61.47,1.77c7.66,0.18,10.62,3.37,10.61,11.28c-0.15,168.42-0.09,336.83-0.12,505.25
			c0,3.12,0.8,6.51-2.26,9.8c-9.36-2.38-16.41-9.35-23.99-14.82c-14.55-10.5-30.11-19.24-45.54-28.21
			c-10-5.81-15.93-12.34-16.06-25.23C756.53,1030.35,752.07,959.67,753.1,887.81z M830.88,1081.08
			c0.09-127.35,0.14-254.71,0.35-382.06c0.02-12.2,1.05-24.41,1.64-36.61c0.25-5.26-0.62-9.72-7.37-8.98
			c-19.77,2.16-39.52,1.06-59.24-0.33c-8.08-0.57-9.99,2.91-9.25,10.19c3.93,38.64,5.46,77.51,5.49,116.23
			c0.09,102.15,4.29,204.19,6.23,306.28c0.28,14.79,2.62,25.53,17.6,30.68c2.25,0.77,3.95,3.05,6.01,4.49
			c12.04,8.46,23.88,17.25,38.55,24.14C830.88,1123.45,830.88,1103.35,830.88,1081.08z"/>
		<path d="M1008.41,929.11c1.33-41.63,2.68-82.22,3.89-122.81c1.52-51,3.02-102.01,4.23-153.02c0.17-7.12,3.12-9.72,9.71-9.55
			c19.76,0.51,39.51,1.09,59.28,1.4c7.95,0.12,8.47,5.31,8.07,11.03c-1.5,21.12-3.15,42.23-4.78,63.35
			c-1.97,25.38-3.62,50.78-6.05,76.11c-4.74,49.3-4.21,98.94-10.13,148.18c-1.45,12.07-0.66,24.43-0.61,36.65
			c0.04,9.13-3.48,15.86-11.68,20.13c-12.65,6.58-25.13,13.5-37.88,19.87c-10.47,5.23-14.35,2.72-14.38-9.37
			C1007.98,984.1,1008.25,957.12,1008.41,929.11z M1021.66,884.16c-1.23,40.67-2.45,81.34-3.74,124.04
			c10.59-6.11,18.62-10.74,26.65-15.36c12.28-7.07,20.14-16.02,17.7-31.87c-1.4-9.1-0.28-18.68,0.4-27.99
			c2.74-37.58,7.45-74.99,8.08-112.74c0.27-16.49,1.6-32.99,3.11-49.42c3.31-36.14,4.77-72.35,5.35-108.61
			c0.1-6.29-2.13-9.26-8.76-9.14c-13.93,0.24-27.86,0.07-43.17,0.07C1025.4,730.64,1023.57,806.36,1021.66,884.16z"/>
		<path d="M658.77,936.69c-3.25-49.69-6.01-98.41-9.51-147.08c-2.95-41.13-6.77-82.2-10.19-123.29c-0.21-2.51-0.1-5.05-0.41-7.54
			c-1.25-10.01,2.42-14.14,13.14-13.9c17.58,0.39,35.2-0.57,52.79-1.29c8.31-0.34,11.07,2.88,11.27,11.32
			c1.94,84.44,3.58,168.9,6.86,253.29c1.31,33.81,1.17,67.57,1.55,101.35c0.16,14.19-3.02,16.22-15.81,10.02
			c-11.87-5.75-23.47-12.05-35.09-18.31c-8.95-4.82-13.24-12.09-13.25-22.69C660.11,964.94,661.54,951.23,658.77,936.69z
			 M705.94,677.52c-0.12-3.96-0.5-7.93-0.32-11.87c0.39-8.87-2.74-13.33-12.52-12.55c-8.94,0.71-18.04,0.69-26.97-0.11
			c-10.75-0.95-13.49,3.54-13.17,13.68c1.45,45.61,6.28,91.07,7.81,136.57c1.89,56.43,10.33,112.43,9.6,168.94
			c-0.05,4,0.09,7.79,3.9,10.57c12.06,8.8,23.67,18.31,39.68,23.81C711.29,897.05,708.65,788.32,705.94,677.52z"/>
		<path d="M1169.44,805.95c-4.07,11.83-3.63,23.54-6.25,34.68c-2.47,10.53-5.7,20.03-15.96,26.6
			c-16.19,10.38-30.66,23.35-47.78,33.69c-4.85-7.82-3.1-15.83-2.46-23.28c3.66-42.46,9-84.75,13.1-127.17
			c2.82-29.21,6.73-58.31,8.71-87.64c1.12-16.62,2.94-17.02,19.86-17.88c16.86-0.86,33.61-2.13,50.54-0.12
			c7.46,0.89,10.06,2.49,8.37,10.5c-9.3,44.09-15.02,88.88-25.58,132.74C1170.67,793.62,1172.1,799.62,1169.44,805.95z
			 M1136.71,655.61c-2.82,0.85-3.98,2.93-3.99,5.7c-0.06,21.98-4.82,43.5-6.45,65.31c-3.07,41.12-9.01,81.88-14.43,122.72
			c-1.16,8.74-1.83,17.5,0.83,27.82c10.18-7.04,19.05-13.54,28.3-19.43c4.98-3.17,7.16-7.12,8.21-12.89
			c7.48-41.19,14.6-82.48,23.38-123.4c3.9-18.17,5.9-36.77,11.8-54.55c2.5-7.54,0.48-12.43-9.14-11.94
			C1163.02,655.56,1150.78,655.26,1136.71,655.61z"/>
		<path d="M635.64,893.39c-0.29,7.04-2.58,8.98-8,4.99c-16.71-12.3-33.72-24.21-50.02-37.02c-5.78-4.54-6.54-12.59-7.91-19.63
			c-4.74-24.24-9.46-48.49-13.96-72.77c-7.12-38.36-13.97-76.77-21.15-115.13c-1.15-6.15,0.72-7.95,6.86-8.91
			c20.53-3.21,40.92,0.15,61.37,0.24c5.99,0.03,8.33,3.79,8.97,8.8c1.66,13.15,4.12,26.33,4.23,39.51
			c0.19,21.71,5.35,42.69,7.43,64.09c2.78,28.53,5.92,57.03,7.8,85.62C632.33,859.65,636.82,875.79,635.64,893.39z M611.29,871.32
			c3.67,1.81,6.18,6.26,12.09,4.89c0-2.77,0.32-5.63-0.05-8.39c-3.2-23.8-6.27-47.63-9.47-71.39
			c-5.93-44.11-10.05-88.34-13.97-132.61c-0.58-6.61-2.87-8.77-9.17-8.63c-11.15,0.25-22.33,0.4-33.46-0.17
			c-9.36-0.48-11.97,3.97-9.28,11.78c6.12,17.75,7.8,36.44,11.75,54.61c8.82,40.57,15.87,81.54,23.08,122.45
			c1.27,7.2,4.61,12.25,10.4,15.13C599.43,862.08,604.03,867.23,611.29,871.32z"/>
	</g>
</g>
<g id="Layer_2" class="st0">
	<g class="st1">
		<path class="st2" d="M490.5,1140.81c3.74-4.47,7.09-8.11,11.39-10.96c10.07-6.68,20.78-12.47,27.66-23.22
			c3.73-5.82,9.54-7.36,15.84-2.81c37.44,27,74.96,53.88,112.32,80.98c45.81,33.23,91.27,66.95,137.34,99.82
			c21.24,15.15,42.35,30.46,63.13,46.24c5.79,4.4,10.98,3.7,16.55-0.48c45.25-33.98,91.6-66.44,137.41-99.66
			c47.2-34.23,94.1-68.86,141.74-102.47c10.82-7.63,21.46-15.52,31.96-23.59c5.89-4.53,11.8-5.01,15.99,1.02
			c7.82,11.26,19.65,17.29,30,25.35c17.39,13.54,25.52,33.11,32.53,53.22c12.65,36.3,10.67,75.13,19.42,112.08
			c5.61,23.68,13.84,46.37,34.31,61.45c9.06,6.68,19.93,11.16,31.35,12.97c4.99,0.79,9.77,1.71,14.11,3.63
			c1.24,7.27-5.1,8.26-8.38,10.21c-35.98,21.46-69.29,46.96-104.85,69.02c-0.3,0.19-0.55,0.47-0.85,0.66
			c-21.18,13.56-22.14,14.28-37.16-5.62c-11.29-14.96-22.06-30.66-28.33-48.87c-7.05-20.47-9.06-41.97-13.74-62.91
			c-8.26-36.99-21.57-70.75-54.17-93.26c-11.61-8.01-25.62-10.84-38.83-15.29c-4.24-1.42-6.68,1.66-9.5,3.75
			c-33.08,24.47-66.15,48.96-99.22,73.44c-20.72,15.33-41.46,30.63-62.14,46.02c-2.8,2.09-5.25,4.65-8.06,7.18
			c24.35,20.62,50.69,37.27,75.59,55.87c34.38,25.69,69.46,50.44,104.24,75.6c26.38,19.08,52.76,38.16,79.12,57.26
			c4.44,3.22,9.05,4.96,14.81,5.33c16.99,1.1,28.57,12.02,29.67,25.82c2.19,27.32-8.95,33.95-26.21,39.06
			c-14.05,4.16-34.47-9.65-35.3-24.01c-0.49-8.52-4.44-12.34-10.61-16.82c-37.69-27.37-75.06-55.2-112.52-82.89
			c-38.01-28.1-76.05-56.15-113.99-84.36c-12.33-9.17-24.35-18.75-36.74-28.32c-56.15,41.83-111.74,83.37-167.47,124.72
			c-33.37,24.76-66.92,49.27-100.51,73.72c-3.88,2.82-5.54,5.91-5.94,10.66c-1.39,16.19-16.61,29.32-32.4,27.89
			c-13.58-1.23-30.71-13.44-29.76-30.99c1.21-22.45,9.89-33.42,32.09-34.59c10.02-0.53,16.15-7.64,23.14-12.64
			c43.69-31.23,86.85-63.19,130.27-94.79c38.21-27.82,76.53-55.49,114.79-83.24c1.11-0.8,2.08-1.79,3.59-3.1
			c-10.75-10.72-23.29-18.41-34.93-27.13c-44.72-33.48-89.84-66.42-134.59-99.85c-5.03-3.76-9.18-3.57-14.81-2.16
			c-43.46,10.88-67.46,40.37-80.44,81.51c-7.48,23.7-11.61,47.97-15.96,72.31c-3.53,19.72-13.76,36.66-24.88,52.92
			c-5.84,8.53-11.54,17.13-19.23,24.41c-5.47,5.18-9.69,4.71-15.13,1.09c-40.54-26.94-81.1-53.85-121.76-80.62
			c-2.25-1.48-4.27-2.47-4.08-6.86c10.54-4.74,22.76-5.78,33.94-10.28c17.97-7.23,27.45-20.92,35.6-36.73
			c11.96-23.2,13.32-48.86,17.36-73.95c3.75-23.28,4.7-47.12,12.79-69.59C473.48,1168.83,479.21,1153.8,490.5,1140.81z"/>
		<path class="st3" d="M1223.56,1136.31c-7.33-5.65-13.47-11.87-24.01-3.36c-20.82,16.8-42.9,32.03-64.32,48.09
			c-16.76,12.57-33.33,25.4-52.41,39.96c17.27,2.2,30.53,7.9,42.11,16.08c32.2,22.74,47.41,56.05,55.09,93.43
			c3.45,16.81,5.25,33.99,9.3,50.63c5.92,24.29,17.66,45.86,33.53,65.31c4.45,5.45,7.32,7.03,13.84,2.66
			c26.41-17.71,53.26-34.76,79.93-52.08c8.39-5.45,17.56-9.86,25.98-17.71c-3.73-1.44-5.63-2.39-7.64-2.91
			c-25.27-6.61-40.43-23.41-50.71-46.88c-7.92-18.07-11.25-36.67-13.87-55.89c-3.82-27.99-7.11-56-15.51-83.34
			C1248.62,1169.99,1241.39,1151.26,1223.56,1136.31z"/>
		<path class="st3" d="M413.5,1395.2c29.73,19.54,59.46,39.09,89.15,58.6c23.02-24.4,37.36-51.85,42.66-83.2
			c5.07-29.99,9.24-59.82,23.67-87.37c11.74-22.42,26.3-41.02,49.66-52.49c9.04-4.44,18.9-6.23,28.82-11.11
			c-8.22-6.51-15.58-12.66-23.27-18.37c-30.48-22.62-61.27-44.82-91.44-67.83c-7.06-5.38-12.54-5.76-19.03-0.68
			c-7.86,6.16-15.52,12.44-20.8,21.23c-17.58,29.3-23.44,62.13-27.5,95.14c-3.55,28.85-5.68,57.68-19.12,84.28
			c-9.31,18.43-20.4,34.31-41.81,40.2c-4.46,1.23-9.82,2.04-14.01,7.16C397.89,1385.53,404.96,1390.09,413.5,1395.2z"/>
		<path class="st2" d="M1127.55,1156.7c-43.36,31.61-86.74,63.2-130.08,94.85c-41.92,30.61-83.89,61.15-125.53,92.13
			c-4.93,3.67-7.17,3.44-11.67-0.22c-9.98-8.13-20.66-15.41-31.08-23c-56.41-41.11-112.84-82.16-169.22-123.31
			c-37.6-27.45-75.17-54.94-112.6-82.63c-4.91-3.63-8.92-4.7-12.92,0.43c-4.27,5.48-2.4,9.72,2.85,13.59
			c36.86,27.17,73.63,54.47,110.43,81.72c22.44,16.61,44.83,33.28,67.35,49.79c33.15,24.3,66.72,48.05,99.42,72.94
			c11.12,8.46,24.43,14.68,32.92,27.18c-1.44,1.34-2.36,2.39-3.47,3.19c-26.36,19.15-52.82,38.15-79.08,57.42
			c-30.58,22.45-60.91,45.24-91.5,67.68c-29.99,22-60.22,43.68-90.22,65.67c-6.47,4.75-12.46,8.56-21.39,8.05
			c-13.6-0.77-23.1,8.79-23.38,21.2c-0.29,13.05,8.32,23.74,20.1,24.96c11.63,1.2,24.94-9.9,25.97-22.35
			c0.4-4.76,1.94-8.05,5.69-10.85c24.65-18.42,49.08-37.15,73.86-55.4c26.53-19.54,53.46-38.54,80.05-58.02
			c36.34-26.62,72.91-52.95,108.5-80.54c10.68-8.28,16.95-7.75,27.48,0.23c41.63,31.6,84.27,61.87,126.41,92.81
			c40.63,29.83,81.33,59.59,121.49,90.05c9.06,6.87,20.33,11.8,21.21,27.38c0.69,12.28,20.5,19.78,30.96,14.38
			c12.55-6.48,16.66-15.16,13.47-28.42c-2.32-9.63-12.98-16.43-25.48-15.4c-5.09,0.42-8.93-0.8-12.92-3.74
			c-25.92-19.09-51.96-38.01-77.97-56.99c-52.36-38.21-104.75-76.38-157.07-114.65c-11.92-8.72-23.61-17.76-36.02-27.12
			c5.38-4.85,9.27-9.03,13.79-12.35c33.75-24.74,67.68-49.24,101.45-73.97c54.51-39.92,108.96-79.93,163.39-119.97
			c10.97-8.07,21.69-16.48,32.6-24.64c4.68-3.5,6.77-7.68,3.21-12.9c-2.92-4.28-6.85-6.46-11.87-2.73
			C1167.45,1127.46,1148.2,1141.76,1127.55,1156.7z"/>
		<path class="st2" d="M904.29,1198.19c-11.18,6.53-21.75,12.52-32.19,18.72c-4.2,2.49-7.88,2.29-12.07-0.15
			c-38.58-22.52-77.2-44.97-115.88-67.31c-7.12-4.11-14.58-7.63-21.87-11.46c-6.03-3.16-8.31-7.96-8.2-14.95
			c0.37-23.03-0.11-46.08,0.27-69.11c0.13-7.76-2.98-11.62-10.04-14.3c-17.76-6.73-33.48-17.53-50.29-26.17
			c-0.31-0.16-0.52-0.61-0.82-0.68c-20.23-4.18-19.27-19.52-18.71-34.95c0.35-9.7-1.01-19.53,0.01-29.13
			c1.13-10.55-2.88-16.61-11.94-21.27c-23.59-12.12-44.77-28.21-67.52-41.74c-3.55-2.11-5.93-5.28-7.06-9.2
			c-5.76-19.95-12.53-39.69-16.72-59.97c-2.7-13.05-7.34-25.43-10.45-38.31c-7.97-33.05-18.24-65.53-27-98.4
			c-9.02-33.85-17.2-67.92-26.03-101.82c-6.5-24.94-13.43-49.76-20.2-74.62c-4.8-17.61-9.69-35.2-14.47-52.82
			c-0.46-1.71-0.58-3.6,1.97-4.99c24.04,19.18,48.35,38.39,72.41,57.91c4.87,3.95,9.18,6.99,12.78-0.41
			c12.7-26.1,34.39-44.73,53.67-65.38c35.89-38.44,80.34-63.97,127.3-86.22c19.75-9.36,38.95-19.82,59.92-26.16
			c15.39-4.65,30.68-10.02,46.99-10.76c6.76-0.31,10.63-3.05,10.33-10.66c-0.48-12.58,0.95-25.37-0.82-37.73
			c-3.37-23.49-28.06-42.98-56.86-24.62c-6.59,4.2-13.25,8.83-18.43,14.57c-5.11,5.66-8.38,12.99-13.87,21.88
			c-7.92-21.38-9.71-41.99-2.36-60.78c15.59-39.86,45.09-61.66,90.46-58.79c1.26-30.02,17.79-53.12,32.99-76.93
			c6.81-10.67,8.66-23.37,11.38-35.54c1.09-4.87,1.27-9.89,4.22-14.27c5.14,0.77,4.93,5.39,5.26,8.31
			c2.62,23.42,12.61,43.54,25.71,62.75c11.19,16.4,18.26,34.72,19.86,55.94c38.23-4.34,65.35,13.98,84.61,44.82
			c11.97,19.17,12.38,53.82,2.98,72.57c-7.79-14.34-17.35-26.46-31.42-34.15c-11.96-6.54-24.2-11.77-37.58-3.87
			c-10.55,6.23-19.01,14.66-19.96,27.45c-0.98,13.25-0.28,26.61-0.58,39.92c-0.15,6.84,4.08,8.44,9.56,9.1
			c36.79,4.45,70.25,18.09,103.1,34.8c21.37,10.87,42.16,22.68,63.35,33.78c20.7,10.85,38.23,25.54,54.79,41.36
			c21.75,20.78,43.81,41.45,60.44,66.93c0.39,0.59,0.93,1.1,1.44,1.6c4.43,4.32,3.03,14.15,11.19,14.24
			c6.72,0.07,10.48-7.04,15.49-10.9c21.5-16.55,42.51-33.72,65.45-52.05c0.15,11.83-4.13,21.24-6.51,30.77
			c-9.09,36.44-18.71,72.74-28.35,109.04c-6.89,25.94-14.3,51.75-21.19,77.69c-8.17,30.76-15.95,61.63-24.08,92.4
			c-3.66,13.86-7.81,27.59-11.65,41.4c-6.99,25.15-13.9,50.32-20.89,75.47c-1.95,7.02-5.3,12.06-12.23,16.45
			c-23.55,14.96-46.69,30.56-70.98,44.34c-4.63,2.62-4.87,6.65-4.9,11.07c-0.13,17.28-0.47,34.55-0.36,51.83
			c0.04,6.1-1.99,10.27-7.45,13.09c-17.74,9.18-34.76,20.19-53.28,27.28c-16.64,6.36-20.48,16.31-19.22,32.51
			c1.36,17.53-0.24,35.28,0.52,52.88c0.4,9.19-2.95,15.05-10.48,19.3C973.54,1159.11,939.24,1178.42,904.29,1198.19z"/>
		<path class="st2" d="M621.35,414.39c4.42-0.84,7.35-0.08,11.04,3.8c24.02,25.31,48.51,50.17,73.18,74.84
			c20.85,20.86,40.8,41.68,42.76,73.82c1.42,23.23,4.52,24.64,27.58,24.46c9.84-0.08,11.42-4.89,8.61-12.19
			c-12.37-32.15-18.95-66.01-29.58-98.66c-2.79-8.58-5.19-17.51-0.07-25.97c19.55-32.35,39.39-64.53,58.99-96.85
			c6.45-10.63,12.51-21.49,19.46-33.47c-79.96,12.48-149.96,43.77-214.73,91.1c-34.19,27.82-66.85,57.12-91.57,94.19
			c-3,4.5-2.94,7.54,1.45,10.91c7.4,5.67,14.58,11.63,21.75,17.59c6.53,5.44,10.66,11.55,10.25,21.04
			c-0.5,11.72,1.98,23.48,0.36,36.23c13.96,1.19,26.63,0.55,39.78-0.26c-0.43-7.87-1.62-14.45-4.54-20.74
			c-5-10.76-6.8-22.32-4.42-33.71c3.07-14.72,6.65-29.32,9.54-44.12C606.55,468.99,613.56,441.9,621.35,414.39z"/>
		<path class="st2" d="M583.35,606.39c-9.71,0.32-19.42,0.66-29.13,0.94c-5.77,0.16-8.55-2.51-8.4-8.49
			c0.31-12.23-0.37-24.53,0.79-36.67c0.65-6.78-1.36-10.42-6.39-14.43c-15.64-12.47-30.84-25.5-46.19-38.34
			c-13.21-11.05-26.38-22.14-39.73-33.34c-1.43,13.51,6.08,23.75,8.3,35.3c6.08,31.69,15.93,62.41,24.55,93.39
			c9.88,35.52,18.98,71.27,28.77,106.81c10.44,37.89,19.43,76.22,29.68,114.2c3.07,11.38,6.16,22.86,7.73,34.5
			c0.88,6.46,3.23,10.72,8.35,14.02c21.38,13.77,42,28.82,64.67,40.42c14.49,7.41,22.61,16.79,20.44,34.31
			c-1.54,12.4,0.06,25.17-0.34,37.75c-0.23,7.34,2.17,11.58,8.95,15.26c18.55,10.06,37.97,18.35,56.26,28.97
			c9.13,5.3,12.71,11.64,12.61,21.57c-0.2,21.23,0.03,42.47-0.01,63.7c-0.01,4.83,0.21,9.17,5.21,12
			c15.26,8.65,30.31,17.68,45.56,26.33c22.1,12.53,44.39,24.73,66.44,37.34c14.23,8.13,27.9,15.49,43.78,2.78
			c6.88-5.51,15.5-8.83,23.3-13.21c30.28-16.99,60.51-34.09,90.87-50.96c5.93-3.3,8.81-7.37,8.68-14.53
			c-0.37-20.87-0.1-41.75,0.04-62.62c0.05-8.55,1.57-16.35,10.02-21.2c15.83-9.09,32.28-16.89,48.79-24.62
			c12.17-5.7,21.62-12.23,19.22-28.92c-1.98-13.73-0.07-28.01-0.1-42.05c-0.01-6.72,2.47-10.9,8.62-14.6
			c25.16-15.17,49.88-31.06,74.68-46.81c4.25-2.7,7.99-5.85,9.1-11.43c8.64-43.19,21.33-85.38,31.8-128.12
			c6.56-26.78,15.16-53.06,21.69-79.85c8.58-35.16,18.42-69.96,28.26-104.76c5.85-20.67,11.35-41.45,16.84-62.22
			c0.85-3.2,2.43-6.93-2.01-9.96c-28.61,23.81-57.19,47.64-85.82,71.39c-3.48,2.88-3.78,6.23-3.57,10.53
			c0.62,12.57,0.38,25.18,0.83,37.76c0.23,6.56-2.51,9.15-8.93,8.84c-14.37-0.68-28.75-1.35-43.13-1.62
			c-20.34-0.37-21.2-1.35-15.41-20.6c0.31-1.03,0.67-2.06,1.11-3.04c9.89-21.75,7.75-43.51,1.21-65.74
			c-5.66-19.22-8.88-39.06-12.25-58.83c-1.44-8.44-2.82-17.26-7.49-25.3c-32.94,35.74-65.21,70.78-97.53,105.77
			c-2.35,2.54-2.94,5.53-3.59,8.77c-3.21,16.16-6.77,32.25-9.97,48.41c-0.95,4.79-2.61,8.13-8.16,8.01
			c-14.75-0.31-29.5-0.45-44.25-0.84c-6.58-0.17-8.91-3.68-7.05-10.05c3.81-13.08,7.44-26.21,11.35-39.25
			c8.31-27.74,16.68-55.47,25.23-83.14c1.01-3.28-0.16-5.15-1.74-7.76c-22.95-37.97-45.7-76.07-68.55-114.11
			c-10.05-16.72-20.22-33.36-30.33-50.01c-1.36,0.72-2.22,0.88-2.52,1.38c-32.89,54.45-65.72,108.93-98.66,163.35
			c-1.44,2.39-2.25,4.42-0.99,6.96c3.37,6.84,3.77,14.6,6.33,21.58c11.99,32.69,19.04,66.81,29.65,99.88
			c2.36,7.35,0.5,11.08-7.46,11.23c-14.03,0.26-28.07,0.49-42.1,0.88c-5.65,0.16-8.35-2.22-9.42-7.89
			c-3.07-16.19-6.88-32.24-9.85-48.45c-0.83-4.51-2.48-7.7-5.61-11.02c-16.02-16.98-31.68-34.31-47.5-51.48
			c-15.95-17.3-31.94-34.56-48.56-52.54c-1.03,2.85-1.98,4.73-2.39,6.71c-6.14,30.17-12.88,60.2-19.64,90.23
			c-2.43,10.81-6.86,21.86-1.63,34.56c3.94,9.57,6.86,20.28,9.05,30.8c1.51,7.28,0.21,11.94-8.81,11.5
			C599.76,605.37,592.55,605.96,583.35,606.39z"/>
		<path class="st2" d="M855.26,104.19c-13.11,23.17-24.81,46.81-23.38,75.42c-24.83-7.51-47.78-6.26-67.7,8.72
			c-22.75,17.12-33.71,40.52-29.62,58.47c0.83-0.79,1.74-1.42,2.35-2.27c13.95-19.72,37.25-27.25,60.79-20.66
			c17.49,4.9,36.6,29.01,34.85,50.57c-0.91,11.18-0.36,22.52-2.42,34.77c24.74-1.36,22.31-26.95,36.19-36.4
			c2.85,1.35,3.88,3.53,5.15,5.75c4.81,8.4,10.18,16.48,14.72,25.02c2.94,5.52,7.62,5.33,12.03,4.33c5.97-1.35,2.77-6.1,2.6-9.76
			c-0.41-9.33-1.24-18.72-0.67-28.02c2.23-36.38,37.25-57.94,71.42-44.77c12.56,4.84,20.69,14.42,28.93,25.64
			c-0.89-42.58-36.83-88.36-100.56-72.1c4.43-38.44-21.21-66.07-33.71-100.25C862.3,87.72,859.07,95.2,855.26,104.19z"/>
		<path class="st2" d="M954.73,416.19c6.97,12.03,13.66,24.23,21.02,36.01c3.63,5.81,5.68,11.49,3.8,18.2
			c-7.15,25.5-14.64,50.92-21.39,76.53c-3.7,14.04-9.25,27.68-10.78,42.66c7.45,2.73,14.67,0.93,21.69,1.55
			c6.38,0.57,9.93-1.72,11.32-8.43c3.13-15.07,7.09-29.98,10.3-45.03c1.01-4.75,2.59-8.85,5.96-12.36
			c36.72-38.17,73.4-76.39,110.63-115.14c-62.44-42.89-129.6-74.42-208.61-85.73C917.95,356.03,935.91,385.44,954.73,416.19z"/>
		<path class="st2" d="M1133.64,431.29c-6.25-4.99-12.51-9.98-20.6-16.45c9.02,41.34,17.24,80.11,26.04,118.75
			c3.14,13.8,3.18,27.02-2.58,40.02c-2.93,6.61-4.87,13.35-4.25,21.69c12.9,0,25.62,0,39.79,0c-2.95-13.51,0.24-26.62,0.06-39.84
			c-0.07-4.97,1.37-8.67,4.93-12.4c7.98-8.37,17.44-14.87,26.26-22.16c4.8-3.98,6.34-7.18,1.51-12.28
			c-3.14-3.32-5.22-7.63-7.91-11.4C1179.32,472.59,1156.09,453.36,1133.64,431.29z"/>
		<path d="M887.03,1121.04c0.25-150.71,0.51-300.35,0.74-449.98c0.04-26.49,0.02-26.32,26.49-28.3c20.83-1.56,41.6-2.34,62.47-0.36
			c6.97,0.66,9.02,3.5,9.04,10.16c0.2,55.73-0.8,111.4-3.84,167.09c-1.63,29.75-3.42,59.55-2.83,89.44
			c0.95,48.19-1.92,96.3-3.48,144.45c-0.52,16-0.97,32.2-0.51,48.25c0.31,10.95-4.25,18.39-12.79,22.94
			c-24.06,12.81-46.83,27.54-68.73,43.69c-0.79,0.58-2,0.6-5.07,1.46C885.9,1153.73,887.6,1137.84,887.03,1121.04z"/>
		<path d="M969.1,869.4c-0.65-68.72,1.26-137.36,6.21-205.9c0.59-8.18-2.24-11.03-10.35-10.4c-18.66,1.46-37.39,2.49-56.05,0.85
			c-8.39-0.74-9.88,2.41-9.19,9.79c0.96,10.37,1.42,20.83,1.43,31.25c0.16,145.76,0.2,291.51,0.39,437.27
			c0.01,3.99-1.74,8.53,2.51,12.8c17.22-11.64,34.06-23.77,51.75-34.5c5.2-3.15,7.11-5.89,7.25-11.42
			C964.99,1023.27,967.06,947.42,969.1,869.4z"/>
		<path d="M753.1,887.81c-2.22-71.5-7.76-141.84-6.51-212.38c0.18-10.36,0.03-20.73,0.03-32.2c9.54-0.76,18.04-2.08,26.53-1.97
			c20.49,0.25,40.98,1.28,61.47,1.77c7.66,0.18,10.62,3.37,10.61,11.28c-0.15,168.42-0.09,336.83-0.12,505.25
			c0,3.12,0.8,6.51-2.26,9.8c-9.36-2.38-16.41-9.35-23.99-14.82c-14.55-10.5-30.11-19.24-45.54-28.21
			c-10-5.81-15.93-12.34-16.06-25.23C756.53,1030.35,752.07,959.67,753.1,887.81z"/>
		<path d="M830.88,1081.08c0.09-127.35,0.14-254.71,0.35-382.06c0.02-12.2,1.05-24.41,1.64-36.61c0.25-5.26-0.62-9.72-7.37-8.98
			c-19.77,2.16-39.52,1.06-59.24-0.33c-8.08-0.57-9.99,2.91-9.25,10.19c3.93,38.64,5.46,77.51,5.49,116.23
			c0.09,102.15,4.29,204.19,6.23,306.28c0.28,14.79,2.62,25.53,17.6,30.68c2.25,0.77,3.95,3.05,6.01,4.49
			c12.04,8.46,23.88,17.25,38.55,24.14C830.88,1123.45,830.88,1103.35,830.88,1081.08z"/>
		<path d="M1008.41,929.11c1.33-41.63,2.68-82.22,3.89-122.81c1.52-51,3.02-102.01,4.23-153.02c0.17-7.12,3.12-9.72,9.71-9.55
			c19.76,0.51,39.51,1.09,59.28,1.4c7.95,0.12,8.47,5.31,8.07,11.03c-1.5,21.12-3.15,42.23-4.78,63.35
			c-1.97,25.38-3.62,50.78-6.05,76.11c-4.74,49.3-4.21,98.94-10.13,148.18c-1.45,12.07-0.66,24.43-0.61,36.65
			c0.04,9.13-3.48,15.86-11.68,20.13c-12.65,6.58-25.13,13.5-37.88,19.87c-10.47,5.23-14.35,2.72-14.38-9.37
			C1007.98,984.1,1008.25,957.12,1008.41,929.11z"/>
		<path d="M1021.66,884.16c-1.23,40.67-2.45,81.34-3.74,124.04c10.59-6.11,18.62-10.74,26.65-15.36
			c12.28-7.07,20.14-16.02,17.7-31.87c-1.4-9.1-0.28-18.68,0.4-27.99c2.74-37.58,7.45-74.99,8.08-112.74
			c0.27-16.49,1.6-32.99,3.11-49.42c3.31-36.14,4.77-72.35,5.35-108.61c0.1-6.29-2.13-9.26-8.76-9.14
			c-13.93,0.24-27.86,0.07-43.17,0.07C1025.4,730.64,1023.57,806.36,1021.66,884.16z"/>
		<path d="M658.77,936.69c-3.25-49.69-6.01-98.41-9.51-147.08c-2.95-41.13-6.77-82.2-10.19-123.29c-0.21-2.51-0.1-5.05-0.41-7.54
			c-1.25-10.01,2.42-14.14,13.14-13.9c17.58,0.39,35.2-0.57,52.79-1.29c8.31-0.34,11.07,2.88,11.27,11.32
			c1.94,84.44,3.58,168.9,6.86,253.29c1.31,33.81,1.17,67.57,1.55,101.35c0.16,14.19-3.02,16.22-15.81,10.02
			c-11.87-5.75-23.47-12.05-35.09-18.31c-8.95-4.82-13.24-12.09-13.25-22.69C660.11,964.94,661.54,951.23,658.77,936.69z"/>
		<path d="M705.94,677.52c-0.12-3.96-0.5-7.93-0.32-11.87c0.39-8.87-2.74-13.33-12.52-12.55c-8.94,0.71-18.04,0.69-26.97-0.11
			c-10.75-0.95-13.49,3.54-13.17,13.68c1.45,45.61,6.28,91.07,7.81,136.57c1.89,56.43,10.33,112.43,9.6,168.94
			c-0.05,4,0.09,7.79,3.9,10.57c12.06,8.8,23.67,18.31,39.68,23.81C711.29,897.05,708.65,788.32,705.94,677.52z"/>
		<path d="M1169.44,805.95c-4.07,11.83-3.63,23.54-6.25,34.68c-2.47,10.53-5.7,20.03-15.96,26.6
			c-16.19,10.38-30.66,23.35-47.78,33.69c-4.85-7.82-3.1-15.83-2.46-23.28c3.66-42.46,9-84.75,13.1-127.17
			c2.82-29.21,6.73-58.31,8.71-87.64c1.12-16.62,2.94-17.02,19.86-17.88c16.86-0.86,33.61-2.13,50.54-0.12
			c7.46,0.89,10.06,2.49,8.37,10.5c-9.3,44.09-15.02,88.88-25.58,132.74C1170.67,793.62,1172.1,799.62,1169.44,805.95z"/>
		<path d="M1136.71,655.61c-2.82,0.85-3.98,2.93-3.99,5.7c-0.06,21.98-4.82,43.5-6.45,65.31c-3.07,41.12-9.01,81.88-14.43,122.72
			c-1.16,8.74-1.83,17.5,0.83,27.82c10.18-7.04,19.05-13.54,28.3-19.43c4.98-3.17,7.16-7.12,8.21-12.89
			c7.48-41.19,14.6-82.48,23.38-123.4c3.9-18.17,5.9-36.77,11.8-54.55c2.5-7.54,0.48-12.43-9.14-11.94
			C1163.02,655.56,1150.78,655.26,1136.71,655.61z"/>
		<path d="M635.64,893.39c-0.29,7.04-2.58,8.98-8,4.99c-16.71-12.3-33.72-24.21-50.02-37.02c-5.78-4.54-6.54-12.59-7.91-19.63
			c-4.74-24.24-9.46-48.49-13.96-72.77c-7.12-38.36-13.97-76.77-21.15-115.13c-1.15-6.15,0.72-7.95,6.86-8.91
			c20.53-3.21,40.92,0.15,61.37,0.24c5.99,0.03,8.33,3.79,8.97,8.8c1.66,13.15,4.12,26.33,4.23,39.51
			c0.19,21.71,5.35,42.69,7.43,64.09c2.78,28.53,5.92,57.03,7.8,85.62C632.33,859.65,636.82,875.79,635.64,893.39z"/>
		<path d="M611.29,871.32c3.67,1.81,6.18,6.26,12.09,4.89c0-2.77,0.32-5.63-0.05-8.39c-3.2-23.8-6.27-47.63-9.47-71.39
			c-5.93-44.11-10.05-88.34-13.97-132.61c-0.58-6.61-2.87-8.77-9.17-8.63c-11.15,0.25-22.33,0.4-33.46-0.17
			c-9.36-0.48-11.97,3.97-9.28,11.78c6.12,17.75,7.8,36.44,11.75,54.61c8.82,40.57,15.87,81.54,23.08,122.45
			c1.27,7.2,4.61,12.25,10.4,15.13C599.43,862.08,604.03,867.23,611.29,871.32z"/>
	</g>
</g>
<g id="Layer_3">
	<g>
		<g>
			<path d="M487.19,1174.85c3.98-4.92,7.55-8.94,12.12-12.07c10.72-7.36,22.12-13.74,29.45-25.59c3.97-6.42,10.15-8.11,16.87-3.09
				c39.86,29.75,79.81,59.37,119.59,89.24c48.78,36.62,97.17,73.78,146.22,110c22.62,16.7,45.09,33.57,67.22,50.95
				c6.17,4.85,11.69,4.08,17.62-0.53c48.18-37.44,97.53-73.22,146.3-109.82c50.25-37.72,100.19-75.88,150.91-112.92
				c11.52-8.41,22.85-17.11,34.03-26c6.27-4.99,12.56-5.53,17.02,1.13c8.33,12.41,20.92,19.05,31.94,27.94
				c18.51,14.92,27.17,36.48,34.63,58.65c13.47,40,11.36,82.79,20.67,123.51c5.97,26.09,14.74,51.09,36.53,67.71
				c9.65,7.36,21.22,12.3,33.37,14.29c5.31,0.87,10.4,1.89,15.02,4c1.32,8.01-5.43,9.1-8.92,11.25
				c-38.31,23.65-73.77,51.75-111.64,76.06c-0.32,0.21-0.59,0.52-0.91,0.73c-22.55,14.94-23.57,15.73-39.56-6.19
				c-12.02-16.48-23.49-33.78-30.17-53.85c-7.51-22.56-9.65-46.25-14.63-69.33c-8.8-40.76-22.97-77.97-57.68-102.77
				c-12.36-8.83-27.28-11.95-41.34-16.84c-4.51-1.57-7.11,1.83-10.12,4.13c-35.22,26.97-70.43,53.96-105.64,80.93
				c-22.06,16.9-44.15,33.75-66.16,50.72c-2.98,2.3-5.59,5.13-8.58,7.91c25.92,22.72,53.97,41.07,80.48,61.57
				c36.6,28.31,73.96,55.59,110.99,83.31c28.09,21.03,56.18,42.05,84.24,63.1c4.73,3.55,9.64,5.47,15.77,5.88
				c18.09,1.21,30.42,13.25,31.59,28.45c2.33,30.1-9.53,37.41-27.9,43.05c-14.96,4.59-36.7-10.64-37.59-26.46
				c-0.53-9.39-4.73-13.6-11.3-18.53c-40.13-30.16-79.91-60.83-119.8-91.34c-40.47-30.96-80.98-61.88-121.36-92.96
				c-13.13-10.1-25.92-20.66-39.12-31.21c-59.78,46.1-118.97,91.87-178.31,137.44c-35.53,27.28-71.25,54.3-107.02,81.24
				c-4.13,3.11-5.89,6.51-6.33,11.74c-1.48,17.84-17.69,32.31-34.5,30.73c-14.46-1.36-32.69-14.81-31.68-34.15
				c1.29-24.74,10.53-36.83,34.17-38.12c10.67-0.58,17.19-8.42,24.64-13.93c46.51-34.41,92.47-69.63,138.7-104.46
				c40.69-30.65,81.48-61.15,122.22-91.73c1.18-0.88,2.21-1.97,3.82-3.42c-11.45-11.82-24.8-20.29-37.19-29.9
				c-47.61-36.9-95.65-73.2-143.3-110.04c-5.36-4.14-9.77-3.93-15.77-2.38c-46.27,11.99-71.83,44.49-85.65,89.82
				c-7.96,26.12-12.36,52.87-17,79.68c-3.76,21.73-14.65,40.39-26.49,58.32c-6.21,9.4-12.29,18.87-20.47,26.9
				c-5.83,5.71-10.31,5.19-16.11,1.2c-43.16-29.69-86.35-59.34-129.63-88.84c-2.4-1.63-4.55-2.72-4.35-7.56
				c11.23-5.22,24.23-6.37,36.13-11.32c19.13-7.96,29.23-23.05,37.9-40.48c12.73-25.57,14.18-53.84,18.49-81.49
				c3.99-25.66,5.01-51.92,13.62-76.69C469.07,1205.73,475.17,1189.17,487.19,1174.85z"/>
			<path class="st3" d="M1267.68,1169.9c-7.81-6.22-14.34-13.08-25.57-3.71c-22.17,18.51-45.67,35.3-68.49,53
				c-17.85,13.85-35.49,27.99-55.8,44.04c18.39,2.42,32.5,8.7,44.84,17.72c34.28,25.06,50.48,61.76,58.65,102.96
				c3.67,18.52,5.59,37.45,9.91,55.79c6.3,26.77,18.8,50.54,35.7,71.97c4.74,6.01,7.8,7.75,14.74,2.93
				c28.12-19.52,56.71-38.3,85.1-57.39c8.93-6,18.7-10.86,27.66-19.52c-3.98-1.59-6-2.63-8.14-3.21c-26.9-7.29-43.04-25.8-54-51.66
				c-8.43-19.91-11.98-40.41-14.77-61.59c-4.07-30.84-7.57-61.71-16.51-91.84C1294.36,1207,1286.67,1186.36,1267.68,1169.9z"/>
			<path class="st3" d="M405.2,1455.18c31.65,21.54,63.31,43.07,94.92,64.58c24.51-26.89,39.77-57.14,45.42-91.68
				c5.4-33.04,9.84-65.92,25.2-96.28c12.5-24.71,28-45.2,52.88-57.84c9.63-4.89,20.13-6.86,30.68-12.24
				c-8.75-7.17-16.59-13.95-24.77-20.24c-32.45-24.92-65.24-49.39-97.36-74.75c-7.51-5.93-13.35-6.35-20.26-0.74
				c-8.36,6.78-16.53,13.7-22.14,23.39c-18.71,32.28-24.95,68.47-29.28,104.84c-3.78,31.79-6.04,63.56-20.35,92.87
				c-9.92,20.31-21.72,37.81-44.51,44.3c-4.75,1.35-10.46,2.24-14.91,7.89C388.59,1444.53,396.12,1449.56,405.2,1455.18z"/>
			<path class="st2" d="M1165.46,1192.36c-46.17,34.84-92.35,69.64-138.49,104.52c-44.63,33.73-89.32,67.38-133.66,101.53
				c-5.25,4.04-7.64,3.79-12.42-0.24c-10.63-8.96-22-16.98-33.09-25.35c-60.05-45.3-120.15-90.54-180.17-135.89
				c-40.04-30.25-80.04-60.55-119.89-91.06c-5.23-4-9.5-5.18-13.75,0.47c-4.54,6.04-2.56,10.71,3.03,14.97
				c39.25,29.94,78.39,60.03,117.58,90.05c23.89,18.3,47.73,36.68,71.71,54.86c35.3,26.78,71.03,52.95,105.86,80.37
				c11.84,9.32,26.01,16.17,35.05,29.95c-1.53,1.47-2.51,2.63-3.69,3.52c-28.06,21.1-56.24,42.04-84.2,63.28
				c-32.56,24.73-64.85,49.85-97.42,74.58c-31.93,24.25-64.12,48.13-96.06,72.37c-6.89,5.23-13.27,9.43-22.78,8.87
				c-14.48-0.84-24.59,9.68-24.89,23.36c-0.31,14.38,8.86,26.17,21.4,27.51c12.38,1.32,26.55-10.91,27.65-24.63
				c0.42-5.25,2.06-8.87,6.06-11.96c26.25-20.3,52.26-40.94,78.64-61.05c28.25-21.54,56.92-42.47,85.23-63.94
				c38.69-29.34,77.63-58.35,115.52-88.75c11.37-9.12,18.05-8.54,29.25,0.26c44.33,34.82,89.72,68.18,134.59,102.27
				c43.26,32.88,86.59,65.67,129.35,99.24c9.65,7.57,21.65,13.01,22.58,30.17c0.74,13.53,21.83,21.8,32.97,15.85
				c13.36-7.14,17.74-16.71,14.34-31.31c-2.47-10.61-13.82-18.11-27.13-16.97c-5.42,0.46-9.51-0.88-13.76-4.12
				c-27.6-21.04-55.32-41.89-83.01-62.8c-55.75-42.1-111.53-84.17-167.23-126.34c-12.7-9.61-25.14-19.58-38.35-29.88
				c5.72-5.35,9.87-9.95,14.69-13.61c35.93-27.27,72.06-54.26,108.01-81.51c58.04-43.99,116.02-88.08,173.97-132.2
				c11.68-8.89,23.09-18.16,34.71-27.15c4.99-3.86,7.21-8.46,3.41-14.21c-3.11-4.72-7.29-7.12-12.64-3.01
				C1207.95,1160.14,1187.45,1175.9,1165.46,1192.36z"/>
		</g>
		<g>
			<path d="M933.16,1258.59c-13.42,6.82-26.12,13.07-38.66,19.55c-5.04,2.6-9.47,2.4-14.5-0.16
				c-46.32-23.53-92.7-46.98-139.15-70.31c-8.55-4.3-17.51-7.97-26.27-11.97c-7.24-3.31-9.98-8.31-9.85-15.62
				c0.44-24.06-0.13-48.14,0.32-72.2c0.15-8.11-3.58-12.14-12.06-14.94c-21.32-7.03-40.2-18.32-60.39-27.34
				c-0.37-0.17-0.62-0.64-0.99-0.71c-24.3-4.37-23.14-20.39-22.47-36.51c0.42-10.14-1.22-20.4,0.02-30.43
				c1.36-11.02-3.46-17.36-14.34-22.22c-28.33-12.66-53.76-29.47-81.08-43.6c-4.26-2.2-7.12-5.51-8.48-9.61
				c-6.91-20.84-15.04-41.47-20.08-62.65c-3.24-13.63-8.81-26.57-12.54-40.02c-9.58-34.52-21.91-68.46-32.43-102.79
				c-10.84-35.36-20.66-70.95-31.26-106.36c-7.8-26.05-16.12-51.98-24.26-77.95c-5.76-18.4-11.64-36.77-17.37-55.17
				c-0.56-1.78-0.7-3.76,2.37-5.21c28.87,20.03,58.06,40.11,86.95,60.5c5.85,4.13,11.02,7.3,15.34-0.43
				c15.25-27.27,41.3-46.73,64.45-68.3c43.1-40.15,96.47-66.82,152.87-90.07c23.71-9.77,46.77-20.71,71.96-27.33
				c18.48-4.86,36.84-10.47,56.43-11.24c8.12-0.32,12.76-3.19,12.41-11.14c-0.58-13.14,1.15-26.5-0.98-39.41
				c-4.05-24.54-33.69-44.9-68.28-25.72c-7.92,4.39-15.91,9.23-22.13,15.22c-6.13,5.92-10.06,13.57-16.66,22.85
				c-9.51-22.34-11.66-43.87-2.83-63.5c18.73-41.64,54.15-64.42,108.62-61.42c1.51-31.36,21.36-55.49,39.62-80.36
				c8.18-11.14,10.4-24.42,13.66-37.13c1.3-5.08,1.53-10.33,5.07-14.9c6.17,0.8,5.92,5.63,6.32,8.68
				c3.14,24.47,15.14,45.48,30.88,65.55c13.43,17.13,21.93,36.27,23.85,58.44c45.91-4.53,78.48,14.61,101.61,46.82
				c14.38,20.02,14.87,56.22,3.58,75.81c-9.36-14.98-20.83-27.64-37.73-35.68c-14.36-6.83-29.07-12.3-45.13-4.04
				c-12.67,6.51-22.83,15.31-23.97,28.67c-1.18,13.84-0.34,27.8-0.7,41.7c-0.18,7.15,4.89,8.81,11.48,9.51
				c44.17,4.65,84.36,18.89,123.8,36.35c25.66,11.36,50.63,23.69,76.07,35.29c24.86,11.33,45.91,26.68,65.8,43.21
				c26.12,21.71,52.61,43.3,72.58,69.91c0.47,0.62,1.12,1.15,1.73,1.67c5.33,4.51,3.64,14.78,13.44,14.88
				c8.07,0.08,12.58-7.35,18.6-11.39c25.81-17.29,51.05-35.22,78.59-54.38c0.17,12.36-4.96,22.19-7.81,32.15
				c-10.92,38.06-22.47,75.99-34.05,113.91c-8.28,27.1-17.17,54.06-25.44,81.16c-9.81,32.14-19.15,64.38-28.92,96.53
				c-4.4,14.48-9.38,28.82-13.99,43.25c-8.4,26.27-16.69,52.57-25.09,78.84c-2.34,7.33-6.37,12.59-14.68,17.19
				c-28.28,15.63-56.07,31.93-85.23,46.32c-5.56,2.74-5.85,6.94-5.89,11.57c-0.15,18.05-0.57,36.1-0.43,54.14
				c0.05,6.37-2.39,10.73-8.94,13.67c-21.3,9.59-41.74,21.1-63.98,28.5c-19.98,6.65-24.59,17.04-23.08,33.96
				c1.64,18.31-0.29,36.85,0.63,55.24c0.48,9.6-3.54,15.73-12.59,20.16C1016.32,1217.76,975.14,1237.94,933.16,1258.59z"/>
			<path class="st2" d="M593.4,439.79c5.3-0.88,8.82-0.09,13.26,3.97c28.84,26.43,58.25,52.41,87.88,78.18
				c25.04,21.79,48.99,43.54,51.35,77.11c1.71,24.26,5.43,25.74,33.11,25.56c11.82-0.08,13.72-5.1,10.34-12.74
				c-14.85-33.58-22.76-68.95-35.51-103.07c-3.35-8.96-6.23-18.29-0.09-27.13c23.48-33.79,47.3-67.41,70.84-101.17
				c7.74-11.1,15.02-22.45,23.37-34.97c-96.02,13.04-180.07,45.73-257.86,95.17c-41.06,29.07-80.28,59.67-109.96,98.39
				c-3.6,4.7-3.53,7.88,1.75,11.39c8.89,5.92,17.51,12.14,26.11,18.38c7.84,5.68,12.8,12.07,12.31,21.98
				c-0.6,12.24,2.37,24.53,0.43,37.85c16.77,1.24,31.97,0.57,47.77-0.27c-0.51-8.22-1.94-15.1-5.45-21.66
				c-6-11.24-8.16-23.31-5.31-35.22c3.68-15.38,7.99-30.63,11.46-46.09C575.63,496.83,584.05,468.53,593.4,439.79z"/>
			<path class="st2" d="M547.77,640.37c-11.66,0.33-23.32,0.69-34.98,0.98c-6.93,0.17-10.26-2.62-10.08-8.87
				c0.37-12.77-0.44-25.63,0.95-38.31c0.78-7.08-1.63-10.89-7.67-15.08c-18.78-13.03-37.03-26.64-55.46-40.05
				c-15.86-11.54-31.68-23.13-47.71-34.83c-1.71,14.11,7.31,24.81,9.97,36.87c7.3,33.11,19.13,65.19,29.47,97.56
				c11.86,37.11,22.79,74.45,34.55,111.58c12.54,39.58,23.33,79.62,35.64,119.3c3.69,11.89,7.39,23.88,9.28,36.04
				c1.05,6.75,3.88,11.19,10.03,14.64c25.67,14.39,50.44,30.11,77.66,42.23c17.4,7.74,27.16,17.54,24.55,35.84
				c-1.85,12.96,0.07,26.29-0.41,39.43c-0.28,7.66,2.6,12.1,10.75,15.94c22.27,10.5,45.59,19.17,67.56,30.26
				c10.96,5.53,15.26,12.16,15.15,22.53c-0.24,22.18,0.03,44.37-0.01,66.55c-0.01,5.05,0.26,9.58,6.26,12.54
				c18.33,9.04,36.39,18.47,54.72,27.51c26.54,13.09,53.3,25.84,79.79,39c17.08,8.49,33.5,16.18,52.58,2.91
				c8.27-5.75,18.61-9.23,27.98-13.8c36.37-17.75,72.67-35.61,109.12-53.23c7.12-3.44,10.57-7.69,10.42-15.18
				c-0.45-21.8-0.11-43.61,0.04-65.42c0.07-8.93,1.89-17.08,12.03-22.15c19.01-9.49,38.77-17.65,58.59-25.72
				c14.61-5.95,25.96-12.77,23.07-30.21c-2.38-14.35-0.09-29.26-0.12-43.92c-0.01-7.02,2.97-11.38,10.35-15.26
				c30.21-15.85,59.89-32.45,89.68-48.9c5.1-2.82,9.59-6.11,10.93-11.94c10.37-45.12,25.61-89.19,38.19-133.84
				c7.88-27.97,18.2-55.43,26.05-83.41c10.3-36.73,22.11-73.08,33.94-109.44c7.02-21.6,13.63-43.3,20.22-65
				c1.02-3.35,2.92-7.24-2.41-10.4c-34.35,24.88-68.67,49.76-103.06,74.58c-4.18,3.01-4.54,6.51-4.29,11
				c0.75,13.13,0.46,26.3,1,39.45c0.28,6.85-3.01,9.55-10.73,9.24c-17.26-0.71-34.53-1.41-51.8-1.69
				c-24.42-0.39-25.46-1.41-18.5-21.52c0.37-1.08,0.8-2.15,1.33-3.17c11.88-22.72,9.31-45.45,1.45-68.67
				c-6.8-20.08-10.66-40.8-14.71-61.46c-1.73-8.81-3.39-18.03-9-26.43c-39.55,37.33-78.31,73.94-117.12,110.49
				c-2.82,2.65-3.54,5.78-4.31,9.16c-3.86,16.88-8.14,33.69-11.97,50.57c-1.14,5-3.14,8.49-9.8,8.37
				c-17.71-0.32-35.43-0.47-53.14-0.88c-7.9-0.18-10.7-3.85-8.47-10.5c4.58-13.66,8.94-27.38,13.63-41.01
				c9.98-28.98,20.03-57.95,30.3-86.85c1.22-3.43-0.19-5.38-2.08-8.1c-27.56-39.67-54.88-79.47-82.32-119.2
				c-12.06-17.47-24.28-34.85-36.42-52.25c-1.63,0.75-2.66,0.92-3.03,1.44c-39.5,56.88-78.92,113.8-118.47,170.64
				c-1.73,2.49-2.7,4.61-1.19,7.27c4.05,7.14,4.52,15.25,7.6,22.55c14.4,34.14,22.87,69.79,35.61,104.34
				c2.83,7.68,0.6,11.58-8.96,11.73c-16.85,0.27-33.7,0.51-50.55,0.92c-6.78,0.17-10.02-2.32-11.32-8.25
				c-3.69-16.91-8.26-33.68-11.83-50.62c-0.99-4.71-2.98-8.04-6.74-11.51c-19.24-17.74-38.04-35.84-57.04-53.78
				c-19.15-18.07-38.36-36.1-58.32-54.88c-1.24,2.98-2.38,4.94-2.87,7.01c-7.38,31.51-15.47,62.89-23.59,94.26
				c-2.92,11.29-8.23,22.84-1.96,36.1c4.73,10,8.24,21.18,10.87,32.18c1.82,7.6,0.25,12.48-10.58,12.01
				C567.48,639.3,558.81,639.92,547.77,640.37z"/>
			<path class="st2" d="M874.28,115.75c-15.74,24.21-29.8,48.9-28.07,78.79c-29.82-7.85-57.38-6.54-81.29,9.11
				c-27.32,17.88-40.48,42.33-35.57,61.08c1-0.83,2.09-1.48,2.82-2.37c16.76-20.6,44.73-28.47,73-21.58
				c21.01,5.12,43.95,30.31,41.84,52.83c-1.09,11.68-0.44,23.53-2.91,36.32c29.71-1.42,26.79-28.15,43.46-38.03
				c3.42,1.41,4.66,3.69,6.18,6.01c5.77,8.77,12.23,17.22,17.67,26.13c3.52,5.77,9.15,5.56,14.44,4.52
				c7.17-1.41,3.32-6.37,3.13-10.19c-0.5-9.75-1.49-19.56-0.81-29.27c2.67-38.01,44.73-60.53,85.77-46.77
				c15.09,5.06,24.84,15.07,34.74,26.79c-1.07-44.48-44.23-92.3-120.75-75.32c5.32-40.15-25.46-69.02-40.49-104.73
				C882.74,98.55,878.87,106.36,874.28,115.75z"/>
			<path class="st2" d="M993.74,441.68c8.37,12.57,16.4,25.31,25.24,37.62c4.36,6.07,6.83,12,4.57,19.01
				c-8.59,26.64-17.58,53.19-25.69,79.95c-4.44,14.67-11.11,28.92-12.95,44.56c8.95,2.85,17.62,0.97,26.05,1.62
				c7.67,0.59,11.92-1.8,13.6-8.81c3.76-15.75,8.51-31.31,12.37-47.04c1.22-4.97,3.11-9.25,7.16-12.91
				c44.1-39.88,88.15-79.8,132.84-120.28c-74.98-44.81-155.63-77.75-250.51-89.56C949.57,378.83,971.13,409.56,993.74,441.68z"/>
			<path class="st2" d="M1208.57,457.46c-7.51-5.22-15.02-10.43-24.74-17.18c10.83,43.19,20.71,83.69,31.27,124.05
				c3.77,14.41,3.82,28.22-3.1,41.8c-3.52,6.9-5.85,13.94-5.11,22.66c15.49,0,30.77,0,47.78,0c-3.55-14.12,0.29-27.81,0.07-41.62
				c-0.08-5.19,1.64-9.05,5.92-12.95c9.58-8.74,20.95-15.53,31.53-23.15c5.77-4.16,7.62-7.5,1.82-12.83
				c-3.77-3.47-6.27-7.97-9.49-11.9C1263.43,500.6,1235.53,480.51,1208.57,457.46z"/>
			<path d="M912.44,1177.99c0.3-157.44,0.61-313.75,0.89-470.07c0.05-27.68,0.02-27.5,31.81-29.57c25.01-1.63,49.95-2.44,75.01-0.37
				c8.37,0.69,10.83,3.66,10.85,10.62c0.24,58.22-0.96,116.38-4.61,174.54c-1.95,31.07-4.11,62.21-3.4,93.43
				c1.14,50.34-2.31,100.6-4.18,150.89c-0.62,16.71-1.17,33.63-0.62,50.41c0.38,11.44-5.1,19.21-15.36,23.96
				c-28.9,13.38-56.23,28.77-82.54,45.64c-0.95,0.61-2.41,0.63-6.09,1.52C911.08,1212.15,913.12,1195.55,912.44,1177.99z"/>
			<path d="M1010.99,915.12c-0.78-71.78,1.52-143.49,7.45-215.09c0.71-8.55-2.69-11.53-12.42-10.87c-22.4,1.52-44.9,2.6-67.31,0.89
				c-10.07-0.77-11.86,2.52-11.04,10.22c1.15,10.84,1.7,21.76,1.72,32.64c0.2,152.26,0.24,304.53,0.46,456.79
				c0.01,4.17-2.09,8.91,3.02,13.37c20.68-12.16,40.9-24.83,62.14-36.04c6.24-3.29,8.54-6.15,8.71-11.93
				C1006.06,1075.86,1008.54,996.62,1010.99,915.12z"/>
			<path d="M751.61,934.35c-2.67-74.7-9.32-148.17-7.82-221.86c0.22-10.82,0.03-21.65,0.03-33.63c11.45-0.79,21.66-2.17,31.85-2.06
				c24.61,0.26,49.21,1.33,73.82,1.85c9.19,0.19,12.75,3.52,12.74,11.78c-0.18,175.94-0.11,351.87-0.14,527.81
				c0,3.26,0.96,6.8-2.71,10.23c-11.25-2.48-19.71-9.77-28.81-15.48c-17.47-10.97-36.16-20.1-54.68-29.46
				c-12.01-6.07-19.13-12.89-19.29-26.35C755.73,1083.26,750.38,1009.42,751.61,934.35z"/>
			<path d="M845.02,1136.25c0.11-133.04,0.17-266.08,0.42-399.12c0.02-12.75,1.26-25.5,1.97-38.25c0.31-5.49-0.74-10.16-8.85-9.38
				c-23.74,2.26-47.46,1.11-71.14-0.34c-9.71-0.59-12,3.04-11.11,10.64c4.72,40.36,6.55,80.97,6.59,121.42
				c0.11,106.71,5.15,213.3,7.48,319.95c0.34,15.45,3.14,26.67,21.14,32.05c2.7,0.81,4.75,3.18,7.21,4.69
				c14.45,8.83,28.67,18.02,46.29,25.22C845.02,1180.52,845.02,1159.51,845.02,1136.25z"/>
			<path d="M1058.2,977.5c1.59-43.49,3.22-85.89,4.67-128.3c1.82-53.28,3.63-106.56,5.08-159.85c0.2-7.44,3.75-10.15,11.66-9.98
				c23.73,0.53,47.45,1.13,71.18,1.46c9.54,0.13,10.18,5.55,9.69,11.53c-1.8,22.07-3.78,44.12-5.75,66.17
				c-2.36,26.51-4.34,53.05-7.27,79.51c-5.69,51.5-5.06,103.36-12.17,154.79c-1.74,12.61-0.8,25.52-0.74,38.28
				c0.05,9.53-4.18,16.57-14.03,21.03c-15.19,6.88-30.17,14.1-45.49,20.75c-12.57,5.46-17.23,2.84-17.27-9.79
				C1057.69,1034.94,1058,1006.76,1058.2,977.5z"/>
			<path d="M1074.1,930.54c-1.47,42.49-2.94,84.97-4.49,129.58c12.72-6.38,22.36-11.22,32-16.05c14.75-7.38,24.19-16.73,21.26-33.3
				c-1.68-9.5-0.34-19.51,0.48-29.24c3.29-39.25,8.95-78.34,9.7-117.77c0.33-17.22,1.92-34.46,3.73-51.63
				c3.98-37.75,5.72-75.58,6.42-113.46c0.12-6.57-2.55-9.67-10.51-9.55c-16.72,0.26-33.46,0.08-51.84,0.08
				C1078.6,770.17,1076.4,849.27,1074.1,930.54z"/>
			<path d="M638.34,985.41c-3.91-51.91-7.22-102.81-11.42-153.65c-3.55-42.97-8.13-85.87-12.23-128.8
				c-0.25-2.62-0.12-5.27-0.49-7.87c-1.5-10.46,2.9-14.77,15.78-14.52c21.11,0.4,42.27-0.59,63.39-1.35
				c9.98-0.36,13.29,3.01,13.53,11.83c2.34,88.21,4.3,176.43,8.24,264.59c1.58,35.32,1.4,70.58,1.86,105.88
				c0.19,14.83-3.63,16.94-18.99,10.47c-14.25-6.01-28.19-12.59-42.14-19.12c-10.75-5.03-15.9-12.63-15.91-23.7
				C639.94,1014.93,641.67,1000.61,638.34,985.41z"/>
			<path d="M694.98,714.68c-0.15-4.13-0.6-8.28-0.39-12.4c0.47-9.26-3.29-13.93-15.04-13.11c-10.74,0.74-21.66,0.72-32.39-0.11
				c-12.91-1-16.2,3.7-15.81,14.29c1.75,47.65,7.55,95.14,9.38,142.66c2.27,58.95,12.4,117.44,11.53,176.48
				c-0.06,4.18,0.1,8.14,4.69,11.05c14.48,9.2,28.43,19.13,47.65,24.88C701.4,944.01,698.23,830.42,694.98,714.68z"/>
			<path d="M1251.56,848.84c-4.89,12.36-4.35,24.59-7.5,36.23c-2.97,11-6.85,20.92-19.16,27.79c-19.44,10.85-36.82,24.39-57.37,35.2
				c-5.82-8.17-3.72-16.53-2.95-24.32c4.39-44.35,10.81-88.53,15.73-132.85c3.39-30.51,8.08-60.92,10.46-91.55
				c1.35-17.37,3.53-17.77,23.85-18.68c20.25-0.9,40.37-2.23,60.69-0.13c8.96,0.93,12.08,2.61,10.06,10.96
				c-11.16,46.06-18.04,92.85-30.72,138.67C1253.04,835.95,1254.76,842.23,1251.56,848.84z"/>
			<path d="M1212.26,691.79c-3.39,0.89-4.79,3.06-4.8,5.95c-0.08,22.96-5.79,45.45-7.75,68.23c-3.69,42.96-10.82,85.54-17.33,128.2
				c-1.39,9.13-2.2,18.28,1,29.07c12.22-7.36,22.87-14.15,33.99-20.3c5.98-3.31,8.6-7.43,9.86-13.46
				c8.98-43.03,17.53-86.16,28.08-128.91c4.68-18.98,7.09-38.42,14.17-56.99c3-7.88,0.57-12.98-10.97-12.47
				C1243.86,691.74,1229.15,691.42,1212.26,691.79z"/>
			<path d="M610.57,940.18c-0.35,7.35-3.1,9.38-9.61,5.21c-20.06-12.85-40.49-25.29-60.07-38.68c-6.94-4.75-7.85-13.15-9.5-20.51
				c-5.69-25.32-11.36-50.65-16.77-76.02c-8.55-40.08-16.78-80.2-25.4-120.26c-1.38-6.42,0.87-8.31,8.24-9.31
				c24.65-3.35,49.14,0.15,73.69,0.25c7.2,0.03,10.01,3.95,10.77,9.2c2,13.74,4.95,27.5,5.08,41.28c0.22,22.68,6.42,44.6,8.93,66.95
				c3.34,29.8,7.11,59.58,9.37,89.44C606.59,904.94,611.98,921.8,610.57,940.18z"/>
			<path d="M581.32,917.13c4.41,1.89,7.42,6.54,14.52,5.11c0-2.9,0.39-5.88-0.06-8.77c-3.84-24.86-7.53-49.76-11.37-74.58
				c-7.12-46.08-12.07-92.28-16.78-138.53c-0.7-6.9-3.44-9.17-11.01-9.02c-13.39,0.26-26.82,0.41-40.18-0.18
				c-11.24-0.5-14.38,4.15-11.14,12.3c7.35,18.54,9.36,38.06,14.11,57.05c10.59,42.38,19.05,85.18,27.71,127.91
				c1.52,7.52,5.54,12.79,12.49,15.81C567.08,907.48,572.6,912.85,581.32,917.13z"/>
		</g>
	</g>
</g>
</svg>
