<?xml version="1.0" encoding="utf-8"?>
<!-- Generator: Adobe Adobe Illustrator 24.2.0, SVG Export Plug-In . SVG Version: 6.00 Build 0)  -->
<svg version="1.1" xmlns="http://www.w3.org/2000/svg" xmlns:xlink="http://www.w3.org/1999/xlink" x="0px" y="0px" width="1728px"
	 height="1728px" viewBox="0 0 1728 1728" style="enable-background:new 0 0 1728 1728;" xml:space="preserve">
<style type="text/css">
	.st0{fill:#FFFFFF;}
	.st1{fill:#0071BC;}
</style>
<g id="Layer_3">
	<g>
		<path class="st0" d="M504.9,1023.67c-0.28-4.16,0.06-7.52-0.75-10.59c-8.26-31.33-10.15-63.64-15.27-95.41
			c-9.97-61.93-7.25-124.05-7.89-186.17c-0.24-23.45,4.77-46.4,6.89-69.62c0.54-5.9,4.09-6.36,9.11-6.13
			c16.26,0.75,31.83,5.53,47.84,7.65c9.94,1.31,19.92,2.35,29.87,3.6c6.64,0.83,7.85-2.93,7.83-8.45
			c-0.09-20.16-0.22-40.32,0.14-60.48c0.34-19.06,1.13-38.11,2.06-57.15c0.33-6.89-2.17-11.21-8-15.05
			c-43.03-28.35-86.14-56.62-128.62-85.78c-19.48-13.38-38.98-26.69-59.05-39.15c-5.37-3.33-7.61-7.7-7.57-14.25
			c0.27-43.56-1.16-87.17,0.57-130.66c1.76-44.26,1.32-88.5,1.81-132.74c0.11-9.76,4.05-13.54,13.58-13.49
			c42.83,0.22,85.57,2.99,128.35,4.43c8.35,0.28,10.86,4.43,10.79,12.44c-0.29,35.64,0.24,71.28-0.35,106.91
			c-0.17,10.3,3.33,12.71,13.04,12.52c30.95-0.58,61.92-0.67,92.87-0.01c10.65,0.23,14.68-2.27,14.05-13.66
			c-1.96-35.16-3.11-70.37-4.24-105.58c-0.51-15.91-0.16-16.19,15.65-16.66c38.81-1.15,77.62-2.29,116.4,1.26
			c6.68,0.61,13.52-0.52,20.09-0.83c3.46,4.05,2.31,8.55,2.31,12.73c0.08,38.16,0.29,76.32-0.17,114.48
			c-0.11,9.19,2.15,12.7,11.98,12.51c30.59-0.58,61.2-0.48,91.79-0.05c8.78,0.12,11.9-2.38,11.79-11.53
			c-0.45-38.87-0.01-77.76-0.34-116.63c-0.08-9.18,1.68-11.71,12.11-11.06c18.93,1.18,38.1-0.32,57.1-1.63
			c25.93-1.78,51.73,1.39,77.6,1c7.29-0.11,8.24,4.45,8.01,9.95c-1.08,25.85-2.37,51.7-3.37,77.56c-0.53,13.65-0.57,27.33-0.9,40.99
			c-0.12,5.13,2.51,6.95,7.34,6.95c34.92-0.04,69.84-0.07,104.76,0.08c8.64,0.04,7.47-5.91,7.48-11.21c0.04-36,0.25-72-0.13-108
			c-0.09-8.86,3.27-12.34,11.81-12.61c41.35-1.31,82.68-2.99,124.03-4.2c15.53-0.45,16.99,1.15,16.88,16.37
			c-0.63,85.3,3.69,170.55,2.46,255.86c-0.15,10.09-3.14,15.79-12.02,21.46c-29.53,18.84-58.03,39.29-87.13,58.81
			c-24.35,16.33-49.01,32.21-73.5,48.32c-8.67,5.7-17.3,11.47-25.87,17.32c-3.98,2.71-5.02,6.8-4.7,11.39
			c2.82,39.89,2.12,79.85,2.11,119.79c0,9.5,5.87,7.68,11.75,7.29c24.76-1.62,48.75-8.34,73.39-10.82c7.46-0.75,8.88,2.15,9.97,8.72
			c9.43,56.82,5.88,114.08,6.39,171.21c0.21,23.79-4.17,47.19-6.27,70.78c-3.74,41.85-11.22,83.05-19.27,124.19
			c-11.56,59.09-32.53,114.99-57.4,169.58c-6.09,13.37-11.36,27.13-17.71,40.37c-6.72,14.01-4.18,28.89-4.94,43.39
			c-0.79,15.08,0.25,30.24-0.22,45.34c-0.24,7.87,2.95,9.96,10.2,9.68c28.04-1.07,56.12-1.47,84.14-2.81
			c10.45-0.5,20.81,0.02,31.19,0c10.96-0.02,13.05,4.43,12.89,14.19c-0.56,35.63,0.06,71.27-0.76,106.89
			c-0.26,11.19,3.38,13.38,14.01,14.02c36.33,2.18,72.59,1.13,108.89,0.12c13.24-0.37,13.78,0.43,13.75,13.99
			c-0.08,39.58,0.54,79.16-1.99,118.72c-0.62,9.65-4.63,12.27-13.39,12.25c-33.12-0.1-66.24,0.2-99.36,0.33
			c-208.78,0.8-417.56,4-626.33,1.56c-115.55-1.35-231.09-0.82-346.63-1.81c-8.78-0.08-12.83-2.76-13.35-12.36
			c-2.1-38.84-2.16-77.7-2.03-116.57c0.05-16.46,0.04-16.47,17-16.2c26.6,0.43,53.2,1.07,79.81,1.19
			c10.76,0.05,21.52-1.23,32.29-1.6c8.32-0.28,7.42-6.02,7.4-11.47c-0.14-36.35-0.01-72.71-0.55-109.06
			c-0.14-9.56,1.56-13.84,12.69-14.22c28.82-0.96,57.48,1.16,86.21,1.99c10.43,0.3,20.86,0.39,31.29,0.79
			c6.06,0.23,8.2-2.41,8.16-8.4c-0.17-23.75,0.87-47.55-0.27-71.24c-0.77-15.95-9.92-29.78-16.2-44.15
			c-14.34-32.81-28.68-65.62-40.76-99.34C518.9,1086.07,512.76,1055.11,504.9,1023.67z"/>
		<path class="st0" d="M664.03,143.27c2.67,37.89,5.03,75.79,3.89,114c-2.52,0.48-3.88,0.97-5.25,0.97
			c-42.11-0.15-84.22-0.44-126.33-0.45c-8.74,0-12.07-3.59-12.02-12.36c0.19-36.35-0.21-72.7-0.06-109.05
			c0.03-7.16-1.92-10.49-9.66-10.55c-14.01-0.12-28.01-1.28-42.03-1.64c-21.94-0.57-43.93-0.17-65.82-1.55
			c-9.25-0.58-11.04,2.47-11.15,10.54c-1.16,82.36-2.5,164.72-4,247.08c-0.12,6.87,1.95,11.04,8.03,14.81
			c22.72,14.12,45.1,28.79,67.43,43.54c21.18,13.99,42.06,28.44,63.22,42.46c19.69,13.04,39.54,25.82,59.39,38.61
			c6.36,4.1,9.62,8.72,9.72,17.24c0.43,37.45-3.16,74.78-2.82,112.21c0.06,6.44-4.27,13.37-0.82,19.03
			c4.11,6.75,12.57,2.68,18.99,4.36c27.81,7.27,56.63,8.82,84.92,13.52c39.92,6.63,80.56,9.23,120.21,17.05
			c29.52,5.82,57.96,8.54,86.94-0.38c2.04-0.63,4.23-0.86,6.37-1.03c40.76-3.27,80.76-12.06,121.35-16.69
			c30.23-3.45,60.16-9.39,90.33-13.45c7.64-1.03,8.57-4.44,8.2-10.65c-2.28-37.69-3.5-75.41-4.43-113.16
			c-0.37-15.02,1.73-26.49,17.17-32.45c4.92-1.9,9.22-5.5,13.7-8.48c56.06-37.16,111.98-74.53,168.29-111.31
			c6.85-4.47,8.76-9.1,8.69-16.61c-0.37-41.73-2.86-83.4-2.49-125.15c0.35-40.28,1.18-80.59-1.62-120.84
			c-0.32-4.62,1.62-10.78-7.01-10.14c-36.61,2.73-73.38-0.03-110.02,3.02c-8.78,0.73-11.68,3.24-11.6,12.09
			c0.33,35.63-0.3,71.26,0.06,106.89c0.1,10.12-3.91,13.16-13.4,13.13c-41.03-0.15-82.06,0.16-123.09,0.24
			c-2.06,0-4.13-0.46-5.88-0.67c-2.42-4.71-1.52-9.1-1.55-13.33c-0.21-36.33,2.16-72.57,4.37-108.8c0.5-8.24-1.91-11.45-10.8-11.34
			c-35.63,0.43-71.27,0.38-106.89-0.08c-8.59-0.11-11.05,2.95-11.56,11.1c-2.41,38.47,0.05,76.96-0.9,115.43
			c-0.19,7.59-2.32,9.98-9.83,9.93c-39.84-0.27-79.68-0.25-119.53-0.02c-7.76,0.04-10.8-2.44-10.7-10.58
			c0.38-28.4,0.12-56.81,0.12-85.21c0-10.79-0.19-21.56-1.36-32.33c-0.63-5.82-2.8-8.23-8.72-8.21
			c-37.43,0.15-74.86,0.19-112.29,0.06c-6.29-0.02-8.31,2.88-7.94,8.6C664.04,135.53,663.93,138.42,664.03,143.27z"/>
		<path class="st0" d="M916.36,711.4c-13.77-0.44-27.07,2.94-40.54,4.96c-6.93,1.04-11.55,3.37-10.69,12.56
			c1.3,13.9,0.74,27.99,0.79,41.99c0.35,95.34,0.64,190.69,0.96,286.03c0.05,14.04,0.06,14.22,14.68,14.01
			c20.85-0.31,41.7-1.21,62.55-1.34c82.37-0.5,164.73-0.87,247.1-1.08c9.16-0.02,13.84-3.78,15.41-12.76
			c5.04-28.89,11.37-57.53,16.87-86.33c6.14-32.14,11.99-64.63,12.57-96.87c1.18-66.03,5.13-132.29-3.18-198.25
			c-0.85-6.72-3.4-8.11-9.54-8.22c-19.91-0.34-39.32,4.46-58.55,7.69c-45.6,7.65-91.64,12.11-137.13,20.44
			C991.39,700.86,954.44,703.49,916.36,711.4z"/>
		<path class="st1" d="M859.06,1005.76c-0.02-91.4-0.18-182.8,0.13-274.19c0.03-10-2.17-15.01-13.04-16.33
			c-12.09-1.47-24.44-1.98-36.25-4.34c-44.34-8.85-89.36-13-133.88-20.63c-49.75-8.52-99.91-14.6-149.85-22.05
			c-7.85-1.17-15.62-2.09-23.54-2.02c-4.23,0.04-6.72,1.41-7.2,6.03c-1.29,12.5-4.2,24.98-4.05,37.44
			c0.77,65.36-3.83,130.79,3.74,196.09c3.34,28.85,8.25,57.4,13.45,85.87c3.91,21.45,9.11,42.7,12.92,64.2
			c1.27,7.16,4.14,11.78,12.53,11.71c11.86-0.09,23.72,0.91,35.58,0.98c69.45,0.4,138.9,0.31,208.34,1.19
			c23.37,0.3,46.74,1.11,70.12,1.39c8.51,0.1,11.38-3,11.16-11.38C858.74,1042.47,859.06,1025.19,859.06,1005.76z"/>
		<path class="st0" d="M791.57,1493.04c-9.35-10.69-21.72-10.41-34.52-10.38c-93.92,0.23-187.85,0.12-281.77,0.12
			c-46.42,0-92.84-0.02-139.27,0.04c-5.25,0.01-11.27-1.27-10.54,7.78c2.8,34.48,1.09,69.04,1.28,103.57
			c0.08,14.8-0.09,14.74,14.8,14.74c172.37,0.01,344.74,0.06,517.12,0.06c176.69,0,353.38-0.11,530.07,0.15
			c10.06,0.01,12.87-3.03,12.75-12.9c-0.41-33.82-0.15-67.65,0.41-101.47c0.14-8.63-1.9-12.12-11.32-12.1
			c-144.3,0.24-288.61,0.16-432.91,0.09c-4.87,0-8.66,1.46-12.79,4.32c-23.57,16.26-46.67,33.33-73.21,44.82
			c-5.42,2.35-9.91,2.47-15.33,0.09C833.56,1521.95,813.34,1507.75,791.57,1493.04z"/>
		<path class="st1" d="M866.92,1254.16c-0.52,71.21,0.79,142.41,2,213.61c0.25,14.75,0.12,29.5-0.04,44.25
			c-0.09,8,3.31,9.77,9.99,6.06c29.15-16.16,56.35-35.2,82.5-55.81c28.44-22.41,54.05-47.75,78.47-74.4
			c31.8-34.71,60.56-71.68,81.43-113.98c25.83-52.35,48.18-106.29,68.37-161.06c4.33-11.75,9.85-23.78,8.99-38.23
			c-4.28,0-8.17-0.04-12.05,0.01c-47.82,0.6-95.62-0.16-143.46,1.53c-53.87,1.9-107.86,0.7-161.8,0.84
			c-12.2,0.03-14.41,2.13-14.41,14.19C866.89,1144.78,866.91,1198.39,866.92,1254.16z"/>
		<path class="st0" d="M591.89,1243.4c14.48,30.36,29.79,60.35,49.69,87.52c25.99,35.48,55.47,67.88,87.44,98.26
			c36.31,34.5,76.36,63.47,119.45,88.57c3.67,2.14,7.56,3.7,12.65,2.24c0-5.35,0.05-10.34-0.01-15.34
			c-0.82-72.67,0.68-145.33-0.94-218.02c-1.45-65.46-1.05-130.97-0.87-196.46c0.03-9.76-4.03-13.49-12.36-12.84
			c-7.98,0.62-15.78-0.44-23.66-0.59c-57.18-1.08-114.36,0.96-171.57-1.8c-37.34-1.8-74.83-0.39-112.26-0.3
			c-3.4,0.01-7.23-1.21-10.74,2.49c4.84,28.05,16.49,54.23,27.13,80.68C567.2,1186.02,579.4,1213.88,591.89,1243.4z"/>
		<path class="st0" d="M1167.58,1346.85c-23.7,0.63-47.41,1.4-71.12,1.79c-5.8,0.1-9.81,1.59-13.75,6.38
			c-31.24,38.01-63.69,74.85-102.74,105.36c-4.73,3.7-11.64,6.51-14.22,14.48c23.75,0,46.39-0.02,69.04,0
			c73.42,0.06,146.85,0.16,220.27,0.18c5.93,0,12.46,1.46,12.54-8.51c0.29-36.34,0.98-72.67,1.81-109.01
			c0.2-8.56-2.78-10.97-11.5-10.4C1228.46,1349.05,1198.95,1348.36,1167.58,1346.85z"/>
		<path class="st0" d="M627.52,1474.92c45.18,0,90.36,0,138.11,0c-12.16-10.11-22.25-18.39-32.22-26.8
			c-32.79-27.65-60.78-59.86-87.86-92.9c-3.14-3.83-6.17-6.53-11.52-6.6c-19.4-0.23-38.79-1.13-58.19-1.19
			c-34.5-0.1-69,0.67-103.49,0.08c-9.24-0.16-11.77,2.1-11.66,11.1c0.42,34.16,0.16,68.34,0.17,102.5
			c0,13.95,0.02,13.96,14.51,13.94C525.37,1475.02,575.36,1474.97,627.52,1474.92z"/>
		<path class="st0" d="M598.93,1289.42c-0.01,13.68,0.02,27.35-0.06,41.03c-0.03,4.88,1.09,8.63,6.98,8.63c8.52,0,17.05,0,27,0
			c-12.25-17.56-22.54-34.6-31.39-52.51C599.86,1283.31,599.16,1286.35,598.93,1289.42z"/>
		<path class="st0" d="M1129.21,1312.47c0-9.08,0-18.15,0-27.23c-11.02,18.03-20.95,35.92-33.79,53.48c3.97,0.23,6.7,0.54,9.43,0.52
			C1133.63,1339,1128.78,1341.86,1129.21,1312.47z"/>
	</g>
</g>
<g id="Layer_2">
	<g>
		<path d="M504.9,1023.67c-0.28-4.16,0.06-7.52-0.75-10.59c-8.26-31.33-10.15-63.64-15.27-95.41
			c-9.97-61.93-7.25-124.05-7.89-186.17c-0.24-23.45,4.77-46.4,6.89-69.62c0.54-5.9,4.09-6.36,9.11-6.13
			c16.26,0.75,31.83,5.53,47.84,7.65c9.94,1.31,19.92,2.35,29.87,3.6c6.64,0.83,7.85-2.93,7.83-8.45
			c-0.09-20.16-0.22-40.32,0.14-60.48c0.34-19.06,1.13-38.11,2.06-57.15c0.33-6.89-2.17-11.21-8-15.05
			c-43.03-28.35-86.14-56.62-128.62-85.78c-19.48-13.38-38.98-26.69-59.05-39.15c-5.37-3.33-7.61-7.7-7.57-14.25
			c0.27-43.56-1.16-87.17,0.57-130.66c1.76-44.26,1.32-88.5,1.81-132.74c0.11-9.76,4.05-13.54,13.58-13.49
			c42.83,0.22,85.57,2.99,128.35,4.43c8.35,0.28,10.86,4.43,10.79,12.44c-0.29,35.64,0.24,71.28-0.35,106.91
			c-0.17,10.3,3.33,12.71,13.04,12.52c30.95-0.58,61.92-0.67,92.87-0.01c10.65,0.23,14.68-2.27,14.05-13.66
			c-1.96-35.16-3.11-70.37-4.24-105.58c-0.51-15.91-0.16-16.19,15.65-16.66c38.81-1.15,77.62-2.29,116.4,1.26
			c6.68,0.61,13.52-0.52,20.09-0.83c3.46,4.05,2.31,8.55,2.31,12.73c0.08,38.16,0.29,76.32-0.17,114.48
			c-0.11,9.19,2.15,12.7,11.98,12.51c30.59-0.58,61.2-0.48,91.79-0.05c8.78,0.12,11.9-2.38,11.79-11.53
			c-0.45-38.87-0.01-77.76-0.34-116.63c-0.08-9.18,1.68-11.71,12.11-11.06c18.93,1.18,38.1-0.32,57.1-1.63
			c25.93-1.78,51.73,1.39,77.6,1c7.29-0.11,8.24,4.45,8.01,9.95c-1.08,25.85-2.37,51.7-3.37,77.56c-0.53,13.65-0.57,27.33-0.9,40.99
			c-0.12,5.13,2.51,6.95,7.34,6.95c34.92-0.04,69.84-0.07,104.76,0.08c8.64,0.04,7.47-5.91,7.48-11.21c0.04-36,0.25-72-0.13-108
			c-0.09-8.86,3.27-12.34,11.81-12.61c41.35-1.31,82.68-2.99,124.03-4.2c15.53-0.45,16.99,1.15,16.88,16.37
			c-0.63,85.3,3.69,170.55,2.46,255.86c-0.15,10.09-3.14,15.79-12.02,21.46c-29.53,18.84-58.03,39.29-87.13,58.81
			c-24.35,16.33-49.01,32.21-73.5,48.32c-8.67,5.7-17.3,11.47-25.87,17.32c-3.98,2.71-5.02,6.8-4.7,11.39
			c2.82,39.89,2.12,79.85,2.11,119.79c0,9.5,5.87,7.68,11.75,7.29c24.76-1.62,48.75-8.34,73.39-10.82c7.46-0.75,8.88,2.15,9.97,8.72
			c9.43,56.82,5.88,114.08,6.39,171.21c0.21,23.79-4.17,47.19-6.27,70.78c-3.74,41.85-11.22,83.05-19.27,124.19
			c-11.56,59.09-32.53,114.99-57.4,169.58c-6.09,13.37-11.36,27.13-17.71,40.37c-6.72,14.01-4.18,28.89-4.94,43.39
			c-0.79,15.08,0.25,30.24-0.22,45.34c-0.24,7.87,2.95,9.96,10.2,9.68c28.04-1.07,56.12-1.47,84.14-2.81
			c10.45-0.5,20.81,0.02,31.19,0c10.96-0.02,13.05,4.43,12.89,14.19c-0.56,35.63,0.06,71.27-0.76,106.89
			c-0.26,11.19,3.38,13.38,14.01,14.02c36.33,2.18,72.59,1.13,108.89,0.12c13.24-0.37,13.78,0.43,13.75,13.99
			c-0.08,39.58,0.54,79.16-1.99,118.72c-0.62,9.65-4.63,12.27-13.39,12.25c-33.12-0.1-66.24,0.2-99.36,0.33
			c-208.78,0.8-417.56,4-626.33,1.56c-115.55-1.35-231.09-0.82-346.63-1.81c-8.78-0.08-12.83-2.76-13.35-12.36
			c-2.1-38.84-2.16-77.7-2.03-116.57c0.05-16.46,0.04-16.47,17-16.2c26.6,0.43,53.2,1.07,79.81,1.19
			c10.76,0.05,21.52-1.23,32.29-1.6c8.32-0.28,7.42-6.02,7.4-11.47c-0.14-36.35-0.01-72.71-0.55-109.06
			c-0.14-9.56,1.56-13.84,12.69-14.22c28.82-0.96,57.48,1.16,86.21,1.99c10.43,0.3,20.86,0.39,31.29,0.79
			c6.06,0.23,8.2-2.41,8.16-8.4c-0.17-23.75,0.87-47.55-0.27-71.24c-0.77-15.95-9.92-29.78-16.2-44.15
			c-14.34-32.81-28.68-65.62-40.76-99.34C518.9,1086.07,512.76,1055.11,504.9,1023.67z M664.03,143.27
			c2.67,37.89,5.03,75.79,3.89,114c-2.52,0.48-3.88,0.97-5.25,0.97c-42.11-0.15-84.22-0.44-126.33-0.45
			c-8.74,0-12.07-3.59-12.02-12.36c0.19-36.35-0.21-72.7-0.06-109.05c0.03-7.16-1.92-10.49-9.66-10.55
			c-14.01-0.12-28.01-1.28-42.03-1.64c-21.94-0.57-43.93-0.17-65.82-1.55c-9.25-0.58-11.04,2.47-11.15,10.54
			c-1.16,82.36-2.5,164.72-4,247.08c-0.12,6.87,1.95,11.04,8.03,14.81c22.72,14.12,45.1,28.79,67.43,43.54
			c21.18,13.99,42.06,28.44,63.22,42.46c19.69,13.04,39.54,25.82,59.39,38.61c6.36,4.1,9.62,8.72,9.72,17.24
			c0.43,37.45-3.16,74.78-2.82,112.21c0.06,6.44-4.27,13.37-0.82,19.03c4.11,6.75,12.57,2.68,18.99,4.36
			c27.81,7.27,56.63,8.82,84.92,13.52c39.92,6.63,80.56,9.23,120.21,17.05c29.52,5.82,57.96,8.54,86.94-0.38
			c2.04-0.63,4.23-0.86,6.37-1.03c40.76-3.27,80.76-12.06,121.35-16.69c30.23-3.45,60.16-9.39,90.33-13.45
			c7.64-1.03,8.57-4.44,8.2-10.65c-2.28-37.69-3.5-75.41-4.43-113.16c-0.37-15.02,1.73-26.49,17.17-32.45
			c4.92-1.9,9.22-5.5,13.7-8.48c56.06-37.16,111.98-74.53,168.29-111.31c6.85-4.47,8.76-9.1,8.69-16.61
			c-0.37-41.73-2.86-83.4-2.49-125.15c0.35-40.28,1.18-80.59-1.62-120.84c-0.32-4.62,1.62-10.78-7.01-10.14
			c-36.61,2.73-73.38-0.03-110.02,3.02c-8.78,0.73-11.68,3.24-11.6,12.09c0.33,35.63-0.3,71.26,0.06,106.89
			c0.1,10.12-3.91,13.16-13.4,13.13c-41.03-0.15-82.06,0.16-123.09,0.24c-2.06,0-4.13-0.46-5.88-0.67
			c-2.42-4.71-1.52-9.1-1.55-13.33c-0.21-36.33,2.16-72.57,4.37-108.8c0.5-8.24-1.91-11.45-10.8-11.34
			c-35.63,0.43-71.27,0.38-106.89-0.08c-8.59-0.11-11.05,2.95-11.56,11.1c-2.41,38.47,0.05,76.96-0.9,115.43
			c-0.19,7.59-2.32,9.98-9.83,9.93c-39.84-0.27-79.68-0.25-119.53-0.02c-7.76,0.04-10.8-2.44-10.7-10.58
			c0.38-28.4,0.12-56.81,0.12-85.21c0-10.79-0.19-21.56-1.36-32.33c-0.63-5.82-2.8-8.23-8.72-8.21
			c-37.43,0.15-74.86,0.19-112.29,0.06c-6.29-0.02-8.31,2.88-7.94,8.6C664.04,135.53,663.93,138.42,664.03,143.27z M916.36,711.4
			c-13.77-0.44-27.07,2.94-40.54,4.96c-6.93,1.04-11.55,3.37-10.69,12.56c1.3,13.9,0.74,27.99,0.79,41.99
			c0.35,95.34,0.64,190.69,0.96,286.03c0.05,14.04,0.06,14.22,14.68,14.01c20.85-0.31,41.7-1.21,62.55-1.34
			c82.37-0.5,164.73-0.87,247.1-1.08c9.16-0.02,13.84-3.78,15.41-12.76c5.04-28.89,11.37-57.53,16.87-86.33
			c6.14-32.14,11.99-64.63,12.57-96.87c1.18-66.03,5.13-132.29-3.18-198.25c-0.85-6.72-3.4-8.11-9.54-8.22
			c-19.91-0.34-39.32,4.46-58.55,7.69c-45.6,7.65-91.64,12.11-137.13,20.44C991.39,700.86,954.44,703.49,916.36,711.4z
			 M859.06,1005.76c-0.02-91.4-0.18-182.8,0.13-274.19c0.03-10-2.17-15.01-13.04-16.33c-12.09-1.47-24.44-1.98-36.25-4.34
			c-44.34-8.85-89.36-13-133.88-20.63c-49.75-8.52-99.91-14.6-149.85-22.05c-7.85-1.17-15.62-2.09-23.54-2.02
			c-4.23,0.04-6.72,1.41-7.2,6.03c-1.29,12.5-4.2,24.98-4.05,37.44c0.77,65.36-3.83,130.79,3.74,196.09
			c3.34,28.85,8.25,57.4,13.45,85.87c3.91,21.45,9.11,42.7,12.92,64.2c1.27,7.16,4.14,11.78,12.53,11.71
			c11.86-0.09,23.72,0.91,35.58,0.98c69.45,0.4,138.9,0.31,208.34,1.19c23.37,0.3,46.74,1.11,70.12,1.39
			c8.51,0.1,11.38-3,11.16-11.38C858.74,1042.47,859.06,1025.19,859.06,1005.76z M791.57,1493.04
			c-9.35-10.69-21.72-10.41-34.52-10.38c-93.92,0.23-187.85,0.12-281.77,0.12c-46.42,0-92.84-0.02-139.27,0.04
			c-5.25,0.01-11.27-1.27-10.54,7.78c2.8,34.48,1.09,69.04,1.28,103.57c0.08,14.8-0.09,14.74,14.8,14.74
			c172.37,0.01,344.74,0.06,517.12,0.06c176.69,0,353.38-0.11,530.07,0.15c10.06,0.01,12.87-3.03,12.75-12.9
			c-0.41-33.82-0.15-67.65,0.41-101.47c0.14-8.63-1.9-12.12-11.32-12.1c-144.3,0.24-288.61,0.16-432.91,0.09
			c-4.87,0-8.66,1.46-12.79,4.32c-23.57,16.26-46.67,33.33-73.21,44.82c-5.42,2.35-9.91,2.47-15.33,0.09
			C833.56,1521.95,813.34,1507.75,791.57,1493.04z M866.92,1254.16c-0.52,71.21,0.79,142.41,2,213.61
			c0.25,14.75,0.12,29.5-0.04,44.25c-0.09,8,3.31,9.77,9.99,6.06c29.15-16.16,56.35-35.2,82.5-55.81
			c28.44-22.41,54.05-47.75,78.47-74.4c31.8-34.71,60.56-71.68,81.43-113.98c25.83-52.35,48.18-106.29,68.37-161.06
			c4.33-11.75,9.85-23.78,8.99-38.23c-4.28,0-8.17-0.04-12.05,0.01c-47.82,0.6-95.62-0.16-143.46,1.53
			c-53.87,1.9-107.86,0.7-161.8,0.84c-12.2,0.03-14.41,2.13-14.41,14.19C866.89,1144.78,866.91,1198.39,866.92,1254.16z
			 M591.89,1243.4c14.48,30.36,29.79,60.35,49.69,87.52c25.99,35.48,55.47,67.88,87.44,98.26c36.31,34.5,76.36,63.47,119.45,88.57
			c3.67,2.14,7.56,3.7,12.65,2.24c0-5.35,0.05-10.34-0.01-15.34c-0.82-72.67,0.68-145.33-0.94-218.02
			c-1.45-65.46-1.05-130.97-0.87-196.46c0.03-9.76-4.03-13.49-12.36-12.84c-7.98,0.62-15.78-0.44-23.66-0.59
			c-57.18-1.08-114.36,0.96-171.57-1.8c-37.34-1.8-74.83-0.39-112.26-0.3c-3.4,0.01-7.23-1.21-10.74,2.49
			c4.84,28.05,16.49,54.23,27.13,80.68C567.2,1186.02,579.4,1213.88,591.89,1243.4z M1167.58,1346.85
			c-23.7,0.63-47.41,1.4-71.12,1.79c-5.8,0.1-9.81,1.59-13.75,6.38c-31.24,38.01-63.69,74.85-102.74,105.36
			c-4.73,3.7-11.64,6.51-14.22,14.48c23.75,0,46.39-0.02,69.04,0c73.42,0.06,146.85,0.16,220.27,0.18c5.93,0,12.46,1.46,12.54-8.51
			c0.29-36.34,0.98-72.67,1.81-109.01c0.2-8.56-2.78-10.97-11.5-10.4C1228.46,1349.05,1198.95,1348.36,1167.58,1346.85z
			 M627.52,1474.92c45.18,0,90.36,0,138.11,0c-12.16-10.11-22.25-18.39-32.22-26.8c-32.79-27.65-60.78-59.86-87.86-92.9
			c-3.14-3.83-6.17-6.53-11.52-6.6c-19.4-0.23-38.79-1.13-58.19-1.19c-34.5-0.1-69,0.67-103.49,0.08
			c-9.24-0.16-11.77,2.1-11.66,11.1c0.42,34.16,0.16,68.34,0.17,102.5c0,13.95,0.02,13.96,14.51,13.94
			C525.37,1475.02,575.36,1474.97,627.52,1474.92z M598.93,1289.42c-0.01,13.68,0.02,27.35-0.06,41.03
			c-0.03,4.88,1.09,8.63,6.98,8.63c8.52,0,17.05,0,27,0c-12.25-17.56-22.54-34.6-31.39-52.51
			C599.86,1283.31,599.16,1286.35,598.93,1289.42z M1129.21,1312.47c0-9.08,0-18.15,0-27.23c-11.02,18.03-20.95,35.92-33.79,53.48
			c3.97,0.23,6.7,0.54,9.43,0.52C1133.63,1339,1128.78,1341.86,1129.21,1312.47z"/>
	</g>
</g>
</svg>
