<?xml version="1.0" encoding="utf-8"?>
<!-- Generator: Adobe Adobe Illustrator 24.2.0, SVG Export Plug-In . SVG Version: 6.00 Build 0)  -->
<svg version="1.1" xmlns="http://www.w3.org/2000/svg" xmlns:xlink="http://www.w3.org/1999/xlink" x="0px" y="0px" width="1728px"
	 height="1728px" viewBox="0 0 1728 1728" style="enable-background:new 0 0 1728 1728;" xml:space="preserve">
<style type="text/css">
	.st0{fill:#FFFFFF;stroke:#FFFFFF;stroke-miterlimit:10;}
	.st1{stroke:#000000;stroke-miterlimit:10;}
	.st2{display:none;}
	.st3{display:inline;}
</style>
<g id="Layer_2">
	<g>
		<path class="st0" d="M958.31,762.48c1.39-15.25,0.02-30.59,2.96-45.72c5.74-29.57,9.08-59.44,15.7-88.99
			c9.21-41.12,19.4-81.98,30.33-122.67c2.99-11.12,4.87-21-1.45-33.17c-3.59-10.85-9.45-20.1-17.87-28.55
			c-16.21-16.29-34.81-29.59-55.42-39.86c-27.07-13.49-56.18-21.57-87.16-16.47c-43.83,7.22-79.57,28.97-109.16,59.48
			c-13.03,13.44-23.17,30.45-18.72,49.21c8.04,33.91,18.93,67.18,25.46,101.49c5.4,28.37,13.52,56.14,17.58,84.91
			c10.2,72.34,18.01,144.5,4.07,217.14c-1.83,9.56,1.85,17.28,7.78,24.61c12.88,15.93,29.99,27.2,48.25,36.31
			c17.17,8.56,35.22,14.83,56.07,10.42c28.07-5.94,50.32-20.9,70.75-38.38c10.18-8.72,18.54-19.91,14.89-35.18
			C951.71,852.49,954.23,807.38,958.31,762.48z"/>
		<path class="st0" d="M465.24,451.94c2.12-1.38,3.06-1.69,3.43-2.3c1.07-1.74,2-3.56,2.81-5.42
			c17.84-40.39,52.62-58.71,96.16-59.11c48.48-0.44,85.15,25.3,117.16,57.5c7.62,7.66,10.95,18.56,20.13,25.14
			c6.78-7.87,6.78-17.36,12.95-24.57c19.69-22.99,42.67-41.31,71.04-54.7c37.37-17.63,74.41-28.83,115.92-13.85
			c36.85,13.3,70.38,30.8,96.85,59.34c9.34,10.08,14,22.28,20.18,34.37c2.08-1.81,3.08-2.55,3.9-3.43c1.13-1.2,2.27-2.44,3.15-3.8
			c23.44-36.06,57.85-58.17,99.45-72.31c40.2-13.66,100.48,6.48,121.86,43.33c3.6,6.21,3.79,14.12,11.59,19.94
			c22.36-26.02,55.21-29.53,86.98-34.48c0.41-5.64-4.44-7.56-5.96-11.27c-0.87-2.13-3.03-3.82-4.67-5.65
			c-46.94-52.24-109.15-83.39-174.04-109.66c-55.35-22.4-112.55-39.5-173.09-46.52c-53.68-6.23-107.21-10.35-163.62-8.26
			c-32.47,3.64-65.19,3.65-97.69,8.82c-32.34,5.14-64.55,10.82-95.37,20.67c-42.01,13.44-83.38,28.6-122.8,48.64
			c-35.24,17.91-68.98,37.37-98.73,62.58c-13.63,11.55-25.29,24.96-35.57,40.66C410.99,422.71,443.44,426.03,465.24,451.94z"/>
		<path class="st0" d="M1186.75,591.07c13.79-35.45,28.84-70.4,50.47-101.96c9.88-14.41,14.61-24.01,5.07-40.94
			c-12.55-22.29-45.95-46.82-73.29-47.55c-49.58-1.32-86.7,22.51-117.27,55.41c-26.96,29.01-35.08,67.26-45.95,103.33
			c-9.15,30.37-15.82,61.51-21.72,92.63c-6.07,31.97-12.86,64.24-13.94,96.54c-1.43,42.93-7.45,86.02-0.72,129.03
			c1.67,10.64,1.54,22.83,11.01,29.93c16.08,12.06,35.1,17.86,55.95,15.98c12.68-1.14,25.52-2.04,37.86-4.76
			c24.03-5.28,52.05-24.5,49.41-51.24c-0.36-17.79,4.03-35.2,4.96-52.84c2.9-55.06,20.74-107.11,35.63-159.7
			C1170.35,633.29,1178.54,612.18,1186.75,591.07z"/>
		<path class="st0" d="M750.65,695.42c-6.76-43.34-16.34-85.96-27.16-128.45c-4.97-19.52-12.48-38.25-18.59-57.41
			c-15.19-47.64-47.42-80.28-95.61-99.32c-8.99-3.55-17.45-8.52-27.44-9.45c-48.97-4.59-88.18,19.02-104.64,64.39
			c-1.43,3.94-0.8,6.9,1.94,9.97c20.5,23,33.09,50.11,45.74,79.31c10.49,18,17.21,37.65,23.92,56.86
			c15.26,43.71,28.08,88.15,38.7,133.22c9.86,41.85,13.2,84.14,15.89,126.61c1.17,18.52,11.83,29.83,27.55,38.75
			c11.96,6.79,25.08,9.48,38.51,11.41c15.61,2.25,31.14,3.57,46.95,0.31c22.57-4.66,37.74-17.96,40.92-38.5
			c1.78-11.51,3.18-23.25,2.88-34.85C758.92,797.23,758.58,746.22,750.65,695.42z"/>
		<path class="st0" d="M544.7,630.48c-9.58-27.28-20.75-54.16-32.93-80.51c-11.86-25.64-22.88-52.09-42.52-73.63
			c-12.07-13.24-24.98-25.88-42.87-32.9c-28.45-11.16-58.16-7.37-87.09-5.5c-20.41,1.32-38.85,11.57-51.14,28.66
			c-8.13,11.29-6.34,22.97,4.96,31.46c15.61,11.73,32.21,22.32,47.18,37.39c20.49,18.52,38.75,38.78,56.3,59.89
			c31.29,37.63,57.45,77.35,73.12,123.42c12.01,35.28,20.81,70.27,13.94,107.43c-0.8,4.32,1.31,8.07,3.73,11.25
			c6.77,8.91,15.59,15.94,25.89,20.81c20.55,9.72,41.64,17.56,65.18,18.91c13.94,0.8,15.68,0.71,15.64-12.69
			c-0.13-49.74-10.16-98.17-22.87-146.1C563.38,688.84,554.84,659.38,544.7,630.48z"/>
		<path class="st0" d="M1407.48,443.11c-21.19-9.39-43.55-5.01-65.45-6.36c-39.71-2.46-66.29,17.69-88.53,45.38
			c-14.22,17.7-23.1,38.16-33.03,58.11c-15.72,31.58-29.63,64.03-40.33,97.21c-15.68,48.6-31.31,97.43-38.54,148.14
			c-3.18,22.28-8.58,44.29-8.53,66.94c0.06,24.51,0.08,25,25.76,22.98c27.41-2.15,51.41-13.22,72.74-28.97
			c6.64-4.91,13.65-11.79,11.8-21.48c-8.35-43.73,5.49-84.28,20.13-124.58c7.73-21.29,21.76-39.7,33.75-61.03
			c15.75-27.28,37.76-50.32,58.63-73.81c22.46-25.29,48.43-47.72,77.34-66.86c13.65-9.04,14.63-22.99,3.81-35.21
			C1428.99,454.5,1418.88,448.17,1407.48,443.11z"/>
		<path class="st0" d="M845.23,217.69c13.62,0,27.26-0.57,40.84,0.09c15.07,0.72,26.01-5.99,35.21-15.92
			c18.95-20.46,23.5-44.4,18.61-70.67c-9.69-52.11-65.11-73.63-110.79-53.1c-33.52,15.06-45.86,43.11-42.78,79.46
			c0.5,3.57,1.07,7.13,1.48,10.71C790.77,194.84,817.3,217.7,845.23,217.69z"/>
		<path class="st1" d="M1462.53,477.12c-4.59-13.46-11.87-25.3-23.41-34.99c-17.19-14.43-37.86-19.08-59.66-21.39
			c-8.38-0.89-14.05-3.27-18.22-11.86c-5-10.29-13.39-19.36-21.44-28.02c-44.6-48.03-104.04-75.51-163.71-101.3
			c-38.34-16.57-78.33-30.85-119.97-39.26c-24.45-4.94-48.57-11.16-73.68-13.62c-18.98-1.86-37.46-7.83-58.08-9.72
			c42.27-38.77,45.52-88.63,13.79-126.37c-29.97-35.65-93.31-46.23-138.04-10.51c-21.94,17.52-32.3,40.71-32.01,67.94
			c0.29,27.42,13.96,49.21,33.64,67.96c-37.39,8.38-74.44,13.05-111.05,20.17c-50.22,9.77-97.5,27.12-144.47,45.39
			c-28.53,11.1-55.7,25.32-81.95,40.78c-30.71,18.09-62.3,36.1-81.78,65.87c-15.37,23.48-34.48,36.01-64.11,38.01
			c-22.14,1.5-49.94,30.75-53.71,51.32c-2.07,11.29,0.35,20.27,11.02,28.48c38.16,29.34,75.5,59.38,104.4,97.96
			c26.76,35.71,53.18,71.34,71.94,111.6c15.86,34.05,20.63,69.77,15.67,106.15c-1.83,13.4,1.04,22.6,10.78,31.03
			c29.27,25.35,64.23,36.57,103.45,36.72c6.25,0.02,11.58-0.23,14.75,6.37c13.31,27.76,39.86,36.98,68.54,41.77
			c30.4,5.08,60.09,2.83,87.3-15.06c8.88,15.44,20.91,26.53,33.93,36.7c17.2,13.45,35.84,25.94,58.03,28.73
			c54.8,6.88,94.17-18.4,124.97-58.47c3.84-4.99,6.34-5.66,12.31-3.16c8.88,3.72,16.39,10.28,26.6,11.31
			c18.68,1.88,37.4,3.47,55.97-0.13c24.57-4.78,48.45-12.31,61.41-34.36c6.4-10.89,13.29-13.76,25.68-14.01
			c37.33-0.75,70.6-12.57,98.05-37.16c8.7-7.79,11.79-16.4,10.21-28.96c-4.77-38-0.2-75.04,17.3-110.53
			c14.4-29.21,31.77-56.61,50.83-84.19c6.38-7.6,12.89-14.1,17.86-21.53c25.42-37.94,61.62-65.79,97.35-94.13
			C1454.74,503.36,1468.58,494.87,1462.53,477.12z M787.79,168.26c-0.4-3.58-0.98-7.14-1.48-10.71
			c-3.08-36.35,9.26-64.4,42.78-79.46c45.68-20.53,101.1,0.99,110.79,53.1c4.89,26.28,0.35,50.22-18.61,70.67
			c-9.2,9.93-20.14,16.65-35.21,15.92c-13.58-0.65-27.23-0.09-40.84-0.09C817.3,217.7,790.77,194.84,787.79,168.26z M412.84,376.95
			c29.76-25.21,63.49-44.67,98.73-62.58c39.43-20.04,80.79-35.2,122.8-48.64c30.82-9.86,63.03-15.53,95.37-20.67
			c32.5-5.17,65.21-5.18,97.69-8.82c56.42-2.09,109.94,2.03,163.62,8.26c60.54,7.03,117.74,24.12,173.09,46.52
			c64.89,26.26,127.1,57.41,174.04,109.66c1.65,1.83,3.8,3.52,4.67,5.65c1.52,3.72,6.37,5.63,5.96,11.27
			c-31.77,4.95-64.62,8.46-86.98,34.48c-7.8-5.82-7.99-13.73-11.59-19.94c-21.38-36.85-81.66-56.99-121.86-43.33
			c-41.6,14.14-76.01,36.25-99.45,72.31c-0.89,1.36-2.03,2.6-3.15,3.8c-0.83,0.89-1.83,1.63-3.9,3.43
			c-6.18-12.08-10.84-24.29-20.18-34.37c-26.47-28.55-60-46.05-96.85-59.34c-41.51-14.98-78.55-3.78-115.92,13.85
			c-28.37,13.39-51.35,31.7-71.04,54.7c-6.17,7.2-6.18,16.7-12.95,24.57c-9.18-6.58-12.51-17.48-20.13-25.14
			c-32.01-32.2-68.67-57.94-117.16-57.5c-43.54,0.4-78.33,18.72-96.16,59.11c-0.82,1.86-1.75,3.68-2.81,5.42
			c-0.37,0.61-1.31,0.91-3.43,2.3c-21.81-25.91-54.26-29.23-87.98-34.33C387.55,401.92,399.21,388.5,412.84,376.95z M578.45,877.17
			c-23.54-1.35-44.63-9.19-65.18-18.91c-10.29-4.87-19.12-11.9-25.89-20.81c-2.42-3.18-4.53-6.94-3.73-11.25
			c6.86-37.17-1.94-72.16-13.94-107.43c-15.68-46.06-41.83-85.79-73.12-123.42c-17.55-21.1-35.81-41.37-56.3-59.89
			c-14.97-15.07-31.57-25.66-47.18-37.39c-11.3-8.49-13.09-20.17-4.96-31.46c12.29-17.08,30.74-27.34,51.14-28.66
			c28.93-1.86,58.64-5.66,87.09,5.5c17.89,7.02,30.8,19.66,42.87,32.9c19.64,21.54,30.66,47.99,42.52,73.63
			c12.18,26.35,23.35,53.22,32.93,80.51c10.14,28.89,18.68,58.35,26.51,87.9c12.71,47.94,22.75,96.36,22.87,146.1
			C594.12,877.89,592.38,877.97,578.45,877.17z M757.34,883.11c-3.18,20.54-18.35,33.85-40.92,38.5
			c-15.81,3.26-31.34,1.94-46.95-0.31c-13.43-1.93-26.55-4.62-38.51-11.41c-15.72-8.93-26.37-20.24-27.55-38.75
			c-2.69-42.46-6.03-84.76-15.89-126.61c-10.62-45.07-23.44-89.51-38.7-133.22c-6.71-19.22-13.43-38.87-23.92-56.86
			c-12.65-29.19-25.24-56.31-45.74-79.31c-2.74-3.07-3.37-6.04-1.94-9.97c16.46-45.37,55.67-68.97,104.64-64.39
			c9.99,0.94,18.45,5.9,27.44,9.45c48.19,19.04,80.43,51.68,95.61,99.32c6.11,19.16,13.62,37.89,18.59,57.41
			c10.82,42.49,20.4,85.11,27.16,128.45c7.92,50.81,8.26,101.81,9.58,152.85C760.53,859.86,759.13,871.6,757.34,883.11z
			 M947.49,932.23c-20.42,17.49-42.68,32.45-70.75,38.38c-20.85,4.41-38.9-1.85-56.07-10.42c-18.26-9.11-35.36-20.38-48.25-36.31
			c-5.93-7.33-9.61-15.05-7.78-24.61c13.94-72.64,6.13-144.79-4.07-217.14c-4.06-28.78-12.18-56.54-17.58-84.91
			c-6.54-34.31-17.42-67.58-25.46-101.49c-4.45-18.76,5.68-35.77,18.72-49.21c29.59-30.52,65.34-52.27,109.16-59.48
			c30.98-5.1,60.09,2.98,87.16,16.47c20.61,10.27,39.21,23.57,55.42,39.86c8.42,8.46,14.28,17.71,17.87,28.55
			c6.32,12.17,4.44,22.05,1.45,33.17c-10.94,40.69-21.13,81.55-30.33,122.67c-6.62,29.55-9.96,59.42-15.7,88.99
			c-2.94,15.14-1.58,30.48-2.96,45.72c-4.08,44.9-6.6,90.01,4.06,134.56C966.03,912.31,957.67,923.51,947.49,932.23z M1128.6,814.62
			c-0.93,17.64-5.31,35.05-4.96,52.84c2.64,26.74-25.38,45.96-49.41,51.24c-12.35,2.71-25.19,3.62-37.86,4.76
			c-20.86,1.87-39.88-3.93-55.95-15.98c-9.46-7.1-9.34-19.29-11.01-29.93c-6.74-43.01-0.72-86.1,0.72-129.03
			c1.08-32.3,7.88-64.57,13.94-96.54c5.91-31.12,12.57-62.26,21.72-92.63c10.86-36.07,18.98-74.32,45.95-103.33
			c30.57-32.9,67.69-56.73,117.27-55.41c27.34,0.73,60.73,25.26,73.29,47.55c9.54,16.93,4.81,26.53-5.07,40.94
			c-21.63,31.56-36.69,66.51-50.47,101.96c-8.21,21.11-16.4,42.22-22.52,63.85C1149.34,707.51,1131.5,759.56,1128.6,814.62z
			 M1433.21,498.77c-28.91,19.14-54.88,41.57-77.34,66.86c-20.86,23.49-42.88,46.53-58.63,73.81
			c-11.98,21.34-26.01,39.75-33.75,61.03c-14.64,40.3-28.48,80.85-20.13,124.58c1.85,9.69-5.15,16.57-11.8,21.48
			c-21.33,15.76-45.34,26.82-72.74,28.97c-25.68,2.01-25.7,1.53-25.76-22.98c-0.06-22.65,5.35-44.66,8.53-66.94
			c7.24-50.71,22.86-99.53,38.54-148.14c10.71-33.18,24.61-65.64,40.33-97.21c9.93-19.94,18.81-40.4,33.03-58.11
			c22.24-27.69,48.83-47.84,88.53-45.38c21.9,1.36,44.26-3.02,65.45,6.36c11.4,5.05,21.51,11.39,29.54,20.45
			C1447.84,475.78,1446.85,489.73,1433.21,498.77z"/>
	</g>
	<g>
		<g>
			<path class="st0" d="M1231.33,1488.26c-33.99-24.06-69.27-46.45-103.39-70.35c-47.96-33.6-95.59-67.63-142.88-102.08
				c-16.66-12.13-35.35-21.82-51.46-37.05c7.09-4.75,13.57-9.1,20.81-13.94c23.25-16.32,45.83-32.01,68.18-48.02
				c5.92-4.23,11.66-4.26,17.87-1.48c36.32,16.22,72.19,13.52,106.01-5.14c31.39-17.33,48.59-44.12,53.65-78.81
				c5.54-38.04-13.44-82.2-47.37-102.3c-38.32-22.72-77.72-26.85-119.42-6.91c-42.22,20.18-65.05,63.6-57.72,107.93
				c2.01,12.23,0.78,19.38-10.49,26.67c-34.23,22.11-67.61,45.41-101.62,68.46c-34.57-23.58-68.95-47.68-104.18-70.61
				c-9.23-6-11.07-11.44-7.85-20.77c3.79-10.94,2.14-22.14,0.47-33.43c-6.35-42.87-32.4-71.68-74.16-85.08
				c-45.98-14.75-88.38-4.31-122.14,29.39c-29.5,29.45-39.72,75.87-18.53,119.77c25.01,51.81,95.25,76.52,148.33,51.59
				c6.57-3.09,12.48-4.16,18.97,0.41c15.69,11.02,31.77,21.55,47.45,32.59c13.78,9.7,27.23,19.81,41.34,30.13
				c-2.3,1.94-3.45,3.08-4.77,4.01c-24.8,17.46-49.9,34.54-74.37,52.41c-52.65,38.44-106.13,75.83-159.91,112.84
				c-23.98,16.51-48.02,32.93-72.07,49.35c-6.7,4.57-10.21,9.68-4.57,17.2c12.75,17.03,24.43,34.86,38.28,51.03
				c26.69,31.18,49.69,65.01,77.32,95.51c9.52,10.51,14.29,10.52,19.81-2.23c8.34-19.24,15.45-38.99,26.86-56.93
				c3.27-5.13,2.42-10.16-0.85-14.78c-4.22-5.99-8.76-11.77-13.28-17.57c-13.19-16.99-26.44-33.96-39.97-51.32
				c9.55-6.8,18.55-13.22,27.92-19.9c16.85,17.72,29.03,38.05,48.29,55.25c9.59-17.78,15.18-35.38,25.04-50.17
				c9.95-14.92,7.25-24.98-3.98-35.38c-10-9.26-3.62-13.92,4.22-19.38c27.96-19.43,55.58-39.33,83.67-58.6
				c30.81-21.15,62-41.79,93.19-62.77c62.35,43.39,126.24,84.35,187.11,130c-1.2,2.31-1.79,4.91-3.48,6.43
				c-14.61,13.17-18.44,27.06-5.59,43.69c4.37,5.66,5.19,13.71,9.33,19.6c5.53,7.86,6.92,18,15.09,25.31
				c18.83-15.74,30.22-36.31,47.05-54.07c9.62,6.82,18.85,13.37,28.3,20.07c-14.23,18.13-27.45,35.73-41.54,52.69
				c-10.93,13.15-19.18,25.93-5.67,41.79c0.72,0.84,0.49,2.36,0.98,3.45c7.32,15.76,14.52,31.56,22.1,47.22
				c3.71,7.66,8.27,8,14.07,1.13c37.62-44.47,72.93-90.58,107.95-136.85C1258.91,1502.88,1259.87,1508.45,1231.33,1488.26z
				 M1032.88,1072.85c35.85-36.27,100.51-22.36,118.54,25.69c10.8,28.79-6.42,68.29-34.62,80.33
				c-36.78,15.71-74.64,4.13-94.08-26.11C1007.88,1129.65,1010.83,1096.09,1032.88,1072.85z M708.87,1145.22
				c-24.67,47.8-87.11,56.13-121.11,15.48c-27.06-32.36-16.6-88.47,33.11-104.64c37.99-12.35,78.45,6.89,90.49,44.7
				C715.9,1115.04,715.77,1130.09,708.87,1145.22z"/>
		</g>
	</g>
	<g>
		<g>
			<path class="st1" d="M1231.33,1488.26c-33.99-24.06-69.27-46.45-103.39-70.36c-47.96-33.6-95.59-67.63-142.88-102.08
				c-16.66-12.13-35.35-21.82-51.45-37.05c7.09-4.75,13.57-9.1,20.8-13.95c23.25-16.32,45.83-32.01,68.18-48.02
				c5.92-4.23,11.67-4.25,17.87-1.47c36.32,16.21,72.19,13.52,106.02-5.15c31.39-17.32,48.59-44.12,53.64-78.8
				c5.55-38.04-13.44-82.21-47.37-102.3c-38.32-22.72-77.72-26.85-119.42-6.91c-42.22,20.18-65.05,63.6-57.72,107.93
				c2.01,12.23,0.78,19.38-10.49,26.67c-34.23,22.11-67.61,45.41-101.62,68.46c-34.57-23.58-68.95-47.68-104.18-70.61
				c-9.23-6.01-11.07-11.44-7.85-20.77c3.79-10.94,2.14-22.14,0.47-33.43c-6.35-42.87-32.4-71.69-74.16-85.08
				c-45.98-14.76-88.38-4.32-122.14,29.39c-29.5,29.44-39.72,75.87-18.54,119.77c25.02,51.81,95.25,76.52,148.33,51.59
				c6.57-3.09,12.48-4.16,18.97,0.41c15.7,11.02,31.78,21.55,47.46,32.6c13.78,9.7,27.22,19.81,41.34,30.13
				c-2.3,1.93-3.45,3.08-4.77,4.01c-24.8,17.46-49.91,34.54-74.37,52.4c-52.66,38.45-106.14,75.83-159.91,112.84
				c-23.99,16.51-48.03,32.93-72.08,49.35c-6.7,4.57-10.21,9.68-4.57,17.21c12.75,17.02,24.43,34.85,38.28,51.03
				c26.69,31.18,49.69,65.01,77.32,95.51c9.52,10.5,14.29,10.51,19.81-2.23c8.34-19.25,15.45-38.99,26.86-56.94
				c3.27-5.13,2.41-10.16-0.86-14.78c-4.21-5.99-8.76-11.77-13.27-17.58c-13.19-16.99-26.45-33.96-39.97-51.32
				c9.55-6.8,18.55-13.21,27.93-19.9c16.85,17.72,29.02,38.05,48.29,55.25c9.59-17.77,15.18-35.38,25.03-50.17
				c9.95-14.92,7.25-24.97-3.97-35.38c-10-9.26-3.63-13.92,4.21-19.38c27.96-19.43,55.58-39.32,83.67-58.6
				c30.81-21.15,62-41.79,93.19-62.77c62.35,43.39,126.24,84.35,187.11,130c-1.19,2.31-1.79,4.9-3.48,6.43
				c-14.61,13.17-18.44,27.06-5.59,43.69c4.37,5.66,5.19,13.71,9.33,19.6c5.53,7.87,6.92,18,15.09,25.32
				c18.83-15.74,30.22-36.32,47.05-54.07c9.62,6.82,18.85,13.37,28.3,20.07c-14.23,18.14-27.45,35.73-41.54,52.69
				c-10.93,13.15-19.19,25.93-5.67,41.79c0.72,0.84,0.48,2.36,0.98,3.45c7.32,15.76,14.52,31.56,22.1,47.22
				c3.71,7.66,8.26,8,14.07,1.13c37.62-44.46,72.92-90.58,107.94-136.85C1258.91,1502.88,1259.87,1508.45,1231.33,1488.26z
				 M1128.33,1652.04c-13.69-16.57-17.1-36.66-27.55-53.47c-2.39-3.82,0.93-6.93,3.18-9.75c14.54-18.22,28.86-36.6,44.01-54.35
				c4.32-5.05,7.49-10.54,12.67-16.43c-17.08-12.17-33.47-23.84-51.14-36.42c-12.79,16.93-25.2,33.36-38.46,50.91
				c-7.5-14.16-14.9-26.95-20.26-40.8c-2.93-7.56-1.07-13.65,4.27-18.65c4.06-3.81,6.16-8.67,9.69-12.64
				c4.83-5.41,3.11-8.86-2.52-12.7c-27.47-18.71-54.99-37.36-81.94-56.72c-37.08-26.62-75.76-51.24-111.57-79.45
				c-4.32-3.4-7.13-2.03-11.03,0.84c-46.79,34.44-94.67,67.51-142.66,100.43c-17.15,11.76-33.4,24.69-51.22,35.59
				c-4.11,2.52-6.28,5.33-2.88,9.86c3.18,4.26,5.3,9.57,9.31,12.87c9.29,7.68,9.42,16.77,4.6,25.71
				c-5.93,11.02-9.87,23.07-19.11,34.5c-12.57-16.56-24.7-32.55-37.84-49.85c-16.92,12.07-33.3,23.74-51.11,36.43
				c10.33,13.15,20.48,26.26,30.87,39.21c3.84,4.78,8.27,9.13,12.38,13.72c18.79,20.96,18.94,24.34,6.07,49.4
				c-5.3,10.35-8.91,21.47-17.06,31.76c-35.91-47.18-71.35-93.78-107.77-141.65c109.05-77.68,217.48-154.9,327.14-233
				c-23.18-16.7-44.93-32.44-66.76-48.09c-13.86-9.93-27.91-19.65-41.75-29.62c-4.6-3.32-8.53-6.26-14.69-2.26
				c-50.39,32.7-124.27,12.66-147.52-40.95c-22.5-51.89-1.82-98.6,40.79-122.45c29.07-16.26,61.51-16.31,93.16-3.5
				c33.01,16.66,53.71,39.55,58.73,74.02c2.2,15.1,0.57,29.56-3.15,43.98c-1.57,6.03,1.5,9.11,5.74,12.09
				c33.74,23.68,67.45,47.39,101.33,70.9c6.69,4.65,11.15,14.01,20.24,13.25c8-0.67,12.48-9.06,18.93-13.55
				c33.42-23.33,66.74-46.8,100.2-70.06c5.85-4.08,7.12-8.1,5.53-15.31c-11.99-54.64,9.78-100.83,66.19-118.68
				c58.94-18.65,115.24,8.12,130.35,66.31c14.01,53.87-13.1,99.68-71.33,116.28c-26.59,7.58-56.83,6.99-81.58-11.55
				c-5.1-3.82-9.18-3.06-13.72,0.2c-35.46,25.42-70.93,50.82-106.37,76.26c-0.61,0.43-0.83,1.36-2.24,3.83
				c108.13,76.99,216.5,154.15,325.81,231.99C1199.89,1558.23,1164.37,1604.8,1128.33,1652.04z"/>
		</g>
	</g>
	<g>
		<path class="st1" d="M1151.42,1098.55c-18.04-48.05-82.69-61.97-118.54-25.69c-22.04,23.23-24.99,56.8-10.14,79.91
			c19.42,30.24,57.29,41.82,94.08,26.11C1145.01,1166.84,1162.23,1127.34,1151.42,1098.55z M1134.24,1150.46
			c-18.34,25.19-52.15,31.91-80.33,17.05c-22.55-11.9-33.82-43.91-24.12-67.34c9.75-23.56,28.37-35.12,54.41-36.32
			c25.11-1.16,44.24,9.98,54.52,30.71C1147.83,1112.92,1147.45,1132.67,1134.24,1150.46z"/>
		<path class="st1" d="M711.35,1100.76c-12.03-37.81-52.5-57.05-90.49-44.7c-49.71,16.16-60.16,72.28-33.1,104.64
			c33.99,40.65,96.44,32.32,121.11-15.48C715.77,1130.09,715.9,1115.04,711.35,1100.76z M701.07,1126.56
			c-5.21,25.97-21.85,41.81-48.52,48.36c-19.06,4.69-44.67-6.35-58.02-22.52c-21.17-25.65-13.73-68.04,21.45-83.73
			c18.5-8.25,38.77-7.48,57.13,3.54C693.66,1084.63,704.91,1107.44,701.07,1126.56z"/>
	</g>
</g>
<g id="Layer_3" class="st2">
	<g class="st3">
		<path d="M1258.14,648.99c-16.09,24.62-30.76,49.09-42.92,75.17c-14.77,31.68-18.64,64.75-14.61,98.68
			c1.33,11.21-1.28,18.9-8.62,25.86c-23.18,21.95-51.28,32.51-82.8,33.17c-10.46,0.22-16.28,2.78-21.69,12.51
			c-10.94,19.68-31.1,26.41-51.85,30.68c-15.68,3.22-31.49,1.8-47.26,0.12c-8.63-0.92-14.96-6.78-22.46-10.1
			c-5.05-2.23-7.15-1.63-10.4,2.83c-26.01,35.77-59.26,58.34-105.53,52.2c-18.74-2.49-34.48-13.64-49-25.65
			c-10.99-9.09-21.15-18.98-28.65-32.77c-22.98,15.97-48.05,17.98-73.72,13.45c-24.22-4.28-46.64-12.51-57.88-37.29
			c-2.67-5.9-7.17-5.67-12.45-5.69c-33.12-0.14-62.64-10.15-87.36-32.79c-8.22-7.53-10.64-15.74-9.1-27.7
			c4.19-32.48,0.17-64.37-13.23-94.77c-15.84-35.94-38.15-67.76-60.75-99.64c-24.41-34.44-55.94-61.26-88.16-87.45
			c-9.01-7.32-11.05-15.35-9.3-25.42c3.18-18.36,26.66-44.48,45.35-45.82c25.02-1.79,41.16-12.97,54.13-33.94
			c16.45-26.58,43.12-42.66,69.05-58.81c22.16-13.8,45.11-26.5,69.2-36.41c39.66-16.31,79.58-31.8,121.99-40.52
			c30.92-6.36,62.2-10.53,93.77-18.01c-16.62-16.74-28.17-36.2-28.41-60.68c-0.24-24.31,8.5-45.02,27.03-60.66
			c37.77-31.89,91.26-22.44,116.57,9.38c26.8,33.69,24.05,78.2-11.64,112.82c17.42,1.69,33.02,7.02,49.05,8.68
			c21.2,2.2,41.57,7.75,62.21,12.16c35.16,7.51,68.93,20.26,101.3,35.05c50.38,23.02,100.58,47.55,138.24,90.44
			c6.79,7.74,13.88,15.83,18.1,25.02c3.52,7.67,8.32,9.79,15.39,10.59c18.4,2.07,35.86,6.21,50.37,19.1
			c9.75,8.65,15.89,19.22,19.77,31.24c5.11,15.85-6.57,23.43-16.47,31.73c-30.17,25.3-60.74,50.16-82.21,84.03
			C1269.02,636.4,1263.53,642.2,1258.14,648.99z M986.28,509.38c-3.03-9.68-7.98-17.94-15.09-25.49
			c-13.69-14.54-29.39-26.42-46.8-35.59c-22.86-12.04-47.44-19.26-73.6-14.7c-37.01,6.44-67.19,25.86-92.18,53.11
			c-11,12-19.56,27.19-15.8,43.93c6.79,30.27,15.98,59.98,21.5,90.61c4.56,25.33,11.42,50.12,14.85,75.81
			c8.61,64.59,15.21,129.01,3.44,193.86c-1.55,8.53,1.56,15.43,6.57,21.97c10.88,14.22,25.32,24.29,40.74,32.42
			c14.5,7.65,29.74,13.24,47.35,9.3c23.7-5.3,42.49-18.66,59.74-34.27c8.6-7.78,15.65-17.78,12.57-31.41
			c-9-39.78-6.87-80.05-3.43-120.14c1.17-13.61,0.02-27.31,2.5-40.82c4.85-26.4,7.67-53.07,13.26-79.45
			c7.77-36.71,16.38-73.19,25.61-109.52C990.02,529.06,991.61,520.24,986.28,509.38z M835.61,298.96
			c-27.42,3.25-55.05,3.26-82.49,7.87c-27.31,4.59-54.51,9.66-80.53,18.46c-35.48,12-70.4,25.53-103.69,43.43
			c-29.76,15.99-58.24,33.36-83.37,55.87c-11.51,10.31-21.35,22.29-30.04,36.3c28.47,4.55,55.88,7.52,74.29,30.65
			c1.79-1.24,2.58-1.51,2.9-2.05c0.9-1.55,1.69-3.18,2.38-4.84c15.06-36.06,44.44-52.42,81.2-52.77
			c40.94-0.4,71.9,22.59,98.93,51.33c6.43,6.84,9.24,16.57,17,22.45c5.72-7.02,5.73-15.5,10.94-21.93
			c16.63-20.53,36.03-36.88,59.99-48.83c31.56-15.74,62.83-25.74,97.89-12.37c31.12,11.87,59.43,27.49,81.78,52.98
			c7.89,9,11.82,19.89,17.04,30.68c1.75-1.61,2.6-2.27,3.3-3.06c0.95-1.08,1.91-2.18,2.66-3.39c19.8-32.19,48.85-51.93,83.98-64.55
			c33.94-12.2,84.85,5.79,102.9,38.69c3.04,5.55,3.2,12.61,9.79,17.8c18.88-23.23,46.62-26.37,73.44-30.78
			c0.35-5.04-3.75-6.75-5.04-10.07c-0.74-1.91-2.56-3.41-3.94-5.04c-39.64-46.64-92.17-74.45-146.96-97.9
			c-46.74-20-95.04-35.26-146.16-41.54C928.45,300.77,883.26,297.09,835.61,298.96z M1085.74,862.51
			c-0.3-15.88,3.4-31.43,4.19-47.18c2.45-49.16,17.51-95.63,30.09-142.58c5.17-19.31,12.09-38.16,19.02-57
			c11.64-31.65,24.35-62.86,42.62-91.03c8.34-12.87,12.33-21.44,4.28-36.55c-10.6-19.9-38.8-41.8-61.89-42.45
			c-41.86-1.18-73.21,20.1-99.02,49.47c-22.77,25.9-29.62,60.05-38.8,92.25c-7.72,27.12-13.36,54.92-18.34,82.7
			c-5.12,28.55-10.86,57.36-11.77,86.19c-1.21,38.33-6.29,76.8-0.6,115.2c1.41,9.5,1.3,20.38,9.29,26.72
			c13.58,10.76,29.64,15.94,47.25,14.27c10.7-1.02,21.55-1.82,31.97-4.25C1064.31,903.54,1087.97,886.39,1085.74,862.51z
			 M580.16,583.06c8.86,16.07,14.53,33.61,20.2,50.77c12.89,39.02,23.71,78.7,32.68,118.94c8.33,37.36,11.15,75.12,13.42,113.03
			c0.99,16.53,9.99,26.63,23.26,34.6c10.09,6.06,21.18,8.46,32.52,10.19c13.18,2,26.29,3.19,39.64,0.27
			c19.06-4.16,31.87-16.04,34.56-34.38c1.5-10.28,2.69-20.76,2.44-31.11c-1.11-45.57-1.39-91.1-8.09-136.46
			c-5.71-38.69-13.79-76.75-22.93-114.68c-4.2-17.43-10.54-34.15-15.7-51.26c-12.82-42.53-40.04-71.67-80.74-88.67
			c-7.59-3.17-14.73-7.6-23.17-8.44c-41.35-4.1-74.46,16.98-88.36,57.48c-1.21,3.52-0.68,6.16,1.64,8.9
			C558.84,532.79,569.47,557,580.16,583.06z M424.27,566.1c17.3,16.53,32.72,34.63,47.54,53.47c26.42,33.6,48.51,69.06,61.75,110.19
			c10.14,31.5,17.57,62.74,11.77,95.92c-0.67,3.86,1.11,7.21,3.15,10.05c5.72,7.96,13.17,14.23,21.86,18.58
			c17.36,8.68,35.16,15.68,55.04,16.88c11.77,0.71,13.24,0.64,13.21-11.33c-0.11-44.41-8.58-87.64-19.32-130.44
			c-6.62-26.38-13.82-52.68-22.39-78.48c-8.09-24.36-17.52-48.36-27.81-71.88c-10.01-22.89-19.32-46.5-35.9-65.73
			c-10.19-11.82-21.09-23.1-36.2-29.37c-24.03-9.96-49.11-6.58-73.54-4.91c-17.23,1.17-32.81,10.33-43.19,25.59
			c-6.86,10.08-5.35,20.51,4.19,28.09C397.61,543.19,411.62,552.64,424.27,566.1z M1232.33,658.94c13.3-24.36,31.89-44.92,49.5-65.9
			c18.96-22.58,40.9-42.6,65.31-59.7c11.52-8.07,12.35-20.53,3.22-31.43c-6.78-8.09-15.31-13.75-24.94-18.26
			c-17.89-8.38-36.78-4.47-55.27-5.68c-33.53-2.2-55.98,15.79-74.76,40.52c-12.01,15.81-19.51,34.07-27.89,51.88
			c-13.28,28.19-25.02,57.17-34.06,86.79c-13.24,43.39-26.44,86.99-32.54,132.26c-2.68,19.89-7.25,39.54-7.2,59.76
			c0.05,21.88,0.07,22.32,21.75,20.52c23.14-1.92,43.41-11.8,61.42-25.87c5.61-4.38,11.52-10.53,9.96-19.18
			c-7.05-39.04,4.64-75.25,17-111.23C1210.36,694.43,1222.21,677.99,1232.33,658.94z M800.9,228.7c0.42,3.19,0.91,6.37,1.25,9.56
			c2.52,23.74,24.92,44.14,48.5,44.14c11.5,0,23.02-0.5,34.49,0.08c12.73,0.65,21.96-5.35,29.73-14.22
			c16-18.26,19.84-39.64,15.71-63.1c-8.19-46.52-54.98-65.73-93.56-47.41C808.72,171.2,798.29,196.24,800.9,228.7z"/>
		<path d="M942.84,1217.27c-6.11,4.33-11.59,8.21-17.58,12.45c13.6,13.6,29.38,22.24,43.45,33.08
			c39.93,30.75,80.15,61.14,120.65,91.14c28.8,21.33,58.6,41.33,87.29,62.8c24.1,18.04,23.29,13.06,7.08,35.71
			c-29.57,41.31-59.38,82.49-91.15,122.19c-4.9,6.13-8.75,5.83-11.89-1.02c-6.39-13.97-12.48-28.08-18.65-42.16
			c-0.43-0.97-0.22-2.33-0.84-3.08c-11.41-14.15-4.44-25.57,4.79-37.31c11.9-15.13,23.06-30.84,35.09-47.03
			c-7.99-5.99-15.78-11.83-23.9-17.92c-14.21,15.84-23.84,34.22-39.73,48.27c-6.91-6.53-8.08-15.58-12.74-22.6
			c-3.5-5.26-4.19-12.45-7.88-17.5c-10.85-14.85-7.62-27.25,4.72-39.01c1.42-1.36,1.93-3.68,2.94-5.73
			c-51.4-40.75-105.35-77.32-158-116.07c-26.34,18.73-52.68,37.17-78.69,56.04c-23.72,17.21-47.04,34.97-70.65,52.32
			c-6.62,4.86-12,9.03-3.56,17.3c9.48,9.29,11.76,18.27,3.37,31.59c-8.32,13.2-13.04,28.92-21.15,44.79
			c-16.27-15.35-26.55-33.5-40.77-49.33c-7.92,5.97-15.53,11.7-23.59,17.78c11.43,15.5,22.61,30.64,33.75,45.81
			c3.81,5.18,7.65,10.34,11.21,15.69c2.75,4.14,3.48,8.62,0.72,13.2c-9.64,16.02-15.64,33.65-22.68,50.83
			c-4.66,11.38-8.69,11.36-16.73,1.99c-23.33-27.23-42.75-57.43-65.29-85.27c-11.69-14.44-21.55-30.36-32.32-45.56
			c-4.76-6.73-1.81-11.28,3.86-15.37c20.31-14.65,40.61-29.32,60.86-44.05c45.41-33.05,90.57-66.42,135.03-100.74
			c20.66-15.95,41.86-31.2,62.8-46.79c1.11-0.83,2.09-1.84,4.02-3.57c-11.92-9.21-23.27-18.25-34.9-26.9
			c-13.24-9.86-26.83-19.25-40.08-29.1c-5.48-4.07-10.47-3.13-16.02-0.37c-44.82,22.26-104.13,0.2-125.25-46.06
			c-17.89-39.19-9.26-80.64,15.65-106.93c28.51-30.09,64.31-39.42,103.15-26.24c35.26,11.96,57.26,37.69,62.61,75.95
			c1.41,10.09,2.8,20.09-0.4,29.85c-2.73,8.33-1.16,13.18,6.63,18.54c29.75,20.47,58.78,42,87.97,63.05
			c28.73-20.58,56.91-41.38,85.81-61.13c9.52-6.51,10.57-12.88,8.86-23.8c-6.18-39.58,13.09-78.35,48.74-96.37
			c35.21-17.8,68.48-14.1,100.84,6.17c28.65,17.95,44.68,57.37,40,91.34c-4.27,30.97-18.79,54.89-45.3,70.36
			c-28.56,16.66-58.85,19.07-89.52,4.59c-5.24-2.47-10.09-2.46-15.1,1.33C981.54,1188.69,962.47,1202.7,942.84,1217.27z
			 M712.5,1008.09c-26.73-11.44-54.13-11.4-78.68,3.13c-35.97,21.28-53.44,63-34.44,109.32c19.63,47.87,82.03,65.76,124.57,36.56
			c5.2-3.57,8.53-0.94,12.4,2.01c11.69,8.9,23.54,17.59,35.26,26.46c18.43,13.96,36.8,28.01,56.37,42.92
			c-92.6,69.73-184.16,138.67-276.24,208.02c30.75,42.74,60.68,84.34,91,126.47c6.88-9.18,9.93-19.12,14.41-28.36
			c10.86-22.38,10.74-25.4-5.13-44.11c-3.47-4.09-7.21-7.98-10.45-12.25c-8.78-11.56-17.35-23.27-26.07-35.01
			c15.04-11.33,28.87-21.76,43.17-32.53c11.09,15.44,21.34,29.72,31.95,44.5c7.8-10.19,11.12-20.96,16.14-30.8
			c4.07-7.97,3.96-16.09-3.89-22.95c-3.38-2.95-5.17-7.69-7.86-11.49c-2.87-4.05-1.04-6.56,2.43-8.81
			c15.04-9.74,28.77-21.27,43.24-31.77c40.53-29.39,80.96-58.92,120.48-89.67c3.29-2.56,5.66-3.79,9.3-0.75
			c30.24,25.18,62.9,47.16,94.21,70.93c22.76,17.28,46.01,33.93,69.2,50.64c4.76,3.43,6.2,6.52,2.13,11.34
			c-2.98,3.54-4.75,7.87-8.18,11.28c-4.51,4.47-6.08,9.9-3.61,16.65c4.53,12.37,10.79,23.79,17.11,36.44
			c11.2-15.67,21.69-30.34,32.48-45.45c14.92,11.23,28.76,21.65,43.17,32.51c-4.37,5.26-7.05,10.16-10.69,14.67
			c-12.79,15.85-24.88,32.26-37.16,48.52c-1.9,2.52-4.71,5.29-2.69,8.71c8.83,15,11.71,32.94,23.27,47.73
			c30.43-42.18,60.41-83.76,91.16-126.39c-92.3-69.49-183.82-138.38-275.12-207.12c1.2-2.2,1.38-3.02,1.9-3.41
			c29.92-22.72,59.87-45.4,89.82-68.09c3.84-2.91,7.28-3.59,11.59-0.17c20.9,16.55,46.44,17.08,68.89,10.31
			c49.17-14.82,72.06-55.72,60.24-103.82c-12.77-51.95-60.31-75.85-110.07-59.2c-47.63,15.94-66.02,57.17-55.89,105.95
			c1.34,6.44,0.27,10.03-4.67,13.67c-28.26,20.78-56.39,41.73-84.61,62.55c-5.44,4.02-9.23,11.5-15.98,12.1
			c-7.68,0.68-11.44-7.68-17.1-11.82c-28.6-20.99-57.07-42.17-85.56-63.31c-3.58-2.65-6.17-5.41-4.85-10.79
			c3.15-12.88,4.53-25.79,2.67-39.27C757.85,1043.4,740.37,1022.96,712.5,1008.09z"/>
		<path d="M1009.1,1045.88c30.27-32.39,84.86-19.96,100.1,22.94c9.13,25.7-5.42,60.97-29.22,71.72
			c-31.06,14.03-63.04,3.69-79.44-23.31C987.99,1096.59,990.48,1066.63,1009.1,1045.88z M1094.69,1115.17
			c11.16-15.88,11.47-33.51,3.78-49.9c-8.68-18.51-24.84-28.45-46.04-27.42c-21.98,1.07-37.71,11.4-45.95,32.43
			c-8.19,20.92,1.33,49.5,20.37,60.12C1050.65,1143.66,1079.2,1137.66,1094.69,1115.17z"/>
		<path d="M735.5,1110.49c-20.83,42.68-73.56,50.11-102.27,13.82c-22.85-28.89-14.02-78.99,27.96-93.42
			c32.08-11.03,66.25,6.15,76.41,39.91C741.44,1083.55,741.33,1096.98,735.5,1110.49z M705.3,1045.3
			c-15.51-9.84-32.62-10.52-48.24-3.16c-29.71,14.01-35.99,51.85-18.11,74.76c11.27,14.43,32.89,24.29,48.99,20.11
			c22.52-5.85,36.57-19.99,40.97-43.18C732.16,1076.76,722.66,1056.4,705.3,1045.3z"/>
	</g>
</g>
</svg>
