<?xml version="1.0" encoding="utf-8"?>
<!-- Generator: Adobe Adobe Illustrator 24.2.0, SVG Export Plug-In . SVG Version: 6.00 Build 0)  -->
<svg version="1.1" xmlns="http://www.w3.org/2000/svg" xmlns:xlink="http://www.w3.org/1999/xlink" x="0px" y="0px" width="1728px"
	 height="1728px" viewBox="0 0 1728 1728" style="enable-background:new 0 0 1728 1728;" xml:space="preserve">
<style type="text/css">
	.st0{fill:#FFFFFF;}
</style>
<g id="Layer_1">
	<g>
		<path class="st0" d="M453.13,1330.95c8.17-28.39,14.61-56.45,27.67-82.22c13.25-26.13,27.54-51.65,44.39-75.7
			c15-21.4,30.14-42.62,48.13-61.74c16.47-17.5,34.78-33,52.02-49.66c18.68-18.05,30.51-40.38,41.3-63.5
			c9.53-20.42,20.1-40.45,26.23-62.21c6.58-23.37,14.71-46.39,12.96-71.55c-1.02-14.57,2.33-29.25,2.29-44.05
			c-0.02-9.84-3.5-16.17-11.01-21.72c-15.8-11.68-31.13-24.22-42.09-40.68c-22.97-34.5-42.49-71.09-49.93-112.15
			c-5.48-30.24-6.94-60.86-1.99-92.08c8.27-52.12,28.91-97.68,63.12-137.44c28.05-32.6,62.29-57.2,102.35-71.89
			c48.45-17.77,98.18-25.17,150.02-12.7c39.25,9.44,75.79,23.77,108.17,47.74c26.1,19.33,48.07,42.67,65.28,70.54
			c10.78,17.46,19.67,35.58,26.61,54.86c13.52,37.58,15.33,76.21,12.68,115.62c-1.96,29.14-10.6,56.1-22.31,82.42
			c-15.4,34.61-37.62,64.16-66.28,88.78c-6.22,5.34-11.61,11.71-19.03,15.74c-2.97,1.61-3.79,5.22-3.57,8.59
			c2.15,33.15,0.28,66.31,8.98,99.31c10.71,40.65,29.22,77.48,48.2,114.27c9.47,18.35,24.7,32.51,40.13,46.05
			c31.3,27.47,58.61,58.27,82.16,92.77c17.95,26.3,34.24,53.4,47.97,82.05c15.9,33.16,25.37,68.34,31.66,104.45
			c1.79,10.25,4.12,20.4,5.79,30.66c2.22,13.65-0.59,16.98-14.43,16.99c-55.79,0.07-111.57,0-167.36,0
			c-212.7,0.01-425.4,0.04-638.09,0.06c-3.24,0-6.48,0.07-9.72-0.03c-11.09-0.35-14.11-3.54-12.88-14.7
			c0.82-7.47,2.4-14.87,3.79-22.28C448.45,1354.27,450.69,1343.04,453.13,1330.95z"/>
		<path d="M825,670.44c-7.01,24.13-14.02,48.26-21.07,72.51c13.84,2.83,111.76,2.02,118.7-0.64c-0.67-7.04-2.21-13.85-4.41-20.74
			c-7.26-22.8-13.68-45.87-20.65-68.76c-5.94-19.5-11.67-39.09-18.48-58.29c-5.14-14.51-5.76-14.09,7.93-20.38
			c24.48-11.27,32.13-40.96,22.88-63.32c-8.52-20.6-25.32-29.86-51.09-29.2c-25.04,0.63-42.93,26.68-43.79,45.19
			c-0.99,21.42,10.21,39.08,30.65,48.27c4.28,1.92,9.18,3.41,6.64,9.98C841.73,612.43,835.15,641.1,825,670.44z"/>
	</g>
</g>
<g id="Layer_2">
	<g>
		<path d="M453.13,1330.95c8.17-28.39,14.61-56.45,27.67-82.22c13.25-26.13,27.54-51.65,44.39-75.7c15-21.4,30.14-42.62,48.13-61.74
			c16.47-17.5,34.78-33,52.02-49.66c18.68-18.05,30.51-40.38,41.3-63.5c9.53-20.42,20.1-40.45,26.23-62.21
			c6.58-23.37,14.71-46.39,12.96-71.55c-1.02-14.57,2.33-29.25,2.29-44.05c-0.02-9.84-3.5-16.17-11.01-21.72
			c-15.8-11.68-31.13-24.22-42.09-40.68c-22.97-34.5-42.49-71.09-49.93-112.15c-5.48-30.24-6.94-60.86-1.99-92.08
			c8.27-52.12,28.91-97.68,63.12-137.44c28.05-32.6,62.29-57.2,102.35-71.89c48.45-17.77,98.18-25.17,150.02-12.7
			c39.25,9.44,75.79,23.77,108.17,47.74c26.1,19.33,48.07,42.67,65.28,70.54c10.78,17.46,19.67,35.58,26.61,54.86
			c13.52,37.58,15.33,76.21,12.68,115.62c-1.96,29.14-10.6,56.1-22.31,82.42c-15.4,34.61-37.62,64.16-66.28,88.78
			c-6.22,5.34-11.61,11.71-19.03,15.74c-2.97,1.61-3.79,5.22-3.57,8.59c2.15,33.15,0.28,66.31,8.98,99.31
			c10.71,40.65,29.22,77.48,48.2,114.27c9.47,18.35,24.7,32.51,40.13,46.05c31.3,27.47,58.61,58.27,82.16,92.77
			c17.95,26.3,34.24,53.4,47.97,82.05c15.9,33.16,25.37,68.34,31.66,104.45c1.79,10.25,4.12,20.4,5.79,30.66
			c2.22,13.65-0.59,16.98-14.43,16.99c-55.79,0.07-111.57,0-167.36,0c-212.7,0.01-425.4,0.04-638.09,0.06
			c-3.24,0-6.48,0.07-9.72-0.03c-11.09-0.35-14.11-3.54-12.88-14.7c0.82-7.47,2.4-14.87,3.79-22.28
			C448.45,1354.27,450.69,1343.04,453.13,1330.95z M719.51,854.02c-0.53,3.56-1.15,7.1-1.56,10.67
			c-3.28,28.5-7.55,56.57-18.25,83.68c-7.49,18.96-15.32,37.8-24.22,56c-11.76,24.05-25.2,47.51-44.67,66.48
			c-13.81,13.45-29.43,25.15-42.47,39.27c-26.74,28.94-50.58,60.16-71.33,93.87c-15.85,25.74-28.89,52.74-40.28,80.49
			c-12.18,29.67-16.51,61.41-20.13,93.11c-1.57,13.69-0.32,14.96,13.27,14.96c141.02-0.02,282.05-0.06,423.07-0.07
			c120.93,0,241.86,0.04,362.79,0.07c2.52,0,5.05-0.15,7.56,0c6.05,0.38,8.7-2.44,8.13-8.38c-0.65-6.78-1.72-13.54-1.98-20.34
			c-1.36-35.4-13.39-67.98-26.97-100c-11.76-27.73-26.6-53.89-43.67-78.76c-20.9-30.45-42.71-60.05-70.21-85.13
			c-13.4-12.22-27.53-23.7-39.33-37.72c-20.06-23.83-32.67-51.81-46.53-79.26c-26.19-51.85-33.69-107.57-37.02-164.46
			c-0.6-10.3,2.82-16.7,11.3-22.17c20.1-12.96,36.79-29.97,50.94-48.95c25.35-34,42.02-71.85,49.41-114.08
			c6.54-37.34,3.59-73.76-5.95-109.85c-7.36-27.87-20.18-53.39-36.38-77.34c-17.32-25.61-39.02-46.97-64.11-64.38
			c-28.71-19.92-60.67-32.51-95.15-40.33c-47.49-10.78-92.93-3.95-137.47,11.47c-27.79,9.62-52.89,25.02-75.41,44.6
			c-39.7,34.51-67.2,76.05-81.21,127.23c-13.21,48.26-12.55,95.87,2.29,143.04c16.48,52.38,47.26,95.36,91.63,128
			c5.32,3.91,6.42,7.65,6.6,13.28C722.65,823.47,721.05,837.75,719.51,854.02z"/>
		<path d="M839.58,589.44c0.51-3.77-1.52-5.53-3.82-6.49c-32.91-13.78-41.14-60.91-22.3-87.21c12.47-17.4,29.47-26.09,50.49-26.05
			c22.04,0.04,38.33,10.09,51.03,28.65c17.87,26.13,5.31,71.9-19.75,84.16c-5.53,2.7-6.68,6.45-4.69,13.1
			c11.45,38.33,22.02,76.92,33.13,115.36c3.27,11.31,7.12,22.47,11.1,33.55c2.44,6.81,1.81,11.57-6.53,11.75
			c-42.81,0.93-85.62,0.98-128.43-0.07c-2.37-0.06-4.72-1.43-8.54-2.67C807.39,698.84,823.4,644.49,839.58,589.44z M825,670.44
			c-7.01,24.13-14.02,48.26-21.07,72.51c13.84,2.83,111.76,2.02,118.7-0.64c-0.67-7.04-2.21-13.85-4.41-20.74
			c-7.26-22.8-13.68-45.87-20.65-68.76c-5.94-19.5-11.67-39.09-18.48-58.29c-5.14-14.51-5.76-14.09,7.93-20.38
			c24.48-11.27,32.13-40.96,22.88-63.32c-8.52-20.6-25.32-29.86-51.09-29.2c-25.04,0.63-42.93,26.68-43.79,45.19
			c-0.99,21.42,10.21,39.08,30.65,48.27c4.28,1.92,9.18,3.41,6.64,9.98C841.73,612.43,835.15,641.1,825,670.44z"/>
	</g>
</g>
</svg>
