<?xml version="1.0" encoding="UTF-8" standalone="no"?>
<svg
   height="36.693195"
   width="40"
   version="1.1"
   id="svg20"
   sodipodi:docname="Q.svg"
   inkscape:version="1.1.2 (0a00cf5339, 2022-02-04, custom)"
   xmlns:inkscape="http://www.inkscape.org/namespaces/inkscape"
   xmlns:sodipodi="http://sodipodi.sourceforge.net/DTD/sodipodi-0.dtd"
   xmlns="http://www.w3.org/2000/svg"
   xmlns:svg="http://www.w3.org/2000/svg">
  <defs
     id="defs24" />
  <sodipodi:namedview
     id="namedview22"
     pagecolor="#ffffff"
     bordercolor="#666666"
     borderopacity="1.0"
     inkscape:pageshadow="2"
     inkscape:pageopacity="0.0"
     inkscape:pagecheckerboard="0"
     showgrid="false"
     inkscape:zoom="13.955556"
     inkscape:cx="19.992038"
     inkscape:cy="17.949841"
     inkscape:window-width="1920"
     inkscape:window-height="1007"
     inkscape:window-x="0"
     inkscape:window-y="0"
     inkscape:window-maximized="1"
     inkscape:current-layer="svg20" />
  <g
     style="fill:#888888;fill-rule:evenodd;stroke:#888888;stroke-width:1.5;stroke-linecap:round;stroke-linejoin:round"
     id="g18"
     transform="translate(-2.5,-4.5)">
    <circle
       cx="6"
       cy="12"
       r="2.75"
       id="circle2" />
    <circle
       cx="14"
       cy="9"
       r="2.75"
       id="circle4" />
    <circle
       cx="22.5"
       cy="8"
       r="2.75"
       id="circle6" />
    <circle
       cx="31"
       cy="9"
       r="2.75"
       id="circle8" />
    <circle
       cx="39"
       cy="12"
       r="2.75"
       id="circle10" />
    <path
       d="m 9,26 c 8.5,-1.5 21,-1.5 27,0 L 38.5,13.5 31,25 30.7,10.9 25.5,24.5 22.5,10 19.5,24.5 14.3,10.9 14,25 6.5,13.5 Z"
       id="path12" />
    <path
       d="m 9,26 c 0,2 1.5,2 2.5,4 1,1.5 1,1 0.5,3.5 -1.5,1 -1.5,2.5 -1.5,2.5 -1.5,1.5 0.5,2.5 0.5,2.5 6.5,1 16.5,1 23,0 0,0 1.5,-1 0,-2.5 0,0 0.5,-1.5 -1,-2.5 -0.5,-2.5 -0.5,-2 0.5,-3.5 1,-2 2.5,-2 2.5,-4 -8.5,-1.5 -18.5,-1.5 -27,0 z"
       id="path14" />
    <path
       d="m 11,38.5 a 35,35 1 0 0 23,0"
       fill="none"
       id="path16" />
  </g>
</svg>
