<svg xmlns="http://www.w3.org/2000/svg" viewBox="0 0 750 750"><defs><style>.cls-1,.cls-12,.cls-13,.cls-2,.cls-3,.cls-9{fill:none;}.cls-12,.cls-2,.cls-7,.cls-8,.cls-9{stroke:#231f20;}.cls-12,.cls-13,.cls-2,.cls-3,.cls-7,.cls-8,.cls-9{stroke-miterlimit:10;}.cls-13,.cls-3{stroke:#000;}.cls-4{fill:#f9e4b7;}.cls-5{fill:#fee165;}.cls-6{fill:#e6cb9e;}.cls-7{fill:#fff;}.cls-8{fill:#231f20;}.cls-9{stroke-width:2px;}.cls-10{fill:#ed1c24;}.cls-11{fill:#f7d751;}.cls-12,.cls-13{stroke-width:7px;}</style></defs><g id="Transparent_background" data-name="Transparent background"><rect class="cls-1" x="-798.8" y="-16" width="800" height="780.8"/><rect class="cls-1" x="-798.8" y="-16" width="800" height="780.8"/><rect class="cls-1" x="-798.8" y="-16" width="800" height="780.8"/><rect class="cls-1" x="-798.8" y="-16" width="800" height="780.8"/><rect class="cls-1" x="-798.8" y="-16" width="800" height="780.8"/><rect class="cls-1" x="-28.8" y="-16" width="800" height="780.8"/></g><g id="Piece_colouring" data-name="Piece colouring"><path class="cls-2" d="M522.7998,536.8C453.2002,528.8,375,529.6,375,529.6s-78.2002-.8-147.8,7.2S172,650.4,172,650.4l203-.8,203,.8S592.3999,544.8,522.7998,536.8Z"/><polyline class="cls-1" points="578 529.6 578 649.6 375 650.4"/><polygon class="cls-3" points="458 194.4 416.5 194.4 423.6 242.4 326.4 242.4 333.5 194.4 292 194.4 292 124.8 339.2 124.8 339.2 74.2 410.8 74.2 410.8 124.8 458 124.8 458 194.4"/><path class="cls-3" d="M228.41,536.66c-16.95-18.83-49.28-54.08-82.81-87.06-48.8-48-38.4-104.8-38.4-104.8C124,153.6,326.4,242.4,326.4,242.4"/><path class="cls-3" d="M423.6,242.4S626,153.6,642.8,344.8c0,0,10.4,56.8-38.4,104.8-33.53,32.98-65.86,68.23-82.81,87.06"/><path class="cls-4" d="M578,650.4l-203-.8-203,.8s-14.3999-105.6,55.2-113.6c.40015-.05.81006-.09,1.21-.14C297.7002,528.81,375,529.6,375,529.6s38.8501-.4,86.1499,2.17q1.125.06006,2.25.12h.01026c18.77,1.05,38.79,2.58,58.17968,4.77.40039.05.81006.09,1.21.14,13.93018,1.6,24.5,7.12,32.49024,14.91C587.21,582.85,578,650.4,578,650.4Z"/><polyline class="cls-1" points="578 529.6 578 649.6 375 650.4"/><polygon class="cls-5" points="458 124.8 458 194.4 416.5 194.4 423.6 242.4 326.4 242.4 333.5 194.4 292 194.4 292 124.8 339.2 124.8 339.2 74.2 410.8 74.2 410.8 124.8 458 124.8"/><path d="M643.7002,360.9S635.16992,349.82,619.29,336.09c-3.04981-2.64-6.37012-5.37-9.96-8.14C565.43994,294.01,482.12988,254.41,375,319.2c-161.3999-97.6-268.69995,41.7-268.69995,41.7a88.14084,88.14084,0,0,1,.8999-16.1c16.80005-191.2,219.2-102.4,219.2-102.4h97.2002s105.6001-46.32995,170.58008,0q2.20458,1.57507,4.33984,3.28v.01c22.81982,18.3,39.89014,49.14,44.27978,99.11A88.13473,88.13473,0,0,1,643.7002,360.9Z"/><path class="cls-6" d="M643.7002,360.9c-.46,20.30005-6.54,56.48-39.3003,88.7-33.52978,32.98-65.85986,68.23-82.81006,87.06-19.38964-2.19-39.40966-3.72-58.17968-4.77,15.77978-8.86,39.96-23.21,76.98974-46.29,57.39014-35.76,70.03028-102.15,68.93018-157.65,3.58984,2.77,6.91015,5.5,9.96,8.14C635.16992,349.82,643.7002,360.9,643.7002,360.9Z"/><path class="cls-4" d="M540.3999,485.6c-37.02978,23.08-61.21,37.43-76.98974,46.29h-.01026q-1.125-.06-2.25-.12C413.8501,529.2,375,529.6,375,529.6s-77.2998-.79-146.59009,7.06c-16.94995-18.83-49.28-54.08-82.80981-87.06-32.76-32.22-38.84009-68.4-39.3-88.7,0,0,107.30005-139.3,268.7-41.69995,107.12988-64.79,190.43994-25.19,234.33008,8.75C610.43018,383.45,597.79,449.84,540.3999,485.6Z"/><ellipse class="cls-7" cx="244.8" cy="379.23356" rx="33.2" ry="40.4"/><circle class="cls-8" cx="244.8" cy="385.4" r="11"/><ellipse class="cls-7" cx="500.46442" cy="380.4" rx="33.2" ry="40.4"/><circle class="cls-8" cx="500.46442" cy="386.56644" r="11"/><path class="cls-2" d="M211.6,328.8s27.2-17.6,66.4-4.8"/><path class="cls-2" d="M544.66442,328.8s-27.2-17.6-66.4-4.8"/><polyline class="cls-9" points="375 375.566 344.4 433.6 382.8 448.78"/><path class="cls-9" d="M316.2,485.6s51.2,42.4,117.6,0"/><path class="cls-3" d="M423.6,242.4S626,153.6,642.8,344.8a88.13069,88.13069,0,0,1,.9,16.1"/><path class="cls-10" d="M423.6001,242.4H326.3999a18.61328,18.61328,0,0,0,4.8877,4.61658l-.01074.00031S335.6001,257.6,336.6665,266.1333c1.0669,8.53333.5337,30.93335,2.667,27.73334s5.8667-12.26666,5.0664-14.4c-.7998-2.13336-1.64551-19.07989.11084-18.0733,1.75586,1.00659,7.08936-2.0733,9.75586,0,2.667,2.0733,4.79981,9.00659,6.3999,4.73993s-2.6665-8,2.9336-9.6c5.6001-1.6,4.186-1.06666,11.3999-.53333s9.1333.65344,12.3335,5.39337c3.1997,4.73993,5.8667,15.80054,8,9.20355,1.35058-4.17706-.59278-7.39813-.21045-9.47754a16.67443,16.67443,0,0,0,4.09814-2.42761c7.84522-1.09179,9.44531,1.04157,12.64551-1.62512,3.19971-2.66669,4.2666-10.0498,4.2666-10.0498l2.28858-2.39722C421.17383,243.411,423.6001,242.4,423.6001,242.4Z"/><path class="cls-1" d="M433.8,545.6l2.11.06C433.46,546.38,433.8,545.6,433.8,545.6Z"/><polygon class="cls-11" points="458 124.8 458 194.4 423.6 194.4 382.8 74.2 410.8 74.2 410.8 124.8 458 124.8"/></g><g id="Piece_outline" data-name="Piece outline"><path class="cls-12" d="M522.7998,536.8C453.2002,528.8,375,529.6,375,529.6s-78.2002-.8-147.8,7.2S172,650.4,172,650.4l203-.8,203,.8S592.3999,544.8,522.7998,536.8Z"/><polyline class="cls-1" points="578 529.6 578 649.6 375 650.4"/><polygon class="cls-13" points="458 194.4 416.5 194.4 423.6 242.4 326.4 242.4 333.5 194.4 292 194.4 292 124.8 339.2 124.8 339.2 74.2 410.8 74.2 410.8 124.8 458 124.8 458 194.4"/><path class="cls-13" d="M228.41,536.66c-16.95-18.83-49.28-54.08-82.81-87.06-48.8-48-38.4-104.8-38.4-104.8C124,153.6,326.4,242.4,326.4,242.4"/><path class="cls-13" d="M423.6,242.4S626,153.6,642.8,344.8c0,0,10.4,56.8-38.4,104.8-33.53,32.98-65.86,68.23-82.81,87.06"/><path class="cls-12" d="M522.7998,536.8C453.2002,528.8,375,529.6,375,529.6s-78.2002-.8-147.8,7.2S172,650.4,172,650.4l203-.8,203,.8S592.3999,544.8,522.7998,536.8Z"/><polyline class="cls-1" points="578 529.6 578 649.6 375 650.4"/><polygon class="cls-13" points="458 194.4 416.5 194.4 423.6 242.4 326.4 242.4 333.5 194.4 292 194.4 292 124.8 339.2 124.8 339.2 74.2 410.8 74.2 410.8 124.8 458 124.8 458 194.4"/><path class="cls-13" d="M228.41,536.66c-16.95-18.83-49.28-54.08-82.81-87.06-48.8-48-38.4-104.8-38.4-104.8C124,153.6,326.4,242.4,326.4,242.4"/><path class="cls-13" d="M423.6,242.4S626,153.6,642.8,344.8c0,0,10.4,56.8-38.4,104.8-33.53,32.98-65.86,68.23-82.81,87.06"/></g></svg>